#N canvas 40 125 1395 770 10;
#X obj 340 24 bng 15 250 50 0 empty empty empty 17 7 0 10 -262144 -1
-1;
#X obj 193 279 bng 15 250 50 0 empty empty empty 17 7 0 10 -262144
-1 -1;
#X obj 213 279 bng 15 250 50 0 empty empty empty 17 7 0 10 -262144
-1 -1;
#X obj 234 279 bng 15 250 50 0 empty empty empty 17 7 0 10 -262144
-1 -1;
#X obj 254 279 bng 15 250 50 0 empty empty empty 17 7 0 10 -262144
-1 -1;
#X obj 273 279 bng 15 250 50 0 empty empty empty 17 7 0 10 -262144
-1 -1;
#X msg 324 248 stop;
#X msg 230 313 64;
#X msg 299 313 0;
#X obj 287 71 metro 800;
#X obj 193 248 route 0 1 2 3 4;
#X obj 289 106 count 5;
#N canvas 609 262 656 571 bells 0;
#X obj 253 49 inlet;
#X obj 303 48 inlet;
#X obj 217 120 osc~;
#X obj 537 244 bng 15 250 50 0 empty empty empty 17 7 0 10 -262144
-1 -1;
#X obj 275 284 phasor~;
#X obj 400 392 *~;
#X obj 455 355 adsr 0 0 0 0 0 0;
#X obj 401 368 vcf~;
#X obj 273 214 +;
#X obj 208 194 bang;
#X obj 212 167 unsig~ 50;
#X obj 387 295 mtof;
#X obj 388 317 sig~;
#X obj 331 158 mtof;
#X obj 94 282 phasor~;
#X obj 94 246 +;
#X obj 150 156 mtof;
#X msg 142 245 0;
#X msg 316 251 0.5;
#X obj 164 340 cos~;
#X obj 161 377 *~;
#X obj 278 314 cos~;
#X obj 275 351 *~;
#X msg 564 311 0;
#X obj 301 416 *~;
#X msg 213 93 3;
#X obj 27 281 phasor~;
#X obj 85 394 cos~;
#X obj 82 431 *~;
#X obj 85 166 mtof;
#X msg 63 235 0.25;
#X obj 152 130 - 17;
#X obj 88 140 - 7;
#X obj 328 127 + 36;
#X msg 532 313 1100;
#X msg 597 311 2500;
#X obj 475 64 loadbang;
#X obj 392 455 dac~;
#X msg 420 347 20;
#X msg 356 274 110;
#X msg 502 312 20;
#X msg 465 312 0.7;
#X connect 0 0 33 0;
#X connect 1 0 6 0;
#X connect 2 0 10 0;
#X connect 3 0 41 0;
#X connect 3 0 40 0;
#X connect 3 0 34 0;
#X connect 3 0 23 0;
#X connect 3 0 35 0;
#X connect 4 0 21 0;
#X connect 5 0 37 0;
#X connect 5 0 37 1;
#X connect 6 0 5 1;
#X connect 7 0 5 0;
#X connect 8 0 4 0;
#X connect 9 0 8 0;
#X connect 9 0 39 0;
#X connect 9 0 15 0;
#X connect 10 0 8 1;
#X connect 10 0 9 0;
#X connect 10 0 15 1;
#X connect 11 0 12 0;
#X connect 12 0 7 1;
#X connect 13 0 6 0;
#X connect 13 0 8 0;
#X connect 13 0 38 0;
#X connect 13 0 18 0;
#X connect 14 0 19 0;
#X connect 15 0 14 0;
#X connect 16 0 15 0;
#X connect 16 0 17 0;
#X connect 17 0 14 1;
#X connect 18 0 4 1;
#X connect 19 0 20 0;
#X connect 19 0 20 1;
#X connect 20 0 7 0;
#X connect 21 0 22 0;
#X connect 21 0 22 1;
#X connect 22 0 7 0;
#X connect 22 0 24 0;
#X connect 22 0 24 1;
#X connect 23 0 6 4;
#X connect 24 0 7 0;
#X connect 25 0 2 0;
#X connect 26 0 27 0;
#X connect 27 0 28 0;
#X connect 27 0 28 1;
#X connect 28 0 7 0;
#X connect 29 0 26 0;
#X connect 29 0 30 0;
#X connect 30 0 26 1;
#X connect 31 0 16 0;
#X connect 32 0 29 0;
#X connect 33 0 25 0;
#X connect 33 0 13 0;
#X connect 33 0 31 0;
#X connect 33 0 32 0;
#X connect 34 0 6 3;
#X connect 35 0 6 5;
#X connect 36 0 3 0;
#X connect 38 0 7 2;
#X connect 39 0 11 0;
#X connect 40 0 6 2;
#X connect 41 0 6 1;
#X restore 598 606 pd bells;
#X obj 199 359 f;
#X obj 397 279 bng 15 250 50 0 empty empty empty 17 7 0 10 -262144
-1 -1;
#X obj 417 279 bng 15 250 50 0 empty empty empty 17 7 0 10 -262144
-1 -1;
#X obj 438 279 bng 15 250 50 0 empty empty empty 17 7 0 10 -262144
-1 -1;
#X obj 458 279 bng 15 250 50 0 empty empty empty 17 7 0 10 -262144
-1 -1;
#X obj 477 279 bng 15 250 50 0 empty empty empty 17 7 0 10 -262144
-1 -1;
#X msg 528 248 stop;
#X msg 505 313 0;
#X obj 397 248 route 0 1 2 3 4;
#X obj 403 359 f;
#X obj 244 156 pack f f;
#X msg 105 105 set \$1;
#X obj 142 76 hradio 15 1 0 5 empty empty empty 0 -8 0 10 -262144 -1
-1 2;
#X msg 147 139 2;
#X msg 162 313 68;
#X msg 194 313 66;
#X msg 262 313 59;
#X msg 366 313 64;
#X msg 434 313 66;
#X msg 398 313 68;
#X msg 470 313 59;
#X obj 599 279 bng 15 250 50 0 empty empty empty 17 7 0 10 -262144
-1 -1;
#X obj 619 279 bng 15 250 50 0 empty empty empty 17 7 0 10 -262144
-1 -1;
#X obj 640 279 bng 15 250 50 0 empty empty empty 17 7 0 10 -262144
-1 -1;
#X obj 660 279 bng 15 250 50 0 empty empty empty 17 7 0 10 -262144
-1 -1;
#X obj 679 279 bng 15 250 50 0 empty empty empty 17 7 0 10 -262144
-1 -1;
#X msg 730 248 stop;
#X msg 711 313 0;
#X obj 599 248 route 0 1 2 3 4;
#X obj 605 359 f;
#X msg 568 313 64;
#X obj 814 279 bng 15 250 50 0 empty empty empty 17 7 0 10 -262144
-1 -1;
#X obj 834 279 bng 15 250 50 0 empty empty empty 17 7 0 10 -262144
-1 -1;
#X obj 855 279 bng 15 250 50 0 empty empty empty 17 7 0 10 -262144
-1 -1;
#X obj 875 279 bng 15 250 50 0 empty empty empty 17 7 0 10 -262144
-1 -1;
#X obj 894 279 bng 15 250 50 0 empty empty empty 17 7 0 10 -262144
-1 -1;
#X msg 945 248 stop;
#X msg 921 313 0;
#X obj 814 248 route 0 1 2 3 4;
#X obj 813 359 f;
#X msg 851 313 66;
#X msg 887 313 59;
#X obj 1017 279 bng 15 250 50 0 empty empty empty 17 7 0 10 -262144
-1 -1;
#X obj 1037 279 bng 15 250 50 0 empty empty empty 17 7 0 10 -262144
-1 -1;
#X obj 1058 279 bng 15 250 50 0 empty empty empty 17 7 0 10 -262144
-1 -1;
#X obj 1078 279 bng 15 250 50 0 empty empty empty 17 7 0 10 -262144
-1 -1;
#X obj 1097 279 bng 15 250 50 0 empty empty empty 17 7 0 10 -262144
-1 -1;
#X msg 1148 248 stop;
#X msg 1128 313 0;
#X obj 1017 248 route 0 1 2 3 4;
#X obj 1023 359 f;
#X msg 600 313 66;
#X msg 636 313 68;
#X msg 672 313 64;
#X msg 783 313 68;
#X msg 815 313 64;
#X msg 986 313 59;
#X msg 1018 313 66;
#X msg 1054 313 68;
#X msg 1090 313 64;
#X text 120 38 third quarter = 3 + 4 + 0;
#X text 121 22 half hour = 1 + 2;
#X text 121 7 first quarter = 0;
#X text 121 53 hour = 1 + 2 + 3 + 4;
#X text 121 -5 Westminster Chimes;
#X obj 288 -8 inlet;
#X obj 284 22 t f b;
#X obj 572 41 route 0 1 2 3 4 5;
#X obj 1025 20 inlet;
#X obj 1194 24 inlet;
#X msg 1025 50 48;
#X msg 1192 56 0;
#X obj 61 120 bang;
#X connect 0 0 9 0;
#X connect 1 0 27 0;
#X connect 2 0 28 0;
#X connect 3 0 7 0;
#X connect 4 0 29 0;
#X connect 5 0 8 0;
#X connect 5 0 6 0;
#X connect 6 0 9 0;
#X connect 7 0 13 0;
#X connect 8 0 12 1;
#X connect 9 0 11 0;
#X connect 10 0 1 0;
#X connect 10 1 2 0;
#X connect 10 2 3 0;
#X connect 10 3 4 0;
#X connect 10 4 5 0;
#X connect 11 0 23 1;
#X connect 11 0 26 0;
#X connect 13 0 12 0;
#X connect 14 0 30 0;
#X connect 15 0 32 0;
#X connect 16 0 31 0;
#X connect 17 0 33 0;
#X connect 18 0 20 0;
#X connect 18 0 19 0;
#X connect 19 0 9 0;
#X connect 20 0 12 1;
#X connect 21 0 14 0;
#X connect 21 1 15 0;
#X connect 21 2 16 0;
#X connect 21 3 17 0;
#X connect 21 4 18 0;
#X connect 22 0 12 0;
#X connect 23 0 80 0;
#X connect 24 0 26 0;
#X connect 24 0 85 0;
#X connect 25 0 24 0;
#X connect 26 0 23 0;
#X connect 27 0 13 0;
#X connect 28 0 13 0;
#X connect 29 0 13 0;
#X connect 30 0 22 0;
#X connect 31 0 22 0;
#X connect 32 0 22 0;
#X connect 33 0 22 0;
#X connect 34 0 43 0;
#X connect 35 0 64 0;
#X connect 36 0 65 0;
#X connect 37 0 66 0;
#X connect 38 0 40 0;
#X connect 38 0 39 0;
#X connect 39 0 9 0;
#X connect 40 0 12 1;
#X connect 41 0 34 0;
#X connect 41 1 35 0;
#X connect 41 2 36 0;
#X connect 41 3 37 0;
#X connect 41 4 38 0;
#X connect 42 0 12 0;
#X connect 43 0 42 0;
#X connect 44 0 67 0;
#X connect 45 0 68 0;
#X connect 46 0 53 0;
#X connect 47 0 54 0;
#X connect 48 0 50 0;
#X connect 48 0 49 0;
#X connect 49 0 9 0;
#X connect 50 0 12 1;
#X connect 51 0 44 0;
#X connect 51 1 45 0;
#X connect 51 2 46 0;
#X connect 51 3 47 0;
#X connect 51 4 48 0;
#X connect 52 0 12 0;
#X connect 53 0 52 0;
#X connect 54 0 52 0;
#X connect 55 0 69 0;
#X connect 56 0 70 0;
#X connect 57 0 71 0;
#X connect 58 0 72 0;
#X connect 59 0 61 0;
#X connect 59 0 60 0;
#X connect 60 0 9 0;
#X connect 61 0 12 1;
#X connect 62 0 55 0;
#X connect 62 1 56 0;
#X connect 62 2 57 0;
#X connect 62 3 58 0;
#X connect 62 4 59 0;
#X connect 63 0 12 0;
#X connect 64 0 42 0;
#X connect 65 0 42 0;
#X connect 66 0 42 0;
#X connect 67 0 52 0;
#X connect 68 0 52 0;
#X connect 69 0 63 0;
#X connect 70 0 63 0;
#X connect 71 0 63 0;
#X connect 72 0 63 0;
#X connect 78 0 79 0;
#X connect 79 0 25 0;
#X connect 79 1 0 0;
#X connect 80 0 10 0;
#X connect 80 1 21 0;
#X connect 80 2 41 0;
#X connect 80 3 51 0;
#X connect 80 4 62 0;
#X connect 81 0 83 0;
#X connect 82 0 84 0;
#X connect 83 0 12 0;
#X connect 84 0 12 1;
#X connect 85 0 26 0;
