#N canvas 0 25 1366 694 10;
#X obj 1789 306 image @pd_extra/ggee/empty_image.png 0;
#X msg 1446 70 click \$1;
#X msg 1443 38 1;
#X obj 1442 7 loadbang;
#X text 1660 352 Audio Output;
#N canvas 0 24 1366 695 statesave 0;
#X obj 210 -23 r \$0-mastervolume;
#X obj 211 46 r \$0-mastervolume_two;
#X obj 257 114 r \$0-mastervolume_three;
#X obj 249 185 r \$0-mastervolume_four;
#X text 386 177 Volume Levels;
#X obj 254 247 r \$0-mastervolume_five;
#X obj 293 311 r \$0-mastervolume_six;
#X obj 272 380 r \$0-mastervolume_seven;
#X obj 244 447 r \$0-mastervolume_eight;
#X obj 88 32 s \$0-mastervolume_r;
#X obj 89 101 s \$0-mastervolume_two_r;
#X obj 91 166 s \$0-mastervolume_three_r;
#X obj 92 235 s \$0-mastervolume_four_r;
#X obj 92 297 s \$0-mastervolume_five_r;
#X obj 93 364 s \$0-mastervolume_six_r;
#X obj 94 430 s \$0-mastervolume_seven_r;
#X obj 96 500 s \$0-mastervolume_eight_r;
#X obj 87 1 sssad \$1/akey;
#X obj 88 70 sssad \$1/skey;
#X obj 90 135 sssad \$1/dkey;
#X obj 91 204 sssad \$1/fkey;
#X obj 91 266 sssad \$1/gkey;
#X obj 92 335 sssad \$1/hkey;
#X obj 94 400 sssad \$1/jkey;
#X obj 95 469 sssad \$1/kkey;
#X obj 629 11 sssad \$1/keyboardonoff;
#X obj 758 -16 r \$0-onoff;
#X obj 629 46 s \$0-off;
#X connect 0 0 17 1;
#X connect 1 0 18 1;
#X connect 2 0 19 1;
#X connect 3 0 20 1;
#X connect 5 0 21 1;
#X connect 6 0 22 1;
#X connect 7 0 23 1;
#X connect 8 0 24 1;
#X connect 17 0 9 0;
#X connect 18 0 10 0;
#X connect 19 0 11 0;
#X connect 20 0 12 0;
#X connect 21 0 13 0;
#X connect 22 0 14 0;
#X connect 23 0 15 0;
#X connect 24 0 16 0;
#X connect 25 0 27 0;
#X connect 26 0 25 1;
#X restore 1244 482 pd statesave;
#X obj 2197 360 alternate;
#X obj 2154 98 loadbang;
#X obj 2154 126 f \$0;
#X msg 2073 449 \; \$1 vis 1;
#X obj 2073 395 f;
#X obj 2266 395 f;
#X msg 2267 449 \; \$1 vis 0;
#N canvas 273 263 460 227 \$0-compk 0;
#X obj 321 -38 cnv 15 450 214 empty empty empty 20 12 0 14 -191407
-66577 0;
#X obj 477 1 bng 15 50 50 0 \$0-a empty A 3 8 0 15 -45076 -257985 -257985
;
#X obj 493 1 bng 15 50 50 0 \$0-s empty S 3 8 0 15 -45076 -257985 -257985
;
#X obj 509 1 bng 15 50 50 0 \$0-d empty D 3 8 0 15 -45076 -257985 -257985
;
#X obj 525 1 bng 15 50 50 0 \$0-f empty F 3 8 0 15 -45076 -257985 -257985
;
#X obj 541 1 bng 15 50 50 0 \$0-g empty G 3 8 0 15 -45076 -257985 -257985
;
#X obj 557 1 bng 15 50 50 0 \$0-h empty H 3 8 0 15 -45076 -257985 -257985
;
#X obj 573 1 bng 15 50 50 0 \$0-j empty J 3 8 0 15 -45076 -257985 -257985
;
#X obj 589 1 bng 15 50 50 0 \$0-k empty K 3 8 0 15 -45076 -257985 -257985
;
#X obj 520 -18 hradio 15 1 0 2 \$0-onoff \$0-off empty 0 -8 0 10 -262144
-1 -1 0;
#X text 498 -19 Off;
#X text 552 -19 On;
#X obj 1148 -10 loadbang;
#X msg 1148 17 0;
#X obj 1148 45 s \$0-off;
#X obj 330 145 bng 10 250 50 0 \$0-loadsample empty empty 17 7 0 10
-4032 -1 -1;
#X text 340 143 Load Sample;
#X obj 415 96 vsl 15 45 0.01 1.3 1 0 \$0-mastervolume \$0-mastervolume_r
empty 0 -8 0 8 -257985 -1 -1 3536 0;
#X text 412 144 Vol;
#X obj 331 68 bng 10 250 50 0 \$0-loadsample_two empty empty 17 7 0
10 -4032 -1 -1;
#X text 341 66 Load Sample;
#X obj 416 20 vsl 15 45 0.01 1.3 1 0 \$0-mastervolume_two \$0-mastervolume_two_r
empty 0 -8 0 8 -257985 -1 -1 3536 0;
#X text 413 67 Vol;
#X obj 442 69 bng 10 250 50 0 \$0-loadsample_three empty empty 17 7
0 10 -4032 -1 -1;
#X text 452 67 Load Sample;
#X obj 527 21 vsl 15 45 0.01 1.3 1 0 \$0-mastervolume_three \$0-mastervolume_three_r
empty 0 -8 0 8 -257985 -1 -1 3536 0;
#X text 524 68 Vol;
#X obj 440 145 bng 10 250 50 0 \$0-loadsample_four empty empty 17 7
0 10 -4032 -1 -1;
#X text 450 143 Load Sample;
#X obj 525 96 vsl 15 45 0.01 1.3 1 0 \$0-mastervolume_four \$0-mastervolume_four_r
empty 0 -8 0 8 -257985 -1 -1 3536 0;
#X text 522 144 Vol;
#X obj 331 49 bng 18 50 50 0 \$0-send_two \$0-s S 5 10 0 15 -1 -257985
-257985;
#X obj 441 50 bng 18 50 50 0 \$0-send_three \$0-d D 5 10 0 15 -1 -257985
-257985;
#X obj 330 126 bng 18 50 50 0 \$0-send_one \$0-a A 5 10 0 15 -1 -257985
-257985;
#X obj 440 126 bng 18 50 50 0 \$0-send_four \$0-f F 5 10 0 15 -1 -257985
-257985;
#X obj 549 147 bng 10 250 50 0 \$0-loadsample_seven empty empty 17
7 0 10 -4032 -1 -1;
#X text 559 145 Load Sample;
#X obj 634 98 vsl 15 45 0.01 1.3 1 0 \$0-mastervolume_seven \$0-mastervolume_seven_r
empty 0 -8 0 8 -257985 -1 -1 3536 0;
#X text 631 146 Vol;
#X obj 550 70 bng 10 250 50 0 \$0-loadsample_five empty empty 17 7
0 10 -4032 -1 -1;
#X text 560 68 Load Sample;
#X obj 635 22 vsl 15 45 0.01 1.3 1 0 \$0-mastervolume_five \$0-mastervolume_five_r
empty 0 -8 0 8 -257985 -1 -1 3536 0;
#X text 632 69 Vol;
#X obj 661 71 bng 10 250 50 0 \$0-loadsample_six empty empty 17 7 0
10 -4032 -1 -1;
#X text 671 69 Load Sample;
#X obj 659 147 bng 10 250 50 0 \$0-loadsample_eight empty empty 17
7 0 10 -4032 -1 -1;
#X text 669 145 Load Sample;
#X text 477 -36 Computer Keyboard 1;
#X obj 550 51 bng 18 50 50 0 \$0-send_five \$0-g G 5 10 0 15 -1 -257985
-257985;
#X obj 661 52 bng 18 50 50 0 \$0-send_six \$0-h H 5 10 0 15 -1 -257985
-257985;
#X obj 549 128 bng 18 50 50 0 \$0-send_seven \$0-j J 5 10 0 15 -1 -257985
-257985;
#X obj 659 128 bng 18 50 50 0 \$0-send_eight \$0-k K 5 10 0 15 -1 -257985
-257985;
#X obj 858 37 outlet~;
#N canvas 1 76 1351 688 compk1sampler 0;
#N canvas 1 76 1351 688 send 0;
#X obj 155 -211 r \$0-loadsample;
#X obj 140 85 r \$0-mastervolume;
#X obj 174 -255 r \$0-send_one;
#X obj 111 252 outlet~;
#X obj 187 -193 t b;
#X msg 187 -119 open \$1;
#X obj 187 -166 openpanel;
#X obj 112 158 *~;
#X msg 139 -183 stop;
#X obj 356 -45 loadbang;
#X msg 356 -10 \; pd dsp 1;
#X obj 113 210 *~;
#X obj 281 -176 bng 15 250 50 0 empty empty empty 17 7 0 10 -262144
-1 -1;
#X obj 101 -231 t b b b;
#X obj 307 63 switch~;
#X msg 280 71 \$1 5;
#X obj 280 100 line~;
#X msg 247 -29 1;
#X msg 279 -28 0;
#X obj 280 5 t f f;
#X obj 97 -255 bng 15 250 50 0 empty empty empty 17 7 0 10 -262144
-1 -1;
#X symbolatom 185 -135 10 0 0 0 - - -, f 10;
#X msg 102 -183 1;
#X obj 130 -88 readsf~;
#X obj 347 -166 symbol;
#X obj 347 -218 loadbang;
#X msg 347 -191 /home/ubuntu-studio/MAMIClibrary/samples/kick.wav;
#X connect 0 0 4 0;
#X connect 1 0 7 1;
#X connect 2 0 13 0;
#X connect 4 0 6 0;
#X connect 5 0 23 0;
#X connect 6 0 21 0;
#X connect 7 0 11 0;
#X connect 8 0 23 0;
#X connect 9 0 10 0;
#X connect 9 0 18 0;
#X connect 11 0 3 0;
#X connect 12 0 6 0;
#X connect 13 0 22 0;
#X connect 13 1 21 0;
#X connect 13 2 17 0;
#X connect 15 0 16 0;
#X connect 16 0 11 1;
#X connect 17 0 19 0;
#X connect 18 0 19 0;
#X connect 19 0 15 0;
#X connect 19 1 14 0;
#X connect 20 0 13 0;
#X connect 21 0 5 0;
#X connect 22 0 23 0;
#X connect 23 0 7 0;
#X connect 23 1 18 0;
#X connect 24 0 21 0;
#X connect 25 0 26 0;
#X connect 26 0 24 0;
#X restore -148 240 pd send 1;
#N canvas 14 76 1351 688 send 0;
#X obj 79 263 outlet~;
#X obj 155 -182 t b;
#X msg 155 -108 open \$1;
#X obj 155 -155 openpanel;
#X obj 80 169 *~;
#X msg 107 -172 stop;
#X obj 324 -34 loadbang;
#X msg 324 1 \; pd dsp 1;
#X obj 81 221 *~;
#X obj 249 -165 bng 15 250 50 0 empty empty empty 17 7 0 10 -262144
-1 -1;
#X obj 69 -220 t b b b;
#X obj 275 74 switch~;
#X msg 248 82 \$1 5;
#X obj 248 111 line~;
#X msg 215 -18 1;
#X msg 247 -17 0;
#X obj 248 16 t f f;
#X obj 65 -244 bng 15 250 50 0 empty empty empty 17 7 0 10 -262144
-1 -1;
#X obj 174 -255 r \$0-send_two;
#X obj 155 -211 r \$0-loadsample_two;
#X obj 101 100 r \$0-mastervolume_two;
#X symbolatom 155 -130 10 0 0 0 - - -, f 10;
#X msg 70 -172 1;
#X obj 98 -77 readsf~;
#X obj 327 -164 symbol;
#X obj 327 -216 loadbang;
#X msg 327 -189 /home/ubuntu-studio/MAMIClibrary/samples/snare.aif
;
#X connect 1 0 3 0;
#X connect 2 0 23 0;
#X connect 3 0 21 0;
#X connect 4 0 8 0;
#X connect 5 0 23 0;
#X connect 6 0 7 0;
#X connect 6 0 15 0;
#X connect 8 0 0 0;
#X connect 9 0 3 0;
#X connect 10 0 22 0;
#X connect 10 1 21 0;
#X connect 10 2 14 0;
#X connect 12 0 13 0;
#X connect 13 0 8 1;
#X connect 14 0 16 0;
#X connect 15 0 16 0;
#X connect 16 0 12 0;
#X connect 16 1 11 0;
#X connect 17 0 10 0;
#X connect 18 0 10 0;
#X connect 19 0 1 0;
#X connect 20 0 4 1;
#X connect 21 0 2 0;
#X connect 22 0 23 0;
#X connect 23 0 4 0;
#X connect 23 1 15 0;
#X connect 24 0 21 0;
#X connect 25 0 26 0;
#X connect 26 0 24 0;
#X restore -85 241 pd send 2;
#N canvas 8 76 1351 688 send 0;
#X obj 174 -255 r \$0-send_three;
#X obj 155 -211 r \$0-loadsample_three;
#X obj 261 131 r \$0-mastervolume_three;
#X obj 69 257 outlet~;
#X obj 145 -188 t b;
#X msg 145 -114 open \$1;
#X obj 145 -161 openpanel;
#X obj 70 163 *~;
#X msg 97 -178 stop;
#X obj 314 -40 loadbang;
#X msg 314 -5 \; pd dsp 1;
#X obj 71 215 *~;
#X obj 239 -171 bng 15 250 50 0 empty empty empty 17 7 0 10 -262144
-1 -1;
#X obj 59 -226 t b b b;
#X obj 265 68 switch~;
#X msg 238 76 \$1 5;
#X obj 238 105 line~;
#X msg 205 -24 1;
#X msg 237 -23 0;
#X obj 238 10 t f f;
#X obj 55 -250 bng 15 250 50 0 empty empty empty 17 7 0 10 -262144
-1 -1;
#X symbolatom 145 -136 10 0 0 0 - - -, f 10;
#X msg 60 -178 1;
#X obj 88 -83 readsf~;
#X obj 337 -174 symbol;
#X obj 337 -226 loadbang;
#X msg 337 -199 /home/ubuntu-studio/MAMIClibrary/samples/highhat.wav
;
#X connect 0 0 13 0;
#X connect 1 0 4 0;
#X connect 2 0 7 1;
#X connect 4 0 6 0;
#X connect 5 0 23 0;
#X connect 6 0 21 0;
#X connect 7 0 11 0;
#X connect 8 0 23 0;
#X connect 9 0 10 0;
#X connect 9 0 18 0;
#X connect 11 0 3 0;
#X connect 12 0 6 0;
#X connect 13 0 22 0;
#X connect 13 1 21 0;
#X connect 13 2 17 0;
#X connect 15 0 16 0;
#X connect 16 0 11 1;
#X connect 17 0 19 0;
#X connect 18 0 19 0;
#X connect 19 0 15 0;
#X connect 19 1 14 0;
#X connect 20 0 13 0;
#X connect 21 0 5 0;
#X connect 22 0 23 0;
#X connect 23 0 7 0;
#X connect 23 1 18 0;
#X connect 24 0 21 0;
#X connect 25 0 26 0;
#X connect 26 0 24 0;
#X restore -21 241 pd send 3;
#N canvas 2 76 1351 688 send 0;
#X obj 173 -255 r \$0-send_four;
#X obj 155 -211 r \$0-loadsample_four;
#X obj 92 173 r \$0-mastervolume_four;
#X obj 62 339 outlet~;
#X obj 138 -106 t b;
#X msg 138 -32 open \$1;
#X obj 138 -79 openpanel;
#X obj 63 245 *~;
#X msg 86 -93 stop;
#X obj 307 42 loadbang;
#X msg 307 77 \; pd dsp 1;
#X obj 64 297 *~;
#X obj 232 -89 bng 15 250 50 0 empty empty empty 17 7 0 10 -262144
-1 -1;
#X obj 52 -144 t b b b;
#X obj 258 150 switch~;
#X msg 231 158 \$1 5;
#X obj 231 187 line~;
#X msg 198 58 1;
#X msg 230 59 0;
#X obj 231 92 t f f;
#X obj 48 -168 bng 15 250 50 0 empty empty empty 17 7 0 10 -262144
-1 -1;
#X symbolatom 138 -54 10 0 0 0 - - -, f 10;
#X msg 53 -96 1;
#X obj 81 -1 readsf~;
#X obj 337 -156 symbol;
#X obj 337 -208 loadbang;
#X msg 337 -181 /home/ubuntu-studio/MAMIClibrary/samples/crash.wav
;
#X connect 0 0 13 0;
#X connect 1 0 4 0;
#X connect 2 0 7 1;
#X connect 4 0 6 0;
#X connect 5 0 23 0;
#X connect 6 0 21 0;
#X connect 7 0 11 0;
#X connect 8 0 23 0;
#X connect 9 0 10 0;
#X connect 9 0 18 0;
#X connect 11 0 3 0;
#X connect 12 0 6 0;
#X connect 13 0 22 0;
#X connect 13 1 21 0;
#X connect 13 2 17 0;
#X connect 15 0 16 0;
#X connect 16 0 11 1;
#X connect 17 0 19 0;
#X connect 18 0 19 0;
#X connect 19 0 15 0;
#X connect 19 1 14 0;
#X connect 20 0 13 0;
#X connect 21 0 5 0;
#X connect 22 0 23 0;
#X connect 23 0 7 0;
#X connect 23 1 18 0;
#X connect 24 0 21 0;
#X connect 25 0 26 0;
#X connect 26 0 24 0;
#X restore 49 242 pd send 4;
#X obj -150 318 outlet~;
#N canvas 1 76 1351 688 send 0;
#X obj 111 252 outlet~;
#X obj 187 -193 t b;
#X msg 187 -119 open \$1;
#X obj 187 -166 openpanel;
#X obj 112 158 *~;
#X msg 139 -183 stop;
#X obj 356 -45 loadbang;
#X msg 356 -10 \; pd dsp 1;
#X obj 113 210 *~;
#X obj 281 -176 bng 15 250 50 0 empty empty empty 17 7 0 10 -262144
-1 -1;
#X obj 101 -231 t b b b;
#X obj 307 63 switch~;
#X msg 280 71 \$1 5;
#X obj 280 100 line~;
#X msg 247 -29 1;
#X msg 279 -28 0;
#X obj 280 5 t f f;
#X obj 97 -255 bng 15 250 50 0 empty empty empty 17 7 0 10 -262144
-1 -1;
#X symbolatom 187 -141 10 0 0 0 - - -, f 10;
#X msg 102 -183 1;
#X obj 130 -88 readsf~;
#X obj 174 -255 r \$0-send_five;
#X obj 155 -211 r \$0-loadsample_five;
#X obj 140 85 r \$0-mastervolume_five;
#X connect 1 0 3 0;
#X connect 2 0 20 0;
#X connect 3 0 18 0;
#X connect 4 0 8 0;
#X connect 5 0 20 0;
#X connect 6 0 7 0;
#X connect 6 0 15 0;
#X connect 8 0 0 0;
#X connect 9 0 3 0;
#X connect 10 0 19 0;
#X connect 10 1 18 0;
#X connect 10 2 14 0;
#X connect 12 0 13 0;
#X connect 13 0 8 1;
#X connect 14 0 16 0;
#X connect 15 0 16 0;
#X connect 16 0 12 0;
#X connect 16 1 11 0;
#X connect 17 0 10 0;
#X connect 18 0 2 0;
#X connect 19 0 20 0;
#X connect 20 0 4 0;
#X connect 20 1 15 0;
#X connect 21 0 10 0;
#X connect 22 0 1 0;
#X connect 23 0 4 1;
#X restore 122 241 pd send 5;
#N canvas 0 80 1351 688 send 0;
#X obj 79 263 outlet~;
#X obj 155 -182 t b;
#X msg 155 -108 open \$1;
#X obj 155 -155 openpanel;
#X obj 80 169 *~;
#X msg 107 -172 stop;
#X obj 324 -34 loadbang;
#X msg 324 1 \; pd dsp 1;
#X obj 81 221 *~;
#X obj 249 -165 bng 15 250 50 0 empty empty empty 17 7 0 10 -262144
-1 -1;
#X obj 69 -220 t b b b;
#X obj 275 74 switch~;
#X msg 248 82 \$1 5;
#X obj 248 111 line~;
#X msg 215 -18 1;
#X msg 247 -17 0;
#X obj 248 16 t f f;
#X obj 65 -244 bng 15 250 50 0 empty empty empty 17 7 0 10 -262144
-1 -1;
#X symbolatom 155 -130 10 0 0 0 - - -, f 10;
#X msg 70 -172 1;
#X obj 98 -77 readsf~;
#X obj 174 -255 r \$0-send_six;
#X obj 155 -211 r \$0-loadsample_six;
#X obj 101 100 r \$0-mastervolume_six;
#X connect 1 0 3 0;
#X connect 2 0 20 0;
#X connect 3 0 18 0;
#X connect 4 0 8 0;
#X connect 5 0 20 0;
#X connect 6 0 7 0;
#X connect 6 0 15 0;
#X connect 8 0 0 0;
#X connect 9 0 3 0;
#X connect 10 0 19 0;
#X connect 10 1 18 0;
#X connect 10 2 14 0;
#X connect 12 0 13 0;
#X connect 13 0 8 1;
#X connect 14 0 16 0;
#X connect 15 0 16 0;
#X connect 16 0 12 0;
#X connect 16 1 11 0;
#X connect 17 0 10 0;
#X connect 18 0 2 0;
#X connect 19 0 20 0;
#X connect 20 0 4 0;
#X connect 20 1 15 0;
#X connect 21 0 10 0;
#X connect 22 0 1 0;
#X connect 23 0 4 1;
#X restore 185 242 pd send 6;
#N canvas 8 76 1351 688 send 0;
#X obj 69 257 outlet~;
#X obj 145 -188 t b;
#X msg 145 -114 open \$1;
#X obj 145 -161 openpanel;
#X obj 70 163 *~;
#X msg 97 -178 stop;
#X obj 314 -40 loadbang;
#X msg 314 -5 \; pd dsp 1;
#X obj 71 215 *~;
#X obj 239 -171 bng 15 250 50 0 empty empty empty 17 7 0 10 -262144
-1 -1;
#X obj 59 -226 t b b b;
#X obj 265 68 switch~;
#X msg 238 76 \$1 5;
#X obj 238 105 line~;
#X msg 205 -24 1;
#X msg 237 -23 0;
#X obj 238 10 t f f;
#X obj 55 -250 bng 15 250 50 0 empty empty empty 17 7 0 10 -262144
-1 -1;
#X symbolatom 145 -136 10 0 0 0 - - -, f 10;
#X msg 60 -178 1;
#X obj 88 -83 readsf~;
#X obj 174 -255 r \$0-send_seven;
#X obj 155 -211 r \$0-loadsample_seven;
#X obj 260 132 r \$0-mastervolume_seven;
#X connect 1 0 3 0;
#X connect 2 0 20 0;
#X connect 3 0 18 0;
#X connect 4 0 8 0;
#X connect 5 0 20 0;
#X connect 6 0 7 0;
#X connect 6 0 15 0;
#X connect 8 0 0 0;
#X connect 9 0 3 0;
#X connect 10 0 19 0;
#X connect 10 1 18 0;
#X connect 10 2 14 0;
#X connect 12 0 13 0;
#X connect 13 0 8 1;
#X connect 14 0 16 0;
#X connect 15 0 16 0;
#X connect 16 0 12 0;
#X connect 16 1 11 0;
#X connect 17 0 10 0;
#X connect 18 0 2 0;
#X connect 19 0 20 0;
#X connect 20 0 4 0;
#X connect 20 1 15 0;
#X connect 21 0 10 0;
#X connect 22 0 1 0;
#X connect 23 0 4 1;
#X restore 249 242 pd send 7;
#N canvas 2 76 1351 688 send 0;
#X obj 62 339 outlet~;
#X obj 138 -106 t b;
#X msg 138 -32 open \$1;
#X obj 138 -79 openpanel;
#X obj 63 245 *~;
#X msg 86 -93 stop;
#X obj 307 42 loadbang;
#X msg 307 77 \; pd dsp 1;
#X obj 64 297 *~;
#X obj 232 -89 bng 15 250 50 0 empty empty empty 17 7 0 10 -262144
-1 -1;
#X obj 52 -144 t b b b;
#X obj 258 150 switch~;
#X msg 231 158 \$1 5;
#X obj 231 187 line~;
#X msg 198 58 1;
#X msg 230 59 0;
#X obj 231 92 t f f;
#X obj 48 -168 bng 15 250 50 0 empty empty empty 17 7 0 10 -262144
-1 -1;
#X symbolatom 138 -54 10 0 0 0 - - -, f 10;
#X msg 53 -96 1;
#X obj 81 -1 readsf~;
#X obj 173 -255 r \$0-send_eight;
#X obj 155 -211 r \$0-loadsample_eight;
#X obj 92 173 r \$0-mastervolume_eight;
#X connect 1 0 3 0;
#X connect 2 0 20 0;
#X connect 3 0 18 0;
#X connect 4 0 8 0;
#X connect 5 0 20 0;
#X connect 6 0 7 0;
#X connect 6 0 15 0;
#X connect 8 0 0 0;
#X connect 9 0 3 0;
#X connect 10 0 19 0;
#X connect 10 1 18 0;
#X connect 10 2 14 0;
#X connect 12 0 13 0;
#X connect 13 0 8 1;
#X connect 14 0 16 0;
#X connect 15 0 16 0;
#X connect 16 0 12 0;
#X connect 16 1 11 0;
#X connect 17 0 10 0;
#X connect 18 0 2 0;
#X connect 19 0 20 0;
#X connect 20 0 4 0;
#X connect 20 1 15 0;
#X connect 21 0 10 0;
#X connect 22 0 1 0;
#X connect 23 0 4 1;
#X restore 319 243 pd send 8;
#X connect 0 0 4 0;
#X connect 1 0 4 0;
#X connect 2 0 4 0;
#X connect 3 0 4 0;
#X connect 5 0 4 0;
#X connect 6 0 4 0;
#X connect 7 0 4 0;
#X connect 8 0 4 0;
#X restore 858 -1 pd compk1sampler;
#N canvas 1 76 1351 686 letter 0;
#X obj 78 -314 r \$0-numbers;
#X msg -637 70 1;
#X msg -609 70 2;
#X msg -580 70 3;
#X msg -552 70 4;
#X msg -524 70 5;
#X msg -496 70 6;
#X msg -467 70 7;
#X msg -439 70 8;
#X obj -121 -34 f;
#X obj -122 57 s \$0-numbersback;
#X obj -829 -149 t b b;
#X obj 45 -33 f;
#X obj 45 58 s \$0-numbersback;
#X obj -783 -149 t b b;
#X msg -155 -35 bang;
#X msg 7 -35 bang;
#X msg 297 -286 0;
#X obj 178 -34 f;
#X obj 177 57 s \$0-numbersback;
#X obj 344 -33 f;
#X obj 344 58 s \$0-numbersback;
#X msg 144 -35 bang;
#X msg 306 -35 bang;
#X obj -734 -149 t b b;
#X obj -682 -149 t b b;
#X obj -444 -149 t b b;
#X obj -636 -149 t b b;
#X obj -590 -149 t b b;
#X obj -541 -149 t b b;
#X obj -489 -149 t b b;
#X obj -122 104 f;
#X obj -123 195 s \$0-numbersback;
#X obj 44 105 f;
#X obj 44 196 s \$0-numbersback;
#X msg -156 103 bang;
#X msg 6 103 bang;
#X obj 177 104 f;
#X obj 176 195 s \$0-numbersback;
#X obj 343 105 f;
#X obj 343 196 s \$0-numbersback;
#X msg 143 103 bang;
#X msg 305 103 bang;
#X msg -636 98 9;
#X obj -122 239 f;
#X obj -123 330 s \$0-numbersback;
#X msg -156 238 bang;
#X obj 39 -287 gate 12;
#X obj 296 -261 t b f;
#X obj 297 -332 r \$0-clear;
#X obj 297 -309 t b;
#X obj 851 -68 f;
#X obj 567 -64 f;
#X msg 567 -104 bang;
#X msg 851 -103 bang;
#X msg 562 26 bang;
#X obj 562 58 f;
#X msg 853 20 bang;
#X obj 853 51 f;
#X msg 561 147 bang;
#X obj 561 177 f;
#X msg 855 144 bang;
#X obj 855 175 f;
#X msg 558 277 bang;
#X obj 558 312 f;
#X msg 863 271 bang;
#X obj 863 300 f;
#X obj 556 426 f;
#X msg 556 383 bang;
#X obj -829 -177 r \$0-a;
#X obj -783 -177 r \$0-s;
#X obj -734 -177 r \$0-d;
#X obj -682 -176 r \$0-f;
#X obj -636 -176 r \$0-g;
#X obj -590 -175 r \$0-h;
#X obj -541 -175 r \$0-j;
#X obj -491 -175 r \$0-k;
#X obj -440 -174 r \$0-l;
#X text -104 23 A;
#X text 56 22 S;
#X text 195 23 D;
#X text 356 22 F;
#X text -105 161 G;
#X text 57 160 H;
#X text 194 161 J;
#X text 355 160 K;
#X text -105 296 L;
#X text 619 -143 A;
#X text 911 -142 S;
#X text 623 -14 D;
#X text 911 -18 F;
#X text 621 113 G;
#X text 914 113 H;
#X text 611 244 J;
#X text 919 237 K;
#X text 612 354 L;
#X floatatom 687 -231 5 0 0 0 - - -, f 5;
#X obj 567 -141 sel 97;
#X obj 851 -138 sel 115;
#X obj 687 -202 spigot;
#X msg 730 -223 1;
#X msg 765 -223 0;
#X obj 562 -13 sel 100;
#X obj 853 -18 sel 102;
#X obj 561 113 sel 103;
#X obj 855 112 sel 104;
#X obj 558 244 sel 106;
#X obj 863 240 sel 107;
#X obj 556 351 sel 108;
#X obj 730 -308 r \$0-onoff;
#X obj 730 -284 sel 0;
#X floatatom 725 368 5 0 0 0 - - -, f 5;
#X obj 725 408 outlet;
#X obj 688 -257 key;
#X obj 602 -104 s \$0-a;
#X obj 596 26 s \$0-d;
#X obj 596 147 s \$0-g;
#X obj 594 277 s \$0-j;
#X obj 590 383 s \$0-l;
#X obj 886 -103 s \$0-s;
#X obj 888 20 s \$0-f;
#X obj 889 144 s \$0-h;
#X obj 897 271 s \$0-k;
#X connect 0 0 47 1;
#X connect 1 0 47 0;
#X connect 2 0 47 0;
#X connect 3 0 47 0;
#X connect 4 0 47 0;
#X connect 5 0 47 0;
#X connect 6 0 47 0;
#X connect 7 0 47 0;
#X connect 8 0 47 0;
#X connect 9 0 10 0;
#X connect 9 0 52 1;
#X connect 11 0 1 0;
#X connect 11 1 15 0;
#X connect 12 0 13 0;
#X connect 12 0 51 1;
#X connect 14 0 2 0;
#X connect 14 1 16 0;
#X connect 15 0 9 0;
#X connect 16 0 12 0;
#X connect 17 0 48 0;
#X connect 18 0 19 0;
#X connect 18 0 56 1;
#X connect 20 0 21 0;
#X connect 20 0 58 1;
#X connect 22 0 18 0;
#X connect 23 0 20 0;
#X connect 24 0 3 0;
#X connect 24 1 22 0;
#X connect 25 0 4 0;
#X connect 25 1 23 0;
#X connect 26 0 43 0;
#X connect 26 1 46 0;
#X connect 27 0 5 0;
#X connect 27 1 35 0;
#X connect 28 0 6 0;
#X connect 28 1 36 0;
#X connect 29 0 7 0;
#X connect 29 1 41 0;
#X connect 30 0 8 0;
#X connect 30 1 42 0;
#X connect 31 0 32 0;
#X connect 31 0 60 1;
#X connect 33 0 34 0;
#X connect 33 0 62 1;
#X connect 35 0 31 0;
#X connect 36 0 33 0;
#X connect 37 0 38 0;
#X connect 37 0 64 1;
#X connect 39 0 40 0;
#X connect 39 0 66 1;
#X connect 41 0 37 0;
#X connect 42 0 39 0;
#X connect 43 0 47 0;
#X connect 44 0 45 0;
#X connect 44 0 67 1;
#X connect 46 0 44 0;
#X connect 47 0 9 1;
#X connect 47 1 12 1;
#X connect 47 2 18 1;
#X connect 47 3 20 1;
#X connect 47 4 31 1;
#X connect 47 5 33 1;
#X connect 47 6 37 1;
#X connect 47 7 39 1;
#X connect 47 8 44 1;
#X connect 48 0 15 0;
#X connect 48 0 16 0;
#X connect 48 0 22 0;
#X connect 48 0 23 0;
#X connect 48 0 35 0;
#X connect 48 0 36 0;
#X connect 48 0 41 0;
#X connect 48 0 42 0;
#X connect 48 0 46 0;
#X connect 48 1 9 1;
#X connect 48 1 12 1;
#X connect 48 1 18 1;
#X connect 48 1 20 1;
#X connect 48 1 31 1;
#X connect 48 1 33 1;
#X connect 48 1 37 1;
#X connect 48 1 39 1;
#X connect 48 1 44 1;
#X connect 49 0 50 0;
#X connect 50 0 17 0;
#X connect 51 0 111 0;
#X connect 52 0 111 0;
#X connect 53 0 52 0;
#X connect 54 0 51 0;
#X connect 55 0 56 0;
#X connect 56 0 111 0;
#X connect 57 0 58 0;
#X connect 58 0 111 0;
#X connect 59 0 60 0;
#X connect 60 0 111 0;
#X connect 61 0 62 0;
#X connect 62 0 111 0;
#X connect 63 0 64 0;
#X connect 64 0 111 0;
#X connect 65 0 66 0;
#X connect 66 0 111 0;
#X connect 67 0 111 0;
#X connect 68 0 67 0;
#X connect 69 0 11 0;
#X connect 70 0 14 0;
#X connect 71 0 24 0;
#X connect 72 0 25 0;
#X connect 73 0 27 0;
#X connect 74 0 28 0;
#X connect 75 0 29 0;
#X connect 76 0 30 0;
#X connect 77 0 26 0;
#X connect 96 0 99 0;
#X connect 97 0 53 0;
#X connect 97 0 114 0;
#X connect 98 0 54 0;
#X connect 98 0 119 0;
#X connect 99 0 97 0;
#X connect 99 0 98 0;
#X connect 99 0 102 0;
#X connect 99 0 103 0;
#X connect 99 0 104 0;
#X connect 99 0 106 0;
#X connect 99 0 107 0;
#X connect 99 0 108 0;
#X connect 99 0 105 0;
#X connect 100 0 99 1;
#X connect 101 0 99 1;
#X connect 102 0 55 0;
#X connect 102 0 115 0;
#X connect 103 0 57 0;
#X connect 103 0 120 0;
#X connect 104 0 59 0;
#X connect 104 0 116 0;
#X connect 105 0 61 0;
#X connect 105 0 121 0;
#X connect 106 0 63 0;
#X connect 106 0 117 0;
#X connect 107 0 65 0;
#X connect 107 0 122 0;
#X connect 108 0 68 0;
#X connect 108 0 118 0;
#X connect 109 0 110 0;
#X connect 110 0 101 0;
#X connect 110 1 100 0;
#X connect 111 0 112 0;
#X connect 113 0 96 0;
#X restore 961 -1 pd letter to number store;
#X obj 744 23 vsl 15 45 0.01 1.3 1 0 \$0-mastervolume_six \$0-mastervolume_six_r
empty 0 -8 0 8 -257985 -1 -1 3536 0;
#X text 741 70 Vol;
#X obj 742 98 vsl 15 45 0.01 1.3 1 0 \$0-mastervolume_eight \$0-mastervolume_eight_r
empty 0 -8 0 8 -257985 -1 -1 3536 0;
#X text 739 146 Vol;
#X floatatom 331 78 2 0 16 0 - - #0-sequencenumber_two, f 2;
#X text 344 78 Seq Number;
#X floatatom 443 78 2 0 16 0 - - #0-sequencenumber_three, f 2;
#X text 456 78 Seq Number;
#X floatatom 550 79 2 0 16 0 - - #0-sequencenumber_five, f 2;
#X text 563 79 Seq Number;
#X floatatom 661 81 2 0 16 0 - - #0-sequencenumber_six, f 2;
#X text 674 81 Seq Number;
#X floatatom 330 154 2 0 16 0 - - #0-sequencenumber_one, f 2;
#X text 343 154 Seq Number;
#X floatatom 440 155 2 0 16 0 - - #0-sequencenumber_four, f 2;
#X text 453 155 Seq Number;
#X floatatom 549 156 2 0 16 0 - - #0-sequencenumber_seven, f 2;
#X text 562 156 Seq Number;
#X floatatom 659 157 2 0 16 0 - - #0-sequencenumber_eight, f 2;
#X text 672 157 Seq Number;
#X obj 915 57 outlet;
#N canvas 1 76 1351 688 compk_sequence_number 0;
#X obj 115 433 outlet;
#X obj 307 30 r \$0-sequencenumber_two;
#X obj 132 32 r \$0-sequencenumber_one;
#X obj 487 31 r \$0-sequencenumber_three;
#X obj 672 32 r \$0-sequencenumber_four;
#X obj 117 61 f;
#X obj 292 58 f;
#X obj 472 59 f;
#X obj 657 59 f;
#X obj 117 7 r \$0-send_one;
#X obj 292 7 r \$0-send_two;
#X obj 471 8 r \$0-send_three;
#X obj 657 8 r \$0-send_four;
#X obj 185 177 f;
#X obj 360 174 f;
#X obj 540 175 f;
#X obj 725 175 f;
#X obj 185 124 r \$0-send_five;
#X obj 200 148 r \$0-sequencenumber_five;
#X obj 360 81 r \$0-send_six;
#X obj 375 146 r \$0-sequencenumber_six;
#X obj 540 85 r \$0-send_seven;
#X obj 555 147 r \$0-sequencenumber_seven;
#X obj 725 84 r \$0-send_eight;
#X obj 740 148 r \$0-sequencenumber_eight;
#X connect 1 0 6 1;
#X connect 2 0 5 1;
#X connect 3 0 7 1;
#X connect 4 0 8 1;
#X connect 5 0 0 0;
#X connect 6 0 0 0;
#X connect 7 0 0 0;
#X connect 8 0 0 0;
#X connect 9 0 5 0;
#X connect 10 0 6 0;
#X connect 11 0 7 0;
#X connect 12 0 8 0;
#X connect 13 0 0 0;
#X connect 14 0 0 0;
#X connect 15 0 0 0;
#X connect 16 0 0 0;
#X connect 17 0 13 0;
#X connect 18 0 13 1;
#X connect 19 0 14 0;
#X connect 20 0 14 1;
#X connect 21 0 15 0;
#X connect 22 0 15 1;
#X connect 23 0 16 0;
#X connect 24 0 16 1;
#X restore 914 22 pd compk_sequence_number;
#X connect 12 0 13 0;
#X connect 13 0 14 0;
#X connect 53 0 52 0;
#X connect 76 0 75 0;
#X restore 1636 495 pd \$0-compk;
#X obj 1636 526 outlet~;
#X obj 2074 423 makefilename pd-%d-compk;
#X obj 2266 424 makefilename pd-%d-compk;
#X msg 1644 44 open /home/ubuntu-studio/MAMIClibrary/images/computerkeyboard.png
;
#X obj 1700 525 outlet;
#X text 1857 351 Seq Output;
#X obj 1118 150 inlet seqinput;
#X text 1660 260 Seq Input;
#X obj 1118 182 sel 1 2 3 4 5 6 7 8;
#X obj 1258 421 print -n;
#X msg 1258 391 I only accept numbers between 1 & 8;
#X obj 1117 217 s \$0-a;
#X obj 1133 241 s \$0-s;
#X obj 1147 270 s \$0-d;
#X obj 1161 299 s \$0-f;
#X obj 1177 333 s \$0-g;
#X obj 1192 362 s \$0-h;
#X obj 1206 390 s \$0-j;
#X obj 1217 420 s \$0-k;
#X text 1274 276 Sequencer Number Input for Seq Input Inlet;
#X obj 2223 47 s \$0-mastervolume_two_r;
#X msg 2223 17 0.5;
#X obj 2370 47 s \$0-mastervolume_three_r;
#X obj 2531 47 s \$0-mastervolume_four_r;
#X obj 2225 72 s \$0-mastervolume_five_r;
#X obj 2381 72 s \$0-mastervolume_six_r;
#X obj 2534 72 s \$0-mastervolume_seven_r;
#X obj 2223 98 s \$0-mastervolume_eight_r;
#X obj 2386 99 s \$0-mastervolume_r;
#X text 2223 128 Preset Volumes;
#X connect 0 0 6 0;
#X connect 1 0 0 0;
#X connect 2 0 1 0;
#X connect 3 0 2 0;
#X connect 3 0 17 0;
#X connect 3 0 35 0;
#X connect 6 0 10 0;
#X connect 6 1 11 0;
#X connect 7 0 8 0;
#X connect 8 0 10 1;
#X connect 8 0 11 1;
#X connect 10 0 15 0;
#X connect 11 0 16 0;
#X connect 13 0 14 0;
#X connect 13 1 18 0;
#X connect 15 0 9 0;
#X connect 16 0 12 0;
#X connect 17 0 0 0;
#X connect 20 0 22 0;
#X connect 22 0 25 0;
#X connect 22 1 26 0;
#X connect 22 2 27 0;
#X connect 22 3 28 0;
#X connect 22 4 29 0;
#X connect 22 5 30 0;
#X connect 22 6 31 0;
#X connect 22 7 32 0;
#X connect 22 8 24 0;
#X connect 24 0 23 0;
#X connect 35 0 34 0;
#X connect 35 0 42 0;
#X connect 35 0 41 0;
#X connect 35 0 40 0;
#X connect 35 0 39 0;
#X connect 35 0 38 0;
#X connect 35 0 37 0;
#X connect 35 0 36 0;
#X coords 0 -1 1 1 265 114 2 1657 257;
