#N canvas 0 70 1366 694 10;
#X obj 1789 306 image /home/ubuntu-studio/MAMIClibrary/images/conductor.png
0;
#X msg 1446 70 click \$1;
#X msg 1443 38 1;
#X obj 1442 7 loadbang;
#N canvas 397 176 628 451 statesave 0;
#X obj 210 -21 r \$0-melody1onoff;
#X obj 88 32 s \$0-melody1on;
#X obj 88 7 sssad \$1/melody1onoff;
#X obj 210 51 r \$0-melody2onoff;
#X obj 88 79 sssad \$1/melody2onoff;
#X obj 88 104 s \$0-melody2on;
#X obj 206 121 r \$0-melody3onoff;
#X obj 83 148 sssad \$1/melody3onoff;
#X obj 83 175 s \$0-melody3on;
#X obj 206 193 r \$0-melody4onoff;
#X obj 84 246 s \$0-melody4on;
#X obj 84 221 sssad \$1/melody4onoff;
#X text 1 115 Melody On/OffToggles;
#X obj 79 296 sssad \$1/normalpen;
#X obj 184 270 r \$0-pen;
#X obj 79 321 s \$0-penr;
#X text 4 346 Normal / Pen Modes;
#X obj 481 -32 r \$0-sendrootnote;
#X obj 481 -6 int;
#X obj 359 21 sssad \$1/sendrootnote;
#X obj 359 46 s \$0-receiverootnote;
#X text 519 21 Root Note set;
#X text 526 120 BPM;
#X obj 436 87 r \$0-bpm;
#X obj 367 149 s \$0-start_bpm;
#X text 527 224 Note value set;
#X obj 367 118 sssad \$1/bpm;
#X obj 367 224 sssad \$1/notevalue;
#X obj 472 188 r \$0-notevalue;
#X obj 367 259 s \$0-notevaluer;
#X text 225 237 TRANSPORT SETTINGS;
#X obj 105 387 sssad \$1/loadbangplaysolo;
#X obj 251 362 r \$0-on;
#X obj 106 412 s playall;
#X connect 0 0 2 1;
#X connect 2 0 1 0;
#X connect 3 0 4 1;
#X connect 4 0 5 0;
#X connect 6 0 7 1;
#X connect 7 0 8 0;
#X connect 9 0 11 1;
#X connect 11 0 10 0;
#X connect 13 0 15 0;
#X connect 14 0 13 1;
#X connect 17 0 18 0;
#X connect 18 0 19 1;
#X connect 19 0 20 0;
#X connect 23 0 26 1;
#X connect 26 0 24 0;
#X connect 27 0 29 0;
#X connect 28 0 27 1;
#X connect 31 0 33 0;
#X connect 32 0 31 1;
#X restore 1244 482 pd statesave;
#X obj 2197 360 alternate;
#X obj 2154 98 loadbang;
#X obj 2154 126 f \$0;
#X msg 2073 449 \; \$1 vis 1;
#X obj 2073 395 f;
#X obj 2303 393 f;
#X msg 2304 447 \; \$1 vis 0;
#X obj 1637 524 outlet;
#X obj 1748 265 bng 10 250 50 0 empty empty empty 17 7 0 10 -4160 -1
-1;
#N canvas 93 224 645 179 \$0-pattern 0;
#X obj 280 35 cnv 15 630 170 empty empty empty 20 12 0 14 -233017 -66577
0;
#X obj 377 145 hradio 30 1 0 16 \$0-cstep \$0-patternposition empty
0 -8 0 10 -262144 -1 -1 0;
#X text 293 111 Melody 1;
#X obj 382 45 hradio 30 1 0 8 \$0-vpatpattern \$0-rpatpattern empty
0 -8 0 10 -262144 -1 -1 0;
#X obj 871 104 bng 30 250 50 0 \$0-m1clearpattern empty empty 17 7
0 10 -262144 -1 -1;
#X text 869 85 Clear;
#X text 297 53 Pattern Sel;
#X text 283 183 Pattern Output;
#X text 288 152 Cur Pattern;
#X obj 871 144 bng 30 250 50 0 m1resetpatall empty empty 17 7 0 10
-262144 -1 -1;
#X obj 1013 115 outlet;
#X obj 633 45 bng 30 250 50 0 \$0-copypat empty copy 3 14 0 10 -257985
-1 -1;
#X obj 1013 142 table \$0-patterntable 512;
#N canvas 0 50 1366 696 readerpat 0;
#X obj 167 202 pack 0 0 \$0;
#X text 578 227 toggle boxes are in the format: \$0-XxYr;
#X obj 167 124 +;
#X obj 385 25 * 64;
#X obj 358 -34 t b f;
#X obj 270 9 until;
#X msg 270 -10 16;
#X obj 270 28 count 16;
#X obj 270 47 t f f;
#X obj 167 143 tabread \$0-patterntable;
#X obj 358 -56 r \$0-vpatpattern;
#X msg 167 221 \; \$3-\$2x0rp \$1;
#X connect 0 0 11 0;
#X connect 2 0 9 0;
#X connect 3 0 2 1;
#X connect 4 0 6 0;
#X connect 4 1 3 0;
#X connect 5 0 7 0;
#X connect 6 0 5 0;
#X connect 7 0 8 0;
#X connect 8 0 2 0;
#X connect 8 1 0 1;
#X connect 9 0 0 0;
#X connect 10 0 4 0;
#X restore 925 32 pd readerpat;
#N canvas 0 50 1364 686 writerpat 0;
#X msg 63 264 \$1 0;
#X obj 510 334 unpack;
#X msg 147 258 \$1 1;
#X msg 219 259 \$1 2;
#X msg 295 257 \$1 3;
#X msg 370 257 \$1 4;
#X msg 443 257 \$1 5;
#X msg 512 256 \$1 6;
#X msg 584 256 \$1 7;
#X msg 658 255 \$1 8;
#X msg 729 253 \$1 9;
#X msg 799 253 \$1 10;
#X msg 887 251 \$1 11;
#X msg 963 251 \$1 12;
#X msg 1037 253 \$1 13;
#X msg 1123 254 \$1 14;
#X msg 1202 257 \$1 15;
#X obj 589 378 +;
#X obj 606 349 * 64;
#N canvas 0 50 1364 686 clear 0;
#X msg 613 61 0;
#X obj 614 28 r \$0-m1clearpattern;
#X obj 72 172 s \$0-0x0rp;
#X obj 152 171 s \$0-1x0rp;
#X obj 229 172 s \$0-2x0rp;
#X obj 305 172 s \$0-3x0rp;
#X obj 380 172 s \$0-4x0rp;
#X obj 453 172 s \$0-5x0rp;
#X obj 527 172 s \$0-6x0rp;
#X obj 601 173 s \$0-7x0rp;
#X obj 678 172 s \$0-8x0rp;
#X obj 756 173 s \$0-9x0rp;
#X obj 835 173 s \$0-10x0rp;
#X obj 913 173 s \$0-11x0rp;
#X obj 993 173 s \$0-12x0rp;
#X obj 1079 173 s \$0-13x0rp;
#X obj 1161 173 s \$0-14x0rp;
#X obj 1248 173 s \$0-15x0rp;
#X connect 0 0 2 0;
#X connect 0 0 3 0;
#X connect 0 0 4 0;
#X connect 0 0 5 0;
#X connect 0 0 6 0;
#X connect 0 0 7 0;
#X connect 0 0 8 0;
#X connect 0 0 9 0;
#X connect 0 0 10 0;
#X connect 0 0 11 0;
#X connect 0 0 12 0;
#X connect 0 0 13 0;
#X connect 0 0 14 0;
#X connect 0 0 15 0;
#X connect 0 0 16 0;
#X connect 0 0 17 0;
#X connect 1 0 0 0;
#X restore 1049 373 pd clear patterns;
#X obj 483 474 tabwrite \$0-patterntable;
#X obj 606 330 r \$0-vpatpattern;
#X obj 63 239 r \$0-0x0sp;
#X obj 148 239 r \$0-1x0sp;
#X obj 221 238 r \$0-2x0sp;
#X obj 295 238 r \$0-3x0sp;
#X obj 370 238 r \$0-4x0sp;
#X obj 443 238 r \$0-5x0sp;
#X obj 512 237 r \$0-6x0sp;
#X obj 584 237 r \$0-7x0sp;
#X obj 658 236 r \$0-8x0sp;
#X obj 729 234 r \$0-9x0sp;
#X obj 800 233 r \$0-10x0sp;
#X obj 887 232 r \$0-11x0sp;
#X obj 963 232 r \$0-12x0sp;
#X obj 1039 231 r \$0-13x0sp;
#X obj 1122 230 r \$0-14x0sp;
#X obj 1200 229 r \$0-15x0sp;
#X connect 0 0 1 0;
#X connect 1 0 20 0;
#X connect 1 1 17 0;
#X connect 2 0 1 0;
#X connect 3 0 1 0;
#X connect 4 0 1 0;
#X connect 5 0 1 0;
#X connect 6 0 1 0;
#X connect 7 0 1 0;
#X connect 8 0 1 0;
#X connect 9 0 1 0;
#X connect 10 0 1 0;
#X connect 11 0 1 0;
#X connect 12 0 1 0;
#X connect 13 0 1 0;
#X connect 14 0 1 0;
#X connect 15 0 1 0;
#X connect 16 0 1 0;
#X connect 17 0 20 1;
#X connect 18 0 17 1;
#X connect 21 0 18 0;
#X connect 22 0 0 0;
#X connect 23 0 2 0;
#X connect 24 0 3 0;
#X connect 25 0 4 0;
#X connect 26 0 5 0;
#X connect 27 0 6 0;
#X connect 28 0 7 0;
#X connect 29 0 8 0;
#X connect 30 0 9 0;
#X connect 31 0 10 0;
#X connect 32 0 11 0;
#X connect 33 0 12 0;
#X connect 34 0 13 0;
#X connect 35 0 14 0;
#X connect 36 0 15 0;
#X connect 37 0 16 0;
#X restore 1006 33 pd writerpat;
#N canvas 0 50 1366 696 copierpat 0;
#X obj 369 124 route float list bang;
#X obj 299 185 pack 0 0;
#X obj 410 313 unpack f f;
#X obj 451 259 - 1;
#X obj 433 287 pack 0 0;
#X obj 451 221 f;
#X text 522 262 from/to;
#X obj 451 240 t f f;
#X obj 639 500 * 64;
#X obj 624 519 +;
#X obj 392 468 * 64;
#X obj 377 487 +;
#X obj 410 332 t b f;
#X obj 353 375 until;
#X msg 353 356 64;
#X obj 353 394 count 64;
#X obj 353 413 t f f;
#X obj 369 56 t b b;
#X obj 281 76 f;
#X floatatom 299 56 5 0 0 0 - - -, f 5;
#X obj 377 506 tabread \$0-patterntable, f 24;
#X obj 377 544 tabwrite \$0-patterntable;
#X obj 300 34 r \$0-vpatpattern;
#X obj 344 166 r \$0-vpatpattern;
#X obj 281 100 s \$0-rpatpattern;
#X obj 409 34 r \$0-copypat;
#X connect 0 0 1 0;
#X connect 0 1 2 0;
#X connect 0 2 5 0;
#X connect 1 0 2 0;
#X connect 2 0 12 0;
#X connect 2 1 8 0;
#X connect 3 0 4 0;
#X connect 4 0 2 0;
#X connect 5 0 7 0;
#X connect 7 0 3 0;
#X connect 7 1 4 1;
#X connect 8 0 9 1;
#X connect 9 0 21 1;
#X connect 10 0 11 1;
#X connect 11 0 20 0;
#X connect 12 0 14 0;
#X connect 12 1 10 0;
#X connect 13 0 15 0;
#X connect 14 0 13 0;
#X connect 15 0 16 0;
#X connect 16 0 11 0;
#X connect 16 1 9 0;
#X connect 17 0 18 0;
#X connect 17 1 0 0;
#X connect 18 0 24 0;
#X connect 19 0 18 1;
#X connect 20 0 21 0;
#X connect 22 0 19 0;
#X connect 23 0 1 1;
#X connect 23 0 5 1;
#X connect 25 0 17 0;
#X restore 925 56 pd copierpat;
#N canvas 0 300 1366 696 no 0;
#X floatatom 55 113 5 0 0 0 - - -, f 5;
#X floatatom 222 125 5 0 0 0 - - -, f 5;
#X floatatom 374 127 5 0 0 0 - - -, f 5;
#X floatatom 542 126 5 0 0 0 - - -, f 5;
#X floatatom 691 127 5 0 0 0 - - -, f 5;
#X floatatom 859 126 5 0 0 0 - - -, f 5;
#X floatatom 1011 128 5 0 0 0 - - -, f 5;
#X floatatom 1179 127 5 0 0 0 - - -, f 5;
#X floatatom 51 283 5 0 0 0 - - -, f 5;
#X floatatom 219 282 5 0 0 0 - - -, f 5;
#X floatatom 371 284 5 0 0 0 - - -, f 5;
#X floatatom 539 283 5 0 0 0 - - -, f 5;
#X floatatom 688 284 5 0 0 0 - - -, f 5;
#X floatatom 856 283 5 0 0 0 - - -, f 5;
#X floatatom 1008 285 5 0 0 0 - - -, f 5;
#X floatatom 1176 284 5 0 0 0 - - -, f 5;
#X text 613 156 Pattern 1;
#X obj 54 49 t b f;
#X obj 55 77 f;
#X obj 55 24 change;
#X obj 222 45 t b f;
#X obj 223 73 f;
#X obj 223 20 change;
#X obj 375 49 t b f;
#X obj 376 77 f;
#X obj 376 24 change;
#X obj 542 49 t b f;
#X obj 543 77 f;
#X obj 543 24 change;
#X obj 690 49 t b f;
#X obj 691 77 f;
#X obj 691 24 change;
#X obj 857 45 t b f;
#X obj 858 73 f;
#X obj 858 20 change;
#X obj 1011 49 t b f;
#X obj 1012 77 f;
#X obj 1012 24 change;
#X obj 1180 49 t b f;
#X obj 1181 77 f;
#X obj 1181 24 change;
#X obj 51 202 t b f;
#X obj 52 230 f;
#X obj 52 177 change;
#X obj 219 200 t b f;
#X obj 220 228 f;
#X obj 220 175 change;
#X obj 371 205 t b f;
#X obj 372 233 f;
#X obj 372 180 change;
#X obj 540 202 t b f;
#X obj 541 230 f;
#X obj 541 177 change;
#X obj 688 204 t b f;
#X obj 688 235 f;
#X obj 689 179 change;
#X obj 856 202 t b f;
#X obj 857 230 f;
#X obj 857 177 change;
#X obj 1008 205 t b f;
#X obj 1009 233 f;
#X obj 1009 180 change;
#X obj 1176 205 t b f;
#X obj 1177 233 f;
#X obj 1177 180 change;
#X obj 55 -7 r \$0-0x0sp;
#X obj 101 110 s \$0-p11p;
#X obj 223 -8 r \$0-1x0sp;
#X obj 265 123 s \$0-p12p;
#X obj 375 -6 r \$0-2x0sp;
#X obj 411 126 s \$0-p13p;
#X obj 543 -7 r \$0-3x0sp;
#X obj 578 124 s \$0-p14p;
#X obj 692 -6 r \$0-4x0sp;
#X obj 730 127 s \$0-p15p;
#X obj 858 -7 r \$0-5x0sp;
#X obj 894 123 s \$0-p16p;
#X obj 1012 -5 r \$0-6x0sp;
#X obj 1047 127 s \$0-p17p;
#X obj 1180 -6 r \$0-7x0sp;
#X obj 1213 125 s \$0-p18p;
#X obj 88 283 s \$0-p19p;
#X obj 220 149 r \$0-9x0sp;
#X obj 255 280 s \$0-p110p;
#X obj 372 151 r \$0-10x0sp;
#X obj 405 283 s \$0-p111p;
#X obj 541 148 r \$0-11x0sp;
#X obj 573 281 s \$0-p112p;
#X obj 689 151 r \$0-12x0sp;
#X obj 723 282 s \$0-p113p;
#X obj 858 150 r \$0-13x0sp;
#X obj 893 281 s \$0-p114p;
#X obj 1009 152 r \$0-14x0sp;
#X obj 1044 284 s \$0-p115p;
#X obj 1178 150 r \$0-15x0sp;
#X obj 1211 283 s \$0-p116p;
#X obj 52 150 r \$0-8x0sp;
#X connect 17 0 18 0;
#X connect 17 1 18 1;
#X connect 18 0 0 0;
#X connect 18 0 66 0;
#X connect 19 0 17 0;
#X connect 20 0 21 0;
#X connect 20 1 21 1;
#X connect 21 0 1 0;
#X connect 21 0 68 0;
#X connect 22 0 20 0;
#X connect 23 0 24 0;
#X connect 23 1 24 1;
#X connect 24 0 2 0;
#X connect 24 0 70 0;
#X connect 25 0 23 0;
#X connect 26 0 27 0;
#X connect 26 1 27 1;
#X connect 27 0 3 0;
#X connect 27 0 72 0;
#X connect 28 0 26 0;
#X connect 29 0 30 0;
#X connect 29 1 30 1;
#X connect 30 0 4 0;
#X connect 30 0 74 0;
#X connect 31 0 29 0;
#X connect 32 0 33 0;
#X connect 32 1 33 1;
#X connect 33 0 5 0;
#X connect 33 0 76 0;
#X connect 34 0 32 0;
#X connect 35 0 36 0;
#X connect 35 1 36 1;
#X connect 36 0 6 0;
#X connect 36 0 78 0;
#X connect 37 0 35 0;
#X connect 38 0 39 0;
#X connect 38 1 39 1;
#X connect 39 0 7 0;
#X connect 39 0 80 0;
#X connect 40 0 38 0;
#X connect 41 0 42 0;
#X connect 41 1 42 1;
#X connect 42 0 8 0;
#X connect 42 0 81 0;
#X connect 43 0 41 0;
#X connect 44 0 45 0;
#X connect 44 1 45 1;
#X connect 45 0 9 0;
#X connect 45 0 83 0;
#X connect 46 0 44 0;
#X connect 47 0 48 0;
#X connect 47 1 48 1;
#X connect 48 0 10 0;
#X connect 48 0 85 0;
#X connect 49 0 47 0;
#X connect 50 0 51 0;
#X connect 50 1 51 1;
#X connect 51 0 11 0;
#X connect 51 0 87 0;
#X connect 52 0 50 0;
#X connect 53 0 54 0;
#X connect 53 1 54 1;
#X connect 54 0 12 0;
#X connect 54 0 89 0;
#X connect 55 0 53 0;
#X connect 56 0 57 0;
#X connect 56 1 57 1;
#X connect 57 0 13 0;
#X connect 57 0 91 0;
#X connect 58 0 56 0;
#X connect 59 0 60 0;
#X connect 59 1 60 1;
#X connect 60 0 14 0;
#X connect 60 0 93 0;
#X connect 61 0 59 0;
#X connect 62 0 63 0;
#X connect 62 1 63 1;
#X connect 63 0 15 0;
#X connect 63 0 95 0;
#X connect 64 0 62 0;
#X connect 65 0 19 0;
#X connect 67 0 22 0;
#X connect 69 0 25 0;
#X connect 71 0 28 0;
#X connect 73 0 31 0;
#X connect 75 0 34 0;
#X connect 77 0 37 0;
#X connect 79 0 40 0;
#X connect 82 0 46 0;
#X connect 84 0 49 0;
#X connect 86 0 52 0;
#X connect 88 0 55 0;
#X connect 90 0 58 0;
#X connect 92 0 61 0;
#X connect 94 0 64 0;
#X connect 96 0 43 0;
#X restore 1007 56 pd no wirespat;
#X floatatom 382 84 3 0 7 0 - #0-p11p #0-0x0sp, f 3;
#X floatatom 412 84 3 0 7 0 - #0-p12p #0-1x0sp, f 3;
#X floatatom 442 84 3 0 7 0 - #0-p13p #0-2x0sp, f 3;
#X floatatom 472 84 3 0 7 0 - #0-p14p #0-3x0sp, f 3;
#X floatatom 502 84 3 0 7 0 - #0-p15p #0-4x0sp, f 3;
#X floatatom 532 84 3 0 7 0 - #0-p16p #0-5x0sp, f 3;
#X floatatom 562 84 3 0 7 0 - #0-p17p #0-6x0sp, f 3;
#X floatatom 592 84 3 0 7 0 - #0-p18p #0-7x0sp, f 3;
#X floatatom 622 84 3 0 7 0 - #0-p19p #0-8x0sp, f 3;
#X floatatom 652 84 3 0 7 0 - #0-p110p #0-9x0sp, f 3;
#X floatatom 682 84 3 0 7 0 - #0-p111p #0-10x0sp, f 3;
#X floatatom 712 84 3 0 7 0 - #0-p112p #0-11x0sp, f 3;
#X floatatom 742 84 3 0 7 0 - #0-p113p #0-12x0sp, f 3;
#X floatatom 772 84 3 0 7 0 - #0-p114p #0-13x0sp, f 3;
#X floatatom 802 84 3 0 7 0 - #0-p115p #0-14x0sp, f 3;
#X floatatom 832 84 3 0 7 0 - #0-p116p #0-15x0sp, f 3;
#X obj 408 105 tgl 30 0 \$0-1x0sp \$0-1x0rp empty 17 7 0 10 -260097
-1 -1 0 2;
#X obj 378 105 tgl 30 1 \$0-0x0sp \$0-0x0rp empty 17 7 0 10 -260097
-1 -1 1 1;
#X obj 468 105 tgl 30 0 \$0-3x0sp \$0-3x0rp empty 17 7 0 10 -260097
-1 -1 0 1;
#X obj 438 105 tgl 30 0 \$0-2x0sp \$0-2x0rp empty 17 7 0 10 -260097
-1 -1 0 3;
#X obj 528 105 tgl 30 0 \$0-5x0sp \$0-5x0rp empty 17 7 0 10 -260097
-1 -1 0 3;
#X obj 498 105 tgl 30 0 \$0-4x0sp \$0-4x0rp empty 17 7 0 10 -260097
-1 -1 0 2;
#X obj 587 105 tgl 30 0 \$0-7x0sp \$0-7x0rp empty 17 7 0 10 -260097
-1 -1 0 2;
#X obj 557 105 tgl 30 0 \$0-6x0sp \$0-6x0rp empty 17 7 0 10 -260097
-1 -1 0 1;
#X obj 646 105 tgl 30 0 \$0-9x0sp \$0-9x0rp empty 17 7 0 10 -260097
-1 -1 0 1;
#X obj 616 105 tgl 30 0 \$0-8x0sp \$0-8x0rp empty 17 7 0 10 -260097
-1 -1 0 3;
#X obj 706 105 tgl 30 0 \$0-11x0sp \$0-11x0rp empty 17 7 0 10 -260097
-1 -1 0 3;
#X obj 676 105 tgl 30 0 \$0-10x0sp \$0-10x0rp empty 17 7 0 10 -260097
-1 -1 0 2;
#X obj 766 105 tgl 30 0 \$0-13x0sp \$0-13x0rp empty 17 7 0 10 -260097
-1 -1 0 2;
#X obj 736 105 tgl 30 0 \$0-12x0sp \$0-12x0rp empty 17 7 0 10 -260097
-1 -1 0 1;
#X obj 826 105 tgl 30 0 \$0-15x0sp \$0-15x0rp empty 17 7 0 10 -260097
-1 -1 0 1;
#X obj 796 105 tgl 30 0 \$0-14x0sp \$0-14x0rp empty 17 7 0 10 -260097
-1 -1 0 3;
#X obj 1056 115 s \$0-patternposition;
#X floatatom 961 120 5 0 0 0 - - -, f 5;
#N canvas 0 72 1366 694 table 0;
#X obj 625 -389 r SSSAD;
#X obj 625 -345 t a b;
#X obj 603 -280 drip;
#X obj 655 -180 f;
#X obj 687 -180 + 1;
#X msg 688 -220 0;
#X obj 604 -237 t b f b;
#X msg 557 -205 0;
#X text 744 -234 Read table for SSSAD;
#X obj 603 -313 route \$1/patterntable;
#X obj 604 -141 tabwrite \$0-patterntable;
#X obj 501 -142 s \$0-rpatpattern;
#X obj 131 -177 list prepend;
#X obj 68 -104 t b a;
#X obj 131 -272 f;
#X obj 163 -272 + 1;
#X msg 52 -291 0;
#X obj 68 -141 list append;
#X obj 231 -179 t l;
#X obj 17 -341 t b b b b;
#X obj 68 -32 print;
#X text 199 -250 argument = length \; of table;
#X obj 131 -244 moses 512;
#X text 284 -188 save/store table for SSSAD;
#X obj 129 -382 r storetables;
#X msg 130 -331 512, f 4;
#X obj 128 -305 until;
#X obj 129 -359 t b b;
#X obj 131 -211 tabread \$0-patterntable;
#X obj 68 -69 sssad \$1/patterntable;
#X connect 0 0 1 0;
#X connect 1 0 9 0;
#X connect 1 1 5 0;
#X connect 2 0 6 0;
#X connect 3 0 4 0;
#X connect 3 0 10 1;
#X connect 4 0 3 1;
#X connect 5 0 3 1;
#X connect 6 0 7 0;
#X connect 6 1 10 0;
#X connect 6 2 3 0;
#X connect 7 0 11 0;
#X connect 9 0 2 0;
#X connect 12 0 17 1;
#X connect 12 0 18 0;
#X connect 13 0 29 0;
#X connect 13 1 29 1;
#X connect 14 0 15 0;
#X connect 14 0 22 0;
#X connect 15 0 14 1;
#X connect 16 0 14 1;
#X connect 17 0 13 0;
#X connect 18 0 12 1;
#X connect 19 0 12 1;
#X connect 19 1 17 0;
#X connect 19 2 16 0;
#X connect 22 0 28 0;
#X connect 22 1 19 0;
#X connect 24 0 27 0;
#X connect 25 0 26 0;
#X connect 26 0 14 0;
#X connect 27 0 25 0;
#X connect 27 1 25 0;
#X connect 28 0 12 0;
#X connect 29 0 20 0;
#X restore 1086 33 pd table pattern save;
#X obj 871 55 bng 30 250 50 0 \$0-m1resetpat empty empty 17 7 0 10
-262144 -1 -1;
#X text 869 38 Reset;
#X text 869 172 Reset ALL;
#N canvas 0 72 1366 696 seq 0;
#X obj -224 -322 inlet;
#X obj -59 -166 int;
#X obj -139 -274 int;
#X obj -139 -255 change;
#X obj -241 -266 count 16;
#X obj -160 -186 s \$0-save;
#X obj 119 -263 s \$0-copy;
#X obj -224 -303 route bang float save pat play go set bypass copy
;
#X obj -241 -231 s \$0-cstepbar;
#N canvas 0 50 1370 700 set 0;
#X obj 40 40 inlet;
#X obj 40 96 pack 0 0 0 \$0;
#X obj 40 59 unpack f f f;
#X msg 40 115 \; \$4-\$1x\$2r \$3;
#X connect 0 0 2 0;
#X connect 1 0 3 0;
#X connect 2 0 1 0;
#X connect 2 1 1 1;
#X connect 2 2 1 2;
#X restore 23 -248 pd set;
#X obj 65 -234 s \$0-bypass;
#X obj -42 -198 t b f;
#X floatatom 457 -218 5 0 0 0 - - -, f 5;
#X obj 636 284 outlet;
#X obj 589 35 +;
#X obj 604 10 * 64;
#X obj 457 -95 cup;
#X floatatom 457 -69 5 0 0 0 - - -, f 5;
#X obj 456 -14 - 1;
#X obj 591 96 - 1;
#X msg 368 -237 setbang 1;
#X obj 842 292 outlet;
#X obj 589 67 tabread \$0-patterntable;
#X obj 369 -266 r \$0-m1resetpat;
#X obj 457 -292 r \$0-scalesequencermetro;
#X obj -43 -227 r \$0-vpatpattern;
#X obj -139 -236 s \$0-rpatpattern;
#X floatatom 685 284 5 0 0 0 - - -, f 5;
#X floatatom 384 -56 5 0 0 0 - - -, f 5;
#X floatatom 702 21 5 0 0 0 - - -, f 5;
#X obj -59 -147 s \$0-playpatpat;
#X obj 605 -14 r \$0-playpatpat;
#X obj 272 -266 r m1resetpatall;
#X obj 463 -174 bng 15 250 50 0 empty empty empty 17 7 0 10 -262144
-1 -1;
#X text 659 -191 Bar length maximum here;
#X obj 545 -41 sel 16;
#X msg 503 -123 0;
#X obj 600 129 t f f;
#X obj 626 199 s \$0-nopatternnumber;
#X obj 757 201 s \$0-patternnumber;
#X msg 366 -123 setbang 1;
#X obj 627 163 sel -1;
#X obj 506 236 counter;
#X floatatom 506 262 5 0 0 0 - - -, f 5;
#X obj 365 -149 r \$0-thepatterncup;
#X obj 269 -151 loadbang;
#X obj 446 -196 sel 0;
#X msg 628 -191 0;
#X msg 273 -121 setbang 0;
#X connect 0 0 7 0;
#X connect 1 0 30 0;
#X connect 2 0 3 0;
#X connect 3 0 26 0;
#X connect 4 0 8 0;
#X connect 7 0 4 0;
#X connect 7 1 8 0;
#X connect 7 2 5 0;
#X connect 7 3 2 0;
#X connect 7 4 1 0;
#X connect 7 6 9 0;
#X connect 7 7 10 0;
#X connect 7 8 6 0;
#X connect 11 0 1 0;
#X connect 11 1 1 1;
#X connect 12 0 46 0;
#X connect 14 0 22 0;
#X connect 15 0 14 1;
#X connect 16 0 17 0;
#X connect 17 0 18 0;
#X connect 17 0 35 0;
#X connect 18 0 14 0;
#X connect 18 0 21 0;
#X connect 19 0 37 0;
#X connect 20 0 16 0;
#X connect 22 0 19 0;
#X connect 23 0 20 0;
#X connect 24 0 12 0;
#X connect 25 0 11 0;
#X connect 28 0 18 0;
#X connect 31 0 15 0;
#X connect 31 0 29 0;
#X connect 32 0 20 0;
#X connect 35 0 36 0;
#X connect 36 0 16 0;
#X connect 37 0 13 0;
#X connect 37 0 27 0;
#X connect 37 1 41 0;
#X connect 40 0 16 0;
#X connect 41 0 38 0;
#X connect 41 0 42 0;
#X connect 41 1 39 0;
#X connect 42 0 43 0;
#X connect 44 0 40 0;
#X connect 45 0 48 0;
#X connect 46 0 16 0;
#X connect 46 0 33 0;
#X connect 46 1 47 0;
#X connect 47 0 46 1;
#X connect 48 0 16 0;
#X restore 1014 81 pd seq;
#X connect 50 0 10 0;
#X connect 55 0 10 0;
#X connect 55 1 49 0;
#X restore 1638 464 pd \$0-pattern;
#X obj 2148 192 alternate;
#X msg 2024 281 \; \$1 vis 1;
#X obj 2024 227 f;
#X obj 2227 226 f;
#X msg 2228 280 \; \$1 vis 0;
#X obj 2025 255 makefilename pd-%d-pattern;
#X obj 2227 255 makefilename pd-%d-pattern;
#X text 1661 260 Pattern Select;
#X obj 2073 422 makefilename pd-%d-conductorpattern1;
#X obj 2303 422 makefilename pd-%d-conductorpattern1;
#N canvas 116 415 827 303 \$0-conductorpattern1 0;
#X obj 592 129 cnv 15 820 291 empty empty empty 20 12 0 14 -233017
-66577 0;
#X obj 693 245 hradio 30 1 0 16 \$0-cstep \$0-tempodisplay empty 0
-8 0 10 -262144 -1 -1 0;
#X text 597 253 Tempo Display;
#X text 1310 256 BPM;
#X obj 696 145 hradio 30 1 0 8 \$0-vpat \$0-rpat empty 0 -8 0 10 -262144
-1 -1 0;
#X obj 1185 204 bng 30 250 50 0 \$0-m1clear empty empty 17 7 0 10 -262144
-1 -1;
#X obj 1224 204 tgl 30 0 \$0-melody1onoff \$0-melody1on empty 0 -6
0 8 -257985 -1 -1 1 1;
#X text 1219 180 On/Off;
#X obj 1272 136 tgl 50 0 \$0-on playall PLAY 6 26 0 16 -4034 -1 -1
0 1;
#X obj 1272 256 nbx 3 14 1 200 0 0 \$0-bpm \$0-start_bpm empty 0 -8
0 10 -262144 -1 -1 100 256 0;
#X text 595 399 Output 1;
#X floatatom 697 183 3 0 20 0 - #0-p11 #0-0x0s, f 3;
#X floatatom 727 183 3 0 20 0 - #0-p12 #0-1x0s, f 3;
#X floatatom 757 183 3 0 20 0 - #0-p13 #0-2x0s, f 3;
#X floatatom 787 183 3 0 20 0 - #0-p14 #0-3x0s, f 3;
#X floatatom 817 183 3 0 20 0 - #0-p15 #0-4x0s, f 3;
#X floatatom 847 183 3 0 20 0 - #0-p16 #0-5x0s, f 3;
#X floatatom 877 183 3 0 20 0 - #0-p17 #0-6x0s, f 3;
#X floatatom 907 183 3 0 20 0 - #0-p18 #0-7x0s, f 3;
#X floatatom 937 183 3 0 20 0 - #0-p19 #0-8x0s, f 3;
#X floatatom 967 183 3 0 20 0 - #0-p110 #0-9x0s, f 3;
#X floatatom 997 183 3 0 20 0 - #0-p111 #0-10x0s, f 3;
#X floatatom 1027 183 3 0 20 0 - #0-p112 #0-11x0s, f 3;
#X floatatom 1057 183 3 0 20 0 - #0-p113 #0-12x0s, f 3;
#X floatatom 1087 183 3 0 20 0 - #0-p114 #0-13x0s, f 3;
#X floatatom 1117 183 3 0 20 0 - #0-p115 #0-14x0s, f 3;
#X floatatom 1147 183 3 0 20 0 - #0-p116 #0-15x0s, f 3;
#X text 1181 180 Clear;
#X symbolatom 1293 211 6 0 0 0 - #0-incomingpitch -, f 6;
#X obj 1272 189 vsl 15 60 24 119 0 0 \$0-sendrootnote \$0-receiverootnote
empty 0 -9 0 10 -257985 -1 -1 0 1;
#X text 1291 226 Scale;
#X obj 723 204 tgl 30 0 \$0-1x0s \$0-1x0r empty 17 7 0 10 -260097 -1
-1 0 2;
#X obj 693 204 tgl 30 1 \$0-0x0s \$0-0x0r empty 17 7 0 10 -260097 -1
-1 0 20;
#X obj 783 204 tgl 30 0 \$0-3x0s \$0-3x0r empty 17 7 0 10 -260097 -1
-1 0 12;
#X obj 753 204 tgl 30 0 \$0-2x0s \$0-2x0r empty 17 7 0 10 -260097 -1
-1 0 20;
#X obj 843 204 tgl 30 0 \$0-5x0s \$0-5x0r empty 17 7 0 10 -260097 -1
-1 0 12;
#X obj 813 204 tgl 30 0 \$0-4x0s \$0-4x0r empty 17 7 0 10 -260097 -1
-1 0 16;
#X obj 902 204 tgl 30 0 \$0-7x0s \$0-7x0r empty 17 7 0 10 -260097 -1
-1 0 12;
#X obj 872 204 tgl 30 0 \$0-6x0s \$0-6x0r empty 17 7 0 10 -260097 -1
-1 0 16;
#X obj 961 204 tgl 30 0 \$0-9x0s \$0-9x0r empty 17 7 0 10 -260097 -1
-1 0 2;
#X obj 931 204 tgl 30 0 \$0-8x0s \$0-8x0r empty 17 7 0 10 -260097 -1
-1 0 12;
#X obj 1021 204 tgl 30 0 \$0-11x0s \$0-11x0r empty 17 7 0 10 -260097
-1 -1 0 12;
#X obj 991 204 tgl 30 0 \$0-10x0s \$0-10x0r empty 17 7 0 10 -260097
-1 -1 0 12;
#X obj 1081 204 tgl 30 0 \$0-13x0s \$0-13x0r empty 17 7 0 10 -260097
-1 -1 0 12;
#X obj 1051 204 tgl 30 0 \$0-12x0s \$0-12x0r empty 17 7 0 10 -260097
-1 -1 0 16;
#X obj 1141 204 tgl 30 0 \$0-15x0s \$0-15x0r empty 17 7 0 10 -260097
-1 -1 0 8;
#X obj 1111 204 tgl 30 0 \$0-14x0s \$0-14x0r empty 17 7 0 10 -260097
-1 -1 0 12;
#N canvas 626 274 450 300 pattern 0;
#X obj 86 81 inlet;
#X obj 86 113 s \$0-rpat;
#X connect 0 0 1 0;
#X restore 1575 184 pd pattern select;
#X obj 1575 161 inlet;
#X obj 947 145 bng 30 250 50 0 \$0-copy empty copy 3 14 0 10 -257985
-1 -1;
#X symbolatom 1273 401 12 0 0 0 - #0-incomingnotevalue -, f 12;
#X text 1300 277 1;
#X text 1300 302 1/2;
#X text 1300 326 1/4;
#X text 1300 351 1/8;
#X text 1300 375 1/16;
#X obj 1272 273 vradio 25 1 0 5 \$0-notevalue \$0-notevaluer empty
0 -8 0 10 -262144 -1 -1 2;
#X obj 1338 194 vradio 25 1 0 2 \$0-pen \$0-penr empty 0 -8 0 10 -262144
-1 -1 0;
#X text 1368 223 Pen;
#X text 1368 199 Normal;
#X text 595 130 Ext. Pattern;
#X text 607 211 Pattern 1;
#X text 1312 277 Rhythm Control;
#X text 616 152 Pattern Bank;
#N canvas 0 73 1366 694 engine 0;
#N canvas 0 82 1362 686 bpm 0;
#X obj 34 89 metro;
#X obj 94 34 expr (1 / $f1) * 60000;
#X obj 34 34 r \$0-on;
#X obj 94 8 r \$0-bpm;
#X obj 81 89 s \$0-crotchet;
#X obj 29 547 s \$0-tempodisplay;
#X obj 80 125 r \$0-rhythmselect;
#X text 270 65 Pulse;
#X text 207 124 Note Value Select;
#X obj 94 67 s \$0-bpmmilliseconds;
#X obj -18 288 loadbang;
#X msg -7 163 0;
#X obj -94 339 s \$0-penr;
#X floatatom -1 233 5 0 0 0 - - -, f 5;
#X text 388 316 Pendulum Mode 15 = max up 0 = max down;
#X obj 184 319 spigot;
#X msg 223 290 1;
#X msg 254 290 0;
#X obj 184 341 sel 0 15;
#X msg 118 162 0;
#X msg 149 162 1;
#X obj 529 68 r \$0-pen;
#X obj 529 96 sel 0 1;
#X obj 552 124 t b b;
#X obj 530 232 t b b;
#X obj 321 320 spigot;
#X msg 360 291 1;
#X msg 391 291 0;
#X obj 321 342 sel 0 15;
#X msg -7 189 goto \$1;
#X obj 80 216 counter 0 15;
#X obj 58 255 bng 15 250 50 0 empty empty empty 17 7 0 10 -262144 -1
-1;
#X text 699 126 Play all Option;
#X floatatom 823 191 5 0 0 0 - - -, f 5;
#X obj 823 155 f;
#X obj 823 102 change;
#X obj 822 48 r \$0-playall;
#X obj 861 190 s playall;
#X obj 254 549 s \$0-scalesequencermetro;
#X obj 822 127 t b f;
#X obj 95 413 t f f;
#X connect 0 0 4 0;
#X connect 1 0 0 1;
#X connect 1 0 9 0;
#X connect 2 0 0 0;
#X connect 3 0 1 0;
#X connect 6 0 30 0;
#X connect 10 0 11 0;
#X connect 10 0 17 0;
#X connect 10 0 19 0;
#X connect 11 0 12 0;
#X connect 11 0 29 0;
#X connect 15 0 18 0;
#X connect 16 0 15 1;
#X connect 17 0 15 1;
#X connect 18 0 19 0;
#X connect 18 1 20 0;
#X connect 19 0 30 1;
#X connect 20 0 30 1;
#X connect 21 0 22 0;
#X connect 22 0 24 0;
#X connect 22 1 23 0;
#X connect 23 0 16 0;
#X connect 23 1 27 0;
#X connect 24 0 26 0;
#X connect 24 1 17 0;
#X connect 25 0 28 0;
#X connect 26 0 25 1;
#X connect 27 0 25 1;
#X connect 28 0 19 0;
#X connect 28 1 19 0;
#X connect 29 0 30 0;
#X connect 30 0 13 0;
#X connect 30 0 15 0;
#X connect 30 0 25 0;
#X connect 30 0 31 0;
#X connect 30 0 40 0;
#X connect 34 0 33 0;
#X connect 34 0 37 0;
#X connect 35 0 39 0;
#X connect 36 0 35 0;
#X connect 39 0 34 0;
#X connect 39 1 34 1;
#X connect 40 0 5 0;
#X connect 40 1 38 0;
#X restore 1128 240 pd bpm;
#N canvas 0 24 1366 696 seq 0;
#X floatatom 330 -19 5 0 0 0 - - -, f 5;
#X obj 330 -83 r \$0-tempodisplay;
#X obj 144 40 gate 5;
#X msg 60 -51 5;
#X obj 139 -143 r \$0-syncon;
#X obj 532 24 cup;
#X floatatom 532 50 5 0 0 0 - - -, f 5;
#X obj 620 78 sel 4;
#X obj 620 106 delay 0;
#X obj 450 -37 loadbang;
#X msg 567 24 1;
#X msg 450 21 setbang 0;
#X obj 34 -27 switch 2;
#X msg -71 -57 1;
#X msg -37 -57 2;
#X obj 231 -143 r \$0-syncpresson;
#X obj -37 -140 r \$0-orderedpresson;
#X obj 231 -107 t b b;
#X obj 532 -5 sel 0;
#X msg 661 -20 15;
#X obj 83 440 outlet;
#X obj 345 439 outlet;
#X obj 615 443 outlet;
#X obj 877 443 outlet;
#X obj 1057 -6 r \$0-playpat;
#X obj 821 131 tabread \$0-dsdata;
#X obj 947 131 tabread \$0-dsdata;
#X obj 1071 130 tabread \$0-dsdata;
#X obj 1197 130 tabread \$0-dsdata;
#X obj 947 112 + 16;
#X obj 821 112 +;
#X obj 1071 111 + 32;
#X obj 1197 111 + 48;
#X obj 1057 13 * 64;
#X obj 1046 44 + 16;
#X obj 1076 44 + 32;
#X obj 1106 44 + 48;
#X obj 821 150 sel 0;
#X obj 947 150 sel 0;
#X obj 1071 149 sel 0;
#X obj 1196 147 sel 0;
#X obj 433 -236 inlet;
#X obj 598 -80 int;
#X obj 518 -188 int;
#X obj 518 -169 change;
#X obj 614 -132 r \$0-vpat;
#X obj 518 -150 s \$0-rpat;
#X obj 598 -61 s \$0-playpat;
#X obj 551 -121 r \$0-go;
#X obj 416 -180 count 16;
#X obj 497 -100 s \$0-save;
#X obj 749 -163 s \$0-copy;
#X obj 433 -217 route bang float save pat play go set bypass copy;
#X obj 416 -145 s \$0-cstepbar;
#N canvas 0 50 1370 700 set 0;
#X obj 40 40 inlet;
#X obj 40 96 pack 0 0 0 \$0;
#X obj 40 59 unpack f f f;
#X msg 40 115 \; \$4-\$1x\$2r \$3;
#X connect 0 0 2 0;
#X connect 1 0 3 0;
#X connect 2 0 1 0;
#X connect 2 1 1 1;
#X connect 2 2 1 2;
#X restore 653 -148 pd set;
#X obj 695 -134 s \$0-bypass;
#X obj 615 -112 t b f;
#X obj 300 -271 r \$0-tempodisplay;
#X msg 349 -239 bang;
#X obj -37 -111 t b b;
#X connect 0 0 2 1;
#X connect 0 0 18 0;
#X connect 1 0 0 0;
#X connect 2 0 30 0;
#X connect 2 1 29 0;
#X connect 2 2 31 0;
#X connect 2 3 32 0;
#X connect 2 4 30 0;
#X connect 2 4 29 0;
#X connect 2 4 31 0;
#X connect 2 4 32 0;
#X connect 3 0 12 1;
#X connect 4 0 17 0;
#X connect 5 0 6 0;
#X connect 6 0 7 0;
#X connect 6 0 12 2;
#X connect 7 0 8 0;
#X connect 8 0 10 0;
#X connect 9 0 11 0;
#X connect 10 0 5 0;
#X connect 11 0 5 0;
#X connect 12 0 2 0;
#X connect 13 0 12 0;
#X connect 14 0 12 0;
#X connect 15 0 17 0;
#X connect 16 0 59 0;
#X connect 17 0 3 0;
#X connect 17 1 13 0;
#X connect 18 0 5 0;
#X connect 18 1 19 0;
#X connect 19 0 18 1;
#X connect 24 0 33 0;
#X connect 25 0 37 0;
#X connect 26 0 38 0;
#X connect 27 0 39 0;
#X connect 28 0 40 0;
#X connect 29 0 26 0;
#X connect 30 0 25 0;
#X connect 31 0 27 0;
#X connect 32 0 28 0;
#X connect 33 0 30 1;
#X connect 33 0 34 0;
#X connect 33 0 35 0;
#X connect 33 0 36 0;
#X connect 34 0 29 1;
#X connect 35 0 31 1;
#X connect 36 0 32 1;
#X connect 37 1 20 0;
#X connect 38 1 21 0;
#X connect 39 1 22 0;
#X connect 40 1 23 0;
#X connect 41 0 52 0;
#X connect 42 0 47 0;
#X connect 43 0 44 0;
#X connect 44 0 46 0;
#X connect 45 0 56 0;
#X connect 49 0 53 0;
#X connect 52 0 49 0;
#X connect 52 1 53 0;
#X connect 52 2 50 0;
#X connect 52 3 43 0;
#X connect 52 4 42 0;
#X connect 52 6 54 0;
#X connect 52 7 55 0;
#X connect 52 8 51 0;
#X connect 56 0 42 0;
#X connect 56 1 42 1;
#X connect 57 0 58 0;
#X connect 58 0 52 0;
#X connect 59 0 14 0;
#X connect 59 1 11 0;
#X restore 1181 240 pd seq;
#X obj 919 374 outlet;
#X obj 886 389 bng 15 250 50 0 empty empty empty 17 7 0 10 -262144
-1 -1;
#X floatatom 1004 378 5 0 0 0 - - -, f 5;
#X obj 1263 378 outlet;
#X obj 1231 393 bng 15 250 50 0 empty empty empty 17 7 0 10 -262144
-1 -1;
#X floatatom 1374 381 5 0 0 0 - - -, f 5;
#X obj 1648 374 outlet;
#X obj 1615 389 bng 15 250 50 0 empty empty empty 17 7 0 10 -262144
-1 -1;
#X floatatom 1758 377 5 0 0 0 - - -, f 5;
#X obj 1993 376 outlet;
#X obj 1960 391 bng 15 250 50 0 empty empty empty 17 7 0 10 -262144
-1 -1;
#X floatatom 2078 381 5 0 0 0 - - -, f 5;
#X obj 919 347 switch 2;
#X msg 813 316 1;
#X msg 851 316 2;
#X obj 977 84 s \$0-melody1on;
#X obj 813 264 r \$0-melody1onoff;
#X obj 813 288 sel 1 0;
#X msg 579 298 1;
#X obj 1263 349 switch 2;
#X msg 1157 318 1;
#X msg 1195 318 2;
#X obj 1157 290 sel 1 0;
#X obj 1157 266 r \$0-melody2onoff;
#X obj 1648 341 switch 2;
#X msg 1542 310 1;
#X msg 1580 310 2;
#X obj 1542 282 sel 1 0;
#X obj 1542 258 r \$0-melody3onoff;
#X obj 1993 346 switch 2;
#X msg 1887 315 1;
#X msg 1925 315 2;
#X obj 1887 287 sel 1 0;
#X obj 1887 263 r \$0-melody4onoff;
#X obj 593 359 s \$0-melody2on;
#X obj 613 386 s \$0-melody3on;
#X obj 643 412 s \$0-melody4on;
#X obj 708 121 s \$0-syncon;
#N canvas 0 50 1366 686 Incomingpitchnotenaming 0;
#X obj 71 2 inlet;
#X floatatom 320 18 5 0 0 0 - - -, f 5;
#X text 116 3 MIDI Root Note Number;
#X msg 264 183 C4;
#X msg 20 123 bang;
#X msg 95 128 set C1;
#X msg 151 128 set C2;
#X msg 208 128 set C3;
#X obj 118 77 route 24 36 48 60 72 84 96 108;
#X msg 264 128 set C4;
#X msg 320 128 set C5;
#X msg 377 128 set C6;
#X msg 435 129 set C7;
#X msg 492 129 set C8;
#X text 334 71 All the Cs;
#X msg 821 183 C#/Db3;
#X msg 577 123 bang;
#X text 891 70 All the C#s;
#X obj 675 77 route 25 37 49 61 73 85 97 109;
#X msg 254 417 D3;
#X msg 10 357 bang;
#X obj 108 311 route 26 38 50 62 74 86 98 110;
#X text 324 304 All the Ds;
#X msg 85 362 set D1;
#X msg 141 362 set D2;
#X msg 198 362 set D3;
#X msg 254 362 set D4;
#X msg 310 362 set D5;
#X msg 367 362 set D6;
#X msg 425 363 set D7;
#X msg 482 363 set D8;
#X msg 828 422 D#/Eb3;
#X msg 584 362 bang;
#X text 898 309 All the D#s;
#X obj 682 316 route 27 39 51 63 75 87 99 111;
#X msg 257 619 E3;
#X msg 13 559 bang;
#X msg 831 624 F3;
#X msg 587 564 bang;
#X text 901 511 All the Fs;
#X obj 111 513 route 28 40 52 64 76 88 100 112;
#X obj 685 518 route 29 41 53 65 77 89 101 113;
#X msg 88 564 set E1;
#X msg 144 564 set E2;
#X msg 201 564 set E3;
#X msg 257 564 set E4;
#X msg 313 564 set E5;
#X msg 370 564 set E6;
#X msg 428 565 set E7;
#X msg 485 565 set E8;
#X msg 662 569 set F1;
#X msg 718 569 set F2;
#X msg 775 569 set F3;
#X msg 831 569 set F4;
#X msg 887 569 set F5;
#X msg 944 569 set F6;
#X msg 1002 570 set F7;
#X msg 1059 570 set F8;
#X msg 251 824 F#/Gb3;
#X msg 7 764 bang;
#X obj 105 718 route 30 42 54 66 78 90 102 114;
#X text 321 711 All the F#s;
#X msg 826 830 G4;
#X msg 582 770 bang;
#X obj 680 724 route 31 43 55 67 79 91 103 115;
#X text 896 717 All the Gs;
#X msg 657 775 set G1;
#X msg 713 775 set G2;
#X msg 770 775 set G3;
#X msg 826 775 set G4;
#X msg 882 775 set G5;
#X msg 939 775 set G6;
#X msg 997 776 set G7;
#X msg 1054 776 set G8;
#X msg 257 1037 G#/Ab3;
#X msg 13 977 bang;
#X obj 111 931 route 32 44 56 68 80 92 104 116;
#X text 327 924 All the G#s;
#X msg 833 1044 A3;
#X msg 589 984 bang;
#X obj 687 938 route 33 45 57 69 81 93 105 117;
#X text 903 931 All the As;
#X msg 1061 990 set A8;
#X msg 1004 990 set A7;
#X msg 946 989 set A6;
#X msg 889 989 set A5;
#X msg 833 989 set A4;
#X msg 777 989 set A3;
#X msg 720 989 set A2;
#X msg 664 989 set A1;
#X msg 251 1242 A#/Bb3;
#X msg 7 1182 bang;
#X text 321 1129 All the A#s;
#X obj 105 1136 route 34 46 58 70 82 94 106 118;
#X msg 827 1248 B8;
#X msg 583 1188 bang;
#X obj 681 1142 route 35 47 59 71 83 95 107 119;
#X text 897 1135 All the Bs;
#X msg 1055 1194 set B8;
#X msg 998 1194 set B7;
#X msg 940 1193 set B6;
#X msg 883 1193 set B5;
#X msg 827 1193 set B4;
#X msg 771 1193 set B3;
#X msg 714 1193 set B2;
#X msg 658 1193 set B1;
#X msg 652 128 set C#/Db1;
#X msg 708 128 set C#/Db2;
#X msg 765 128 set C#/Db3;
#X msg 821 128 set C#/Db4;
#X msg 877 128 set C#/Db5;
#X msg 934 128 set C#/Db6;
#X msg 992 129 set C#/Db7;
#X msg 1049 129 set C#/Db8;
#X msg 659 367 set D#/Eb1;
#X msg 715 367 set D#/Eb2;
#X msg 772 367 set D#/Eb3;
#X msg 828 367 set D#/Eb4;
#X msg 884 367 set D#/Eb5;
#X msg 941 367 set D#/Eb6;
#X msg 999 368 set D#/Eb7;
#X msg 1056 368 set D#/Eb8;
#X msg 82 769 set F#/Gb1;
#X msg 138 769 set F#/Gb2;
#X msg 195 769 set F#/Gb3;
#X msg 251 769 set F#/Gb4;
#X msg 307 769 set F#/Gb5;
#X msg 364 769 set F#/Gb6;
#X msg 422 770 set F#/Gb7;
#X msg 479 770 set F#/Gb8;
#X msg 88 982 set G#/Ab1;
#X msg 144 982 set G#/Ab2;
#X msg 201 982 set G#/Ab3;
#X msg 257 982 set G#/Ab4;
#X msg 313 982 set G#/Ab5;
#X msg 370 982 set G#/Ab6;
#X msg 428 983 set G#/Ab7;
#X msg 485 983 set G#/Ab8;
#X msg 82 1187 set A#/Bb1;
#X msg 138 1187 set A#/Bb2;
#X msg 195 1187 set A#/Bb3;
#X msg 251 1187 set A#/Bb4;
#X msg 307 1187 set A#/Bb5;
#X msg 364 1187 set A#/Bb6;
#X msg 422 1188 set A#/Bb7;
#X msg 479 1188 set A#/Bb8;
#X text 329 511 All the Es;
#X obj 534 1284 s \$0-incomingpitch;
#X obj 534 1259 symbol;
#X connect 0 0 1 0;
#X connect 1 0 8 0;
#X connect 1 0 18 0;
#X connect 1 0 21 0;
#X connect 1 0 34 0;
#X connect 1 0 40 0;
#X connect 1 0 41 0;
#X connect 1 0 60 0;
#X connect 1 0 64 0;
#X connect 1 0 76 0;
#X connect 1 0 80 0;
#X connect 1 0 93 0;
#X connect 1 0 96 0;
#X connect 3 0 148 0;
#X connect 4 0 3 0;
#X connect 5 0 3 0;
#X connect 6 0 3 0;
#X connect 7 0 3 0;
#X connect 8 0 5 0;
#X connect 8 0 4 0;
#X connect 8 1 6 0;
#X connect 8 1 4 0;
#X connect 8 2 7 0;
#X connect 8 2 4 0;
#X connect 8 3 9 0;
#X connect 8 3 4 0;
#X connect 8 4 10 0;
#X connect 8 4 4 0;
#X connect 8 5 11 0;
#X connect 8 5 4 0;
#X connect 8 6 12 0;
#X connect 8 6 4 0;
#X connect 8 7 13 0;
#X connect 8 7 4 0;
#X connect 9 0 3 0;
#X connect 10 0 3 0;
#X connect 11 0 3 0;
#X connect 12 0 3 0;
#X connect 13 0 3 0;
#X connect 15 0 148 0;
#X connect 16 0 15 0;
#X connect 18 0 106 0;
#X connect 18 0 16 0;
#X connect 18 1 107 0;
#X connect 18 1 16 0;
#X connect 18 2 108 0;
#X connect 18 2 16 0;
#X connect 18 3 109 0;
#X connect 18 3 16 0;
#X connect 18 4 110 0;
#X connect 18 4 16 0;
#X connect 18 5 111 0;
#X connect 18 5 16 0;
#X connect 18 6 112 0;
#X connect 18 6 16 0;
#X connect 18 7 113 0;
#X connect 18 7 16 0;
#X connect 19 0 148 0;
#X connect 20 0 19 0;
#X connect 21 0 23 0;
#X connect 21 0 20 0;
#X connect 21 1 24 0;
#X connect 21 1 20 0;
#X connect 21 2 25 0;
#X connect 21 2 20 0;
#X connect 21 3 26 0;
#X connect 21 3 20 0;
#X connect 21 4 27 0;
#X connect 21 4 20 0;
#X connect 21 5 28 0;
#X connect 21 5 20 0;
#X connect 21 6 29 0;
#X connect 21 6 20 0;
#X connect 21 7 30 0;
#X connect 21 7 20 0;
#X connect 23 0 19 0;
#X connect 24 0 19 0;
#X connect 25 0 19 0;
#X connect 26 0 19 0;
#X connect 27 0 19 0;
#X connect 28 0 19 0;
#X connect 29 0 19 0;
#X connect 30 0 19 0;
#X connect 31 0 148 0;
#X connect 32 0 31 0;
#X connect 34 0 114 0;
#X connect 34 0 32 0;
#X connect 34 1 115 0;
#X connect 34 1 32 0;
#X connect 34 2 116 0;
#X connect 34 2 32 0;
#X connect 34 3 117 0;
#X connect 34 3 32 0;
#X connect 34 4 118 0;
#X connect 34 4 32 0;
#X connect 34 5 119 0;
#X connect 34 5 32 0;
#X connect 34 6 120 0;
#X connect 34 6 32 0;
#X connect 34 7 121 0;
#X connect 34 7 32 0;
#X connect 35 0 148 0;
#X connect 36 0 35 0;
#X connect 37 0 148 0;
#X connect 38 0 37 0;
#X connect 40 0 42 0;
#X connect 40 0 36 0;
#X connect 40 1 43 0;
#X connect 40 1 36 0;
#X connect 40 2 44 0;
#X connect 40 2 36 0;
#X connect 40 3 45 0;
#X connect 40 3 36 0;
#X connect 40 4 46 0;
#X connect 40 4 36 0;
#X connect 40 5 47 0;
#X connect 40 5 36 0;
#X connect 40 6 48 0;
#X connect 40 6 36 0;
#X connect 40 7 49 0;
#X connect 40 7 36 0;
#X connect 41 0 50 0;
#X connect 41 0 38 0;
#X connect 41 1 51 0;
#X connect 41 1 38 0;
#X connect 41 2 52 0;
#X connect 41 2 38 0;
#X connect 41 3 53 0;
#X connect 41 3 38 0;
#X connect 41 4 54 0;
#X connect 41 4 38 0;
#X connect 41 5 55 0;
#X connect 41 5 38 0;
#X connect 41 6 56 0;
#X connect 41 6 38 0;
#X connect 41 7 57 0;
#X connect 41 7 38 0;
#X connect 42 0 35 0;
#X connect 43 0 35 0;
#X connect 44 0 35 0;
#X connect 45 0 35 0;
#X connect 46 0 35 0;
#X connect 47 0 35 0;
#X connect 48 0 35 0;
#X connect 49 0 35 0;
#X connect 50 0 37 0;
#X connect 51 0 37 0;
#X connect 52 0 37 0;
#X connect 53 0 37 0;
#X connect 54 0 37 0;
#X connect 55 0 37 0;
#X connect 56 0 37 0;
#X connect 57 0 37 0;
#X connect 58 0 148 0;
#X connect 59 0 58 0;
#X connect 60 0 122 0;
#X connect 60 0 59 0;
#X connect 60 1 123 0;
#X connect 60 1 59 0;
#X connect 60 2 124 0;
#X connect 60 2 59 0;
#X connect 60 3 125 0;
#X connect 60 3 59 0;
#X connect 60 4 126 0;
#X connect 60 4 59 0;
#X connect 60 5 127 0;
#X connect 60 5 59 0;
#X connect 60 6 128 0;
#X connect 60 6 59 0;
#X connect 60 7 129 0;
#X connect 60 7 59 0;
#X connect 62 0 148 0;
#X connect 63 0 62 0;
#X connect 64 0 66 0;
#X connect 64 0 63 0;
#X connect 64 1 67 0;
#X connect 64 1 63 0;
#X connect 64 2 68 0;
#X connect 64 2 63 0;
#X connect 64 3 69 0;
#X connect 64 3 63 0;
#X connect 64 4 70 0;
#X connect 64 4 63 0;
#X connect 64 5 71 0;
#X connect 64 5 63 0;
#X connect 64 6 72 0;
#X connect 64 6 63 0;
#X connect 64 7 73 0;
#X connect 64 7 63 0;
#X connect 66 0 62 0;
#X connect 67 0 62 0;
#X connect 68 0 62 0;
#X connect 69 0 62 0;
#X connect 70 0 62 0;
#X connect 71 0 62 0;
#X connect 72 0 62 0;
#X connect 73 0 62 0;
#X connect 74 0 148 0;
#X connect 75 0 74 0;
#X connect 76 0 130 0;
#X connect 76 0 75 0;
#X connect 76 1 131 0;
#X connect 76 1 75 0;
#X connect 76 2 132 0;
#X connect 76 2 75 0;
#X connect 76 3 133 0;
#X connect 76 3 75 0;
#X connect 76 4 134 0;
#X connect 76 4 75 0;
#X connect 76 5 135 0;
#X connect 76 5 75 0;
#X connect 76 6 136 0;
#X connect 76 6 75 0;
#X connect 76 7 137 0;
#X connect 76 7 75 0;
#X connect 78 0 148 0;
#X connect 79 0 78 0;
#X connect 80 0 89 0;
#X connect 80 0 79 0;
#X connect 80 1 88 0;
#X connect 80 1 79 0;
#X connect 80 2 87 0;
#X connect 80 2 79 0;
#X connect 80 3 86 0;
#X connect 80 3 79 0;
#X connect 80 4 85 0;
#X connect 80 4 79 0;
#X connect 80 5 84 0;
#X connect 80 5 79 0;
#X connect 80 6 83 0;
#X connect 80 6 79 0;
#X connect 80 7 82 0;
#X connect 80 7 79 0;
#X connect 82 0 78 0;
#X connect 83 0 78 0;
#X connect 84 0 78 0;
#X connect 85 0 78 0;
#X connect 86 0 78 0;
#X connect 87 0 78 0;
#X connect 88 0 78 0;
#X connect 89 0 78 0;
#X connect 90 0 148 0;
#X connect 91 0 90 0;
#X connect 93 0 138 0;
#X connect 93 0 91 0;
#X connect 93 1 139 0;
#X connect 93 1 91 0;
#X connect 93 2 140 0;
#X connect 93 2 91 0;
#X connect 93 3 141 0;
#X connect 93 3 91 0;
#X connect 93 4 142 0;
#X connect 93 4 91 0;
#X connect 93 5 143 0;
#X connect 93 5 91 0;
#X connect 93 6 144 0;
#X connect 93 6 91 0;
#X connect 93 7 145 0;
#X connect 93 7 91 0;
#X connect 94 0 148 0;
#X connect 95 0 94 0;
#X connect 96 0 105 0;
#X connect 96 0 95 0;
#X connect 96 1 104 0;
#X connect 96 1 95 0;
#X connect 96 2 103 0;
#X connect 96 2 95 0;
#X connect 96 3 102 0;
#X connect 96 3 95 0;
#X connect 96 4 101 0;
#X connect 96 4 95 0;
#X connect 96 5 100 0;
#X connect 96 5 95 0;
#X connect 96 6 99 0;
#X connect 96 6 95 0;
#X connect 96 7 98 0;
#X connect 96 7 95 0;
#X connect 98 0 94 0;
#X connect 99 0 94 0;
#X connect 100 0 94 0;
#X connect 101 0 94 0;
#X connect 102 0 94 0;
#X connect 103 0 94 0;
#X connect 104 0 94 0;
#X connect 105 0 94 0;
#X connect 106 0 15 0;
#X connect 107 0 15 0;
#X connect 108 0 15 0;
#X connect 109 0 15 0;
#X connect 110 0 15 0;
#X connect 111 0 15 0;
#X connect 112 0 15 0;
#X connect 113 0 15 0;
#X connect 114 0 31 0;
#X connect 115 0 31 0;
#X connect 116 0 31 0;
#X connect 117 0 31 0;
#X connect 118 0 31 0;
#X connect 119 0 31 0;
#X connect 120 0 31 0;
#X connect 121 0 31 0;
#X connect 122 0 58 0;
#X connect 123 0 58 0;
#X connect 124 0 58 0;
#X connect 125 0 58 0;
#X connect 126 0 58 0;
#X connect 127 0 58 0;
#X connect 128 0 58 0;
#X connect 129 0 58 0;
#X connect 130 0 74 0;
#X connect 131 0 74 0;
#X connect 132 0 74 0;
#X connect 133 0 74 0;
#X connect 134 0 74 0;
#X connect 135 0 74 0;
#X connect 136 0 74 0;
#X connect 137 0 74 0;
#X connect 138 0 90 0;
#X connect 139 0 90 0;
#X connect 140 0 90 0;
#X connect 141 0 90 0;
#X connect 142 0 90 0;
#X connect 143 0 90 0;
#X connect 144 0 90 0;
#X connect 145 0 90 0;
#X connect 148 0 147 0;
#X restore 1237 241 pd Incomingpitchnotenaming;
#X floatatom 1237 184 5 0 0 0 - - -, f 5;
#X obj 1237 159 int;
#X obj 1237 131 r \$0-sendrootnote;
#X obj 1276 184 s rn;
#N canvas 0 52 1366 696 reader 0;
#X obj 167 202 pack 0 0 \$0;
#X obj 275 202 pack 0 0 \$0;
#X obj 383 202 pack 0 0 \$0;
#X obj 491 202 pack 0 0 \$0;
#X msg 491 221 \; \$3-\$2x3r \$1;
#X msg 383 221 \; \$3-\$2x2r \$1;
#X msg 275 221 \; \$3-\$2x1r \$1;
#X msg 167 221 \; \$3-\$2x0r \$1;
#X text 578 227 toggle boxes are in the format: \$0-XxYr;
#X obj 167 143 tabread \$0-dsdata;
#X obj 275 143 tabread \$0-dsdata;
#X obj 383 143 tabread \$0-dsdata;
#X obj 491 143 tabread \$0-dsdata;
#X obj 275 124 + 16;
#X obj 167 124 +;
#X obj 383 124 + 32;
#X obj 491 124 + 48;
#X obj 385 25 * 64;
#X obj 374 56 + 16;
#X obj 404 56 + 32;
#X obj 434 56 + 48;
#X obj 358 -53 r \$0-vpat;
#X obj 358 -34 t b f;
#X obj 270 9 until;
#X msg 270 -10 16;
#X obj 270 28 count 16;
#X obj 270 47 t f f;
#X connect 0 0 7 0;
#X connect 1 0 6 0;
#X connect 2 0 5 0;
#X connect 3 0 4 0;
#X connect 9 0 0 0;
#X connect 10 0 1 0;
#X connect 11 0 2 0;
#X connect 12 0 3 0;
#X connect 13 0 10 0;
#X connect 14 0 9 0;
#X connect 15 0 11 0;
#X connect 16 0 12 0;
#X connect 17 0 14 1;
#X connect 17 0 18 0;
#X connect 17 0 19 0;
#X connect 17 0 20 0;
#X connect 18 0 13 1;
#X connect 19 0 15 1;
#X connect 20 0 16 1;
#X connect 21 0 22 0;
#X connect 22 0 24 0;
#X connect 22 1 17 0;
#X connect 23 0 25 0;
#X connect 24 0 23 0;
#X connect 25 0 26 0;
#X connect 26 0 16 0;
#X connect 26 0 15 0;
#X connect 26 0 13 0;
#X connect 26 0 14 0;
#X connect 26 1 3 1;
#X connect 26 1 2 1;
#X connect 26 1 1 1;
#X connect 26 1 0 1;
#X restore 1469 -252 pd reader;
#N canvas 0 50 1364 686 writer 0;
#X obj 101 -18 r \$0-0x0s;
#X obj 161 -12 r \$0-1x0s;
#X obj 221 -12 r \$0-2x0s;
#X obj 281 -12 r \$0-3x0s;
#X obj 341 -12 r \$0-4x0s;
#X obj 401 -12 r \$0-5x0s;
#X obj 461 -12 r \$0-6x0s;
#X obj 521 -12 r \$0-7x0s;
#X obj 581 -12 r \$0-8x0s;
#X obj 641 -12 r \$0-9x0s;
#X obj 701 -12 r \$0-10x0s;
#X obj 767 -12 r \$0-11x0s;
#X obj 833 -12 r \$0-12x0s;
#X obj 899 -12 r \$0-13x0s;
#X obj 965 -12 r \$0-14x0s;
#X obj 1031 -12 r \$0-15x0s;
#X msg 101 7 \$1 0;
#X obj 548 77 unpack;
#X msg 161 7 \$1 1;
#X msg 221 7 \$1 2;
#X msg 281 7 \$1 3;
#X msg 341 7 \$1 4;
#X msg 401 7 \$1 5;
#X msg 461 7 \$1 6;
#X msg 521 7 \$1 7;
#X msg 581 7 \$1 8;
#X msg 641 7 \$1 9;
#X msg 701 7 \$1 10;
#X msg 767 7 \$1 11;
#X msg 833 7 \$1 12;
#X msg 899 7 \$1 13;
#X msg 965 7 \$1 14;
#X msg 1031 7 \$1 15;
#X obj 522 140 tabwrite \$0-dsdata;
#X obj 627 121 +;
#X obj 642 102 * 64;
#X obj 642 83 r \$0-vpat;
#X msg 101 178 \$1 0;
#X obj 548 248 unpack;
#X msg 161 178 \$1 1;
#X msg 221 178 \$1 2;
#X msg 281 178 \$1 3;
#X msg 341 178 \$1 4;
#X msg 401 178 \$1 5;
#X msg 461 178 \$1 6;
#X msg 521 178 \$1 7;
#X msg 581 178 \$1 8;
#X msg 641 178 \$1 9;
#X msg 701 178 \$1 10;
#X msg 767 178 \$1 11;
#X msg 833 178 \$1 12;
#X msg 899 178 \$1 13;
#X msg 965 178 \$1 14;
#X msg 1031 178 \$1 15;
#X obj 522 330 tabwrite \$0-dsdata;
#X obj 648 273 * 64;
#X obj 648 254 r \$0-vpat;
#X obj 627 311 + 16;
#X obj 648 292 + 16;
#X msg 101 368 \$1 0;
#X obj 548 438 unpack;
#X msg 161 368 \$1 1;
#X msg 221 368 \$1 2;
#X msg 281 368 \$1 3;
#X msg 341 368 \$1 4;
#X msg 401 368 \$1 5;
#X msg 461 368 \$1 6;
#X msg 521 368 \$1 7;
#X msg 581 368 \$1 8;
#X msg 641 368 \$1 9;
#X msg 701 368 \$1 10;
#X msg 767 368 \$1 11;
#X msg 833 368 \$1 12;
#X msg 899 368 \$1 13;
#X msg 965 368 \$1 14;
#X msg 1031 368 \$1 15;
#X obj 522 520 tabwrite \$0-dsdata;
#X obj 648 463 * 64;
#X obj 648 444 r \$0-vpat;
#X msg 101 558 \$1 0;
#X obj 548 628 unpack;
#X msg 161 558 \$1 1;
#X msg 221 558 \$1 2;
#X msg 281 558 \$1 3;
#X msg 341 558 \$1 4;
#X msg 401 558 \$1 5;
#X msg 461 558 \$1 6;
#X msg 521 558 \$1 7;
#X msg 581 558 \$1 8;
#X msg 641 558 \$1 9;
#X msg 701 558 \$1 10;
#X msg 767 558 \$1 11;
#X msg 833 558 \$1 12;
#X msg 899 558 \$1 13;
#X msg 965 558 \$1 14;
#X msg 1031 558 \$1 15;
#X obj 522 710 tabwrite \$0-dsdata;
#X obj 648 653 * 64;
#X obj 648 634 r \$0-vpat;
#X obj 648 482 + 32;
#X obj 648 672 + 48;
#X obj 627 501 + 32;
#X obj 627 691 + 48;
#X obj 101 159 r \$0-0x1s;
#X obj 161 159 r \$0-1x1s;
#X obj 221 159 r \$0-2x1s;
#X obj 281 159 r \$0-3x1s;
#X obj 341 159 r \$0-4x1s;
#X obj 401 159 r \$0-5x1s;
#X obj 461 159 r \$0-6x1s;
#X obj 521 159 r \$0-7x1s;
#X obj 581 159 r \$0-8x1s;
#X obj 641 159 r \$0-9x1s;
#X obj 701 159 r \$0-10x1s;
#X obj 767 159 r \$0-11x1s;
#X obj 833 159 r \$0-12x1s;
#X obj 899 159 r \$0-13x1s;
#X obj 965 159 r \$0-14x1s;
#X obj 1031 159 r \$0-15x1s;
#X obj 101 349 r \$0-0x2s;
#X obj 161 349 r \$0-1x2s;
#X obj 221 349 r \$0-2x2s;
#X obj 281 349 r \$0-3x2s;
#X obj 341 349 r \$0-4x2s;
#X obj 401 349 r \$0-5x2s;
#X obj 461 349 r \$0-6x2s;
#X obj 521 349 r \$0-7x2s;
#X obj 581 349 r \$0-8x2s;
#X obj 641 349 r \$0-9x2s;
#X obj 701 349 r \$0-10x2s;
#X obj 767 349 r \$0-11x2s;
#X obj 833 349 r \$0-12x2s;
#X obj 899 349 r \$0-13x2s;
#X obj 965 349 r \$0-14x2s;
#X obj 1031 349 r \$0-15x2s;
#X obj 101 539 r \$0-0x3s;
#X obj 161 539 r \$0-1x3s;
#X obj 221 539 r \$0-2x3s;
#X obj 281 539 r \$0-3x3s;
#X obj 341 539 r \$0-4x3s;
#X obj 401 539 r \$0-5x3s;
#X obj 461 539 r \$0-6x3s;
#X obj 521 539 r \$0-7x3s;
#X obj 581 539 r \$0-8x3s;
#X obj 641 539 r \$0-9x3s;
#X obj 701 539 r \$0-10x3s;
#X obj 767 539 r \$0-11x3s;
#X obj 833 539 r \$0-12x3s;
#X obj 899 539 r \$0-13x3s;
#X obj 965 539 r \$0-14x3s;
#X obj 1031 539 r \$0-15x3s;
#N canvas 0 50 1366 686 clear 0;
#X msg 613 61 0;
#X obj 614 28 r \$0-m1clear;
#X obj 72 172 s \$0-0x0r;
#X obj 152 171 s \$0-1x0r;
#X obj 229 172 s \$0-2x0r;
#X obj 305 172 s \$0-3x0r;
#X obj 380 172 s \$0-4x0r;
#X obj 453 172 s \$0-5x0r;
#X obj 527 172 s \$0-6x0r;
#X obj 601 173 s \$0-7x0r;
#X obj 678 172 s \$0-8x0r;
#X obj 756 173 s \$0-9x0r;
#X obj 835 173 s \$0-10x0r;
#X obj 913 173 s \$0-11x0r;
#X obj 993 173 s \$0-12x0r;
#X obj 1079 173 s \$0-13x0r;
#X obj 1161 173 s \$0-14x0r;
#X obj 1248 173 s \$0-15x0r;
#X text 1277 299 Melody 2 Clear;
#X text 1327 175 Melody 1 Clear;
#X msg 616 243 0;
#X obj 617 210 r \$0-m2clear;
#X obj 42 305 s \$0-0x1r;
#X obj 119 304 s \$0-1x1r;
#X obj 189 305 s \$0-2x1r;
#X obj 262 305 s \$0-3x1r;
#X obj 335 304 s \$0-4x1r;
#X obj 409 304 s \$0-5x1r;
#X obj 480 304 s \$0-6x1r;
#X obj 551 304 s \$0-7x1r;
#X obj 624 302 s \$0-8x1r;
#X obj 698 302 s \$0-9x1r;
#X obj 772 300 s \$0-10x1r;
#X obj 852 300 s \$0-11x1r;
#X obj 931 301 s \$0-12x1r;
#X obj 1011 302 s \$0-13x1r;
#X obj 1088 301 s \$0-14x1r;
#X obj 1178 302 s \$0-15x1r;
#X msg 693 393 0;
#X obj 694 360 r \$0-m3clear;
#X obj 101 554 s \$0-0x2r;
#X obj 198 555 s \$0-1x2r;
#X obj 276 555 s \$0-2x2r;
#X obj 352 553 s \$0-3x2r;
#X obj 430 553 s \$0-4x2r;
#X obj 507 554 s \$0-5x2r;
#X obj 584 554 s \$0-6x2r;
#X obj 657 554 s \$0-7x2r;
#X obj 729 554 s \$0-8x2r;
#X obj 806 553 s \$0-9x2r;
#X obj 880 553 s \$0-10x2r;
#X obj 959 553 s \$0-11x2r;
#X obj 1041 553 s \$0-12x2r;
#X obj 1123 555 s \$0-13x2r;
#X obj 1208 554 s \$0-14x2r;
#X obj 1284 553 s \$0-15x2r;
#X text 1277 483 Melody 3 Clear;
#X msg 724 631 0;
#X obj 723 598 r \$0-m4clear;
#X obj 112 735 s \$0-0x3r;
#X obj 192 735 s \$0-1x3r;
#X obj 283 734 s \$0-2x3r;
#X obj 357 734 s \$0-3x3r;
#X obj 434 732 s \$0-4x3r;
#X obj 510 734 s \$0-5x3r;
#X obj 591 733 s \$0-6x3r;
#X obj 666 733 s \$0-7x3r;
#X obj 741 733 s \$0-8x3r;
#X obj 818 733 s \$0-9x3r;
#X obj 892 733 s \$0-10x3r;
#X obj 971 733 s \$0-11x3r;
#X obj 1049 733 s \$0-12x3r;
#X obj 1130 733 s \$0-13x3r;
#X obj 1215 733 s \$0-14x3r;
#X obj 1298 733 s \$0-15x3r;
#X text 1284 649 Melody 4 Clear;
#X connect 0 0 2 0;
#X connect 0 0 3 0;
#X connect 0 0 4 0;
#X connect 0 0 5 0;
#X connect 0 0 6 0;
#X connect 0 0 7 0;
#X connect 0 0 8 0;
#X connect 0 0 9 0;
#X connect 0 0 10 0;
#X connect 0 0 11 0;
#X connect 0 0 12 0;
#X connect 0 0 13 0;
#X connect 0 0 14 0;
#X connect 0 0 15 0;
#X connect 0 0 16 0;
#X connect 0 0 17 0;
#X connect 1 0 0 0;
#X connect 20 0 22 0;
#X connect 20 0 23 0;
#X connect 20 0 24 0;
#X connect 20 0 25 0;
#X connect 20 0 26 0;
#X connect 20 0 27 0;
#X connect 20 0 28 0;
#X connect 20 0 29 0;
#X connect 20 0 30 0;
#X connect 20 0 31 0;
#X connect 20 0 32 0;
#X connect 20 0 33 0;
#X connect 20 0 34 0;
#X connect 20 0 35 0;
#X connect 20 0 36 0;
#X connect 20 0 37 0;
#X connect 21 0 20 0;
#X connect 38 0 40 0;
#X connect 38 0 41 0;
#X connect 38 0 42 0;
#X connect 38 0 43 0;
#X connect 38 0 44 0;
#X connect 38 0 45 0;
#X connect 38 0 46 0;
#X connect 38 0 47 0;
#X connect 38 0 48 0;
#X connect 38 0 49 0;
#X connect 38 0 50 0;
#X connect 38 0 51 0;
#X connect 38 0 52 0;
#X connect 38 0 53 0;
#X connect 38 0 54 0;
#X connect 38 0 55 0;
#X connect 39 0 38 0;
#X connect 57 0 59 0;
#X connect 57 0 60 0;
#X connect 57 0 61 0;
#X connect 57 0 62 0;
#X connect 57 0 63 0;
#X connect 57 0 64 0;
#X connect 57 0 65 0;
#X connect 57 0 66 0;
#X connect 57 0 67 0;
#X connect 57 0 68 0;
#X connect 57 0 69 0;
#X connect 57 0 70 0;
#X connect 57 0 71 0;
#X connect 57 0 72 0;
#X connect 57 0 73 0;
#X connect 57 0 74 0;
#X connect 58 0 57 0;
#X restore 1147 172 pd clear patterns;
#X connect 0 0 16 0;
#X connect 1 0 18 0;
#X connect 2 0 19 0;
#X connect 3 0 20 0;
#X connect 4 0 21 0;
#X connect 5 0 22 0;
#X connect 6 0 23 0;
#X connect 7 0 24 0;
#X connect 8 0 25 0;
#X connect 9 0 26 0;
#X connect 10 0 27 0;
#X connect 11 0 28 0;
#X connect 12 0 29 0;
#X connect 13 0 30 0;
#X connect 14 0 31 0;
#X connect 15 0 32 0;
#X connect 16 0 17 0;
#X connect 17 0 33 0;
#X connect 17 1 34 0;
#X connect 18 0 17 0;
#X connect 19 0 17 0;
#X connect 20 0 17 0;
#X connect 21 0 17 0;
#X connect 22 0 17 0;
#X connect 23 0 17 0;
#X connect 24 0 17 0;
#X connect 25 0 17 0;
#X connect 26 0 17 0;
#X connect 27 0 17 0;
#X connect 28 0 17 0;
#X connect 29 0 17 0;
#X connect 30 0 17 0;
#X connect 31 0 17 0;
#X connect 32 0 17 0;
#X connect 34 0 33 1;
#X connect 35 0 34 1;
#X connect 36 0 35 0;
#X connect 37 0 38 0;
#X connect 38 0 54 0;
#X connect 38 1 57 0;
#X connect 39 0 38 0;
#X connect 40 0 38 0;
#X connect 41 0 38 0;
#X connect 42 0 38 0;
#X connect 43 0 38 0;
#X connect 44 0 38 0;
#X connect 45 0 38 0;
#X connect 46 0 38 0;
#X connect 47 0 38 0;
#X connect 48 0 38 0;
#X connect 49 0 38 0;
#X connect 50 0 38 0;
#X connect 51 0 38 0;
#X connect 52 0 38 0;
#X connect 53 0 38 0;
#X connect 55 0 58 0;
#X connect 56 0 55 0;
#X connect 57 0 54 1;
#X connect 58 0 57 1;
#X connect 59 0 60 0;
#X connect 60 0 76 0;
#X connect 60 1 101 0;
#X connect 61 0 60 0;
#X connect 62 0 60 0;
#X connect 63 0 60 0;
#X connect 64 0 60 0;
#X connect 65 0 60 0;
#X connect 66 0 60 0;
#X connect 67 0 60 0;
#X connect 68 0 60 0;
#X connect 69 0 60 0;
#X connect 70 0 60 0;
#X connect 71 0 60 0;
#X connect 72 0 60 0;
#X connect 73 0 60 0;
#X connect 74 0 60 0;
#X connect 75 0 60 0;
#X connect 77 0 99 0;
#X connect 78 0 77 0;
#X connect 79 0 80 0;
#X connect 80 0 96 0;
#X connect 80 1 102 0;
#X connect 81 0 80 0;
#X connect 82 0 80 0;
#X connect 83 0 80 0;
#X connect 84 0 80 0;
#X connect 85 0 80 0;
#X connect 86 0 80 0;
#X connect 87 0 80 0;
#X connect 88 0 80 0;
#X connect 89 0 80 0;
#X connect 90 0 80 0;
#X connect 91 0 80 0;
#X connect 92 0 80 0;
#X connect 93 0 80 0;
#X connect 94 0 80 0;
#X connect 95 0 80 0;
#X connect 97 0 100 0;
#X connect 98 0 97 0;
#X connect 99 0 101 1;
#X connect 100 0 102 1;
#X connect 101 0 76 1;
#X connect 102 0 96 1;
#X connect 103 0 37 0;
#X connect 104 0 39 0;
#X connect 105 0 40 0;
#X connect 106 0 41 0;
#X connect 107 0 42 0;
#X connect 108 0 43 0;
#X connect 109 0 44 0;
#X connect 110 0 45 0;
#X connect 111 0 46 0;
#X connect 112 0 47 0;
#X connect 113 0 48 0;
#X connect 114 0 49 0;
#X connect 115 0 50 0;
#X connect 116 0 51 0;
#X connect 117 0 52 0;
#X connect 118 0 53 0;
#X connect 119 0 59 0;
#X connect 120 0 61 0;
#X connect 121 0 62 0;
#X connect 122 0 63 0;
#X connect 123 0 64 0;
#X connect 124 0 65 0;
#X connect 125 0 66 0;
#X connect 126 0 67 0;
#X connect 127 0 68 0;
#X connect 128 0 69 0;
#X connect 129 0 70 0;
#X connect 130 0 71 0;
#X connect 131 0 72 0;
#X connect 132 0 73 0;
#X connect 133 0 74 0;
#X connect 134 0 75 0;
#X connect 135 0 79 0;
#X connect 136 0 81 0;
#X connect 137 0 82 0;
#X connect 138 0 83 0;
#X connect 139 0 84 0;
#X connect 140 0 85 0;
#X connect 141 0 86 0;
#X connect 142 0 87 0;
#X connect 143 0 88 0;
#X connect 144 0 89 0;
#X connect 145 0 90 0;
#X connect 146 0 91 0;
#X connect 147 0 92 0;
#X connect 148 0 93 0;
#X connect 149 0 94 0;
#X connect 150 0 95 0;
#X restore 1539 -252 pd writer;
#X obj 1468 -274 table \$0-dsdata 512;
#N canvas 0 50 1364 686 note 0;
#X obj 640 573 outlet;
#X floatatom 432 208 10 0 0 0 - - -, f 10;
#X obj 432 234 * 2;
#X floatatom 432 263 10 0 0 0 - - -, f 10;
#X text 501 261 Minims Note Length;
#X text 748 205 Crotchet Note Length;
#X floatatom 914 230 10 0 0 0 - - -, f 10;
#X floatatom 1139 231 10 0 0 0 - - -, f 10;
#X text 998 228 Quaver Note Length;
#X text 1223 204 Semi-Quaver Note Length;
#X obj 914 203 / 2;
#X obj 1139 203 / 4;
#X obj 127 144 loadbang;
#X msg 89 251 2;
#X obj 640 515 metro;
#X obj 736 532 s \$0-rhythmselect;
#X obj 640 478 r \$0-on;
#X text 595 516 Pulse;
#X msg 30 251 1;
#X msg 163 251 3;
#X msg 220 251 4;
#X obj 672 410 switch 5;
#X floatatom 1398 192 10 0 0 0 - - -, f 10;
#X floatatom 1398 247 10 0 0 0 - - -, f 10;
#X text 1467 245 Semi-breave Note Length;
#X obj 1398 218 * 4;
#X text 463 67 1;
#X text 704 71 2;
#X text 950 65 3;
#X text 1173 65 4;
#X text 1429 51 5;
#X msg 289 251 5;
#X obj 432 183 r \$0-bpmmilliseconds;
#X floatatom 645 207 10 0 0 0 - - -, f 10;
#X obj 645 182 r \$0-bpmmilliseconds;
#X floatatom 914 171 10 0 0 0 - - -, f 10;
#X obj 914 139 r \$0-bpmmilliseconds;
#X floatatom 1144 163 10 0 0 0 - - -, f 10;
#X obj 1144 135 r \$0-bpmmilliseconds;
#X floatatom 1397 162 10 0 0 0 - - -, f 10;
#X obj 1397 134 r \$0-bpmmilliseconds;
#X obj 770 576 bng 15 250 50 0 empty empty empty 17 7 0 10 -262144
-1 -1;
#X floatatom 718 454 5 0 0 0 - - -, f 5;
#X obj 377 233 bng 15 250 50 0 empty empty empty 17 7 0 10 -262144
-1 -1;
#X obj 30 281 t b f;
#X obj 89 314 t b f;
#X obj 163 348 t b f;
#X obj 220 379 t b f;
#X obj 289 414 t b f;
#X msg 210 161 2;
#X obj 210 186 s \$0-notevaluer;
#X obj 8 145 r \$0-notevalue;
#X obj 8 171 sel 0 1 2 3 4;
#X obj 30 547 symbol;
#X obj 30 571 s \$0-incomingnotevalue;
#X msg 289 444 Semi-breve;
#X msg 200 414 Semi-quaver;
#X msg 163 376 Quaver;
#X msg 89 348 Crotchet;
#X msg 30 314 Minim;
#X connect 1 0 2 0;
#X connect 2 0 3 0;
#X connect 3 0 21 1;
#X connect 6 0 21 3;
#X connect 7 0 21 4;
#X connect 10 0 6 0;
#X connect 11 0 7 0;
#X connect 12 0 13 0;
#X connect 12 0 49 0;
#X connect 13 0 45 0;
#X connect 14 0 0 0;
#X connect 14 0 15 0;
#X connect 14 0 41 0;
#X connect 16 0 14 0;
#X connect 18 0 44 0;
#X connect 19 0 46 0;
#X connect 20 0 47 0;
#X connect 21 0 14 1;
#X connect 21 0 42 0;
#X connect 22 0 25 0;
#X connect 23 0 21 5;
#X connect 25 0 23 0;
#X connect 31 0 48 0;
#X connect 32 0 1 0;
#X connect 32 0 43 0;
#X connect 33 0 21 2;
#X connect 34 0 33 0;
#X connect 35 0 10 0;
#X connect 36 0 35 0;
#X connect 37 0 11 0;
#X connect 38 0 37 0;
#X connect 39 0 22 0;
#X connect 40 0 39 0;
#X connect 44 0 3 0;
#X connect 44 0 59 0;
#X connect 44 1 21 0;
#X connect 45 0 33 0;
#X connect 45 0 58 0;
#X connect 45 1 21 0;
#X connect 46 0 6 0;
#X connect 46 0 57 0;
#X connect 46 1 21 0;
#X connect 47 0 7 0;
#X connect 47 0 56 0;
#X connect 47 1 21 0;
#X connect 48 0 23 0;
#X connect 48 0 55 0;
#X connect 48 1 21 0;
#X connect 49 0 50 0;
#X connect 51 0 52 0;
#X connect 52 0 31 0;
#X connect 52 1 18 0;
#X connect 52 2 13 0;
#X connect 52 3 19 0;
#X connect 52 4 20 0;
#X connect 53 0 54 0;
#X connect 55 0 53 0;
#X connect 56 0 53 0;
#X connect 57 0 53 0;
#X connect 58 0 53 0;
#X connect 59 0 53 0;
#X restore 1119 176 pd note values;
#X obj 1417 158 f;
#X obj 1417 180 s loadrn;
#X obj 1417 131 r loadbangrn;
#N canvas 0 50 1370 700 copier 0;
#X obj 369 34 r \$0-copy;
#X obj 344 166 r \$0-vpat;
#X obj 369 124 route float list bang;
#X obj 299 185 pack 0 0;
#X obj 377 506 tabread \$0-dsdata;
#X obj 410 313 unpack f f;
#X obj 377 544 tabwrite \$0-dsdata;
#X obj 451 259 - 1;
#X obj 433 287 pack 0 0;
#X obj 451 221 f;
#X text 522 262 from/to;
#X obj 451 240 t f f;
#X obj 497 506 * 64;
#X obj 482 525 +;
#X obj 392 468 * 64;
#X obj 377 487 +;
#X obj 410 332 t b f;
#X obj 353 375 until;
#X msg 353 356 64;
#X obj 353 394 count 64;
#X obj 353 413 t f f;
#X obj 369 56 t b b;
#X obj 281 76 f;
#X obj 299 34 r \$0-vpat;
#X floatatom 299 56 5 0 0 0 - - -, f 5;
#X obj 281 100 s \$0-rpat;
#X connect 0 0 21 0;
#X connect 1 0 3 1;
#X connect 1 0 9 1;
#X connect 2 0 3 0;
#X connect 2 1 5 0;
#X connect 2 2 9 0;
#X connect 3 0 5 0;
#X connect 4 0 6 0;
#X connect 5 0 16 0;
#X connect 5 1 12 0;
#X connect 7 0 8 0;
#X connect 8 0 5 0;
#X connect 9 0 11 0;
#X connect 11 0 7 0;
#X connect 11 1 8 1;
#X connect 12 0 13 1;
#X connect 13 0 6 1;
#X connect 14 0 15 1;
#X connect 15 0 4 0;
#X connect 16 0 18 0;
#X connect 16 1 14 0;
#X connect 17 0 19 0;
#X connect 18 0 17 0;
#X connect 19 0 20 0;
#X connect 20 0 15 0;
#X connect 20 1 13 0;
#X connect 21 0 22 0;
#X connect 21 1 2 0;
#X connect 22 0 25 0;
#X connect 23 0 24 0;
#X connect 24 0 22 1;
#X restore 1469 -231 pd copier;
#X msg 1510 131 bang;
#X obj 1491 -150 loadbang;
#X msg 1492 -126 100;
#X obj 1248 210 - 12;
#X obj 1319 183 s rnchords;
#X msg 691 211 48;
#X obj 691 240 s \$0-receiverootnote;
#X obj 1496 202 s loadrnchords;
#X obj 1496 175 - 12;
#X obj 1492 -100 s \$0-start_bpm;
#X obj 926 263 r \$0-nopatternnumber;
#X obj 927 237 r \$0-patternnumber;
#X obj 601 197 t b b;
#X obj 439 244 s \$0-thepatterncup;
#X obj 971 -12 loadbang;
#X msg 977 41 1;
#X msg 1029 40 60;
#X text 1064 40 changs to conductor 20/08/15;
#X connect 1 0 14 1;
#X connect 1 1 21 1;
#X connect 1 2 26 1;
#X connect 1 3 31 1;
#X connect 14 0 2 0;
#X connect 14 0 3 0;
#X connect 14 0 4 0;
#X connect 15 0 14 0;
#X connect 16 0 14 0;
#X connect 18 0 19 0;
#X connect 19 0 15 0;
#X connect 19 1 16 0;
#X connect 20 0 36 0;
#X connect 20 0 37 0;
#X connect 20 0 38 0;
#X connect 21 0 5 0;
#X connect 21 0 6 0;
#X connect 21 0 7 0;
#X connect 22 0 21 0;
#X connect 23 0 21 0;
#X connect 24 0 22 0;
#X connect 24 1 23 0;
#X connect 25 0 24 0;
#X connect 26 0 8 0;
#X connect 26 0 9 0;
#X connect 26 0 10 0;
#X connect 27 0 26 0;
#X connect 28 0 26 0;
#X connect 29 0 27 0;
#X connect 29 1 28 0;
#X connect 30 0 29 0;
#X connect 31 0 11 0;
#X connect 31 0 12 0;
#X connect 31 0 13 0;
#X connect 32 0 31 0;
#X connect 33 0 31 0;
#X connect 34 0 32 0;
#X connect 34 1 33 0;
#X connect 35 0 34 0;
#X connect 41 0 40 0;
#X connect 41 0 44 0;
#X connect 41 0 49 1;
#X connect 41 0 56 0;
#X connect 42 0 41 0;
#X connect 43 0 42 0;
#X connect 43 0 53 0;
#X connect 48 0 1 0;
#X connect 49 0 50 0;
#X connect 49 0 61 0;
#X connect 51 0 49 0;
#X connect 53 0 49 0;
#X connect 54 0 55 0;
#X connect 55 0 62 0;
#X connect 56 0 57 0;
#X connect 58 0 59 0;
#X connect 61 0 60 0;
#X connect 63 0 16 0;
#X connect 64 0 15 0;
#X connect 65 0 66 0;
#X connect 65 1 58 0;
#X connect 65 1 20 0;
#X connect 65 1 15 0;
#X connect 65 1 22 0;
#X connect 65 1 27 0;
#X connect 65 1 32 0;
#X connect 67 0 39 0;
#X connect 67 0 68 0;
#X connect 67 0 69 0;
#X connect 68 0 17 0;
#X connect 69 0 41 0;
#X restore 1575 210 pd engine;
#X obj 1576 259 outlet;
#N canvas 0 24 1366 694 no 0;
#X floatatom 55 113 5 0 0 0 - - -, f 5;
#X obj 55 -7 r \$0-0x0s;
#X obj 101 110 s \$0-p11;
#X floatatom 222 125 5 0 0 0 - - -, f 5;
#X floatatom 374 127 5 0 0 0 - - -, f 5;
#X floatatom 542 126 5 0 0 0 - - -, f 5;
#X floatatom 691 127 5 0 0 0 - - -, f 5;
#X floatatom 859 126 5 0 0 0 - - -, f 5;
#X floatatom 1011 128 5 0 0 0 - - -, f 5;
#X floatatom 1179 127 5 0 0 0 - - -, f 5;
#X floatatom 51 283 5 0 0 0 - - -, f 5;
#X floatatom 219 282 5 0 0 0 - - -, f 5;
#X floatatom 371 284 5 0 0 0 - - -, f 5;
#X floatatom 539 283 5 0 0 0 - - -, f 5;
#X floatatom 688 284 5 0 0 0 - - -, f 5;
#X floatatom 856 283 5 0 0 0 - - -, f 5;
#X floatatom 1008 285 5 0 0 0 - - -, f 5;
#X floatatom 1176 284 5 0 0 0 - - -, f 5;
#X text 613 156 Pattern 1;
#X obj 265 123 s \$0-p12;
#X obj 411 126 s \$0-p13;
#X obj 578 124 s \$0-p14;
#X obj 730 127 s \$0-p15;
#X obj 894 123 s \$0-p16;
#X obj 1047 127 s \$0-p17;
#X obj 1213 125 s \$0-p18;
#X obj 88 283 s \$0-p19;
#X obj 255 280 s \$0-p110;
#X obj 405 283 s \$0-p111;
#X obj 573 281 s \$0-p112;
#X obj 723 282 s \$0-p113;
#X obj 893 281 s \$0-p114;
#X obj 1044 284 s \$0-p115;
#X obj 1211 283 s \$0-p116;
#X obj 223 -8 r \$0-1x0s;
#X obj 375 -6 r \$0-2x0s;
#X obj 543 -7 r \$0-3x0s;
#X obj 692 -6 r \$0-4x0s;
#X obj 858 -7 r \$0-5x0s;
#X obj 1012 -5 r \$0-6x0s;
#X obj 1180 -6 r \$0-7x0s;
#X obj 52 150 r \$0-8x0s;
#X obj 220 149 r \$0-9x0s;
#X obj 372 151 r \$0-10x0s;
#X obj 541 148 r \$0-11x0s;
#X obj 689 151 r \$0-12x0s;
#X obj 858 150 r \$0-13x0s;
#X obj 1009 152 r \$0-14x0s;
#X obj 1178 150 r \$0-15x0s;
#X floatatom 50 438 5 0 0 0 - - -, f 5;
#X floatatom 218 437 5 0 0 0 - - -, f 5;
#X floatatom 370 439 5 0 0 0 - - -, f 5;
#X floatatom 538 438 5 0 0 0 - - -, f 5;
#X floatatom 687 439 5 0 0 0 - - -, f 5;
#X floatatom 855 438 5 0 0 0 - - -, f 5;
#X floatatom 1007 440 5 0 0 0 - - -, f 5;
#X floatatom 1175 439 5 0 0 0 - - -, f 5;
#X floatatom 47 595 5 0 0 0 - - -, f 5;
#X floatatom 215 594 5 0 0 0 - - -, f 5;
#X floatatom 367 596 5 0 0 0 - - -, f 5;
#X floatatom 535 595 5 0 0 0 - - -, f 5;
#X floatatom 684 596 5 0 0 0 - - -, f 5;
#X floatatom 852 595 5 0 0 0 - - -, f 5;
#X floatatom 1004 597 5 0 0 0 - - -, f 5;
#X floatatom 1178 592 5 0 0 0 - - -, f 5;
#X text 610 467 Pattern 2;
#X obj 51 305 r \$0-0x1s;
#X obj 220 304 r \$0-1x1s;
#X obj 371 306 r \$0-2x1s;
#X obj 539 305 r \$0-3x1s;
#X obj 688 306 r \$0-4x1s;
#X obj 854 304 r \$0-5x1s;
#X obj 1008 307 r \$0-6x1s;
#X obj 1176 306 r \$0-7x1s;
#X obj 48 462 r \$0-8x1s;
#X obj 216 461 r \$0-9x1s;
#X obj 369 462 r \$0-10x1s;
#X obj 537 460 r \$0-11x1s;
#X obj 685 463 r \$0-12x1s;
#X obj 854 461 r \$0-13x1s;
#X obj 1005 464 r \$0-14x1s;
#X obj 1174 462 r \$0-15x1s;
#X obj 87 437 s \$0-p21;
#X obj 255 436 s \$0-p22;
#X obj 408 437 s \$0-p23;
#X obj 575 437 s \$0-p24;
#X obj 728 438 s \$0-p25;
#X obj 890 435 s \$0-p26;
#X obj 1045 439 s \$0-p27;
#X obj 1212 439 s \$0-p28;
#X obj 82 594 s \$0-p29;
#X obj 251 593 s \$0-p210;
#X obj 402 595 s \$0-p211;
#X obj 570 595 s \$0-p212;
#X obj 721 595 s \$0-p213;
#X obj 888 592 s \$0-p214;
#X obj 1041 596 s \$0-p215;
#X obj 1214 591 s \$0-p216;
#X floatatom 38 805 5 0 0 0 - - -, f 5;
#X floatatom 206 804 5 0 0 0 - - -, f 5;
#X floatatom 358 806 5 0 0 0 - - -, f 5;
#X floatatom 526 805 5 0 0 0 - - -, f 5;
#X floatatom 675 806 5 0 0 0 - - -, f 5;
#X floatatom 843 805 5 0 0 0 - - -, f 5;
#X floatatom 995 807 5 0 0 0 - - -, f 5;
#X floatatom 1163 806 5 0 0 0 - - -, f 5;
#X floatatom 35 962 5 0 0 0 - - -, f 5;
#X floatatom 203 961 5 0 0 0 - - -, f 5;
#X floatatom 355 963 5 0 0 0 - - -, f 5;
#X floatatom 523 962 5 0 0 0 - - -, f 5;
#X floatatom 672 963 5 0 0 0 - - -, f 5;
#X floatatom 840 962 5 0 0 0 - - -, f 5;
#X floatatom 992 964 5 0 0 0 - - -, f 5;
#X floatatom 1160 963 5 0 0 0 - - -, f 5;
#X text 598 834 Pattern 3;
#X obj 39 672 r \$0-0x2s;
#X obj 209 672 r \$0-1x2s;
#X obj 359 673 r \$0-2x2s;
#X obj 527 672 r \$0-3x2s;
#X obj 676 673 r \$0-4x2s;
#X obj 842 671 r \$0-5x2s;
#X obj 996 674 r \$0-6x2s;
#X obj 1164 673 r \$0-7x2s;
#X obj 36 829 r \$0-8x2s;
#X obj 204 828 r \$0-9x2s;
#X obj 358 828 r \$0-10x2s;
#X obj 525 827 r \$0-11x2s;
#X obj 673 830 r \$0-12x2s;
#X obj 842 828 r \$0-13x2s;
#X obj 992 830 r \$0-14x2s;
#X obj 1162 829 r \$0-15x2s;
#X obj 76 804 s \$0-p31;
#X obj 241 803 s \$0-p32;
#X obj 394 805 s \$0-p33;
#X obj 560 802 s \$0-p34;
#X obj 710 804 s \$0-p35;
#X obj 880 804 s \$0-p36;
#X obj 1033 805 s \$0-p37;
#X obj 1197 805 s \$0-p38;
#X obj 71 960 s \$0-p39;
#X obj 241 958 s \$0-p310;
#X obj 393 961 s \$0-p311;
#X obj 561 961 s \$0-p312;
#X obj 711 962 s \$0-p313;
#X obj 880 961 s \$0-p314;
#X obj 1032 962 s \$0-p315;
#X obj 1197 962 s \$0-p316;
#X floatatom 9 1154 5 0 0 0 - - -, f 5;
#X floatatom 177 1153 5 0 0 0 - - -, f 5;
#X floatatom 329 1155 5 0 0 0 - - -, f 5;
#X floatatom 497 1154 5 0 0 0 - - -, f 5;
#X floatatom 646 1155 5 0 0 0 - - -, f 5;
#X floatatom 814 1154 5 0 0 0 - - -, f 5;
#X floatatom 966 1156 5 0 0 0 - - -, f 5;
#X floatatom 1134 1155 5 0 0 0 - - -, f 5;
#X floatatom 6 1311 5 0 0 0 - - -, f 5;
#X floatatom 174 1310 5 0 0 0 - - -, f 5;
#X floatatom 326 1312 5 0 0 0 - - -, f 5;
#X floatatom 494 1311 5 0 0 0 - - -, f 5;
#X floatatom 643 1312 5 0 0 0 - - -, f 5;
#X floatatom 811 1311 5 0 0 0 - - -, f 5;
#X floatatom 963 1313 5 0 0 0 - - -, f 5;
#X floatatom 1131 1312 5 0 0 0 - - -, f 5;
#X obj 10 1021 r \$0-0x3s;
#X obj 180 1021 r \$0-1x3s;
#X obj 331 1022 r \$0-2x3s;
#X obj 498 1021 r \$0-3x3s;
#X obj 648 1021 r \$0-4x3s;
#X obj 813 1020 r \$0-5x3s;
#X obj 967 1019 r \$0-6x3s;
#X obj 1136 1021 r \$0-7x3s;
#X obj 7 1178 r \$0-8x3s;
#X obj 175 1177 r \$0-9x3s;
#X obj 329 1177 r \$0-10x3s;
#X obj 496 1176 r \$0-11x3s;
#X obj 643 1178 r \$0-12x3s;
#X obj 813 1177 r \$0-13x3s;
#X obj 963 1179 r \$0-14x3s;
#X obj 1133 1178 r \$0-15x3s;
#X obj 48 1153 s \$0-p41;
#X obj 214 1152 s \$0-p42;
#X obj 367 1153 s \$0-p43;
#X obj 533 1152 s \$0-p44;
#X obj 682 1154 s \$0-p45;
#X obj 850 1152 s \$0-p46;
#X obj 1003 1155 s \$0-p47;
#X obj 1171 1154 s \$0-p48;
#X obj 46 1312 s \$0-p49;
#X obj 212 1305 s \$0-p410;
#X obj 373 1312 s \$0-p411;
#X obj 535 1310 s \$0-p412;
#X obj 682 1312 s \$0-p413;
#X obj 847 1312 s \$0-p414;
#X obj 1003 1313 s \$0-p415;
#X obj 1168 1312 s \$0-p416;
#X obj 54 49 t b f;
#X obj 55 77 f;
#X obj 55 24 change;
#X obj 222 45 t b f;
#X obj 223 73 f;
#X obj 223 20 change;
#X obj 375 49 t b f;
#X obj 376 77 f;
#X obj 376 24 change;
#X obj 542 49 t b f;
#X obj 543 77 f;
#X obj 543 24 change;
#X obj 690 49 t b f;
#X obj 691 77 f;
#X obj 691 24 change;
#X obj 857 45 t b f;
#X obj 858 73 f;
#X obj 858 20 change;
#X obj 1011 49 t b f;
#X obj 1012 77 f;
#X obj 1012 24 change;
#X obj 1180 49 t b f;
#X obj 1181 77 f;
#X obj 1181 24 change;
#X obj 51 202 t b f;
#X obj 52 230 f;
#X obj 52 177 change;
#X obj 219 200 t b f;
#X obj 220 228 f;
#X obj 220 175 change;
#X obj 371 205 t b f;
#X obj 372 233 f;
#X obj 372 180 change;
#X obj 540 202 t b f;
#X obj 541 230 f;
#X obj 541 177 change;
#X obj 688 204 t b f;
#X obj 688 235 f;
#X obj 689 179 change;
#X obj 856 202 t b f;
#X obj 857 230 f;
#X obj 857 177 change;
#X obj 1008 205 t b f;
#X obj 1009 233 f;
#X obj 1009 180 change;
#X obj 1176 205 t b f;
#X obj 1177 233 f;
#X obj 1177 180 change;
#X obj 51 357 t b f;
#X obj 52 385 f;
#X obj 52 332 change;
#X obj 218 361 t b f;
#X obj 219 389 f;
#X obj 219 336 change;
#X obj 369 359 t b f;
#X obj 370 387 f;
#X obj 370 334 change;
#X obj 538 361 t b f;
#X obj 539 389 f;
#X obj 539 336 change;
#X obj 687 359 t b f;
#X obj 688 387 f;
#X obj 688 334 change;
#X obj 853 359 t b f;
#X obj 854 387 f;
#X obj 854 334 change;
#X obj 1008 359 t b f;
#X obj 1009 387 f;
#X obj 1009 334 change;
#X obj 1176 360 t b f;
#X obj 1177 388 f;
#X obj 1177 335 change;
#X obj 47 513 t b f;
#X obj 48 541 f;
#X obj 48 488 change;
#X obj 216 512 t b f;
#X obj 217 540 f;
#X obj 217 487 change;
#X obj 367 513 t b f;
#X obj 368 541 f;
#X obj 368 488 change;
#X obj 535 514 t b f;
#X obj 536 542 f;
#X obj 536 489 change;
#X obj 683 517 t b f;
#X obj 684 545 f;
#X obj 684 492 change;
#X obj 851 518 t b f;
#X obj 852 546 f;
#X obj 852 493 change;
#X obj 1003 518 t b f;
#X obj 1004 546 f;
#X obj 1004 493 change;
#X obj 1175 515 t b f;
#X obj 1176 543 f;
#X obj 1176 490 change;
#X obj 38 724 t b f;
#X obj 39 752 f;
#X obj 39 699 change;
#X obj 207 723 t b f;
#X obj 208 751 f;
#X obj 208 698 change;
#X obj 358 727 t b f;
#X obj 359 755 f;
#X obj 359 702 change;
#X obj 526 725 t b f;
#X obj 527 753 f;
#X obj 527 700 change;
#X obj 674 726 t b f;
#X obj 675 754 f;
#X obj 675 701 change;
#X obj 841 724 t b f;
#X obj 842 752 f;
#X obj 842 699 change;
#X obj 995 727 t b f;
#X obj 996 755 f;
#X obj 996 702 change;
#X obj 1163 725 t b f;
#X obj 1164 753 f;
#X obj 1164 700 change;
#X obj 34 879 t b f;
#X obj 35 907 f;
#X obj 35 854 change;
#X obj 202 879 t b f;
#X obj 203 907 f;
#X obj 203 854 change;
#X obj 354 879 t b f;
#X obj 355 907 f;
#X obj 355 854 change;
#X obj 525 878 t b f;
#X obj 525 908 f;
#X obj 526 853 change;
#X obj 672 881 t b f;
#X obj 673 909 f;
#X obj 673 856 change;
#X obj 844 880 t b f;
#X obj 845 908 f;
#X obj 845 855 change;
#X obj 991 880 t b f;
#X obj 992 908 f;
#X obj 992 855 change;
#X obj 1161 879 t b f;
#X obj 1162 907 f;
#X obj 1162 854 change;
#X obj 9 1069 t b f;
#X obj 9 1095 f;
#X obj 10 1044 change;
#X obj 179 1070 t b f;
#X obj 180 1098 f;
#X obj 180 1045 change;
#X obj 330 1072 t b f;
#X obj 331 1100 f;
#X obj 331 1047 change;
#X obj 498 1074 t b f;
#X obj 498 1104 f;
#X obj 499 1049 change;
#X obj 649 1078 t b f;
#X obj 650 1106 f;
#X obj 650 1053 change;
#X obj 812 1072 t b f;
#X obj 813 1100 f;
#X obj 813 1047 change;
#X obj 967 1073 t b f;
#X obj 968 1101 f;
#X obj 968 1048 change;
#X obj 1135 1071 t b f;
#X obj 1136 1099 f;
#X obj 1136 1046 change;
#X obj 6 1228 t b f;
#X obj 7 1256 f;
#X obj 7 1203 change;
#X obj 176 1229 t b f;
#X obj 177 1256 f;
#X obj 177 1204 change;
#X obj 328 1229 t b f;
#X obj 329 1257 f;
#X obj 329 1204 change;
#X obj 495 1228 t b f;
#X obj 496 1255 f;
#X obj 496 1203 change;
#X obj 641 1230 t b f;
#X obj 642 1258 f;
#X obj 642 1205 change;
#X obj 812 1232 t b f;
#X obj 813 1260 f;
#X obj 813 1207 change;
#X obj 962 1232 t b f;
#X obj 963 1260 f;
#X obj 963 1207 change;
#X obj 1131 1231 t b f;
#X obj 1132 1259 f;
#X obj 1132 1206 change;
#X text 569 1183 Pattern 4;
#X connect 1 0 197 0;
#X connect 34 0 200 0;
#X connect 35 0 203 0;
#X connect 36 0 206 0;
#X connect 37 0 209 0;
#X connect 38 0 212 0;
#X connect 39 0 215 0;
#X connect 40 0 218 0;
#X connect 41 0 221 0;
#X connect 42 0 224 0;
#X connect 43 0 227 0;
#X connect 44 0 230 0;
#X connect 45 0 233 0;
#X connect 46 0 236 0;
#X connect 47 0 239 0;
#X connect 48 0 242 0;
#X connect 66 0 245 0;
#X connect 67 0 248 0;
#X connect 68 0 251 0;
#X connect 69 0 254 0;
#X connect 70 0 257 0;
#X connect 71 0 260 0;
#X connect 72 0 263 0;
#X connect 73 0 266 0;
#X connect 74 0 269 0;
#X connect 75 0 272 0;
#X connect 76 0 275 0;
#X connect 77 0 278 0;
#X connect 78 0 281 0;
#X connect 79 0 284 0;
#X connect 80 0 287 0;
#X connect 81 0 290 0;
#X connect 115 0 293 0;
#X connect 116 0 296 0;
#X connect 117 0 299 0;
#X connect 118 0 302 0;
#X connect 119 0 305 0;
#X connect 120 0 308 0;
#X connect 121 0 311 0;
#X connect 122 0 314 0;
#X connect 123 0 317 0;
#X connect 124 0 320 0;
#X connect 125 0 323 0;
#X connect 126 0 326 0;
#X connect 127 0 329 0;
#X connect 128 0 332 0;
#X connect 129 0 335 0;
#X connect 130 0 338 0;
#X connect 163 0 341 0;
#X connect 164 0 344 0;
#X connect 165 0 347 0;
#X connect 166 0 350 0;
#X connect 167 0 353 0;
#X connect 168 0 356 0;
#X connect 169 0 359 0;
#X connect 170 0 362 0;
#X connect 171 0 365 0;
#X connect 172 0 368 0;
#X connect 173 0 371 0;
#X connect 174 0 374 0;
#X connect 175 0 377 0;
#X connect 176 0 380 0;
#X connect 177 0 383 0;
#X connect 178 0 386 0;
#X connect 195 0 196 0;
#X connect 195 1 196 1;
#X connect 196 0 0 0;
#X connect 196 0 2 0;
#X connect 197 0 195 0;
#X connect 198 0 199 0;
#X connect 198 1 199 1;
#X connect 199 0 19 0;
#X connect 199 0 3 0;
#X connect 200 0 198 0;
#X connect 201 0 202 0;
#X connect 201 1 202 1;
#X connect 202 0 4 0;
#X connect 202 0 20 0;
#X connect 203 0 201 0;
#X connect 204 0 205 0;
#X connect 204 1 205 1;
#X connect 205 0 5 0;
#X connect 205 0 21 0;
#X connect 206 0 204 0;
#X connect 207 0 208 0;
#X connect 207 1 208 1;
#X connect 208 0 6 0;
#X connect 208 0 22 0;
#X connect 209 0 207 0;
#X connect 210 0 211 0;
#X connect 210 1 211 1;
#X connect 211 0 7 0;
#X connect 211 0 23 0;
#X connect 212 0 210 0;
#X connect 213 0 214 0;
#X connect 213 1 214 1;
#X connect 214 0 8 0;
#X connect 214 0 24 0;
#X connect 215 0 213 0;
#X connect 216 0 217 0;
#X connect 216 1 217 1;
#X connect 217 0 9 0;
#X connect 217 0 25 0;
#X connect 218 0 216 0;
#X connect 219 0 220 0;
#X connect 219 1 220 1;
#X connect 220 0 26 0;
#X connect 220 0 10 0;
#X connect 221 0 219 0;
#X connect 222 0 223 0;
#X connect 222 1 223 1;
#X connect 223 0 11 0;
#X connect 223 0 27 0;
#X connect 224 0 222 0;
#X connect 225 0 226 0;
#X connect 225 1 226 1;
#X connect 226 0 12 0;
#X connect 226 0 28 0;
#X connect 227 0 225 0;
#X connect 228 0 229 0;
#X connect 228 1 229 1;
#X connect 229 0 13 0;
#X connect 229 0 29 0;
#X connect 230 0 228 0;
#X connect 231 0 232 0;
#X connect 231 1 232 1;
#X connect 232 0 14 0;
#X connect 232 0 30 0;
#X connect 233 0 231 0;
#X connect 234 0 235 0;
#X connect 234 1 235 1;
#X connect 235 0 15 0;
#X connect 235 0 31 0;
#X connect 236 0 234 0;
#X connect 237 0 238 0;
#X connect 237 1 238 1;
#X connect 238 0 16 0;
#X connect 238 0 32 0;
#X connect 239 0 237 0;
#X connect 240 0 241 0;
#X connect 240 1 241 1;
#X connect 241 0 17 0;
#X connect 241 0 33 0;
#X connect 242 0 240 0;
#X connect 243 0 244 0;
#X connect 243 1 244 1;
#X connect 244 0 49 0;
#X connect 244 0 82 0;
#X connect 245 0 243 0;
#X connect 246 0 247 0;
#X connect 246 1 247 1;
#X connect 247 0 50 0;
#X connect 247 0 83 0;
#X connect 248 0 246 0;
#X connect 249 0 250 0;
#X connect 249 1 250 1;
#X connect 250 0 51 0;
#X connect 250 0 84 0;
#X connect 251 0 249 0;
#X connect 252 0 253 0;
#X connect 252 1 253 1;
#X connect 253 0 52 0;
#X connect 253 0 85 0;
#X connect 254 0 252 0;
#X connect 255 0 256 0;
#X connect 255 1 256 1;
#X connect 256 0 53 0;
#X connect 256 0 86 0;
#X connect 257 0 255 0;
#X connect 258 0 259 0;
#X connect 258 1 259 1;
#X connect 259 0 54 0;
#X connect 259 0 87 0;
#X connect 260 0 258 0;
#X connect 261 0 262 0;
#X connect 261 1 262 1;
#X connect 262 0 55 0;
#X connect 262 0 88 0;
#X connect 263 0 261 0;
#X connect 264 0 265 0;
#X connect 264 1 265 1;
#X connect 265 0 56 0;
#X connect 265 0 89 0;
#X connect 266 0 264 0;
#X connect 267 0 268 0;
#X connect 267 1 268 1;
#X connect 268 0 57 0;
#X connect 268 0 90 0;
#X connect 269 0 267 0;
#X connect 270 0 271 0;
#X connect 270 1 271 1;
#X connect 271 0 58 0;
#X connect 271 0 91 0;
#X connect 272 0 270 0;
#X connect 273 0 274 0;
#X connect 273 1 274 1;
#X connect 274 0 59 0;
#X connect 274 0 92 0;
#X connect 275 0 273 0;
#X connect 276 0 277 0;
#X connect 276 1 277 1;
#X connect 277 0 60 0;
#X connect 277 0 93 0;
#X connect 278 0 276 0;
#X connect 279 0 280 0;
#X connect 279 1 280 1;
#X connect 280 0 61 0;
#X connect 280 0 94 0;
#X connect 281 0 279 0;
#X connect 282 0 283 0;
#X connect 282 1 283 1;
#X connect 283 0 62 0;
#X connect 283 0 95 0;
#X connect 284 0 282 0;
#X connect 285 0 286 0;
#X connect 285 1 286 1;
#X connect 286 0 63 0;
#X connect 286 0 96 0;
#X connect 287 0 285 0;
#X connect 288 0 289 0;
#X connect 288 1 289 1;
#X connect 289 0 64 0;
#X connect 289 0 97 0;
#X connect 290 0 288 0;
#X connect 291 0 292 0;
#X connect 291 1 292 1;
#X connect 292 0 98 0;
#X connect 292 0 131 0;
#X connect 293 0 291 0;
#X connect 294 0 295 0;
#X connect 294 1 295 1;
#X connect 295 0 99 0;
#X connect 295 0 132 0;
#X connect 296 0 294 0;
#X connect 297 0 298 0;
#X connect 297 1 298 1;
#X connect 298 0 100 0;
#X connect 298 0 133 0;
#X connect 299 0 297 0;
#X connect 300 0 301 0;
#X connect 300 1 301 1;
#X connect 301 0 101 0;
#X connect 301 0 134 0;
#X connect 302 0 300 0;
#X connect 303 0 304 0;
#X connect 303 1 304 1;
#X connect 304 0 102 0;
#X connect 304 0 135 0;
#X connect 305 0 303 0;
#X connect 306 0 307 0;
#X connect 306 1 307 1;
#X connect 307 0 103 0;
#X connect 307 0 136 0;
#X connect 308 0 306 0;
#X connect 309 0 310 0;
#X connect 309 1 310 1;
#X connect 310 0 104 0;
#X connect 310 0 137 0;
#X connect 311 0 309 0;
#X connect 312 0 313 0;
#X connect 312 1 313 1;
#X connect 313 0 105 0;
#X connect 313 0 138 0;
#X connect 314 0 312 0;
#X connect 315 0 316 0;
#X connect 315 1 316 1;
#X connect 316 0 106 0;
#X connect 316 0 139 0;
#X connect 317 0 315 0;
#X connect 318 0 319 0;
#X connect 318 1 319 1;
#X connect 319 0 107 0;
#X connect 319 0 140 0;
#X connect 320 0 318 0;
#X connect 321 0 322 0;
#X connect 321 1 322 1;
#X connect 322 0 108 0;
#X connect 322 0 141 0;
#X connect 323 0 321 0;
#X connect 324 0 325 0;
#X connect 324 1 325 1;
#X connect 325 0 109 0;
#X connect 325 0 142 0;
#X connect 326 0 324 0;
#X connect 327 0 328 0;
#X connect 327 1 328 1;
#X connect 328 0 110 0;
#X connect 328 0 143 0;
#X connect 329 0 327 0;
#X connect 330 0 331 0;
#X connect 330 1 331 1;
#X connect 331 0 111 0;
#X connect 331 0 144 0;
#X connect 332 0 330 0;
#X connect 333 0 334 0;
#X connect 333 1 334 1;
#X connect 334 0 112 0;
#X connect 334 0 145 0;
#X connect 335 0 333 0;
#X connect 336 0 337 0;
#X connect 336 1 337 1;
#X connect 337 0 113 0;
#X connect 337 0 146 0;
#X connect 338 0 336 0;
#X connect 339 0 340 0;
#X connect 339 1 340 1;
#X connect 340 0 147 0;
#X connect 340 0 179 0;
#X connect 341 0 339 0;
#X connect 342 0 343 0;
#X connect 342 1 343 1;
#X connect 343 0 148 0;
#X connect 343 0 180 0;
#X connect 344 0 342 0;
#X connect 345 0 346 0;
#X connect 345 1 346 1;
#X connect 346 0 149 0;
#X connect 346 0 181 0;
#X connect 347 0 345 0;
#X connect 348 0 349 0;
#X connect 348 1 349 1;
#X connect 349 0 150 0;
#X connect 349 0 182 0;
#X connect 350 0 348 0;
#X connect 351 0 352 0;
#X connect 351 1 352 1;
#X connect 352 0 151 0;
#X connect 352 0 183 0;
#X connect 353 0 351 0;
#X connect 354 0 355 0;
#X connect 354 1 355 1;
#X connect 355 0 152 0;
#X connect 355 0 184 0;
#X connect 356 0 354 0;
#X connect 357 0 358 0;
#X connect 357 1 358 1;
#X connect 358 0 153 0;
#X connect 358 0 185 0;
#X connect 359 0 357 0;
#X connect 360 0 361 0;
#X connect 360 1 361 1;
#X connect 361 0 154 0;
#X connect 361 0 186 0;
#X connect 362 0 360 0;
#X connect 363 0 364 0;
#X connect 363 1 364 1;
#X connect 364 0 155 0;
#X connect 364 0 187 0;
#X connect 365 0 363 0;
#X connect 366 0 367 0;
#X connect 366 1 367 1;
#X connect 367 0 156 0;
#X connect 367 0 188 0;
#X connect 368 0 366 0;
#X connect 369 0 370 0;
#X connect 369 1 370 1;
#X connect 370 0 157 0;
#X connect 370 0 189 0;
#X connect 371 0 369 0;
#X connect 372 0 373 0;
#X connect 372 1 373 1;
#X connect 373 0 158 0;
#X connect 373 0 190 0;
#X connect 374 0 372 0;
#X connect 375 0 376 0;
#X connect 375 1 376 1;
#X connect 376 0 159 0;
#X connect 376 0 191 0;
#X connect 377 0 375 0;
#X connect 378 0 379 0;
#X connect 378 1 379 1;
#X connect 379 0 160 0;
#X connect 379 0 192 0;
#X connect 380 0 378 0;
#X connect 381 0 382 0;
#X connect 381 1 382 1;
#X connect 382 0 161 0;
#X connect 382 0 193 0;
#X connect 383 0 381 0;
#X connect 384 0 385 0;
#X connect 384 1 385 1;
#X connect 385 0 162 0;
#X connect 385 0 194 0;
#X connect 386 0 384 0;
#X restore 1685 184 pd no wires;
#N canvas 0 74 1366 694 table 0;
#X obj 121 -208 list prepend;
#X obj 58 -135 t b a;
#X obj 121 -303 f;
#X obj 153 -303 + 1;
#X msg 42 -322 0;
#X obj 58 -172 list append;
#X obj 221 -210 t l;
#X obj 7 -372 t b b b b;
#X obj 58 -63 print;
#X text 189 -281 argument = length \; of table;
#X obj 121 -275 moses 512;
#X obj 121 -242 tabread \$0-dsdata;
#X obj 58 -100 sssad \$1/dsdata;
#X text 274 -219 save/store table for SSSAD;
#X obj 625 -389 r SSSAD;
#X obj 625 -345 t a b;
#X obj 603 -280 drip;
#X obj 603 -313 route \$1/dsdata;
#X obj 655 -180 f;
#X obj 687 -180 + 1;
#X msg 688 -220 0;
#X obj 604 -141 tabwrite \$0-dsdata;
#X obj 604 -237 t b f b;
#X msg 557 -205 0;
#X obj 527 -170 s \$0-rpat;
#X text 744 -234 Read table for SSSAD;
#X obj 119 -413 r storetables;
#X msg 120 -362 512, f 4;
#X obj 118 -336 until;
#X obj 119 -390 t b b;
#X connect 0 0 5 1;
#X connect 0 0 6 0;
#X connect 1 0 12 0;
#X connect 1 1 12 1;
#X connect 2 0 3 0;
#X connect 2 0 10 0;
#X connect 3 0 2 1;
#X connect 4 0 2 1;
#X connect 5 0 1 0;
#X connect 6 0 0 1;
#X connect 7 0 0 1;
#X connect 7 1 5 0;
#X connect 7 2 4 0;
#X connect 10 0 11 0;
#X connect 10 1 7 0;
#X connect 11 0 0 0;
#X connect 12 0 8 0;
#X connect 14 0 15 0;
#X connect 15 0 17 0;
#X connect 15 1 20 0;
#X connect 16 0 22 0;
#X connect 17 0 16 0;
#X connect 18 0 19 0;
#X connect 18 0 21 1;
#X connect 19 0 18 1;
#X connect 20 0 18 1;
#X connect 22 0 23 0;
#X connect 22 1 21 0;
#X connect 22 2 18 0;
#X connect 23 0 24 0;
#X connect 26 0 29 0;
#X connect 27 0 28 0;
#X connect 28 0 2 0;
#X connect 29 0 27 0;
#X connect 29 1 27 0;
#X restore 1613 161 pd table save;
#X obj 1325 155 tgl 15 0 \$0-playall playallbutton empty 17 7 0 10
-262144 -1 -1 0 1;
#X text 1345 153 PLAY ALL;
#X connect 48 0 47 0;
#X connect 64 0 65 0;
#X restore 1638 492 pd \$0-conductorpattern1;
#X text 1657 352 Seq Output;
#X msg 1645 44 open /home/ubuntu-studio/MAMIClibrary/images/conductor.png
;
#X connect 0 0 5 0;
#X connect 1 0 0 0;
#X connect 2 0 1 0;
#X connect 3 0 2 0;
#X connect 3 0 27 0;
#X connect 5 0 9 0;
#X connect 5 1 10 0;
#X connect 6 0 7 0;
#X connect 7 0 9 1;
#X connect 7 0 10 1;
#X connect 7 0 17 1;
#X connect 7 0 18 1;
#X connect 9 0 23 0;
#X connect 10 0 24 0;
#X connect 13 0 15 0;
#X connect 14 0 25 0;
#X connect 15 0 17 0;
#X connect 15 1 18 0;
#X connect 17 0 20 0;
#X connect 18 0 21 0;
#X connect 20 0 16 0;
#X connect 21 0 19 0;
#X connect 23 0 8 0;
#X connect 24 0 11 0;
#X connect 25 0 12 0;
#X connect 27 0 0 0;
#X coords 0 -1 1 1 265 114 2 1657 257;
