#N canvas 190 113 1351 688 10;
#X obj 887 414 image /home/ubuntu-studio/MAMIClibrary/images/days.png
0;
#X msg 553 171 click \$1;
#X msg 550 139 1;
#X obj 549 108 loadbang;
#X obj 1153 638 alternate;
#X obj 1110 376 loadbang;
#X obj 1110 404 f \$0;
#X msg 1029 727 \; \$1 vis 1;
#X obj 1029 673 f;
#X obj 1205 674 f;
#X msg 1206 728 \; \$1 vis 0;
#X obj 497 448 inlet;
#N canvas 0 74 1366 694 statesave 0;
#X text 218 0 Seq Number;
#X obj 192 -24 r \$0-masterseq;
#X obj 88 32 s \$0-masterseqr;
#X obj 87 1 sssad \$1/masterseq;
#X obj 195 147 r \$0-voiceselect;
#X obj 90 172 sssad \$1/days;
#X obj 91 203 s \$0-loadvoice;
#X text 221 171 days;
#X text 216 272 months;
#X obj 85 273 sssad \$1/months;
#X obj 190 248 r \$0-voiceselectmonth;
#X obj 86 304 s \$0-loadvoicemonth;
#X text 502 5 day of month;
#X obj 488 -21 r \$0-dayofmonthseq;
#X obj 372 37 s \$0-dayofmonth;
#X obj 371 6 sssad \$1/dayofmonth;
#X obj 450 149 r \$0-yearseq;
#X obj 345 174 sssad \$1/year;
#X obj 346 205 s \$0-year;
#X text 476 173 year;
#X obj 105 416 sssad \$1/months;
#X text 236 415 example date;
#X obj 210 391 r \$0-exampledate;
#X obj 106 447 s \$0-exampledater;
#X connect 1 0 3 1;
#X connect 3 0 2 0;
#X connect 4 0 5 1;
#X connect 5 0 6 0;
#X connect 9 0 11 0;
#X connect 10 0 9 1;
#X connect 13 0 15 1;
#X connect 15 0 14 0;
#X connect 16 0 17 1;
#X connect 17 0 18 0;
#X connect 20 0 23 0;
#X connect 22 0 20 1;
#X restore 465 595 pd statesave;
#X text 768 359 Seq Input;
#N canvas 495 285 173 184 \$0-days1 0;
#X obj 5 -123 cnv 15 164 172 empty empty empty 140 120 0 14 -233017
-66577 0;
#X floatatom 100 -42 2 0 20 1 Seq #0-voiceselectmonth #0-monthseq,
f 2;
#X floatatom 100 -79 2 0 20 1 Seq #0-voiceselect #0-dayseq, f 2;
#X floatatom 43 22 4 0 3000 1 Seq #0-year #0-yearseq, f 4;
#X floatatom 114 -4 2 0 31 1 Seq #0-dayofmonth #0-dayofmonthseq, f
2;
#X text 68 -121 Date;
#X text 10 -5 Day of the Month;
#X text 10 21 Year;
#X obj 11 -83 bng 10 250 50 0 \$0-countuproot empty empty 17 7 0 10
-4160 -1 -1;
#X obj 11 -72 bng 10 250 50 0 \$0-countdownroot empty empty 17 7 0
10 -4160 -1 -1;
#X symbolatom 23 -79 12 0 0 3 WeekDay #0-incomingpitchletter -, f
12;
#X obj 11 -46 bng 10 250 50 0 \$0-countuprootmonth empty empty 17 7
0 10 -4160 -1 -1;
#X obj 11 -35 bng 10 250 50 0 \$0-countdownrootmonth empty empty 17
7 0 10 -4160 -1 -1;
#X symbolatom 23 -42 12 0 0 3 Month #0-incomingpitchlettermonth -,
f 12;
#X floatatom 11 -103 2 0 20 1 Seq #0-masterseqr #0-masterseq, f 2
;
#N canvas -270 209 1366 694 engine 0;
#X obj 195 235 date;
#X msg 195 206 bang;
#X floatatom 223 383 0 0 0 0 - - -;
#X floatatom 206 406 0 0 0 0 - - -;
#X floatatom 195 433 0 0 0 0 - - -;
#X text 299 405 month;
#X text 303 431 year;
#X floatatom 248 272 0 0 0 0 - - -;
#X floatatom 236 296 0 0 0 0 - - -;
#X floatatom 225 323 0 0 0 0 - - -;
#X text 294 271 daylight-saving;
#X text 303 299 day of year;
#X text 304 325 day of week;
#X text 304 381 day of month;
#N canvas 0 82 1325 686 day 0;
#X obj 160 52 t b b;
#X floatatom 281 147 5 0 0 0 - - -, f 5;
#X msg 223 83 0;
#X msg 268 84 1;
#X obj 156 223 t b b;
#X obj 206 127 counter;
#X obj 160 28 r \$0-countuproot;
#X obj 155 201 r \$0-countdownroot;
#X msg 34 92 min \$1;
#X msg 93 91 max \$1;
#X obj 34 21 loadbang;
#X msg 34 61 1;
#N canvas 39 76 1325 686 Sound 0;
#X obj 71 2 inlet;
#X floatatom 320 19 5 0 0 0 - - -, f 5;
#X text 116 3 MIDI Root Note Number;
#X obj 363 296 symbol;
#X obj 363 357 s \$0-incomingpitchletter;
#X symbolatom 461 325 12 0 0 0 - - -, f 12;
#X obj 320 43 sel 1 2 3 4 5 6 7;
#X msg 320 78 Monday;
#X msg 335 100 Tuesday;
#X msg 349 128 Wednesday;
#X msg 365 154 Thursday;
#X msg 380 187 Friday;
#X msg 393 212 Saturday;
#X msg 409 238 Sunday;
#X connect 0 0 1 0;
#X connect 1 0 6 0;
#X connect 3 0 4 0;
#X connect 3 0 5 0;
#X connect 6 0 7 0;
#X connect 6 1 8 0;
#X connect 6 2 9 0;
#X connect 6 3 10 0;
#X connect 6 4 11 0;
#X connect 6 5 12 0;
#X connect 6 6 13 0;
#X connect 7 0 3 0;
#X connect 8 0 3 0;
#X connect 9 0 3 0;
#X connect 10 0 3 0;
#X connect 11 0 3 0;
#X connect 12 0 3 0;
#X connect 13 0 3 0;
#X restore 310 200 pd Sound name symbols;
#X obj 446 200 s \$0-voiceselect;
#X obj 281 122 r \$0-voice;
#X msg 406 53 jam \$1;
#X obj 406 22 r \$0-loadvoice;
#X msg 91 61 7;
#X connect 0 0 5 0;
#X connect 0 1 2 0;
#X connect 1 0 12 0;
#X connect 1 0 13 0;
#X connect 2 0 5 1;
#X connect 3 0 5 1;
#X connect 4 0 5 0;
#X connect 4 1 3 0;
#X connect 5 0 1 0;
#X connect 6 0 0 0;
#X connect 7 0 4 0;
#X connect 8 0 5 0;
#X connect 9 0 5 0;
#X connect 10 0 11 0;
#X connect 10 0 17 0;
#X connect 11 0 8 0;
#X connect 14 0 1 0;
#X connect 15 0 5 0;
#X connect 16 0 15 0;
#X connect 17 0 9 0;
#X restore 417 306 pd day names;
#N canvas 0 82 1325 686 month 0;
#X obj 160 52 t b b;
#X floatatom 281 147 5 0 0 0 - - -, f 5;
#X msg 223 83 0;
#X msg 268 84 1;
#X obj 156 223 t b b;
#X obj 206 127 counter;
#X msg 34 92 min \$1;
#X msg 93 91 max \$1;
#X obj 34 21 loadbang;
#X msg 34 61 1;
#N canvas 39 76 1325 686 Sound 0;
#X obj 71 2 inlet;
#X floatatom 320 19 5 0 0 0 - - -, f 5;
#X text 116 3 MIDI Root Note Number;
#X obj 321 420 symbol;
#X symbolatom 419 449 12 0 0 0 - - -, f 12;
#X obj 320 43 sel 1 2 3 4 5 6 7 8 9 10 11 12;
#X msg 320 78 January;
#X msg 335 100 Febuary;
#X msg 349 128 March;
#X msg 365 154 April;
#X msg 381 187 May;
#X msg 393 212 June;
#X msg 409 238 July;
#X msg 423 272 August;
#X msg 442 302 September;
#X msg 453 328 October;
#X msg 472 353 November;
#X msg 482 377 December;
#X obj 321 481 s \$0-incomingpitchlettermonth;
#X connect 0 0 1 0;
#X connect 1 0 5 0;
#X connect 3 0 4 0;
#X connect 3 0 18 0;
#X connect 5 0 6 0;
#X connect 5 1 7 0;
#X connect 5 2 8 0;
#X connect 5 3 9 0;
#X connect 5 4 10 0;
#X connect 5 5 11 0;
#X connect 5 6 12 0;
#X connect 5 7 13 0;
#X connect 5 8 14 0;
#X connect 5 9 15 0;
#X connect 5 10 16 0;
#X connect 5 11 17 0;
#X connect 6 0 3 0;
#X connect 7 0 3 0;
#X connect 8 0 3 0;
#X connect 9 0 3 0;
#X connect 10 0 3 0;
#X connect 11 0 3 0;
#X connect 12 0 3 0;
#X connect 13 0 3 0;
#X connect 14 0 3 0;
#X connect 15 0 3 0;
#X connect 16 0 3 0;
#X connect 17 0 3 0;
#X restore 310 200 pd Sound name symbols;
#X msg 406 53 jam \$1;
#X obj 160 28 r \$0-countuprootmonth;
#X obj 155 201 r \$0-countdownrootmonth;
#X obj 406 22 r \$0-loadvoicemonth;
#X obj 446 200 s \$0-voiceselectmonth;
#X obj 281 122 r \$0-voicemonth;
#X msg 91 61 12;
#X connect 0 0 5 0;
#X connect 0 1 2 0;
#X connect 1 0 10 0;
#X connect 1 0 15 0;
#X connect 2 0 5 1;
#X connect 3 0 5 1;
#X connect 4 0 5 0;
#X connect 4 1 3 0;
#X connect 5 0 1 0;
#X connect 6 0 5 0;
#X connect 7 0 5 0;
#X connect 8 0 9 0;
#X connect 8 0 17 0;
#X connect 9 0 6 0;
#X connect 11 0 5 0;
#X connect 12 0 0 0;
#X connect 13 0 4 0;
#X connect 14 0 11 0;
#X connect 16 0 1 0;
#X connect 17 0 7 0;
#X restore 422 351 pd month names;
#X obj 518 648 s \$0-loadvoice;
#X obj 397 648 s \$0-loadvoicemonth;
#X obj 337 648 s \$0-year;
#X obj 610 649 s \$0-dayofmonth;
#X obj 196 112 inlet;
#X obj 197 145 sel;
#X obj 233 112 r \$0-masterseq;
#X obj -144 574 r \$0-dayseq;
#X obj -60 574 r \$0-monthseq;
#X obj 29 573 r \$0-dayofmonthseq;
#X obj 166 576 r \$0-yearseq;
#X obj -159 609 f;
#X obj -74 611 f;
#X obj 13 612 f;
#X obj 151 612 f;
#X obj 196 172 t b b;
#X obj -161 657 outlet;
#X obj -73 653 outlet;
#X obj 14 654 outlet;
#X obj 150 648 outlet;
#X obj 281 612 switch 2;
#X obj 405 611 switch 2;
#X obj 524 608 switch 2;
#X obj 619 610 switch 2;
#X msg 877 513 1;
#X msg 907 513 2;
#X msg 330 563 2018;
#X msg 581 535 3;
#X msg 451 550 9;
#X msg 675 532 5;
#X obj 859 386 r \$0-exampledate;
#X obj 859 414 sel 0;
#X obj 854 459 t b b;
#X obj 918 467 t b b;
#X connect 0 0 4 0;
#X connect 0 1 3 0;
#X connect 0 2 2 0;
#X connect 0 3 9 0;
#X connect 0 4 8 0;
#X connect 0 5 7 0;
#X connect 1 0 0 0;
#X connect 2 0 39 1;
#X connect 3 0 37 1;
#X connect 4 0 36 1;
#X connect 9 0 38 1;
#X connect 20 0 21 0;
#X connect 21 0 31 0;
#X connect 22 0 21 1;
#X connect 23 0 27 1;
#X connect 24 0 28 1;
#X connect 25 0 29 1;
#X connect 26 0 30 1;
#X connect 27 0 32 0;
#X connect 28 0 33 0;
#X connect 29 0 34 0;
#X connect 30 0 35 0;
#X connect 31 0 27 0;
#X connect 31 0 28 0;
#X connect 31 0 29 0;
#X connect 31 0 30 0;
#X connect 31 1 1 0;
#X connect 36 0 18 0;
#X connect 37 0 17 0;
#X connect 38 0 16 0;
#X connect 39 0 19 0;
#X connect 40 0 36 0;
#X connect 40 0 37 0;
#X connect 40 0 38 0;
#X connect 40 0 39 0;
#X connect 41 0 36 0;
#X connect 41 0 37 0;
#X connect 41 0 38 0;
#X connect 41 0 39 0;
#X connect 42 0 36 2;
#X connect 43 0 38 2;
#X connect 44 0 37 2;
#X connect 45 0 39 2;
#X connect 46 0 47 0;
#X connect 47 0 48 0;
#X connect 47 1 49 0;
#X connect 48 0 1 0;
#X connect 48 1 40 0;
#X connect 49 0 45 0;
#X connect 49 0 43 0;
#X connect 49 0 44 0;
#X connect 49 0 42 0;
#X connect 49 1 41 0;
#X restore 1243 -75 pd engine;
#X obj 1243 -96 inlet;
#X obj 1195 -59 outlet;
#X obj 1242 -56 outlet;
#X obj 1284 -55 outlet;
#X obj 1325 -56 outlet;
#X obj 116 -120 tgl 20 0 \$0-exampledate \$0-exampledater Example\ Date
-20 30 0 10 -262144 -1 -1 1 1;
#X connect 15 0 17 0;
#X connect 15 1 18 0;
#X connect 15 2 19 0;
#X connect 15 3 20 0;
#X connect 16 0 15 0;
#X restore 497 476 pd \$0-days1;
#X obj 1030 701 makefilename pd-%d-days1;
#X obj 1206 702 makefilename pd-%d-days1;
#X obj 477 525 outlet;
#X obj 524 528 outlet;
#X obj 566 529 outlet;
#X obj 607 528 outlet;
#X text 771 453 W Days;
#X text 843 452 Month;
#X text 995 452 Year;
#X text 912 452 Day Month;
#X msg 751 145 open /home/ubuntu-studio/MAMIClibrary/images/days.png
;
#X connect 0 0 4 0;
#X connect 1 0 0 0;
#X connect 2 0 1 0;
#X connect 3 0 2 0;
#X connect 3 0 25 0;
#X connect 4 0 8 0;
#X connect 4 1 9 0;
#X connect 5 0 6 0;
#X connect 6 0 8 1;
#X connect 6 0 9 1;
#X connect 8 0 15 0;
#X connect 9 0 16 0;
#X connect 11 0 14 0;
#X connect 14 0 17 0;
#X connect 14 1 18 0;
#X connect 14 2 19 0;
#X connect 14 3 20 0;
#X connect 15 0 7 0;
#X connect 16 0 10 0;
#X connect 25 0 0 0;
#X coords 0 -1 1 1 256 114 2 768 358;
