#N canvas 0 25 1366 695 10;
#X obj 1730 315 image /home/ubuntu-studio/Desktop/MAMIClibrary/images/echo.png
0;
#X msg 1446 70 click \$1;
#X msg 1443 38 1;
#X obj 1442 7 loadbang;
#X text 1660 352 Audio Output;
#N canvas 0 24 1366 696 statesave 0;
#X obj 88 32 s \$0-answer_one_r;
#X obj 87 1 sssad \$1/scalenote1;
#X obj 210 -23 r \$0-answer_one;
#X obj 88 70 sssad \$1/scalenote2;
#X obj 211 46 r \$0-answer_two;
#X obj 89 101 s \$0-answer_two_r;
#X obj 90 135 sssad \$1/scalenote3;
#X obj 91 204 sssad \$1/scalenote4;
#X obj 213 111 r \$0-answer_three;
#X obj 214 180 r \$0-answer_four;
#X obj 91 166 s \$0-answer_three_r;
#X obj 92 235 s \$0-answer_four_r;
#X obj 214 242 r \$0-answer_five;
#X obj 91 266 sssad \$1/scalenote5;
#X obj 92 297 s \$0-answer_five_r;
#X obj 215 311 r \$0-answer_six;
#X obj 92 335 sssad \$1/scalenote6;
#X obj 93 364 s \$0-answer_six_r;
#X obj 216 376 r \$0-answer_seven;
#X obj 94 430 s \$0-answer_seven_r;
#X obj 94 400 sssad \$1/scalenote7;
#X obj 218 445 r \$0-answer_eight;
#X obj 96 500 s \$0-answer_eight_r;
#X obj 95 469 sssad \$1/scalenote8;
#X text 341 179 Scale Degrees;
#X obj 758 -16 r \$0-saverootpitch;
#X obj 629 46 s \$0-loadrootpitch;
#X obj 629 11 sssad \$1/scalerootnote;
#X connect 1 0 0 0;
#X connect 2 0 1 1;
#X connect 3 0 5 0;
#X connect 4 0 3 1;
#X connect 6 0 10 0;
#X connect 7 0 11 0;
#X connect 8 0 6 1;
#X connect 9 0 7 1;
#X connect 12 0 13 1;
#X connect 13 0 14 0;
#X connect 15 0 16 1;
#X connect 16 0 17 0;
#X connect 18 0 20 1;
#X connect 20 0 19 0;
#X connect 21 0 23 1;
#X connect 23 0 22 0;
#X connect 25 0 27 1;
#X connect 27 0 26 0;
#X restore 1071 -36 pd statesave;
#X obj 1395 483 outlet~;
#X obj 1392 116 inlet~;
#X obj 1243 92 loadbang;
#X floatatom 1659 306 5 0 4 3 Type - -, f 5;
#X msg 1243 117 0;
#X msg 1276 117 1;
#X floatatom 1767 306 5 0 100 3 Length - -, f 5;
#X obj 1137 257 snapshot~;
#X floatatom 1135 307 15 0 0 0 - - -, f 15;
#X obj 1141 377 sel 0;
#X obj 1136 407 bng 15 50 50 0 empty empty empty 17 7 0 10 -262144
-1 -1;
#X obj 1132 335 change;
#X obj 1137 210 metro 10;
#X msg 1170 399 1;
#X obj 1132 492 del;
#X obj 1173 429 t f f;
#X msg 1284 158 \; pd dsp 1;
#X obj 1060 249 * 100;
#N canvas 0 24 1366 696 reverb 0;
#X obj 174 59 inlet~;
#X obj 194 492 outlet~;
#X obj 195 251 freeverb~;
#N canvas 0 24 1366 696 reverb_levels 0;
#X obj 113 27 inlet;
#X obj 99 470 outlet;
#X obj 113 82 select 0 1 2 3 4;
#X msg 151 326 bypass 0 \, roomsize 0.6 \, wet 0.5 \, dry 0.5 \, width
0 \, damping 0.3;
#X msg 133 273 bypass 0 \, roomsize 0.4 \, wet 0.3 \, dry 0.7 \, width
0 \, damping 0.5;
#X msg 175 390 bypass 0 \, roomsize 0.8 \, wet 0.6 \, dry 0.2 \, width
0 \, damping 0.7;
#X msg 192 451 bypass 0 \, roomsize 0.98 \, wet 0.7 \, dry 0.5 \, width
0 \, damping 0.7;
#X msg 100 179 bypass 1;
#X connect 0 0 2 0;
#X connect 2 0 7 0;
#X connect 2 1 4 0;
#X connect 2 2 3 0;
#X connect 2 3 5 0;
#X connect 2 4 6 0;
#X connect 3 0 1 0;
#X connect 4 0 1 0;
#X connect 5 0 1 0;
#X connect 6 0 1 0;
#X connect 7 0 1 0;
#X restore 211 224 pd reverb_levels;
#X obj 195 283 *~ 0.5;
#X obj 195 195 +~ 1e-07;
#X obj 414 6 loadbang;
#X obj 386 276 switch~;
#X msg 359 284 \$1 5;
#X obj 359 313 line~;
#X msg 358 185 0;
#X obj 359 218 t f f;
#X obj 193 453 *~;
#X obj 174 85 spigot~;
#X msg 403 186 1;
#X obj 217 59 inlet;
#X obj 308 177 inlet;
#X obj 323 120 inlet;
#X obj 100 60 inlet;
#X connect 0 0 13 0;
#X connect 2 0 4 0;
#X connect 2 1 4 0;
#X connect 3 0 2 0;
#X connect 4 0 12 0;
#X connect 5 0 2 0;
#X connect 6 0 10 0;
#X connect 8 0 9 0;
#X connect 9 0 12 1;
#X connect 10 0 11 0;
#X connect 11 0 8 0;
#X connect 11 1 7 0;
#X connect 12 0 1 0;
#X connect 13 1 5 0;
#X connect 14 0 11 0;
#X connect 15 0 13 1;
#X connect 16 0 11 0;
#X connect 17 0 10 0;
#X connect 18 0 3 0;
#X restore 1395 394 pd reverb;
#X msg 1644 44 open /home/ubuntu-studio/Desktop/MAMIClibrary/images/echo.png
;
#X text 1660 260 Audio Input;
#X connect 1 0 0 0;
#X connect 2 0 1 0;
#X connect 3 0 2 0;
#X connect 3 0 25 0;
#X connect 7 0 13 0;
#X connect 7 0 24 1;
#X connect 8 0 10 0;
#X connect 8 0 11 0;
#X connect 8 0 22 0;
#X connect 9 0 24 0;
#X connect 10 0 9 0;
#X connect 11 0 18 0;
#X connect 12 0 23 0;
#X connect 13 0 14 0;
#X connect 14 0 17 0;
#X connect 15 0 16 0;
#X connect 15 1 19 0;
#X connect 16 0 20 0;
#X connect 17 0 15 0;
#X connect 18 0 13 0;
#X connect 19 0 21 0;
#X connect 20 0 24 4;
#X connect 21 0 24 2;
#X connect 21 1 24 3;
#X connect 23 0 20 1;
#X connect 24 0 6 0;
#X connect 25 0 0 0;
#X coords 0 -1 1 1 148 114 2 1657 257;
