#N canvas 0 25 1351 688 10;
#X obj 4 218 int;
#X obj 402 69 cnv 15 406 347 empty empty empty 20 12 0 14 -191407 -66577
0;
#X obj 438 82 grid grid2 220 -16 16 220 -16 16 1 2 2 2 2 866 171;
#X floatatom 497 304 5 0 0 1 X - -, f 5;
#X obj 971 238 int;
#X floatatom 559 303 5 0 0 1 Y - -, f 5;
#X text 660 80 Gesture;
#X obj 159 323 outlet;
#X obj 1026 323 outlet;
#X connect 0 0 3 0;
#X connect 2 0 0 0;
#X connect 2 1 4 0;
#X connect 3 0 7 0;
#X connect 4 0 5 0;
#X connect 5 0 8 0;
#X coords 0 -1 1 1 418 467 1 396 62;
