#N canvas 0 73 1366 694 10;
#X obj 1748 299 image /home/ubuntu-studio/MAMIClibrary/images/greaterthanaril72.png
0;
#X msg 1446 70 click \$1;
#X msg 1443 38 1;
#X obj 1442 7 loadbang;
#X obj 1568 77 inlet;
#N canvas 1 76 1351 688 coll 0;
#X obj 262 -4 openpanel;
#X obj 262 -27 bng 15 250 50 0 empty empty empty 17 7 0 10 -262144
-1 -1;
#X msg 262 24 read \$1;
#X obj 262 -54 r \$0-codeimport;
#X msg 165 -28 open;
#X obj 164 -54 r \$0-codeopen;
#X msg 86 -29 clear;
#X obj 86 -54 r \$0-clear;
#X obj -12 -19 s \$0-channel1;
#X obj -11 2 s \$0-channel2;
#X obj -11 24 s \$0-channel3;
#X msg -11 -37 0;
#X obj 263 78 zl group 2;
#X obj 384 -54 inlet;
#X msg 122 69 1;
#X obj 263 49 coll \$0-xboxpad;
#C restore;
#X obj 263 107 route y b a x lb rb back start up down left right;
#X obj 263 134 s \$0-codey;
#X obj 295 161 s \$0-codeb;
#X obj 329 185 s \$0-codea;
#X obj 362 219 s \$0-codex;
#X obj 396 250 s \$0-codelb;
#X obj 429 286 s \$0-coderb;
#X obj 462 330 s \$0-codeback;
#X obj 493 365 s \$0-codestart;
#X obj 529 404 s \$0-codeup;
#X obj 562 435 s \$0-codedown;
#X obj 595 469 s \$0-codeleft;
#X obj 627 515 s \$0-coderight;
#X connect 0 0 2 0;
#X connect 1 0 0 0;
#X connect 2 0 15 0;
#X connect 3 0 1 0;
#X connect 4 0 15 0;
#X connect 5 0 4 0;
#X connect 6 0 15 0;
#X connect 7 0 6 0;
#X connect 7 0 11 0;
#X connect 11 0 8 0;
#X connect 11 0 9 0;
#X connect 11 0 10 0;
#X connect 12 0 16 0;
#X connect 13 0 15 0;
#X connect 14 0 15 0;
#X connect 15 0 12 0;
#X connect 16 0 17 0;
#X connect 16 1 18 0;
#X connect 16 2 19 0;
#X connect 16 3 20 0;
#X connect 16 4 21 0;
#X connect 16 5 22 0;
#X connect 16 6 23 0;
#X connect 16 7 24 0;
#X connect 16 8 25 0;
#X connect 16 9 26 0;
#X connect 16 10 27 0;
#X connect 16 11 28 0;
#X restore 1568 101 pd coll xboxpad info;
#X obj 2046 537 alternate;
#X obj 2003 275 loadbang;
#X obj 2003 303 f \$0;
#X msg 1922 626 \; \$1 vis 1;
#X obj 1922 572 f;
#X obj 2098 573 f;
#X msg 2099 627 \; \$1 vis 0;
#X text 1661 258 Seq Input;
#X obj 1388 308 inlet;
#X obj 1387 368 outlet;
#N canvas 0 73 1366 694 statesave 1;
#X obj 87 1 sssad \$1/seqnumber;
#X text 218 0 Number;
#X obj 192 -24 r \$0-greaterthan;
#X obj 88 32 s \$0-greaterthanclear;
#X connect 0 0 3 0;
#X connect 2 0 0 1;
#X restore 1358 494 pd statesave;
#X msg 1644 44 open /home/ubuntu-studio/MAMIClibrary/images/greaterthanaril72.png
;
#X text 1661 326 Seq Output;
#N canvas 545 362 131 133 \$0-morethan 0;
#X obj -7 -305 cnv 15 123 120 empty empty empty 20 12 0 14 -260097
-66577 0;
#X floatatom 12 -256 3 0 16 0 - #0-greaterthanclear #0-greaterthan
, f 3;
#X obj 85 -254 bng 15 250 50 0 \$0-clear empty empty 17 7 0 10 -262144
-1 -1;
#X text 49 -256 Clear;
#X text 0 -256 >;
#N canvas 433 184 450 300 engine 0;
#X obj 192 128 outlet;
#X obj 252 59 >;
#X obj 192 18 inlet;
#X obj 289 18 r \$0-greaterthan;
#X obj 396 18 r \$0-clear;
#X msg 396 44 0;
#X obj 396 74 s \$0-greaterthanclear;
#X obj 532 75 s \$0-numberclear;
#X obj 192 90 spigot;
#X obj 192 44 t f f;
#X connect 1 0 8 1;
#X connect 2 0 9 0;
#X connect 3 0 1 1;
#X connect 4 0 5 0;
#X connect 5 0 6 0;
#X connect 5 0 7 0;
#X connect 8 0 0 0;
#X connect 9 0 8 0;
#X connect 9 1 1 0;
#X restore 456 -273 pd engine;
#X obj 456 -300 inlet;
#X obj 456 -248 outlet;
#X text 9 -306 MORE THAN;
#X connect 5 0 7 0;
#X connect 6 0 5 0;
#X restore 1388 338 pd \$0-morethan;
#X obj 1923 600 makefilename pd-%d-morethan;
#X obj 2099 601 makefilename pd-%d-morethan;
#X connect 0 0 6 0;
#X connect 1 0 0 0;
#X connect 2 0 1 0;
#X connect 3 0 2 0;
#X connect 3 0 17 0;
#X connect 4 0 5 0;
#X connect 6 0 10 0;
#X connect 6 1 11 0;
#X connect 7 0 8 0;
#X connect 8 0 10 1;
#X connect 8 0 11 1;
#X connect 10 0 20 0;
#X connect 11 0 21 0;
#X connect 14 0 19 0;
#X connect 17 0 0 0;
#X connect 19 0 15 0;
#X connect 20 0 9 0;
#X connect 21 0 12 0;
#X coords 0 -1 1 1 169 90 2 1658 254;
