#N canvas 0 24 1366 694 10;
#X obj 1789 306 image @pd_extra/ggee/empty_image.png 0;
#X msg 1446 70 click \$1;
#X msg 1443 38 1;
#X obj 1442 7 loadbang;
#X text 1844 351 Audio Output;
#N canvas 0 24 1366 695 statesave 0;
#X obj 87 1 sssad \$1/selectmode;
#X obj 210 -23 r \$0-selmode;
#X obj 88 32 s \$0-mode;
#X obj 758 -16 r \$0-samplenote;
#X obj 629 46 s \$0-presetnote;
#X obj 629 11 sssad \$1/presetsamplenote;
#X obj 211 46 r \$0-lowrange;
#X obj 89 101 s \$0-lowrangestart;
#X obj 88 70 sssad \$1/lowrange;
#X obj 213 111 r \$0-highrange;
#X obj 91 166 s \$0-highrangestart;
#X obj 90 135 sssad \$1/highrange;
#X obj 214 180 r \$0-mastervolume;
#X obj 91 204 sssad \$1/mastervolume;
#X obj 92 235 s \$0-mastervolume_r;
#X connect 0 0 2 0;
#X connect 1 0 0 1;
#X connect 3 0 5 1;
#X connect 5 0 4 0;
#X connect 6 0 8 1;
#X connect 8 0 7 0;
#X connect 9 0 11 1;
#X connect 11 0 10 0;
#X connect 12 0 13 1;
#X connect 13 0 14 0;
#X restore 1244 482 pd statesave;
#X obj 2197 360 alternate;
#X obj 2154 98 loadbang;
#X obj 2154 126 f \$0;
#X msg 2073 449 \; \$1 vis 1;
#X obj 2073 395 f;
#X obj 2266 395 f;
#X msg 2267 449 \; \$1 vis 0;
#X obj 1741 520 outlet~;
#N canvas 227 66 186 182 \$0-midikeyboard 0;
#X obj 320 -38 cnv 15 180 150 empty empty empty 20 12 0 14 -228856
-66577 0;
#X text 350 -40 MIDI Keyboard 1;
#X obj 320 -12 hradio 20 1 0 2 \$0-selmode \$0-mode empty 0 -8 0 10
-262144 -1 -1 0;
#X text 319 -27 KeySamp;
#X symbolatom 411 -18 6 0 0 0 - #0-incomingpitchletter -, f 6;
#X obj 400 -18 bng 10 250 50 0 \$0-countuproot empty empty 17 7 0 10
-4160 -1 -1;
#X obj 400 -1 bng 10 250 50 0 \$0-countdownroot empty empty 17 7 0
10 -4160 -1 -1;
#X text 409 -4 Start Key;
#X obj 403 12 hsl 62 15 24 119 0 0 \$0-lowrange \$0-lowrangestart empty
-2 -8 0 10 -257985 -1 -1 0 1;
#X symbolatom 400 28 6 0 0 0 - #0-lowerincomingpitch -, f 6;
#X obj 403 43 hsl 62 15 24 119 0 0 \$0-highrange \$0-highrangestart
empty -2 -8 0 10 -257985 -1 -1 6100 1;
#X symbolatom 400 59 6 0 0 0 - #0-higherincomingpitch -, f 6;
#X text 366 11 Lower;
#X text 361 42 Higher;
#X obj 401 87 bng 10 250 50 0 \$0-loadsample empty empty 17 7 0 10
-4032 -1 -1;
#X text 411 85 Load Sample;
#X obj 483 -3 vsl 15 85 0.01 1.3 1 0 \$0-mastervolume \$0-mastervolume_r
empty 0 -8 0 8 -257985 -1 -1 0 0;
#X text 480 86 Vol;
#X obj 704 4 outlet~;
#N canvas 0 25 1366 695 engine 0;
#X obj 492 158 outlet~;
#X obj 449 19 notein;
#X obj 449 48 stripnote;
#X obj 449 99 outlet;
#X obj 449 75 gate 2;
#X msg 388 48 1;
#X msg 416 48 2;
#X obj 449 -64 loadbang;
#X obj 388 26 sel 0;
#X msg 449 -24 0;
#X obj 449 -3 s \$0-mode;
#X obj 371 -3 r \$0-selmode;
#N canvas 1 76 1351 688 sample 0;
#N canvas 1 77 1345 686 Incomingpitchnotenaming 0;
#X obj 71 2 inlet;
#X floatatom 320 18 5 0 0 0 - - -, f 5;
#X text 116 3 MIDI Root Note Number;
#X msg 264 183 C4;
#X msg 20 123 bang;
#X msg 95 128 set C1;
#X msg 151 128 set C2;
#X msg 208 128 set C3;
#X obj 118 77 route 24 36 48 60 72 84 96 108;
#X msg 264 128 set C4;
#X msg 320 128 set C5;
#X msg 377 128 set C6;
#X msg 435 129 set C7;
#X msg 492 129 set C8;
#X text 334 71 All the Cs;
#X msg 821 183 C#/Db3;
#X msg 577 123 bang;
#X text 891 70 All the C#s;
#X obj 675 77 route 25 37 49 61 73 85 97 109;
#X msg 254 417 D3;
#X msg 10 357 bang;
#X obj 108 311 route 26 38 50 62 74 86 98 110;
#X text 324 304 All the Ds;
#X msg 85 362 set D1;
#X msg 141 362 set D2;
#X msg 198 362 set D3;
#X msg 254 362 set D4;
#X msg 310 362 set D5;
#X msg 367 362 set D6;
#X msg 425 363 set D7;
#X msg 482 363 set D8;
#X msg 828 422 D#/Eb3;
#X msg 584 362 bang;
#X text 898 309 All the D#s;
#X obj 682 316 route 27 39 51 63 75 87 99 111;
#X msg 257 619 E3;
#X msg 13 559 bang;
#X msg 831 624 F3;
#X msg 587 564 bang;
#X text 901 511 All the Fs;
#X obj 111 513 route 28 40 52 64 76 88 100 112;
#X obj 685 518 route 29 41 53 65 77 89 101 113;
#X msg 88 564 set E1;
#X msg 144 564 set E2;
#X msg 201 564 set E3;
#X msg 257 564 set E4;
#X msg 313 564 set E5;
#X msg 370 564 set E6;
#X msg 428 565 set E7;
#X msg 485 565 set E8;
#X msg 662 569 set F1;
#X msg 718 569 set F2;
#X msg 775 569 set F3;
#X msg 831 569 set F4;
#X msg 887 569 set F5;
#X msg 944 569 set F6;
#X msg 1002 570 set F7;
#X msg 1059 570 set F8;
#X msg 251 824 F#/Gb3;
#X msg 7 764 bang;
#X obj 105 718 route 30 42 54 66 78 90 102 114;
#X text 321 711 All the F#s;
#X msg 826 830 G3;
#X msg 582 770 bang;
#X obj 680 724 route 31 43 55 67 79 91 103 115;
#X text 896 717 All the Gs;
#X msg 657 775 set G1;
#X msg 713 775 set G2;
#X msg 770 775 set G3;
#X msg 826 775 set G4;
#X msg 882 775 set G5;
#X msg 939 775 set G6;
#X msg 997 776 set G7;
#X msg 1054 776 set G8;
#X msg 257 1037 G#/Ab3;
#X msg 13 977 bang;
#X obj 111 931 route 32 44 56 68 80 92 104 116;
#X text 327 924 All the G#s;
#X msg 833 1044 A3;
#X msg 589 984 bang;
#X obj 687 938 route 33 45 57 69 81 93 105 117;
#X text 903 931 All the As;
#X msg 1061 990 set A8;
#X msg 1004 990 set A7;
#X msg 946 989 set A6;
#X msg 889 989 set A5;
#X msg 833 989 set A4;
#X msg 777 989 set A3;
#X msg 720 989 set A2;
#X msg 664 989 set A1;
#X msg 251 1242 A#/Bb3;
#X msg 7 1182 bang;
#X text 321 1129 All the A#s;
#X obj 105 1136 route 34 46 58 70 82 94 106 118;
#X msg 827 1248 B3;
#X msg 583 1188 bang;
#X obj 681 1142 route 35 47 59 71 83 95 107 119;
#X text 897 1135 All the Bs;
#X msg 1055 1194 set B8;
#X msg 998 1194 set B7;
#X msg 940 1193 set B6;
#X msg 883 1193 set B5;
#X msg 827 1193 set B4;
#X msg 771 1193 set B3;
#X msg 714 1193 set B2;
#X msg 658 1193 set B1;
#X msg 652 128 set C#/Db1;
#X msg 708 128 set C#/Db2;
#X msg 765 128 set C#/Db3;
#X msg 821 128 set C#/Db4;
#X msg 877 128 set C#/Db5;
#X msg 934 128 set C#/Db6;
#X msg 992 129 set C#/Db7;
#X msg 1049 129 set C#/Db8;
#X msg 659 367 set D#/Eb1;
#X msg 715 367 set D#/Eb2;
#X msg 772 367 set D#/Eb3;
#X msg 828 367 set D#/Eb4;
#X msg 884 367 set D#/Eb5;
#X msg 941 367 set D#/Eb6;
#X msg 999 368 set D#/Eb7;
#X msg 1056 368 set D#/Eb8;
#X msg 82 769 set F#/Gb1;
#X msg 138 769 set F#/Gb2;
#X msg 195 769 set F#/Gb3;
#X msg 251 769 set F#/Gb4;
#X msg 307 769 set F#/Gb5;
#X msg 364 769 set F#/Gb6;
#X msg 422 770 set F#/Gb7;
#X msg 479 770 set F#/Gb8;
#X msg 88 982 set G#/Ab1;
#X msg 144 982 set G#/Ab2;
#X msg 201 982 set G#/Ab3;
#X msg 257 982 set G#/Ab4;
#X msg 313 982 set G#/Ab5;
#X msg 370 982 set G#/Ab6;
#X msg 428 983 set G#/Ab7;
#X msg 485 983 set G#/Ab8;
#X msg 82 1187 set A#/Bb1;
#X msg 138 1187 set A#/Bb2;
#X msg 195 1187 set A#/Bb3;
#X msg 251 1187 set A#/Bb4;
#X msg 307 1187 set A#/Bb5;
#X msg 364 1187 set A#/Bb6;
#X msg 422 1188 set A#/Bb7;
#X msg 479 1188 set A#/Bb8;
#X text 329 511 All the Es;
#X obj 534 1259 symbol;
#X obj 534 1284 s \$0-incomingpitchletter;
#X obj 457 71 s \$0-incomingpitch;
#X connect 0 0 1 0;
#X connect 1 0 8 0;
#X connect 1 0 18 0;
#X connect 1 0 21 0;
#X connect 1 0 34 0;
#X connect 1 0 40 0;
#X connect 1 0 41 0;
#X connect 1 0 60 0;
#X connect 1 0 64 0;
#X connect 1 0 76 0;
#X connect 1 0 80 0;
#X connect 1 0 93 0;
#X connect 1 0 96 0;
#X connect 1 0 149 0;
#X connect 3 0 147 0;
#X connect 4 0 3 0;
#X connect 5 0 3 0;
#X connect 6 0 3 0;
#X connect 7 0 3 0;
#X connect 8 0 5 0;
#X connect 8 0 4 0;
#X connect 8 1 6 0;
#X connect 8 1 4 0;
#X connect 8 2 7 0;
#X connect 8 2 4 0;
#X connect 8 3 9 0;
#X connect 8 3 4 0;
#X connect 8 4 10 0;
#X connect 8 4 4 0;
#X connect 8 5 11 0;
#X connect 8 5 4 0;
#X connect 8 6 12 0;
#X connect 8 6 4 0;
#X connect 8 7 13 0;
#X connect 8 7 4 0;
#X connect 9 0 3 0;
#X connect 10 0 3 0;
#X connect 11 0 3 0;
#X connect 12 0 3 0;
#X connect 13 0 3 0;
#X connect 15 0 147 0;
#X connect 16 0 15 0;
#X connect 18 0 106 0;
#X connect 18 0 16 0;
#X connect 18 1 107 0;
#X connect 18 1 16 0;
#X connect 18 2 108 0;
#X connect 18 2 16 0;
#X connect 18 3 109 0;
#X connect 18 3 16 0;
#X connect 18 4 110 0;
#X connect 18 4 16 0;
#X connect 18 5 111 0;
#X connect 18 5 16 0;
#X connect 18 6 112 0;
#X connect 18 6 16 0;
#X connect 18 7 113 0;
#X connect 18 7 16 0;
#X connect 19 0 147 0;
#X connect 20 0 19 0;
#X connect 21 0 23 0;
#X connect 21 0 20 0;
#X connect 21 1 24 0;
#X connect 21 1 20 0;
#X connect 21 2 25 0;
#X connect 21 2 20 0;
#X connect 21 3 26 0;
#X connect 21 3 20 0;
#X connect 21 4 27 0;
#X connect 21 4 20 0;
#X connect 21 5 28 0;
#X connect 21 5 20 0;
#X connect 21 6 29 0;
#X connect 21 6 20 0;
#X connect 21 7 30 0;
#X connect 21 7 20 0;
#X connect 23 0 19 0;
#X connect 24 0 19 0;
#X connect 25 0 19 0;
#X connect 26 0 19 0;
#X connect 27 0 19 0;
#X connect 28 0 19 0;
#X connect 29 0 19 0;
#X connect 30 0 19 0;
#X connect 31 0 147 0;
#X connect 32 0 31 0;
#X connect 34 0 114 0;
#X connect 34 0 32 0;
#X connect 34 1 115 0;
#X connect 34 1 32 0;
#X connect 34 2 116 0;
#X connect 34 2 32 0;
#X connect 34 3 117 0;
#X connect 34 3 32 0;
#X connect 34 4 118 0;
#X connect 34 4 32 0;
#X connect 34 5 119 0;
#X connect 34 5 32 0;
#X connect 34 6 120 0;
#X connect 34 6 32 0;
#X connect 34 7 121 0;
#X connect 34 7 32 0;
#X connect 35 0 147 0;
#X connect 36 0 35 0;
#X connect 37 0 147 0;
#X connect 38 0 37 0;
#X connect 40 0 42 0;
#X connect 40 0 36 0;
#X connect 40 1 43 0;
#X connect 40 1 36 0;
#X connect 40 2 44 0;
#X connect 40 2 36 0;
#X connect 40 3 45 0;
#X connect 40 3 36 0;
#X connect 40 4 46 0;
#X connect 40 4 36 0;
#X connect 40 5 47 0;
#X connect 40 5 36 0;
#X connect 40 6 48 0;
#X connect 40 6 36 0;
#X connect 40 7 49 0;
#X connect 40 7 36 0;
#X connect 41 0 50 0;
#X connect 41 0 38 0;
#X connect 41 1 51 0;
#X connect 41 1 38 0;
#X connect 41 2 52 0;
#X connect 41 2 38 0;
#X connect 41 3 53 0;
#X connect 41 3 38 0;
#X connect 41 4 54 0;
#X connect 41 4 38 0;
#X connect 41 5 55 0;
#X connect 41 5 38 0;
#X connect 41 6 56 0;
#X connect 41 6 38 0;
#X connect 41 7 57 0;
#X connect 41 7 38 0;
#X connect 42 0 35 0;
#X connect 43 0 35 0;
#X connect 44 0 35 0;
#X connect 45 0 35 0;
#X connect 46 0 35 0;
#X connect 47 0 35 0;
#X connect 48 0 35 0;
#X connect 49 0 35 0;
#X connect 50 0 37 0;
#X connect 51 0 37 0;
#X connect 52 0 37 0;
#X connect 53 0 37 0;
#X connect 54 0 37 0;
#X connect 55 0 37 0;
#X connect 56 0 37 0;
#X connect 57 0 37 0;
#X connect 58 0 147 0;
#X connect 59 0 58 0;
#X connect 60 0 122 0;
#X connect 60 0 59 0;
#X connect 60 1 123 0;
#X connect 60 1 59 0;
#X connect 60 2 124 0;
#X connect 60 2 59 0;
#X connect 60 3 125 0;
#X connect 60 3 59 0;
#X connect 60 4 126 0;
#X connect 60 4 59 0;
#X connect 60 5 127 0;
#X connect 60 5 59 0;
#X connect 60 6 128 0;
#X connect 60 6 59 0;
#X connect 60 7 129 0;
#X connect 60 7 59 0;
#X connect 62 0 147 0;
#X connect 63 0 62 0;
#X connect 64 0 66 0;
#X connect 64 0 63 0;
#X connect 64 1 67 0;
#X connect 64 1 63 0;
#X connect 64 2 68 0;
#X connect 64 2 63 0;
#X connect 64 3 69 0;
#X connect 64 3 63 0;
#X connect 64 4 70 0;
#X connect 64 4 63 0;
#X connect 64 5 71 0;
#X connect 64 5 63 0;
#X connect 64 6 72 0;
#X connect 64 6 63 0;
#X connect 64 7 73 0;
#X connect 64 7 63 0;
#X connect 66 0 62 0;
#X connect 67 0 62 0;
#X connect 68 0 62 0;
#X connect 69 0 62 0;
#X connect 70 0 62 0;
#X connect 71 0 62 0;
#X connect 72 0 62 0;
#X connect 73 0 62 0;
#X connect 74 0 147 0;
#X connect 75 0 74 0;
#X connect 76 0 130 0;
#X connect 76 0 75 0;
#X connect 76 1 131 0;
#X connect 76 1 75 0;
#X connect 76 2 132 0;
#X connect 76 2 75 0;
#X connect 76 3 133 0;
#X connect 76 3 75 0;
#X connect 76 4 134 0;
#X connect 76 4 75 0;
#X connect 76 5 135 0;
#X connect 76 5 75 0;
#X connect 76 6 136 0;
#X connect 76 6 75 0;
#X connect 76 7 137 0;
#X connect 76 7 75 0;
#X connect 78 0 147 0;
#X connect 79 0 78 0;
#X connect 80 0 89 0;
#X connect 80 0 79 0;
#X connect 80 1 88 0;
#X connect 80 1 79 0;
#X connect 80 2 87 0;
#X connect 80 2 79 0;
#X connect 80 3 86 0;
#X connect 80 3 79 0;
#X connect 80 4 85 0;
#X connect 80 4 79 0;
#X connect 80 5 84 0;
#X connect 80 5 79 0;
#X connect 80 6 83 0;
#X connect 80 6 79 0;
#X connect 80 7 82 0;
#X connect 80 7 79 0;
#X connect 82 0 78 0;
#X connect 83 0 78 0;
#X connect 84 0 78 0;
#X connect 85 0 78 0;
#X connect 86 0 78 0;
#X connect 87 0 78 0;
#X connect 88 0 78 0;
#X connect 89 0 78 0;
#X connect 90 0 147 0;
#X connect 91 0 90 0;
#X connect 93 0 138 0;
#X connect 93 0 91 0;
#X connect 93 1 139 0;
#X connect 93 1 91 0;
#X connect 93 2 140 0;
#X connect 93 2 91 0;
#X connect 93 3 141 0;
#X connect 93 3 91 0;
#X connect 93 4 142 0;
#X connect 93 4 91 0;
#X connect 93 5 143 0;
#X connect 93 5 91 0;
#X connect 93 6 144 0;
#X connect 93 6 91 0;
#X connect 93 7 145 0;
#X connect 93 7 91 0;
#X connect 94 0 147 0;
#X connect 95 0 94 0;
#X connect 96 0 105 0;
#X connect 96 0 95 0;
#X connect 96 1 104 0;
#X connect 96 1 95 0;
#X connect 96 2 103 0;
#X connect 96 2 95 0;
#X connect 96 3 102 0;
#X connect 96 3 95 0;
#X connect 96 4 101 0;
#X connect 96 4 95 0;
#X connect 96 5 100 0;
#X connect 96 5 95 0;
#X connect 96 6 99 0;
#X connect 96 6 95 0;
#X connect 96 7 98 0;
#X connect 96 7 95 0;
#X connect 98 0 94 0;
#X connect 99 0 94 0;
#X connect 100 0 94 0;
#X connect 101 0 94 0;
#X connect 102 0 94 0;
#X connect 103 0 94 0;
#X connect 104 0 94 0;
#X connect 105 0 94 0;
#X connect 106 0 15 0;
#X connect 107 0 15 0;
#X connect 108 0 15 0;
#X connect 109 0 15 0;
#X connect 110 0 15 0;
#X connect 111 0 15 0;
#X connect 112 0 15 0;
#X connect 113 0 15 0;
#X connect 114 0 31 0;
#X connect 115 0 31 0;
#X connect 116 0 31 0;
#X connect 117 0 31 0;
#X connect 118 0 31 0;
#X connect 119 0 31 0;
#X connect 120 0 31 0;
#X connect 121 0 31 0;
#X connect 122 0 58 0;
#X connect 123 0 58 0;
#X connect 124 0 58 0;
#X connect 125 0 58 0;
#X connect 126 0 58 0;
#X connect 127 0 58 0;
#X connect 128 0 58 0;
#X connect 129 0 58 0;
#X connect 130 0 74 0;
#X connect 131 0 74 0;
#X connect 132 0 74 0;
#X connect 133 0 74 0;
#X connect 134 0 74 0;
#X connect 135 0 74 0;
#X connect 136 0 74 0;
#X connect 137 0 74 0;
#X connect 138 0 90 0;
#X connect 139 0 90 0;
#X connect 140 0 90 0;
#X connect 141 0 90 0;
#X connect 142 0 90 0;
#X connect 143 0 90 0;
#X connect 144 0 90 0;
#X connect 145 0 90 0;
#X connect 147 0 148 0;
#X restore 433 193 pd Incomingpitchnotenaming;
#X floatatom 404 140 5 0 0 0 - - -, f 5;
#X msg 346 76 0;
#X msg 391 77 1;
#X obj 329 120 counter, f 8;
#X obj 283 21 r \$0-countuproot;
#X obj 278 194 r \$0-countdownroot;
#X msg 61 84 min \$1;
#X msg 120 83 max \$1;
#X msg 61 53 24;
#X msg 118 53 123;
#X obj -24 -19 loadbang;
#X obj 439 92 r \$0-masterrootnote;
#X obj 448 47 r loadrn;
#X msg 8 85 jam \$1;
#X obj -24 7 t b b;
#X msg 7 53 60;
#X obj 601 192 s \$0-samplenote;
#X obj 284 45 t b b b;
#X obj 278 216 t b b b;
#X obj 201 271 s \$0-samplenotereset;
#X obj 68 2 r \$0-presetnote;
#X connect 1 0 0 0;
#X connect 1 0 17 0;
#X connect 2 0 4 1;
#X connect 3 0 4 1;
#X connect 4 0 1 0;
#X connect 5 0 18 0;
#X connect 6 0 19 0;
#X connect 7 0 4 0;
#X connect 8 0 4 0;
#X connect 9 0 7 0;
#X connect 10 0 8 0;
#X connect 11 0 15 0;
#X connect 12 0 1 0;
#X connect 13 0 4 3;
#X connect 14 0 4 0;
#X connect 15 0 16 0;
#X connect 15 1 10 0;
#X connect 15 1 9 0;
#X connect 16 0 14 0;
#X connect 18 0 20 0;
#X connect 18 1 4 0;
#X connect 18 2 2 0;
#X connect 19 0 20 0;
#X connect 19 1 4 0;
#X connect 19 2 3 0;
#X connect 21 0 14 0;
#X restore 508 -3 pd sample note pitch names;
#X msg 689 -54 \; pd dsp 1 \;;
#X msg 151 -48 24;
#X msg 279 -47 119;
#X obj 151 -25 s \$0-lowrangestart;
#X obj 279 -25 s \$0-highrangestart;
#N canvas 1 76 1351 688 sample_one 0;
#X obj 103 41 inlet;
#X obj 195 170 clip, f 22;
#X floatatom 195 282 5 0 0 0 - - -, f 5;
#X obj 198 371 -;
#X obj 252 301 r \$0-samplenote;
#X obj 237 337 f;
#X obj 231 270 r \$0-samplenote;
#X obj 210 301 t b b;
#N canvas 1 76 1351 686 Incomingpitchnotenaming 0;
#X obj 71 2 inlet;
#X floatatom 320 18 5 0 0 0 - - -, f 5;
#X text 116 3 MIDI Root Note Number;
#X msg 264 183 C1;
#X msg 20 123 bang;
#X msg 95 128 set C1;
#X msg 151 128 set C2;
#X msg 208 128 set C3;
#X obj 118 77 route 24 36 48 60 72 84 96 108;
#X msg 264 128 set C4;
#X msg 320 128 set C5;
#X msg 377 128 set C6;
#X msg 435 129 set C7;
#X msg 492 129 set C8;
#X text 334 71 All the Cs;
#X msg 821 183 C#/Db3;
#X msg 577 123 bang;
#X text 891 70 All the C#s;
#X obj 675 77 route 25 37 49 61 73 85 97 109;
#X msg 254 417 D1;
#X msg 10 357 bang;
#X obj 108 311 route 26 38 50 62 74 86 98 110;
#X text 324 304 All the Ds;
#X msg 85 362 set D1;
#X msg 141 362 set D2;
#X msg 198 362 set D3;
#X msg 254 362 set D4;
#X msg 310 362 set D5;
#X msg 367 362 set D6;
#X msg 425 363 set D7;
#X msg 482 363 set D8;
#X msg 828 422 D#/Eb4;
#X msg 584 362 bang;
#X text 898 309 All the D#s;
#X obj 682 316 route 27 39 51 63 75 87 99 111;
#X msg 257 619 E2;
#X msg 13 559 bang;
#X msg 831 624 F1;
#X msg 587 564 bang;
#X text 901 511 All the Fs;
#X obj 111 513 route 28 40 52 64 76 88 100 112;
#X obj 685 518 route 29 41 53 65 77 89 101 113;
#X msg 88 564 set E1;
#X msg 144 564 set E2;
#X msg 201 564 set E3;
#X msg 257 564 set E4;
#X msg 313 564 set E5;
#X msg 370 564 set E6;
#X msg 428 565 set E7;
#X msg 485 565 set E8;
#X msg 662 569 set F1;
#X msg 718 569 set F2;
#X msg 775 569 set F3;
#X msg 831 569 set F4;
#X msg 887 569 set F5;
#X msg 944 569 set F6;
#X msg 1002 570 set F7;
#X msg 1059 570 set F8;
#X msg 251 824 F#/Gb6;
#X msg 7 764 bang;
#X obj 105 718 route 30 42 54 66 78 90 102 114;
#X text 321 711 All the F#s;
#X msg 826 830 G1;
#X msg 582 770 bang;
#X obj 680 724 route 31 43 55 67 79 91 103 115;
#X text 896 717 All the Gs;
#X msg 657 775 set G1;
#X msg 713 775 set G2;
#X msg 770 775 set G3;
#X msg 826 775 set G4;
#X msg 882 775 set G5;
#X msg 939 775 set G6;
#X msg 997 776 set G7;
#X msg 1054 776 set G8;
#X msg 257 1037 G#/Ab4;
#X msg 13 977 bang;
#X obj 111 931 route 32 44 56 68 80 92 104 116;
#X text 327 924 All the G#s;
#X msg 833 1044 A3;
#X msg 589 984 bang;
#X obj 687 938 route 33 45 57 69 81 93 105 117;
#X text 903 931 All the As;
#X msg 1061 990 set A8;
#X msg 1004 990 set A7;
#X msg 946 989 set A6;
#X msg 889 989 set A5;
#X msg 833 989 set A4;
#X msg 777 989 set A3;
#X msg 720 989 set A2;
#X msg 664 989 set A1;
#X msg 251 1242 A#/Bb1;
#X msg 7 1182 bang;
#X text 321 1129 All the A#s;
#X obj 105 1136 route 34 46 58 70 82 94 106 118;
#X msg 827 1248 B3;
#X msg 583 1188 bang;
#X obj 681 1142 route 35 47 59 71 83 95 107 119;
#X text 897 1135 All the Bs;
#X msg 1055 1194 set B8;
#X msg 998 1194 set B7;
#X msg 940 1193 set B6;
#X msg 883 1193 set B5;
#X msg 827 1193 set B4;
#X msg 771 1193 set B3;
#X msg 714 1193 set B2;
#X msg 658 1193 set B1;
#X msg 652 128 set C#/Db1;
#X msg 708 128 set C#/Db2;
#X msg 765 128 set C#/Db3;
#X msg 821 128 set C#/Db4;
#X msg 877 128 set C#/Db5;
#X msg 934 128 set C#/Db6;
#X msg 992 129 set C#/Db7;
#X msg 1049 129 set C#/Db8;
#X msg 659 367 set D#/Eb1;
#X msg 715 367 set D#/Eb2;
#X msg 772 367 set D#/Eb3;
#X msg 828 367 set D#/Eb4;
#X msg 884 367 set D#/Eb5;
#X msg 941 367 set D#/Eb6;
#X msg 999 368 set D#/Eb7;
#X msg 1056 368 set D#/Eb8;
#X msg 82 769 set F#/Gb1;
#X msg 138 769 set F#/Gb2;
#X msg 195 769 set F#/Gb3;
#X msg 251 769 set F#/Gb4;
#X msg 307 769 set F#/Gb5;
#X msg 364 769 set F#/Gb6;
#X msg 422 770 set F#/Gb7;
#X msg 479 770 set F#/Gb8;
#X msg 88 982 set G#/Ab1;
#X msg 144 982 set G#/Ab2;
#X msg 201 982 set G#/Ab3;
#X msg 257 982 set G#/Ab4;
#X msg 313 982 set G#/Ab5;
#X msg 370 982 set G#/Ab6;
#X msg 428 983 set G#/Ab7;
#X msg 485 983 set G#/Ab8;
#X msg 82 1187 set A#/Bb1;
#X msg 138 1187 set A#/Bb2;
#X msg 195 1187 set A#/Bb3;
#X msg 251 1187 set A#/Bb4;
#X msg 307 1187 set A#/Bb5;
#X msg 364 1187 set A#/Bb6;
#X msg 422 1188 set A#/Bb7;
#X msg 479 1188 set A#/Bb8;
#X text 329 511 All the Es;
#X obj 534 1259 symbol;
#X obj 533 1284 s \$0-lowerincomingpitch;
#X connect 0 0 1 0;
#X connect 1 0 8 0;
#X connect 1 0 18 0;
#X connect 1 0 21 0;
#X connect 1 0 34 0;
#X connect 1 0 40 0;
#X connect 1 0 41 0;
#X connect 1 0 60 0;
#X connect 1 0 64 0;
#X connect 1 0 76 0;
#X connect 1 0 80 0;
#X connect 1 0 93 0;
#X connect 1 0 96 0;
#X connect 3 0 147 0;
#X connect 4 0 3 0;
#X connect 5 0 3 0;
#X connect 6 0 3 0;
#X connect 7 0 3 0;
#X connect 8 0 5 0;
#X connect 8 0 4 0;
#X connect 8 1 6 0;
#X connect 8 1 4 0;
#X connect 8 2 7 0;
#X connect 8 2 4 0;
#X connect 8 3 9 0;
#X connect 8 3 4 0;
#X connect 8 4 10 0;
#X connect 8 4 4 0;
#X connect 8 5 11 0;
#X connect 8 5 4 0;
#X connect 8 6 12 0;
#X connect 8 6 4 0;
#X connect 8 7 13 0;
#X connect 8 7 4 0;
#X connect 9 0 3 0;
#X connect 10 0 3 0;
#X connect 11 0 3 0;
#X connect 12 0 3 0;
#X connect 13 0 3 0;
#X connect 15 0 147 0;
#X connect 16 0 15 0;
#X connect 18 0 106 0;
#X connect 18 0 16 0;
#X connect 18 1 107 0;
#X connect 18 1 16 0;
#X connect 18 2 108 0;
#X connect 18 2 16 0;
#X connect 18 3 109 0;
#X connect 18 3 16 0;
#X connect 18 4 110 0;
#X connect 18 4 16 0;
#X connect 18 5 111 0;
#X connect 18 5 16 0;
#X connect 18 6 112 0;
#X connect 18 6 16 0;
#X connect 18 7 113 0;
#X connect 18 7 16 0;
#X connect 19 0 147 0;
#X connect 20 0 19 0;
#X connect 21 0 23 0;
#X connect 21 0 20 0;
#X connect 21 1 24 0;
#X connect 21 1 20 0;
#X connect 21 2 25 0;
#X connect 21 2 20 0;
#X connect 21 3 26 0;
#X connect 21 3 20 0;
#X connect 21 4 27 0;
#X connect 21 4 20 0;
#X connect 21 5 28 0;
#X connect 21 5 20 0;
#X connect 21 6 29 0;
#X connect 21 6 20 0;
#X connect 21 7 30 0;
#X connect 21 7 20 0;
#X connect 23 0 19 0;
#X connect 24 0 19 0;
#X connect 25 0 19 0;
#X connect 26 0 19 0;
#X connect 27 0 19 0;
#X connect 28 0 19 0;
#X connect 29 0 19 0;
#X connect 30 0 19 0;
#X connect 31 0 147 0;
#X connect 32 0 31 0;
#X connect 34 0 114 0;
#X connect 34 0 32 0;
#X connect 34 1 115 0;
#X connect 34 1 32 0;
#X connect 34 2 116 0;
#X connect 34 2 32 0;
#X connect 34 3 117 0;
#X connect 34 3 32 0;
#X connect 34 4 118 0;
#X connect 34 4 32 0;
#X connect 34 5 119 0;
#X connect 34 5 32 0;
#X connect 34 6 120 0;
#X connect 34 6 32 0;
#X connect 34 7 121 0;
#X connect 34 7 32 0;
#X connect 35 0 147 0;
#X connect 36 0 35 0;
#X connect 37 0 147 0;
#X connect 38 0 37 0;
#X connect 40 0 42 0;
#X connect 40 0 36 0;
#X connect 40 1 43 0;
#X connect 40 1 36 0;
#X connect 40 2 44 0;
#X connect 40 2 36 0;
#X connect 40 3 45 0;
#X connect 40 3 36 0;
#X connect 40 4 46 0;
#X connect 40 4 36 0;
#X connect 40 5 47 0;
#X connect 40 5 36 0;
#X connect 40 6 48 0;
#X connect 40 6 36 0;
#X connect 40 7 49 0;
#X connect 40 7 36 0;
#X connect 41 0 50 0;
#X connect 41 0 38 0;
#X connect 41 1 51 0;
#X connect 41 1 38 0;
#X connect 41 2 52 0;
#X connect 41 2 38 0;
#X connect 41 3 53 0;
#X connect 41 3 38 0;
#X connect 41 4 54 0;
#X connect 41 4 38 0;
#X connect 41 5 55 0;
#X connect 41 5 38 0;
#X connect 41 6 56 0;
#X connect 41 6 38 0;
#X connect 41 7 57 0;
#X connect 41 7 38 0;
#X connect 42 0 35 0;
#X connect 43 0 35 0;
#X connect 44 0 35 0;
#X connect 45 0 35 0;
#X connect 46 0 35 0;
#X connect 47 0 35 0;
#X connect 48 0 35 0;
#X connect 49 0 35 0;
#X connect 50 0 37 0;
#X connect 51 0 37 0;
#X connect 52 0 37 0;
#X connect 53 0 37 0;
#X connect 54 0 37 0;
#X connect 55 0 37 0;
#X connect 56 0 37 0;
#X connect 57 0 37 0;
#X connect 58 0 147 0;
#X connect 59 0 58 0;
#X connect 60 0 122 0;
#X connect 60 0 59 0;
#X connect 60 1 123 0;
#X connect 60 1 59 0;
#X connect 60 2 124 0;
#X connect 60 2 59 0;
#X connect 60 3 125 0;
#X connect 60 3 59 0;
#X connect 60 4 126 0;
#X connect 60 4 59 0;
#X connect 60 5 127 0;
#X connect 60 5 59 0;
#X connect 60 6 128 0;
#X connect 60 6 59 0;
#X connect 60 7 129 0;
#X connect 60 7 59 0;
#X connect 62 0 147 0;
#X connect 63 0 62 0;
#X connect 64 0 66 0;
#X connect 64 0 63 0;
#X connect 64 1 67 0;
#X connect 64 1 63 0;
#X connect 64 2 68 0;
#X connect 64 2 63 0;
#X connect 64 3 69 0;
#X connect 64 3 63 0;
#X connect 64 4 70 0;
#X connect 64 4 63 0;
#X connect 64 5 71 0;
#X connect 64 5 63 0;
#X connect 64 6 72 0;
#X connect 64 6 63 0;
#X connect 64 7 73 0;
#X connect 64 7 63 0;
#X connect 66 0 62 0;
#X connect 67 0 62 0;
#X connect 68 0 62 0;
#X connect 69 0 62 0;
#X connect 70 0 62 0;
#X connect 71 0 62 0;
#X connect 72 0 62 0;
#X connect 73 0 62 0;
#X connect 74 0 147 0;
#X connect 75 0 74 0;
#X connect 76 0 130 0;
#X connect 76 0 75 0;
#X connect 76 1 131 0;
#X connect 76 1 75 0;
#X connect 76 2 132 0;
#X connect 76 2 75 0;
#X connect 76 3 133 0;
#X connect 76 3 75 0;
#X connect 76 4 134 0;
#X connect 76 4 75 0;
#X connect 76 5 135 0;
#X connect 76 5 75 0;
#X connect 76 6 136 0;
#X connect 76 6 75 0;
#X connect 76 7 137 0;
#X connect 76 7 75 0;
#X connect 78 0 147 0;
#X connect 79 0 78 0;
#X connect 80 0 89 0;
#X connect 80 0 79 0;
#X connect 80 1 88 0;
#X connect 80 1 79 0;
#X connect 80 2 87 0;
#X connect 80 2 79 0;
#X connect 80 3 86 0;
#X connect 80 3 79 0;
#X connect 80 4 85 0;
#X connect 80 4 79 0;
#X connect 80 5 84 0;
#X connect 80 5 79 0;
#X connect 80 6 83 0;
#X connect 80 6 79 0;
#X connect 80 7 82 0;
#X connect 80 7 79 0;
#X connect 82 0 78 0;
#X connect 83 0 78 0;
#X connect 84 0 78 0;
#X connect 85 0 78 0;
#X connect 86 0 78 0;
#X connect 87 0 78 0;
#X connect 88 0 78 0;
#X connect 89 0 78 0;
#X connect 90 0 147 0;
#X connect 91 0 90 0;
#X connect 93 0 138 0;
#X connect 93 0 91 0;
#X connect 93 1 139 0;
#X connect 93 1 91 0;
#X connect 93 2 140 0;
#X connect 93 2 91 0;
#X connect 93 3 141 0;
#X connect 93 3 91 0;
#X connect 93 4 142 0;
#X connect 93 4 91 0;
#X connect 93 5 143 0;
#X connect 93 5 91 0;
#X connect 93 6 144 0;
#X connect 93 6 91 0;
#X connect 93 7 145 0;
#X connect 93 7 91 0;
#X connect 94 0 147 0;
#X connect 95 0 94 0;
#X connect 96 0 105 0;
#X connect 96 0 95 0;
#X connect 96 1 104 0;
#X connect 96 1 95 0;
#X connect 96 2 103 0;
#X connect 96 2 95 0;
#X connect 96 3 102 0;
#X connect 96 3 95 0;
#X connect 96 4 101 0;
#X connect 96 4 95 0;
#X connect 96 5 100 0;
#X connect 96 5 95 0;
#X connect 96 6 99 0;
#X connect 96 6 95 0;
#X connect 96 7 98 0;
#X connect 96 7 95 0;
#X connect 98 0 94 0;
#X connect 99 0 94 0;
#X connect 100 0 94 0;
#X connect 101 0 94 0;
#X connect 102 0 94 0;
#X connect 103 0 94 0;
#X connect 104 0 94 0;
#X connect 105 0 94 0;
#X connect 106 0 15 0;
#X connect 107 0 15 0;
#X connect 108 0 15 0;
#X connect 109 0 15 0;
#X connect 110 0 15 0;
#X connect 111 0 15 0;
#X connect 112 0 15 0;
#X connect 113 0 15 0;
#X connect 114 0 31 0;
#X connect 115 0 31 0;
#X connect 116 0 31 0;
#X connect 117 0 31 0;
#X connect 118 0 31 0;
#X connect 119 0 31 0;
#X connect 120 0 31 0;
#X connect 121 0 31 0;
#X connect 122 0 58 0;
#X connect 123 0 58 0;
#X connect 124 0 58 0;
#X connect 125 0 58 0;
#X connect 126 0 58 0;
#X connect 127 0 58 0;
#X connect 128 0 58 0;
#X connect 129 0 58 0;
#X connect 130 0 74 0;
#X connect 131 0 74 0;
#X connect 132 0 74 0;
#X connect 133 0 74 0;
#X connect 134 0 74 0;
#X connect 135 0 74 0;
#X connect 136 0 74 0;
#X connect 137 0 74 0;
#X connect 138 0 90 0;
#X connect 139 0 90 0;
#X connect 140 0 90 0;
#X connect 141 0 90 0;
#X connect 142 0 90 0;
#X connect 143 0 90 0;
#X connect 144 0 90 0;
#X connect 145 0 90 0;
#X connect 147 0 148 0;
#X restore 259 82 pd Incomingpitchnotenaming;
#X obj 259 9 r \$0-lowrange;
#X obj 259 40 int;
#N canvas 1 76 1351 686 Incomingpitchnotenaming 0;
#X obj 71 2 inlet;
#X floatatom 320 18 5 0 0 0 - - -, f 5;
#X text 116 3 MIDI Root Note Number;
#X msg 264 183 C5;
#X msg 20 123 bang;
#X msg 95 128 set C1;
#X msg 151 128 set C2;
#X msg 208 128 set C3;
#X obj 118 77 route 24 36 48 60 72 84 96 108;
#X msg 264 128 set C4;
#X msg 320 128 set C5;
#X msg 377 128 set C6;
#X msg 435 129 set C7;
#X msg 492 129 set C8;
#X text 334 71 All the Cs;
#X msg 821 183 C#/Db5;
#X msg 577 123 bang;
#X text 891 70 All the C#s;
#X obj 675 77 route 25 37 49 61 73 85 97 109;
#X msg 254 417 D4;
#X msg 10 357 bang;
#X obj 108 311 route 26 38 50 62 74 86 98 110;
#X text 324 304 All the Ds;
#X msg 85 362 set D1;
#X msg 141 362 set D2;
#X msg 198 362 set D3;
#X msg 254 362 set D4;
#X msg 310 362 set D5;
#X msg 367 362 set D6;
#X msg 425 363 set D7;
#X msg 482 363 set D8;
#X msg 828 422 D#/Eb5;
#X msg 584 362 bang;
#X text 898 309 All the D#s;
#X obj 682 316 route 27 39 51 63 75 87 99 111;
#X msg 257 619 E4;
#X msg 13 559 bang;
#X msg 831 624 F6;
#X msg 587 564 bang;
#X text 901 511 All the Fs;
#X obj 111 513 route 28 40 52 64 76 88 100 112;
#X obj 685 518 route 29 41 53 65 77 89 101 113;
#X msg 88 564 set E1;
#X msg 144 564 set E2;
#X msg 201 564 set E3;
#X msg 257 564 set E4;
#X msg 313 564 set E5;
#X msg 370 564 set E6;
#X msg 428 565 set E7;
#X msg 485 565 set E8;
#X msg 662 569 set F1;
#X msg 718 569 set F2;
#X msg 775 569 set F3;
#X msg 831 569 set F4;
#X msg 887 569 set F5;
#X msg 944 569 set F6;
#X msg 1002 570 set F7;
#X msg 1059 570 set F8;
#X msg 251 824 F#/Gb4;
#X msg 7 764 bang;
#X obj 105 718 route 30 42 54 66 78 90 102 114;
#X text 321 711 All the F#s;
#X msg 826 830 G4;
#X msg 582 770 bang;
#X obj 680 724 route 31 43 55 67 79 91 103 115;
#X text 896 717 All the Gs;
#X msg 657 775 set G1;
#X msg 713 775 set G2;
#X msg 770 775 set G3;
#X msg 826 775 set G4;
#X msg 882 775 set G5;
#X msg 939 775 set G6;
#X msg 997 776 set G7;
#X msg 1054 776 set G8;
#X msg 257 1037 G#/Ab5;
#X msg 13 977 bang;
#X obj 111 931 route 32 44 56 68 80 92 104 116;
#X text 327 924 All the G#s;
#X msg 833 1044 A4;
#X msg 589 984 bang;
#X obj 687 938 route 33 45 57 69 81 93 105 117;
#X text 903 931 All the As;
#X msg 1061 990 set A8;
#X msg 1004 990 set A7;
#X msg 946 989 set A6;
#X msg 889 989 set A5;
#X msg 833 989 set A4;
#X msg 777 989 set A3;
#X msg 720 989 set A2;
#X msg 664 989 set A1;
#X msg 251 1242 A#/Bb4;
#X msg 7 1182 bang;
#X text 321 1129 All the A#s;
#X obj 105 1136 route 34 46 58 70 82 94 106 118;
#X msg 827 1248 B8;
#X msg 583 1188 bang;
#X obj 681 1142 route 35 47 59 71 83 95 107 119;
#X text 897 1135 All the Bs;
#X msg 1055 1194 set B8;
#X msg 998 1194 set B7;
#X msg 940 1193 set B6;
#X msg 883 1193 set B5;
#X msg 827 1193 set B4;
#X msg 771 1193 set B3;
#X msg 714 1193 set B2;
#X msg 658 1193 set B1;
#X msg 652 128 set C#/Db1;
#X msg 708 128 set C#/Db2;
#X msg 765 128 set C#/Db3;
#X msg 821 128 set C#/Db4;
#X msg 877 128 set C#/Db5;
#X msg 934 128 set C#/Db6;
#X msg 992 129 set C#/Db7;
#X msg 1049 129 set C#/Db8;
#X msg 659 367 set D#/Eb1;
#X msg 715 367 set D#/Eb2;
#X msg 772 367 set D#/Eb3;
#X msg 828 367 set D#/Eb4;
#X msg 884 367 set D#/Eb5;
#X msg 941 367 set D#/Eb6;
#X msg 999 368 set D#/Eb7;
#X msg 1056 368 set D#/Eb8;
#X msg 82 769 set F#/Gb1;
#X msg 138 769 set F#/Gb2;
#X msg 195 769 set F#/Gb3;
#X msg 251 769 set F#/Gb4;
#X msg 307 769 set F#/Gb5;
#X msg 364 769 set F#/Gb6;
#X msg 422 770 set F#/Gb7;
#X msg 479 770 set F#/Gb8;
#X msg 88 982 set G#/Ab1;
#X msg 144 982 set G#/Ab2;
#X msg 201 982 set G#/Ab3;
#X msg 257 982 set G#/Ab4;
#X msg 313 982 set G#/Ab5;
#X msg 370 982 set G#/Ab6;
#X msg 428 983 set G#/Ab7;
#X msg 485 983 set G#/Ab8;
#X msg 82 1187 set A#/Bb1;
#X msg 138 1187 set A#/Bb2;
#X msg 195 1187 set A#/Bb3;
#X msg 251 1187 set A#/Bb4;
#X msg 307 1187 set A#/Bb5;
#X msg 364 1187 set A#/Bb6;
#X msg 422 1188 set A#/Bb7;
#X msg 479 1188 set A#/Bb8;
#X text 329 511 All the Es;
#X obj 534 1259 symbol;
#X obj 533 1284 s \$0-higherincomingpitch;
#X connect 0 0 1 0;
#X connect 1 0 8 0;
#X connect 1 0 18 0;
#X connect 1 0 21 0;
#X connect 1 0 34 0;
#X connect 1 0 40 0;
#X connect 1 0 41 0;
#X connect 1 0 60 0;
#X connect 1 0 64 0;
#X connect 1 0 76 0;
#X connect 1 0 80 0;
#X connect 1 0 93 0;
#X connect 1 0 96 0;
#X connect 3 0 147 0;
#X connect 4 0 3 0;
#X connect 5 0 3 0;
#X connect 6 0 3 0;
#X connect 7 0 3 0;
#X connect 8 0 5 0;
#X connect 8 0 4 0;
#X connect 8 1 6 0;
#X connect 8 1 4 0;
#X connect 8 2 7 0;
#X connect 8 2 4 0;
#X connect 8 3 9 0;
#X connect 8 3 4 0;
#X connect 8 4 10 0;
#X connect 8 4 4 0;
#X connect 8 5 11 0;
#X connect 8 5 4 0;
#X connect 8 6 12 0;
#X connect 8 6 4 0;
#X connect 8 7 13 0;
#X connect 8 7 4 0;
#X connect 9 0 3 0;
#X connect 10 0 3 0;
#X connect 11 0 3 0;
#X connect 12 0 3 0;
#X connect 13 0 3 0;
#X connect 15 0 147 0;
#X connect 16 0 15 0;
#X connect 18 0 106 0;
#X connect 18 0 16 0;
#X connect 18 1 107 0;
#X connect 18 1 16 0;
#X connect 18 2 108 0;
#X connect 18 2 16 0;
#X connect 18 3 109 0;
#X connect 18 3 16 0;
#X connect 18 4 110 0;
#X connect 18 4 16 0;
#X connect 18 5 111 0;
#X connect 18 5 16 0;
#X connect 18 6 112 0;
#X connect 18 6 16 0;
#X connect 18 7 113 0;
#X connect 18 7 16 0;
#X connect 19 0 147 0;
#X connect 20 0 19 0;
#X connect 21 0 23 0;
#X connect 21 0 20 0;
#X connect 21 1 24 0;
#X connect 21 1 20 0;
#X connect 21 2 25 0;
#X connect 21 2 20 0;
#X connect 21 3 26 0;
#X connect 21 3 20 0;
#X connect 21 4 27 0;
#X connect 21 4 20 0;
#X connect 21 5 28 0;
#X connect 21 5 20 0;
#X connect 21 6 29 0;
#X connect 21 6 20 0;
#X connect 21 7 30 0;
#X connect 21 7 20 0;
#X connect 23 0 19 0;
#X connect 24 0 19 0;
#X connect 25 0 19 0;
#X connect 26 0 19 0;
#X connect 27 0 19 0;
#X connect 28 0 19 0;
#X connect 29 0 19 0;
#X connect 30 0 19 0;
#X connect 31 0 147 0;
#X connect 32 0 31 0;
#X connect 34 0 114 0;
#X connect 34 0 32 0;
#X connect 34 1 115 0;
#X connect 34 1 32 0;
#X connect 34 2 116 0;
#X connect 34 2 32 0;
#X connect 34 3 117 0;
#X connect 34 3 32 0;
#X connect 34 4 118 0;
#X connect 34 4 32 0;
#X connect 34 5 119 0;
#X connect 34 5 32 0;
#X connect 34 6 120 0;
#X connect 34 6 32 0;
#X connect 34 7 121 0;
#X connect 34 7 32 0;
#X connect 35 0 147 0;
#X connect 36 0 35 0;
#X connect 37 0 147 0;
#X connect 38 0 37 0;
#X connect 40 0 42 0;
#X connect 40 0 36 0;
#X connect 40 1 43 0;
#X connect 40 1 36 0;
#X connect 40 2 44 0;
#X connect 40 2 36 0;
#X connect 40 3 45 0;
#X connect 40 3 36 0;
#X connect 40 4 46 0;
#X connect 40 4 36 0;
#X connect 40 5 47 0;
#X connect 40 5 36 0;
#X connect 40 6 48 0;
#X connect 40 6 36 0;
#X connect 40 7 49 0;
#X connect 40 7 36 0;
#X connect 41 0 50 0;
#X connect 41 0 38 0;
#X connect 41 1 51 0;
#X connect 41 1 38 0;
#X connect 41 2 52 0;
#X connect 41 2 38 0;
#X connect 41 3 53 0;
#X connect 41 3 38 0;
#X connect 41 4 54 0;
#X connect 41 4 38 0;
#X connect 41 5 55 0;
#X connect 41 5 38 0;
#X connect 41 6 56 0;
#X connect 41 6 38 0;
#X connect 41 7 57 0;
#X connect 41 7 38 0;
#X connect 42 0 35 0;
#X connect 43 0 35 0;
#X connect 44 0 35 0;
#X connect 45 0 35 0;
#X connect 46 0 35 0;
#X connect 47 0 35 0;
#X connect 48 0 35 0;
#X connect 49 0 35 0;
#X connect 50 0 37 0;
#X connect 51 0 37 0;
#X connect 52 0 37 0;
#X connect 53 0 37 0;
#X connect 54 0 37 0;
#X connect 55 0 37 0;
#X connect 56 0 37 0;
#X connect 57 0 37 0;
#X connect 58 0 147 0;
#X connect 59 0 58 0;
#X connect 60 0 122 0;
#X connect 60 0 59 0;
#X connect 60 1 123 0;
#X connect 60 1 59 0;
#X connect 60 2 124 0;
#X connect 60 2 59 0;
#X connect 60 3 125 0;
#X connect 60 3 59 0;
#X connect 60 4 126 0;
#X connect 60 4 59 0;
#X connect 60 5 127 0;
#X connect 60 5 59 0;
#X connect 60 6 128 0;
#X connect 60 6 59 0;
#X connect 60 7 129 0;
#X connect 60 7 59 0;
#X connect 62 0 147 0;
#X connect 63 0 62 0;
#X connect 64 0 66 0;
#X connect 64 0 63 0;
#X connect 64 1 67 0;
#X connect 64 1 63 0;
#X connect 64 2 68 0;
#X connect 64 2 63 0;
#X connect 64 3 69 0;
#X connect 64 3 63 0;
#X connect 64 4 70 0;
#X connect 64 4 63 0;
#X connect 64 5 71 0;
#X connect 64 5 63 0;
#X connect 64 6 72 0;
#X connect 64 6 63 0;
#X connect 64 7 73 0;
#X connect 64 7 63 0;
#X connect 66 0 62 0;
#X connect 67 0 62 0;
#X connect 68 0 62 0;
#X connect 69 0 62 0;
#X connect 70 0 62 0;
#X connect 71 0 62 0;
#X connect 72 0 62 0;
#X connect 73 0 62 0;
#X connect 74 0 147 0;
#X connect 75 0 74 0;
#X connect 76 0 130 0;
#X connect 76 0 75 0;
#X connect 76 1 131 0;
#X connect 76 1 75 0;
#X connect 76 2 132 0;
#X connect 76 2 75 0;
#X connect 76 3 133 0;
#X connect 76 3 75 0;
#X connect 76 4 134 0;
#X connect 76 4 75 0;
#X connect 76 5 135 0;
#X connect 76 5 75 0;
#X connect 76 6 136 0;
#X connect 76 6 75 0;
#X connect 76 7 137 0;
#X connect 76 7 75 0;
#X connect 78 0 147 0;
#X connect 79 0 78 0;
#X connect 80 0 89 0;
#X connect 80 0 79 0;
#X connect 80 1 88 0;
#X connect 80 1 79 0;
#X connect 80 2 87 0;
#X connect 80 2 79 0;
#X connect 80 3 86 0;
#X connect 80 3 79 0;
#X connect 80 4 85 0;
#X connect 80 4 79 0;
#X connect 80 5 84 0;
#X connect 80 5 79 0;
#X connect 80 6 83 0;
#X connect 80 6 79 0;
#X connect 80 7 82 0;
#X connect 80 7 79 0;
#X connect 82 0 78 0;
#X connect 83 0 78 0;
#X connect 84 0 78 0;
#X connect 85 0 78 0;
#X connect 86 0 78 0;
#X connect 87 0 78 0;
#X connect 88 0 78 0;
#X connect 89 0 78 0;
#X connect 90 0 147 0;
#X connect 91 0 90 0;
#X connect 93 0 138 0;
#X connect 93 0 91 0;
#X connect 93 1 139 0;
#X connect 93 1 91 0;
#X connect 93 2 140 0;
#X connect 93 2 91 0;
#X connect 93 3 141 0;
#X connect 93 3 91 0;
#X connect 93 4 142 0;
#X connect 93 4 91 0;
#X connect 93 5 143 0;
#X connect 93 5 91 0;
#X connect 93 6 144 0;
#X connect 93 6 91 0;
#X connect 93 7 145 0;
#X connect 93 7 91 0;
#X connect 94 0 147 0;
#X connect 95 0 94 0;
#X connect 96 0 105 0;
#X connect 96 0 95 0;
#X connect 96 1 104 0;
#X connect 96 1 95 0;
#X connect 96 2 103 0;
#X connect 96 2 95 0;
#X connect 96 3 102 0;
#X connect 96 3 95 0;
#X connect 96 4 101 0;
#X connect 96 4 95 0;
#X connect 96 5 100 0;
#X connect 96 5 95 0;
#X connect 96 6 99 0;
#X connect 96 6 95 0;
#X connect 96 7 98 0;
#X connect 96 7 95 0;
#X connect 98 0 94 0;
#X connect 99 0 94 0;
#X connect 100 0 94 0;
#X connect 101 0 94 0;
#X connect 102 0 94 0;
#X connect 103 0 94 0;
#X connect 104 0 94 0;
#X connect 105 0 94 0;
#X connect 106 0 15 0;
#X connect 107 0 15 0;
#X connect 108 0 15 0;
#X connect 109 0 15 0;
#X connect 110 0 15 0;
#X connect 111 0 15 0;
#X connect 112 0 15 0;
#X connect 113 0 15 0;
#X connect 114 0 31 0;
#X connect 115 0 31 0;
#X connect 116 0 31 0;
#X connect 117 0 31 0;
#X connect 118 0 31 0;
#X connect 119 0 31 0;
#X connect 120 0 31 0;
#X connect 121 0 31 0;
#X connect 122 0 58 0;
#X connect 123 0 58 0;
#X connect 124 0 58 0;
#X connect 125 0 58 0;
#X connect 126 0 58 0;
#X connect 127 0 58 0;
#X connect 128 0 58 0;
#X connect 129 0 58 0;
#X connect 130 0 74 0;
#X connect 131 0 74 0;
#X connect 132 0 74 0;
#X connect 133 0 74 0;
#X connect 134 0 74 0;
#X connect 135 0 74 0;
#X connect 136 0 74 0;
#X connect 137 0 74 0;
#X connect 138 0 90 0;
#X connect 139 0 90 0;
#X connect 140 0 90 0;
#X connect 141 0 90 0;
#X connect 142 0 90 0;
#X connect 143 0 90 0;
#X connect 144 0 90 0;
#X connect 145 0 90 0;
#X connect 147 0 148 0;
#X restore 422 82 pd Incomingpitchnotenaming;
#X obj 422 40 int;
#X obj 422 9 r \$0-highrange;
#X obj 489 137 r \$0-loadsample;
#X obj 489 165 t b;
#X text 68 747 no voice stealing to preserve note decays;
#X text 87 836 This message is sent to all the voices;
#X obj 197 410 unpack f f f;
#X obj 126 594 pack f f;
#X msg 174 535 1;
#X msg 211 535 0;
#X msg 124 619 \$1 \$2;
#X obj 126 485 t f b;
#X obj 184 507 t f b;
#X obj 184 481 f;
#X obj 185 452 del 100;
#X obj 237 601 pack f f;
#X msg 285 542 1;
#X msg 322 542 0;
#X obj 239 492 t f b;
#X obj 295 514 t f b;
#X obj 295 488 f;
#X obj 296 459 del 100;
#X obj 354 604 pack f f;
#X msg 402 545 1;
#X msg 437 546 0;
#X obj 356 495 t f b;
#X obj 412 517 t f b;
#X obj 412 491 f;
#X obj 413 462 del 100;
#X obj 4 715 flush;
#X msg -38 659 bang;
#X obj 6 836 s \$0-note;
#X obj 6 783 pack f f;
#X obj 491 537 *~;
#X msg 489 220 open \$1;
#X obj 489 192 openpanel;
#X floatatom 161 692 5 0 0 0 - - -, f 5;
#X obj 739 422 r \$0-mastervolume;
#X obj 195 243 spigot;
#X obj 194 140 t f f;
#X obj 337 170 >;
#X obj 366 170 >;
#X msg 366 226 0;
#X obj 366 197 sel 1;
#X obj 6 749 poly 8 0;
#X obj 492 624 outlet~;
#N canvas 1 76 1351 688 samplevoice_one 0;
#X obj 651 106 vsl 15 50 0.01 1.3 1 0 empty empty empty 0 -8 0 8 -241291
-1 -1 4411 0;
#X msg 112 140 play;
#X msg 193 139 pause;
#X msg 348 121 speed \$1;
#X floatatom 348 98 5 0 0 0 - - -, f 5;
#X obj 680 0 loadbang;
#X msg 390 75 1;
#X msg 693 36 \; pd dsp 1 \;;
#X floatatom 662 160 5 0 0 0 - - -, f 5;
#X msg 152 139 stop;
#X floatatom 345 173 16 0 0 0 - - -, f 16;
#X msg 345 193 pcm_seek \$1;
#X obj 348 150 hsl 128 15 0 7.368e+06 0 0 empty empty empty -2 -8 0
10 -260818 -1 -1 0 1;
#X msg 348 74 0.21;
#X msg 78 73 open http://www.fro.at:8008/fro-64.ogg.m3u;
#X floatatom 262 552 5 0 0 0 - - -, f 5;
#X floatatom 308 504 5 0 0 0 - - -, f 5;
#X floatatom 217 582 5 0 0 0 - - -, f 5;
#X msg 722 253 loop \$1;
#X obj 721 233 tgl 15 0 empty empty empty 17 7 0 10 -262144 -1 -1 0
1;
#X floatatom 353 467 5 0 0 0 - - -, f 5;
#X obj 444 404 bng 15 250 50 0 empty empty empty 17 7 0 10 -262144
-1 -1;
#X obj 217 378 route ready samplerate length cache float bang;
#X floatatom 399 435 5 0 0 0 - - -, f 5;
#X text 262 581 ready: status for when a file is loaded and ready;
#X text 306 594 to play. If you load a file from disk or;
#X text 306 608 from the net \, it may take a while to load;
#X text 305 621 depending on disk activity and net bandwidth.;
#X text 394 466 cache: percentage (0.0->1.0) of;
#X text 435 479 cache being used.;
#X text 469 405 bang: end of file.;
#X msg 659 80 0.8;
#X obj 29 269 readanysf~ 4 32 256;
#X obj 651 179 s v;
#X text 671 130 Volume;
#X text 217 300 <- readanysf~ has 3 possible creation args 1) number
of channels (all channels will be up or down mixed accordingly) default
is 2 channels. 2) number of "frames" in the internal buffer. Default=24
3) number of samples per frame in internal buffer. Default is your
blocksize.;
#X msg 98 96 open http://wnycam.streamguys.com;
#X floatatom 494 176 16 0 0 0 - - -, f 16;
#X obj 497 153 hsl 128 15 0 500 0 0 empty empty empty -2 -8 0 10 -260818
-1 -1 0 1;
#X msg 494 196 time_seek \$1;
#X msg 329 242 tick 100;
#X text 404 231 send cache \, length output every X ticks;
#X text 402 244 "tick 1" sends out every single dsp cycle;
#X text 720 214 loop on/off;
#X text 441 434 float: position of file in seconds;
#X text 482 447 relative to the file's samplerate;
#X text 347 503 length: total duration of file in seconds;
#X text 394 529 (will be empty for network streams);
#X text 396 516 relative to file's internal samplerate;
#X text 320 553 The samplerate of the file being played.;
#X text 168 5 readanysf~ by August Black;
#X text 170 40 august@alien.mur.at;
#X text 172 26 please send comments \, suggest \, bugs \, donations
->;
#X floatatom 473 122 10 0 0 0 - - -, f 10;
#X obj 467 70 expr (pow (2 \, (($f1-0)/12)));
#X msg 571 -7 0;
#X obj 29 -2 inlet;
#X obj 477 -109 r \$0-note;
#X floatatom 477 -54 5 0 0 0 - - -, f 5;
#X obj 30 579 outlet~;
#X obj 477 -78 route 1;
#X obj 30 542 *~;
#X obj 160 291 loadbang;
#X msg 160 326 \; pd dsp 1;
#X obj 111 399 switch~;
#X msg 84 407 \$1 5;
#X obj 84 436 line~;
#X msg 51 307 1;
#X msg 83 308 0;
#X obj 84 341 t f f;
#X obj 480 -4 t b f b b;
#X connect 0 0 8 0;
#X connect 0 0 33 0;
#X connect 1 0 32 0;
#X connect 2 0 32 0;
#X connect 3 0 32 0;
#X connect 4 0 3 0;
#X connect 5 0 31 0;
#X connect 5 0 7 0;
#X connect 5 0 55 0;
#X connect 6 0 4 0;
#X connect 9 0 32 0;
#X connect 10 0 11 0;
#X connect 11 0 32 0;
#X connect 12 0 10 0;
#X connect 13 0 4 0;
#X connect 14 0 32 0;
#X connect 18 0 32 0;
#X connect 19 0 18 0;
#X connect 22 0 17 0;
#X connect 22 1 15 0;
#X connect 22 2 16 0;
#X connect 22 3 20 0;
#X connect 22 4 23 0;
#X connect 22 5 21 0;
#X connect 22 5 68 0;
#X connect 31 0 0 0;
#X connect 32 0 61 0;
#X connect 32 4 22 0;
#X connect 36 0 32 0;
#X connect 37 0 39 0;
#X connect 38 0 37 0;
#X connect 39 0 32 0;
#X connect 40 0 32 0;
#X connect 53 0 3 0;
#X connect 54 0 53 0;
#X connect 55 0 54 0;
#X connect 56 0 32 0;
#X connect 57 0 60 0;
#X connect 58 0 70 0;
#X connect 60 0 58 0;
#X connect 61 0 59 0;
#X connect 62 0 63 0;
#X connect 62 0 68 0;
#X connect 65 0 66 0;
#X connect 66 0 61 1;
#X connect 67 0 69 0;
#X connect 68 0 69 0;
#X connect 69 0 65 0;
#X connect 69 1 64 0;
#X connect 70 0 1 0;
#X connect 70 1 54 0;
#X connect 70 2 9 0;
#X connect 70 3 67 0;
#X restore 489 308 pd samplevoice_one;
#N canvas 1 76 1351 688 samplevoice_two 0;
#X obj 651 106 vsl 15 50 0.01 1.3 1 0 empty empty empty 0 -8 0 8 -241291
-1 -1 4411 0;
#X msg 112 140 play;
#X msg 193 139 pause;
#X msg 348 121 speed \$1;
#X floatatom 348 98 5 0 0 0 - - -, f 5;
#X obj 680 0 loadbang;
#X msg 390 75 1;
#X msg 693 36 \; pd dsp 1 \;;
#X floatatom 662 160 5 0 0 0 - - -, f 5;
#X msg 152 139 stop;
#X floatatom 345 173 16 0 0 0 - - -, f 16;
#X msg 345 193 pcm_seek \$1;
#X obj 348 150 hsl 128 15 0 7.368e+06 0 0 empty empty empty -2 -8 0
10 -260818 -1 -1 0 1;
#X msg 348 74 0.21;
#X msg 78 73 open http://www.fro.at:8008/fro-64.ogg.m3u;
#X floatatom 262 552 5 0 0 0 - - -, f 5;
#X floatatom 308 504 5 0 0 0 - - -, f 5;
#X floatatom 217 582 5 0 0 0 - - -, f 5;
#X msg 722 253 loop \$1;
#X obj 721 233 tgl 15 0 empty empty empty 17 7 0 10 -262144 -1 -1 0
1;
#X floatatom 353 467 5 0 0 0 - - -, f 5;
#X obj 444 404 bng 15 250 50 0 empty empty empty 17 7 0 10 -262144
-1 -1;
#X obj 217 378 route ready samplerate length cache float bang;
#X floatatom 399 435 5 0 0 0 - - -, f 5;
#X text 262 581 ready: status for when a file is loaded and ready;
#X text 306 594 to play. If you load a file from disk or;
#X text 306 608 from the net \, it may take a while to load;
#X text 305 621 depending on disk activity and net bandwidth.;
#X text 394 466 cache: percentage (0.0->1.0) of;
#X text 435 479 cache being used.;
#X text 469 405 bang: end of file.;
#X msg 659 80 0.8;
#X obj 29 269 readanysf~ 4 32 256;
#X obj 651 179 s v;
#X text 671 130 Volume;
#X text 217 300 <- readanysf~ has 3 possible creation args 1) number
of channels (all channels will be up or down mixed accordingly) default
is 2 channels. 2) number of "frames" in the internal buffer. Default=24
3) number of samples per frame in internal buffer. Default is your
blocksize.;
#X msg 98 96 open http://wnycam.streamguys.com;
#X floatatom 494 176 16 0 0 0 - - -, f 16;
#X obj 497 153 hsl 128 15 0 500 0 0 empty empty empty -2 -8 0 10 -260818
-1 -1 0 1;
#X msg 494 196 time_seek \$1;
#X msg 329 242 tick 100;
#X text 404 231 send cache \, length output every X ticks;
#X text 402 244 "tick 1" sends out every single dsp cycle;
#X text 720 214 loop on/off;
#X text 441 434 float: position of file in seconds;
#X text 482 447 relative to the file's samplerate;
#X text 347 503 length: total duration of file in seconds;
#X text 394 529 (will be empty for network streams);
#X text 396 516 relative to file's internal samplerate;
#X text 320 553 The samplerate of the file being played.;
#X text 168 5 readanysf~ by August Black;
#X text 170 40 august@alien.mur.at;
#X text 172 26 please send comments \, suggest \, bugs \, donations
->;
#X floatatom 473 122 10 0 0 0 - - -, f 10;
#X obj 467 70 expr (pow (2 \, (($f1-0)/12)));
#X msg 571 -7 0;
#X obj 29 -2 inlet;
#X obj 477 -109 r \$0-note;
#X floatatom 477 -54 5 0 0 0 - - -, f 5;
#X obj 30 579 outlet~;
#X obj 30 542 *~;
#X obj 160 291 loadbang;
#X msg 160 326 \; pd dsp 1;
#X obj 111 399 switch~;
#X msg 84 407 \$1 5;
#X obj 84 436 line~;
#X msg 51 307 1;
#X msg 83 308 0;
#X obj 84 341 t f f;
#X obj 480 -4 t b f b b;
#X obj 477 -78 route 2;
#X connect 0 0 8 0;
#X connect 0 0 33 0;
#X connect 1 0 32 0;
#X connect 2 0 32 0;
#X connect 3 0 32 0;
#X connect 4 0 3 0;
#X connect 5 0 31 0;
#X connect 5 0 7 0;
#X connect 5 0 55 0;
#X connect 6 0 4 0;
#X connect 9 0 32 0;
#X connect 10 0 11 0;
#X connect 11 0 32 0;
#X connect 12 0 10 0;
#X connect 13 0 4 0;
#X connect 14 0 32 0;
#X connect 18 0 32 0;
#X connect 19 0 18 0;
#X connect 22 0 17 0;
#X connect 22 1 15 0;
#X connect 22 2 16 0;
#X connect 22 3 20 0;
#X connect 22 4 23 0;
#X connect 22 5 21 0;
#X connect 22 5 67 0;
#X connect 31 0 0 0;
#X connect 32 0 60 0;
#X connect 32 4 22 0;
#X connect 36 0 32 0;
#X connect 37 0 39 0;
#X connect 38 0 37 0;
#X connect 39 0 32 0;
#X connect 40 0 32 0;
#X connect 53 0 3 0;
#X connect 54 0 53 0;
#X connect 55 0 54 0;
#X connect 56 0 32 0;
#X connect 57 0 70 0;
#X connect 58 0 69 0;
#X connect 60 0 59 0;
#X connect 61 0 62 0;
#X connect 61 0 67 0;
#X connect 64 0 65 0;
#X connect 65 0 60 1;
#X connect 66 0 68 0;
#X connect 67 0 68 0;
#X connect 68 0 64 0;
#X connect 68 1 63 0;
#X connect 69 0 1 0;
#X connect 69 1 54 0;
#X connect 69 2 9 0;
#X connect 69 3 66 0;
#X connect 70 0 58 0;
#X restore 610 308 pd samplevoice_two;
#N canvas 1 76 1351 688 samplevoice_three 0;
#X obj 651 106 vsl 15 50 0.01 1.3 1 0 empty empty empty 0 -8 0 8 -241291
-1 -1 4411 0;
#X msg 112 140 play;
#X msg 193 139 pause;
#X msg 348 121 speed \$1;
#X floatatom 348 98 5 0 0 0 - - -, f 5;
#X obj 680 0 loadbang;
#X msg 390 75 1;
#X msg 693 36 \; pd dsp 1 \;;
#X floatatom 662 160 5 0 0 0 - - -, f 5;
#X msg 152 139 stop;
#X floatatom 345 173 16 0 0 0 - - -, f 16;
#X msg 345 193 pcm_seek \$1;
#X obj 348 150 hsl 128 15 0 7.368e+06 0 0 empty empty empty -2 -8 0
10 -260818 -1 -1 0 1;
#X msg 348 74 0.21;
#X msg 78 73 open http://www.fro.at:8008/fro-64.ogg.m3u;
#X floatatom 262 552 5 0 0 0 - - -, f 5;
#X floatatom 308 504 5 0 0 0 - - -, f 5;
#X floatatom 217 582 5 0 0 0 - - -, f 5;
#X msg 722 253 loop \$1;
#X obj 721 233 tgl 15 0 empty empty empty 17 7 0 10 -262144 -1 -1 0
1;
#X floatatom 353 467 5 0 0 0 - - -, f 5;
#X obj 444 404 bng 15 250 50 0 empty empty empty 17 7 0 10 -262144
-1 -1;
#X obj 217 378 route ready samplerate length cache float bang;
#X floatatom 399 435 5 0 0 0 - - -, f 5;
#X text 262 581 ready: status for when a file is loaded and ready;
#X text 306 594 to play. If you load a file from disk or;
#X text 306 608 from the net \, it may take a while to load;
#X text 305 621 depending on disk activity and net bandwidth.;
#X text 394 466 cache: percentage (0.0->1.0) of;
#X text 435 479 cache being used.;
#X text 469 405 bang: end of file.;
#X msg 659 80 0.8;
#X obj 29 269 readanysf~ 4 32 256;
#X obj 651 179 s v;
#X text 671 130 Volume;
#X text 217 300 <- readanysf~ has 3 possible creation args 1) number
of channels (all channels will be up or down mixed accordingly) default
is 2 channels. 2) number of "frames" in the internal buffer. Default=24
3) number of samples per frame in internal buffer. Default is your
blocksize.;
#X msg 98 96 open http://wnycam.streamguys.com;
#X floatatom 494 176 16 0 0 0 - - -, f 16;
#X obj 497 153 hsl 128 15 0 500 0 0 empty empty empty -2 -8 0 10 -260818
-1 -1 0 1;
#X msg 494 196 time_seek \$1;
#X msg 329 242 tick 100;
#X text 404 231 send cache \, length output every X ticks;
#X text 402 244 "tick 1" sends out every single dsp cycle;
#X text 720 214 loop on/off;
#X text 441 434 float: position of file in seconds;
#X text 482 447 relative to the file's samplerate;
#X text 347 503 length: total duration of file in seconds;
#X text 394 529 (will be empty for network streams);
#X text 396 516 relative to file's internal samplerate;
#X text 320 553 The samplerate of the file being played.;
#X text 168 5 readanysf~ by August Black;
#X text 170 40 august@alien.mur.at;
#X text 172 26 please send comments \, suggest \, bugs \, donations
->;
#X floatatom 473 122 10 0 0 0 - - -, f 10;
#X obj 467 70 expr (pow (2 \, (($f1-0)/12)));
#X msg 571 -7 0;
#X obj 29 -2 inlet;
#X obj 477 -109 r \$0-note;
#X floatatom 477 -54 5 0 0 0 - - -, f 5;
#X obj 30 579 outlet~;
#X obj 30 542 *~;
#X obj 160 291 loadbang;
#X msg 160 326 \; pd dsp 1;
#X obj 111 399 switch~;
#X msg 84 407 \$1 5;
#X obj 84 436 line~;
#X msg 51 307 1;
#X msg 83 308 0;
#X obj 84 341 t f f;
#X obj 480 -4 t b f b b;
#X obj 477 -78 route 3;
#X connect 0 0 8 0;
#X connect 0 0 33 0;
#X connect 1 0 32 0;
#X connect 2 0 32 0;
#X connect 3 0 32 0;
#X connect 4 0 3 0;
#X connect 5 0 31 0;
#X connect 5 0 7 0;
#X connect 5 0 55 0;
#X connect 6 0 4 0;
#X connect 9 0 32 0;
#X connect 10 0 11 0;
#X connect 11 0 32 0;
#X connect 12 0 10 0;
#X connect 13 0 4 0;
#X connect 14 0 32 0;
#X connect 18 0 32 0;
#X connect 19 0 18 0;
#X connect 22 0 17 0;
#X connect 22 1 15 0;
#X connect 22 2 16 0;
#X connect 22 3 20 0;
#X connect 22 4 23 0;
#X connect 22 5 21 0;
#X connect 22 5 67 0;
#X connect 31 0 0 0;
#X connect 32 0 60 0;
#X connect 32 4 22 0;
#X connect 36 0 32 0;
#X connect 37 0 39 0;
#X connect 38 0 37 0;
#X connect 39 0 32 0;
#X connect 40 0 32 0;
#X connect 53 0 3 0;
#X connect 54 0 53 0;
#X connect 55 0 54 0;
#X connect 56 0 32 0;
#X connect 57 0 70 0;
#X connect 58 0 69 0;
#X connect 60 0 59 0;
#X connect 61 0 62 0;
#X connect 61 0 67 0;
#X connect 64 0 65 0;
#X connect 65 0 60 1;
#X connect 66 0 68 0;
#X connect 67 0 68 0;
#X connect 68 0 64 0;
#X connect 68 1 63 0;
#X connect 69 0 1 0;
#X connect 69 1 54 0;
#X connect 69 2 9 0;
#X connect 69 3 66 0;
#X connect 70 0 58 0;
#X restore 733 309 pd samplevoice_three;
#N canvas 1 76 1351 688 samplevoice_four 0;
#X obj 651 106 vsl 15 50 0.01 1.3 1 0 empty empty empty 0 -8 0 8 -241291
-1 -1 4411 0;
#X msg 112 140 play;
#X msg 193 139 pause;
#X msg 348 121 speed \$1;
#X floatatom 348 98 5 0 0 0 - - -, f 5;
#X obj 680 0 loadbang;
#X msg 390 75 1;
#X msg 693 36 \; pd dsp 1 \;;
#X floatatom 662 160 5 0 0 0 - - -, f 5;
#X msg 152 139 stop;
#X floatatom 345 173 16 0 0 0 - - -, f 16;
#X msg 345 193 pcm_seek \$1;
#X obj 348 150 hsl 128 15 0 7.368e+06 0 0 empty empty empty -2 -8 0
10 -260818 -1 -1 0 1;
#X msg 348 74 0.21;
#X msg 78 73 open http://www.fro.at:8008/fro-64.ogg.m3u;
#X floatatom 262 552 5 0 0 0 - - -, f 5;
#X floatatom 308 504 5 0 0 0 - - -, f 5;
#X floatatom 217 582 5 0 0 0 - - -, f 5;
#X msg 722 253 loop \$1;
#X obj 721 233 tgl 15 0 empty empty empty 17 7 0 10 -262144 -1 -1 0
1;
#X floatatom 353 467 5 0 0 0 - - -, f 5;
#X obj 444 404 bng 15 250 50 0 empty empty empty 17 7 0 10 -262144
-1 -1;
#X obj 217 378 route ready samplerate length cache float bang;
#X floatatom 399 435 5 0 0 0 - - -, f 5;
#X text 262 581 ready: status for when a file is loaded and ready;
#X text 306 594 to play. If you load a file from disk or;
#X text 306 608 from the net \, it may take a while to load;
#X text 305 621 depending on disk activity and net bandwidth.;
#X text 394 466 cache: percentage (0.0->1.0) of;
#X text 435 479 cache being used.;
#X text 469 405 bang: end of file.;
#X msg 659 80 0.8;
#X obj 29 269 readanysf~ 4 32 256;
#X obj 651 179 s v;
#X text 671 130 Volume;
#X text 217 300 <- readanysf~ has 3 possible creation args 1) number
of channels (all channels will be up or down mixed accordingly) default
is 2 channels. 2) number of "frames" in the internal buffer. Default=24
3) number of samples per frame in internal buffer. Default is your
blocksize.;
#X msg 98 96 open http://wnycam.streamguys.com;
#X floatatom 494 176 16 0 0 0 - - -, f 16;
#X obj 497 153 hsl 128 15 0 500 0 0 empty empty empty -2 -8 0 10 -260818
-1 -1 0 1;
#X msg 494 196 time_seek \$1;
#X msg 329 242 tick 100;
#X text 404 231 send cache \, length output every X ticks;
#X text 402 244 "tick 1" sends out every single dsp cycle;
#X text 720 214 loop on/off;
#X text 441 434 float: position of file in seconds;
#X text 482 447 relative to the file's samplerate;
#X text 347 503 length: total duration of file in seconds;
#X text 394 529 (will be empty for network streams);
#X text 396 516 relative to file's internal samplerate;
#X text 320 553 The samplerate of the file being played.;
#X text 168 5 readanysf~ by August Black;
#X text 170 40 august@alien.mur.at;
#X text 172 26 please send comments \, suggest \, bugs \, donations
->;
#X floatatom 473 122 10 0 0 0 - - -, f 10;
#X obj 467 70 expr (pow (2 \, (($f1-0)/12)));
#X msg 571 -7 0;
#X obj 29 -2 inlet;
#X obj 477 -109 r \$0-note;
#X floatatom 477 -54 5 0 0 0 - - -, f 5;
#X obj 30 579 outlet~;
#X obj 30 542 *~;
#X obj 160 291 loadbang;
#X msg 160 326 \; pd dsp 1;
#X obj 111 399 switch~;
#X msg 84 407 \$1 5;
#X obj 84 436 line~;
#X msg 51 307 1;
#X msg 83 308 0;
#X obj 84 341 t f f;
#X obj 480 -4 t b f b b;
#X obj 477 -78 route 4;
#X connect 0 0 8 0;
#X connect 0 0 33 0;
#X connect 1 0 32 0;
#X connect 2 0 32 0;
#X connect 3 0 32 0;
#X connect 4 0 3 0;
#X connect 5 0 31 0;
#X connect 5 0 7 0;
#X connect 5 0 55 0;
#X connect 6 0 4 0;
#X connect 9 0 32 0;
#X connect 10 0 11 0;
#X connect 11 0 32 0;
#X connect 12 0 10 0;
#X connect 13 0 4 0;
#X connect 14 0 32 0;
#X connect 18 0 32 0;
#X connect 19 0 18 0;
#X connect 22 0 17 0;
#X connect 22 1 15 0;
#X connect 22 2 16 0;
#X connect 22 3 20 0;
#X connect 22 4 23 0;
#X connect 22 5 21 0;
#X connect 22 5 67 0;
#X connect 31 0 0 0;
#X connect 32 0 60 0;
#X connect 32 4 22 0;
#X connect 36 0 32 0;
#X connect 37 0 39 0;
#X connect 38 0 37 0;
#X connect 39 0 32 0;
#X connect 40 0 32 0;
#X connect 53 0 3 0;
#X connect 54 0 53 0;
#X connect 55 0 54 0;
#X connect 56 0 32 0;
#X connect 57 0 70 0;
#X connect 58 0 69 0;
#X connect 60 0 59 0;
#X connect 61 0 62 0;
#X connect 61 0 67 0;
#X connect 64 0 65 0;
#X connect 65 0 60 1;
#X connect 66 0 68 0;
#X connect 67 0 68 0;
#X connect 68 0 64 0;
#X connect 68 1 63 0;
#X connect 69 0 1 0;
#X connect 69 1 54 0;
#X connect 69 2 9 0;
#X connect 69 3 66 0;
#X connect 70 0 58 0;
#X restore 865 309 pd samplevoice_four;
#N canvas 1 76 1351 688 samplevoice_five 0;
#X obj 651 106 vsl 15 50 0.01 1.3 1 0 empty empty empty 0 -8 0 8 -241291
-1 -1 4411 0;
#X msg 112 140 play;
#X msg 193 139 pause;
#X msg 348 121 speed \$1;
#X floatatom 348 98 5 0 0 0 - - -, f 5;
#X obj 680 0 loadbang;
#X msg 390 75 1;
#X msg 693 36 \; pd dsp 1 \;;
#X floatatom 662 160 5 0 0 0 - - -, f 5;
#X msg 152 139 stop;
#X floatatom 345 173 16 0 0 0 - - -, f 16;
#X msg 345 193 pcm_seek \$1;
#X obj 348 150 hsl 128 15 0 7.368e+06 0 0 empty empty empty -2 -8 0
10 -260818 -1 -1 0 1;
#X msg 348 74 0.21;
#X msg 78 73 open http://www.fro.at:8008/fro-64.ogg.m3u;
#X floatatom 262 552 5 0 0 0 - - -, f 5;
#X floatatom 308 504 5 0 0 0 - - -, f 5;
#X floatatom 217 582 5 0 0 0 - - -, f 5;
#X msg 722 253 loop \$1;
#X obj 721 233 tgl 15 0 empty empty empty 17 7 0 10 -262144 -1 -1 0
1;
#X floatatom 353 467 5 0 0 0 - - -, f 5;
#X obj 444 404 bng 15 250 50 0 empty empty empty 17 7 0 10 -262144
-1 -1;
#X obj 217 378 route ready samplerate length cache float bang;
#X floatatom 399 435 5 0 0 0 - - -, f 5;
#X text 262 581 ready: status for when a file is loaded and ready;
#X text 306 594 to play. If you load a file from disk or;
#X text 306 608 from the net \, it may take a while to load;
#X text 305 621 depending on disk activity and net bandwidth.;
#X text 394 466 cache: percentage (0.0->1.0) of;
#X text 435 479 cache being used.;
#X text 469 405 bang: end of file.;
#X msg 659 80 0.8;
#X obj 29 269 readanysf~ 4 32 256;
#X obj 651 179 s v;
#X text 671 130 Volume;
#X text 217 300 <- readanysf~ has 3 possible creation args 1) number
of channels (all channels will be up or down mixed accordingly) default
is 2 channels. 2) number of "frames" in the internal buffer. Default=24
3) number of samples per frame in internal buffer. Default is your
blocksize.;
#X msg 98 96 open http://wnycam.streamguys.com;
#X floatatom 494 176 16 0 0 0 - - -, f 16;
#X obj 497 153 hsl 128 15 0 500 0 0 empty empty empty -2 -8 0 10 -260818
-1 -1 0 1;
#X msg 494 196 time_seek \$1;
#X msg 329 242 tick 100;
#X text 404 231 send cache \, length output every X ticks;
#X text 402 244 "tick 1" sends out every single dsp cycle;
#X text 720 214 loop on/off;
#X text 441 434 float: position of file in seconds;
#X text 482 447 relative to the file's samplerate;
#X text 347 503 length: total duration of file in seconds;
#X text 394 529 (will be empty for network streams);
#X text 396 516 relative to file's internal samplerate;
#X text 320 553 The samplerate of the file being played.;
#X text 168 5 readanysf~ by August Black;
#X text 170 40 august@alien.mur.at;
#X text 172 26 please send comments \, suggest \, bugs \, donations
->;
#X floatatom 473 122 10 0 0 0 - - -, f 10;
#X obj 467 70 expr (pow (2 \, (($f1-0)/12)));
#X msg 571 -7 0;
#X obj 29 -2 inlet;
#X obj 477 -109 r \$0-note;
#X floatatom 477 -54 5 0 0 0 - - -, f 5;
#X obj 30 579 outlet~;
#X obj 30 542 *~;
#X obj 160 291 loadbang;
#X msg 160 326 \; pd dsp 1;
#X obj 111 399 switch~;
#X msg 84 407 \$1 5;
#X obj 84 436 line~;
#X msg 51 307 1;
#X msg 83 308 0;
#X obj 84 341 t f f;
#X obj 480 -4 t b f b b;
#X obj 477 -78 route 5;
#X connect 0 0 8 0;
#X connect 0 0 33 0;
#X connect 1 0 32 0;
#X connect 2 0 32 0;
#X connect 3 0 32 0;
#X connect 4 0 3 0;
#X connect 5 0 31 0;
#X connect 5 0 7 0;
#X connect 5 0 55 0;
#X connect 6 0 4 0;
#X connect 9 0 32 0;
#X connect 10 0 11 0;
#X connect 11 0 32 0;
#X connect 12 0 10 0;
#X connect 13 0 4 0;
#X connect 14 0 32 0;
#X connect 18 0 32 0;
#X connect 19 0 18 0;
#X connect 22 0 17 0;
#X connect 22 1 15 0;
#X connect 22 2 16 0;
#X connect 22 3 20 0;
#X connect 22 4 23 0;
#X connect 22 5 21 0;
#X connect 22 5 67 0;
#X connect 31 0 0 0;
#X connect 32 0 60 0;
#X connect 32 4 22 0;
#X connect 36 0 32 0;
#X connect 37 0 39 0;
#X connect 38 0 37 0;
#X connect 39 0 32 0;
#X connect 40 0 32 0;
#X connect 53 0 3 0;
#X connect 54 0 53 0;
#X connect 55 0 54 0;
#X connect 56 0 32 0;
#X connect 57 0 70 0;
#X connect 58 0 69 0;
#X connect 60 0 59 0;
#X connect 61 0 62 0;
#X connect 61 0 67 0;
#X connect 64 0 65 0;
#X connect 65 0 60 1;
#X connect 66 0 68 0;
#X connect 67 0 68 0;
#X connect 68 0 64 0;
#X connect 68 1 63 0;
#X connect 69 0 1 0;
#X connect 69 1 54 0;
#X connect 69 2 9 0;
#X connect 69 3 66 0;
#X connect 70 0 58 0;
#X restore 489 338 pd samplevoice_five;
#N canvas 1 76 1351 688 samplevoice_six 0;
#X obj 651 106 vsl 15 50 0.01 1.3 1 0 empty empty empty 0 -8 0 8 -241291
-1 -1 4411 0;
#X msg 112 140 play;
#X msg 193 139 pause;
#X msg 348 121 speed \$1;
#X floatatom 348 98 5 0 0 0 - - -, f 5;
#X obj 680 0 loadbang;
#X msg 390 75 1;
#X msg 693 36 \; pd dsp 1 \;;
#X floatatom 662 160 5 0 0 0 - - -, f 5;
#X msg 152 139 stop;
#X floatatom 345 173 16 0 0 0 - - -, f 16;
#X msg 345 193 pcm_seek \$1;
#X obj 348 150 hsl 128 15 0 7.368e+06 0 0 empty empty empty -2 -8 0
10 -260818 -1 -1 0 1;
#X msg 348 74 0.21;
#X msg 78 73 open http://www.fro.at:8008/fro-64.ogg.m3u;
#X floatatom 262 552 5 0 0 0 - - -, f 5;
#X floatatom 308 504 5 0 0 0 - - -, f 5;
#X floatatom 217 582 5 0 0 0 - - -, f 5;
#X msg 722 253 loop \$1;
#X obj 721 233 tgl 15 0 empty empty empty 17 7 0 10 -262144 -1 -1 0
1;
#X floatatom 353 467 5 0 0 0 - - -, f 5;
#X obj 444 404 bng 15 250 50 0 empty empty empty 17 7 0 10 -262144
-1 -1;
#X obj 217 378 route ready samplerate length cache float bang;
#X floatatom 399 435 5 0 0 0 - - -, f 5;
#X text 262 581 ready: status for when a file is loaded and ready;
#X text 306 594 to play. If you load a file from disk or;
#X text 306 608 from the net \, it may take a while to load;
#X text 305 621 depending on disk activity and net bandwidth.;
#X text 394 466 cache: percentage (0.0->1.0) of;
#X text 435 479 cache being used.;
#X text 469 405 bang: end of file.;
#X msg 659 80 0.8;
#X obj 29 269 readanysf~ 4 32 256;
#X obj 651 179 s v;
#X text 671 130 Volume;
#X text 217 300 <- readanysf~ has 3 possible creation args 1) number
of channels (all channels will be up or down mixed accordingly) default
is 2 channels. 2) number of "frames" in the internal buffer. Default=24
3) number of samples per frame in internal buffer. Default is your
blocksize.;
#X msg 98 96 open http://wnycam.streamguys.com;
#X floatatom 494 176 16 0 0 0 - - -, f 16;
#X obj 497 153 hsl 128 15 0 500 0 0 empty empty empty -2 -8 0 10 -260818
-1 -1 0 1;
#X msg 494 196 time_seek \$1;
#X msg 329 242 tick 100;
#X text 404 231 send cache \, length output every X ticks;
#X text 402 244 "tick 1" sends out every single dsp cycle;
#X text 720 214 loop on/off;
#X text 441 434 float: position of file in seconds;
#X text 482 447 relative to the file's samplerate;
#X text 347 503 length: total duration of file in seconds;
#X text 394 529 (will be empty for network streams);
#X text 396 516 relative to file's internal samplerate;
#X text 320 553 The samplerate of the file being played.;
#X text 168 5 readanysf~ by August Black;
#X text 170 40 august@alien.mur.at;
#X text 172 26 please send comments \, suggest \, bugs \, donations
->;
#X floatatom 473 122 10 0 0 0 - - -, f 10;
#X obj 467 70 expr (pow (2 \, (($f1-0)/12)));
#X msg 571 -7 0;
#X obj 29 -2 inlet;
#X obj 477 -109 r \$0-note;
#X floatatom 477 -54 5 0 0 0 - - -, f 5;
#X obj 30 579 outlet~;
#X obj 30 542 *~;
#X obj 160 291 loadbang;
#X msg 160 326 \; pd dsp 1;
#X obj 111 399 switch~;
#X msg 84 407 \$1 5;
#X obj 84 436 line~;
#X msg 51 307 1;
#X msg 83 308 0;
#X obj 84 341 t f f;
#X obj 480 -4 t b f b b;
#X obj 477 -78 route 6;
#X connect 0 0 8 0;
#X connect 0 0 33 0;
#X connect 1 0 32 0;
#X connect 2 0 32 0;
#X connect 3 0 32 0;
#X connect 4 0 3 0;
#X connect 5 0 31 0;
#X connect 5 0 7 0;
#X connect 5 0 55 0;
#X connect 6 0 4 0;
#X connect 9 0 32 0;
#X connect 10 0 11 0;
#X connect 11 0 32 0;
#X connect 12 0 10 0;
#X connect 13 0 4 0;
#X connect 14 0 32 0;
#X connect 18 0 32 0;
#X connect 19 0 18 0;
#X connect 22 0 17 0;
#X connect 22 1 15 0;
#X connect 22 2 16 0;
#X connect 22 3 20 0;
#X connect 22 4 23 0;
#X connect 22 5 21 0;
#X connect 22 5 67 0;
#X connect 31 0 0 0;
#X connect 32 0 60 0;
#X connect 32 4 22 0;
#X connect 36 0 32 0;
#X connect 37 0 39 0;
#X connect 38 0 37 0;
#X connect 39 0 32 0;
#X connect 40 0 32 0;
#X connect 53 0 3 0;
#X connect 54 0 53 0;
#X connect 55 0 54 0;
#X connect 56 0 32 0;
#X connect 57 0 70 0;
#X connect 58 0 69 0;
#X connect 60 0 59 0;
#X connect 61 0 62 0;
#X connect 61 0 67 0;
#X connect 64 0 65 0;
#X connect 65 0 60 1;
#X connect 66 0 68 0;
#X connect 67 0 68 0;
#X connect 68 0 64 0;
#X connect 68 1 63 0;
#X connect 69 0 1 0;
#X connect 69 1 54 0;
#X connect 69 2 9 0;
#X connect 69 3 66 0;
#X connect 70 0 58 0;
#X restore 610 338 pd samplevoice_six;
#N canvas 1 76 1351 688 samplevoice_seven 0;
#X obj 651 106 vsl 15 50 0.01 1.3 1 0 empty empty empty 0 -8 0 8 -241291
-1 -1 4411 0;
#X msg 112 140 play;
#X msg 193 139 pause;
#X msg 348 121 speed \$1;
#X floatatom 348 98 5 0 0 0 - - -, f 5;
#X obj 680 0 loadbang;
#X msg 390 75 1;
#X msg 693 36 \; pd dsp 1 \;;
#X floatatom 662 160 5 0 0 0 - - -, f 5;
#X msg 152 139 stop;
#X floatatom 345 173 16 0 0 0 - - -, f 16;
#X msg 345 193 pcm_seek \$1;
#X obj 348 150 hsl 128 15 0 7.368e+06 0 0 empty empty empty -2 -8 0
10 -260818 -1 -1 0 1;
#X msg 348 74 0.21;
#X msg 78 73 open http://www.fro.at:8008/fro-64.ogg.m3u;
#X floatatom 262 552 5 0 0 0 - - -, f 5;
#X floatatom 308 504 5 0 0 0 - - -, f 5;
#X floatatom 217 582 5 0 0 0 - - -, f 5;
#X msg 722 253 loop \$1;
#X obj 721 233 tgl 15 0 empty empty empty 17 7 0 10 -262144 -1 -1 0
1;
#X floatatom 353 467 5 0 0 0 - - -, f 5;
#X obj 444 404 bng 15 250 50 0 empty empty empty 17 7 0 10 -262144
-1 -1;
#X obj 217 378 route ready samplerate length cache float bang;
#X floatatom 399 435 5 0 0 0 - - -, f 5;
#X text 262 581 ready: status for when a file is loaded and ready;
#X text 306 594 to play. If you load a file from disk or;
#X text 306 608 from the net \, it may take a while to load;
#X text 305 621 depending on disk activity and net bandwidth.;
#X text 394 466 cache: percentage (0.0->1.0) of;
#X text 435 479 cache being used.;
#X text 469 405 bang: end of file.;
#X msg 659 80 0.8;
#X obj 29 269 readanysf~ 4 32 256;
#X obj 651 179 s v;
#X text 671 130 Volume;
#X text 217 300 <- readanysf~ has 3 possible creation args 1) number
of channels (all channels will be up or down mixed accordingly) default
is 2 channels. 2) number of "frames" in the internal buffer. Default=24
3) number of samples per frame in internal buffer. Default is your
blocksize.;
#X msg 98 96 open http://wnycam.streamguys.com;
#X floatatom 494 176 16 0 0 0 - - -, f 16;
#X obj 497 153 hsl 128 15 0 500 0 0 empty empty empty -2 -8 0 10 -260818
-1 -1 0 1;
#X msg 494 196 time_seek \$1;
#X msg 329 242 tick 100;
#X text 404 231 send cache \, length output every X ticks;
#X text 402 244 "tick 1" sends out every single dsp cycle;
#X text 720 214 loop on/off;
#X text 441 434 float: position of file in seconds;
#X text 482 447 relative to the file's samplerate;
#X text 347 503 length: total duration of file in seconds;
#X text 394 529 (will be empty for network streams);
#X text 396 516 relative to file's internal samplerate;
#X text 320 553 The samplerate of the file being played.;
#X text 168 5 readanysf~ by August Black;
#X text 170 40 august@alien.mur.at;
#X text 172 26 please send comments \, suggest \, bugs \, donations
->;
#X floatatom 473 122 10 0 0 0 - - -, f 10;
#X obj 467 70 expr (pow (2 \, (($f1-0)/12)));
#X msg 571 -7 0;
#X obj 29 -2 inlet;
#X obj 477 -109 r \$0-note;
#X floatatom 477 -54 5 0 0 0 - - -, f 5;
#X obj 30 579 outlet~;
#X obj 30 542 *~;
#X obj 160 291 loadbang;
#X msg 160 326 \; pd dsp 1;
#X obj 111 399 switch~;
#X msg 84 407 \$1 5;
#X obj 84 436 line~;
#X msg 51 307 1;
#X msg 83 308 0;
#X obj 84 341 t f f;
#X obj 480 -4 t b f b b;
#X obj 477 -78 route 7;
#X connect 0 0 8 0;
#X connect 0 0 33 0;
#X connect 1 0 32 0;
#X connect 2 0 32 0;
#X connect 3 0 32 0;
#X connect 4 0 3 0;
#X connect 5 0 31 0;
#X connect 5 0 7 0;
#X connect 5 0 55 0;
#X connect 6 0 4 0;
#X connect 9 0 32 0;
#X connect 10 0 11 0;
#X connect 11 0 32 0;
#X connect 12 0 10 0;
#X connect 13 0 4 0;
#X connect 14 0 32 0;
#X connect 18 0 32 0;
#X connect 19 0 18 0;
#X connect 22 0 17 0;
#X connect 22 1 15 0;
#X connect 22 2 16 0;
#X connect 22 3 20 0;
#X connect 22 4 23 0;
#X connect 22 5 21 0;
#X connect 22 5 67 0;
#X connect 31 0 0 0;
#X connect 32 0 60 0;
#X connect 32 4 22 0;
#X connect 36 0 32 0;
#X connect 37 0 39 0;
#X connect 38 0 37 0;
#X connect 39 0 32 0;
#X connect 40 0 32 0;
#X connect 53 0 3 0;
#X connect 54 0 53 0;
#X connect 55 0 54 0;
#X connect 56 0 32 0;
#X connect 57 0 70 0;
#X connect 58 0 69 0;
#X connect 60 0 59 0;
#X connect 61 0 62 0;
#X connect 61 0 67 0;
#X connect 64 0 65 0;
#X connect 65 0 60 1;
#X connect 66 0 68 0;
#X connect 67 0 68 0;
#X connect 68 0 64 0;
#X connect 68 1 63 0;
#X connect 69 0 1 0;
#X connect 69 1 54 0;
#X connect 69 2 9 0;
#X connect 69 3 66 0;
#X connect 70 0 58 0;
#X restore 733 339 pd samplevoice_seven;
#N canvas 1 76 1351 688 samplevoice_eight 0;
#X obj 651 106 vsl 15 50 0.01 1.3 1 0 empty empty empty 0 -8 0 8 -241291
-1 -1 4411 0;
#X msg 112 140 play;
#X msg 193 139 pause;
#X msg 348 121 speed \$1;
#X floatatom 348 98 5 0 0 0 - - -, f 5;
#X obj 680 0 loadbang;
#X msg 390 75 1;
#X msg 693 36 \; pd dsp 1 \;;
#X floatatom 662 160 5 0 0 0 - - -, f 5;
#X msg 152 139 stop;
#X floatatom 345 173 16 0 0 0 - - -, f 16;
#X msg 345 193 pcm_seek \$1;
#X obj 348 150 hsl 128 15 0 7.368e+06 0 0 empty empty empty -2 -8 0
10 -260818 -1 -1 0 1;
#X msg 348 74 0.21;
#X msg 78 73 open http://www.fro.at:8008/fro-64.ogg.m3u;
#X floatatom 262 552 5 0 0 0 - - -, f 5;
#X floatatom 308 504 5 0 0 0 - - -, f 5;
#X floatatom 217 582 5 0 0 0 - - -, f 5;
#X msg 722 253 loop \$1;
#X obj 721 233 tgl 15 0 empty empty empty 17 7 0 10 -262144 -1 -1 0
1;
#X floatatom 353 467 5 0 0 0 - - -, f 5;
#X obj 444 404 bng 15 250 50 0 empty empty empty 17 7 0 10 -262144
-1 -1;
#X obj 217 378 route ready samplerate length cache float bang;
#X floatatom 399 435 5 0 0 0 - - -, f 5;
#X text 262 581 ready: status for when a file is loaded and ready;
#X text 306 594 to play. If you load a file from disk or;
#X text 306 608 from the net \, it may take a while to load;
#X text 305 621 depending on disk activity and net bandwidth.;
#X text 394 466 cache: percentage (0.0->1.0) of;
#X text 435 479 cache being used.;
#X text 469 405 bang: end of file.;
#X msg 659 80 0.8;
#X obj 29 269 readanysf~ 4 32 256;
#X obj 651 179 s v;
#X text 671 130 Volume;
#X text 217 300 <- readanysf~ has 3 possible creation args 1) number
of channels (all channels will be up or down mixed accordingly) default
is 2 channels. 2) number of "frames" in the internal buffer. Default=24
3) number of samples per frame in internal buffer. Default is your
blocksize.;
#X msg 98 96 open http://wnycam.streamguys.com;
#X floatatom 494 176 16 0 0 0 - - -, f 16;
#X obj 497 153 hsl 128 15 0 500 0 0 empty empty empty -2 -8 0 10 -260818
-1 -1 0 1;
#X msg 494 196 time_seek \$1;
#X msg 329 242 tick 100;
#X text 404 231 send cache \, length output every X ticks;
#X text 402 244 "tick 1" sends out every single dsp cycle;
#X text 720 214 loop on/off;
#X text 441 434 float: position of file in seconds;
#X text 482 447 relative to the file's samplerate;
#X text 347 503 length: total duration of file in seconds;
#X text 394 529 (will be empty for network streams);
#X text 396 516 relative to file's internal samplerate;
#X text 320 553 The samplerate of the file being played.;
#X text 168 5 readanysf~ by August Black;
#X text 170 40 august@alien.mur.at;
#X text 172 26 please send comments \, suggest \, bugs \, donations
->;
#X floatatom 473 122 10 0 0 0 - - -, f 10;
#X obj 467 70 expr (pow (2 \, (($f1-0)/12)));
#X msg 571 -7 0;
#X obj 29 -2 inlet;
#X obj 477 -109 r \$0-note;
#X floatatom 477 -54 5 0 0 0 - - -, f 5;
#X obj 30 579 outlet~;
#X obj 30 542 *~;
#X obj 160 291 loadbang;
#X msg 160 326 \; pd dsp 1;
#X obj 111 399 switch~;
#X msg 84 407 \$1 5;
#X obj 84 436 line~;
#X msg 51 307 1;
#X msg 83 308 0;
#X obj 84 341 t f f;
#X obj 480 -4 t b f b b;
#X obj 477 -78 route 8;
#X connect 0 0 8 0;
#X connect 0 0 33 0;
#X connect 1 0 32 0;
#X connect 2 0 32 0;
#X connect 3 0 32 0;
#X connect 4 0 3 0;
#X connect 5 0 31 0;
#X connect 5 0 7 0;
#X connect 5 0 55 0;
#X connect 6 0 4 0;
#X connect 9 0 32 0;
#X connect 10 0 11 0;
#X connect 11 0 32 0;
#X connect 12 0 10 0;
#X connect 13 0 4 0;
#X connect 14 0 32 0;
#X connect 18 0 32 0;
#X connect 19 0 18 0;
#X connect 22 0 17 0;
#X connect 22 1 15 0;
#X connect 22 2 16 0;
#X connect 22 3 20 0;
#X connect 22 4 23 0;
#X connect 22 5 21 0;
#X connect 22 5 67 0;
#X connect 31 0 0 0;
#X connect 32 0 60 0;
#X connect 32 4 22 0;
#X connect 36 0 32 0;
#X connect 37 0 39 0;
#X connect 38 0 37 0;
#X connect 39 0 32 0;
#X connect 40 0 32 0;
#X connect 53 0 3 0;
#X connect 54 0 53 0;
#X connect 55 0 54 0;
#X connect 56 0 32 0;
#X connect 57 0 70 0;
#X connect 58 0 69 0;
#X connect 60 0 59 0;
#X connect 61 0 62 0;
#X connect 61 0 67 0;
#X connect 64 0 65 0;
#X connect 65 0 60 1;
#X connect 66 0 68 0;
#X connect 67 0 68 0;
#X connect 68 0 64 0;
#X connect 68 1 63 0;
#X connect 69 0 1 0;
#X connect 69 1 54 0;
#X connect 69 2 9 0;
#X connect 69 3 66 0;
#X connect 70 0 58 0;
#X restore 865 339 pd samplevoice_eight;
#X obj 759 119 symbol;
#X obj 759 67 loadbang;
#X msg 759 94 /home/ubuntu-studio/MAMIClibrary/samples/crash.wav;
#X connect 0 0 51 0;
#X connect 1 0 50 0;
#X connect 2 0 3 0;
#X connect 3 0 18 0;
#X connect 4 0 3 1;
#X connect 4 0 5 1;
#X connect 5 0 3 0;
#X connect 6 0 7 0;
#X connect 7 0 3 0;
#X connect 7 1 5 0;
#X connect 9 0 10 0;
#X connect 10 0 8 0;
#X connect 10 0 1 1;
#X connect 10 0 52 1;
#X connect 12 0 11 0;
#X connect 12 0 1 2;
#X connect 12 0 53 1;
#X connect 13 0 12 0;
#X connect 14 0 15 0;
#X connect 15 0 47 0;
#X connect 18 0 26 0;
#X connect 18 0 25 1;
#X connect 18 0 23 0;
#X connect 18 1 33 0;
#X connect 18 1 32 1;
#X connect 18 1 30 0;
#X connect 18 2 37 0;
#X connect 18 2 40 0;
#X connect 18 2 39 1;
#X connect 19 0 22 0;
#X connect 20 0 19 1;
#X connect 21 0 19 1;
#X connect 21 0 42 0;
#X connect 22 0 48 0;
#X connect 22 0 56 0;
#X connect 23 0 19 0;
#X connect 23 1 20 0;
#X connect 24 0 19 0;
#X connect 24 1 21 0;
#X connect 25 0 24 0;
#X connect 26 0 25 0;
#X connect 27 0 22 0;
#X connect 28 0 27 1;
#X connect 29 0 27 1;
#X connect 29 0 42 0;
#X connect 30 0 27 0;
#X connect 30 1 28 0;
#X connect 31 0 27 0;
#X connect 31 1 29 0;
#X connect 32 0 31 0;
#X connect 33 0 32 0;
#X connect 34 0 22 0;
#X connect 35 0 34 1;
#X connect 36 0 34 1;
#X connect 36 0 42 0;
#X connect 37 0 34 0;
#X connect 37 1 35 0;
#X connect 38 0 34 0;
#X connect 38 1 36 0;
#X connect 39 0 38 0;
#X connect 40 0 39 0;
#X connect 41 0 56 0;
#X connect 41 1 56 1;
#X connect 42 0 41 0;
#X connect 44 0 43 0;
#X connect 45 0 57 0;
#X connect 46 0 58 0;
#X connect 46 0 59 0;
#X connect 46 0 60 0;
#X connect 46 0 61 0;
#X connect 46 0 62 0;
#X connect 46 0 63 0;
#X connect 46 0 64 0;
#X connect 46 0 65 0;
#X connect 47 0 46 0;
#X connect 49 0 45 1;
#X connect 50 0 2 0;
#X connect 51 0 1 0;
#X connect 51 1 52 0;
#X connect 51 1 53 0;
#X connect 52 0 50 1;
#X connect 53 0 55 0;
#X connect 54 0 50 1;
#X connect 55 0 54 0;
#X connect 56 0 44 0;
#X connect 56 1 44 1;
#X connect 58 0 45 0;
#X connect 59 0 45 0;
#X connect 60 0 45 0;
#X connect 61 0 45 0;
#X connect 62 0 45 0;
#X connect 63 0 45 0;
#X connect 64 0 45 0;
#X connect 65 0 45 0;
#X connect 66 0 46 0;
#X connect 67 0 68 0;
#X connect 68 0 66 0;
#X restore 498 100 pd sample_one;
#X floatatom 568 54 5 0 0 0 - - -, f 5;
#X text 532 52 Test;
#X connect 1 0 2 0;
#X connect 1 1 2 1;
#X connect 2 0 4 1;
#X connect 4 0 3 0;
#X connect 4 1 18 0;
#X connect 5 0 4 0;
#X connect 6 0 4 0;
#X connect 7 0 9 0;
#X connect 7 0 13 0;
#X connect 7 0 14 0;
#X connect 7 0 15 0;
#X connect 8 0 5 0;
#X connect 8 1 6 0;
#X connect 9 0 10 0;
#X connect 11 0 8 0;
#X connect 14 0 16 0;
#X connect 15 0 17 0;
#X connect 18 0 0 0;
#X connect 19 0 18 0;
#X restore 654 -24 pd engine;
#X obj 655 4 outlet;
#X connect 19 0 20 0;
#X connect 19 1 18 0;
#X restore 1636 495 pd \$0-midikeyboard;
#X obj 2074 423 makefilename pd-%d-midikeyboard;
#X obj 2266 424 makefilename pd-%d-midikeyboard;
#X text 1657 351 MIDI Output;
#X obj 1636 522 outlet;
#X msg 1644 44 open /home/ubuntu-studio/MAMIClibrary/images/keyboard.png
;
#X msg 1305 46 0.5;
#X obj 1305 71 s \$0-mastervolume_r;
#X text 1307 96 Preset Volumes;
#X connect 0 0 6 0;
#X connect 1 0 0 0;
#X connect 2 0 1 0;
#X connect 3 0 2 0;
#X connect 3 0 19 0;
#X connect 3 0 20 0;
#X connect 6 0 10 0;
#X connect 6 1 11 0;
#X connect 7 0 8 0;
#X connect 8 0 10 1;
#X connect 8 0 11 1;
#X connect 10 0 15 0;
#X connect 11 0 16 0;
#X connect 14 0 18 0;
#X connect 14 1 13 0;
#X connect 15 0 9 0;
#X connect 16 0 12 0;
#X connect 19 0 0 0;
#X connect 20 0 21 0;
#X coords 0 -1 1 1 265 114 2 1657 257;
