#N struct 1005-radial-template float c float w float x float y float
xx float yy;
#N canvas 356 40 575 657 10;
#N canvas 59 193 1149 666 init 0;
#X obj 93 193 pointer;
#X obj 100 14 loadbang;
#X obj 97 100 f \$0;
#X floatatom -60 200 5 0 0 0 - - -, f 5;
#X obj 780 491 console-clear;
#X msg -60 306 set \$1;
#X obj 99 45 bng 15 250 50 0 empty empty empty 17 7 0 10 -262144 -1
-1;
#X obj 225 34 f \$0;
#X obj 97 75 t b b;
#X obj 221 -1 bng 15 250 50 0 empty empty empty 17 7 0 10 -262144 -1
-1;
#X obj 458 451 pi;
#X obj 458 481 * 2;
#X floatatom 148 489 12 0 0 0 - - -, f 12;
#X obj 409 582 *;
#X floatatom 460 558 12 0 0 0 - - -, f 12;
#X obj 404 529 int;
#X floatatom 406 552 5 0 0 0 - - -, f 5;
#X msg 355 411 0;
#X msg -60 370 180;
#X msg -80 551 0;
#X obj 412 311 t b f b;
#X obj 416 382 float;
#X obj 466 348 delay;
#X obj 155 435 spigot;
#X obj 142 315 t f f;
#X obj 185 394 > 0;
#X msg -60 273 180;
#X msg -60 224 set \$1;
#X obj -49 248 bang;
#X obj -41 338 bang;
#X obj 322 166 spigot;
#X obj 351 94 tgl 15 0 empty empty empty 17 7 0 10 -262144 -1 -1 1
1;
#X obj 458 511 / 60;
#X floatatom 485 248 5 0 0 0 - - -, f 5;
#X obj 483 213 - \$1;
#X obj 518 185 + 30;
#X msg 484 183 119;
#X msg 167 132 \; pd-\$1-radial-data clear;
#X msg 98 169 traverse pd-\$1-radial-data \, bang;
#X text -62 178 Radius;
#X text 160 469 angle;
#X floatatom 485 90 5 0 59 0 - - -, f 5;
#X floatatom 559 463 5 0 0 0 - - -, f 5;
#X obj -97 638 append \$0-radial-template x y xx yy c w;
#X obj 297 12 r balwyn-clock-minutes;
#X obj 449 8 r balwyn-clock-minutes-size;
#X obj 635 7 r balwyn-clock-minutes-width;
#X obj 821 3 r balwyn-clock-minutes-colour;
#X obj 468 58 - 1;
#X floatatom -22 597 5 0 0 0 - - -, f 5;
#X floatatom 56 593 5 0 0 0 - - -, f 5;
#X obj -40 570 plot-six-degrees;
#X connect 0 0 43 6;
#X connect 1 0 6 0;
#X connect 1 0 31 0;
#X connect 2 0 37 0;
#X connect 2 0 38 0;
#X connect 3 0 27 0;
#X connect 5 0 18 0;
#X connect 5 0 29 0;
#X connect 6 0 8 0;
#X connect 6 0 17 0;
#X connect 6 0 26 0;
#X connect 6 0 51 0;
#X connect 7 0 37 0;
#X connect 8 0 2 0;
#X connect 9 0 7 0;
#X connect 10 0 11 0;
#X connect 11 0 32 0;
#X connect 12 0 51 1;
#X connect 12 0 19 0;
#X connect 13 0 24 0;
#X connect 14 0 13 1;
#X connect 15 0 16 0;
#X connect 16 0 13 0;
#X connect 17 0 13 0;
#X connect 18 0 51 2;
#X connect 19 0 43 0;
#X connect 19 0 43 1;
#X connect 20 0 10 0;
#X connect 20 0 30 0;
#X connect 20 1 21 1;
#X connect 20 2 22 0;
#X connect 21 0 15 0;
#X connect 22 0 21 0;
#X connect 23 0 12 0;
#X connect 24 0 23 0;
#X connect 24 1 25 0;
#X connect 25 0 23 1;
#X connect 26 0 5 0;
#X connect 27 0 26 0;
#X connect 27 0 28 0;
#X connect 28 0 26 0;
#X connect 29 0 18 0;
#X connect 30 0 6 0;
#X connect 31 0 30 1;
#X connect 32 0 14 0;
#X connect 33 0 20 0;
#X connect 34 0 33 0;
#X connect 35 0 34 1;
#X connect 36 0 34 0;
#X connect 38 0 0 0;
#X connect 41 0 36 0;
#X connect 41 0 35 0;
#X connect 44 0 48 0;
#X connect 45 0 3 0;
#X connect 46 0 43 5;
#X connect 47 0 43 4;
#X connect 48 0 41 0;
#X connect 49 0 43 2;
#X connect 50 0 43 3;
#X connect 51 0 49 0;
#X connect 51 1 50 0;
#X restore -358 14 pd init;
#X obj -362 -93 namecanvas \$0-radial-data.pd;
#N canvas 148 283 743 584 \$0-radial-template 0;
#X obj -20 19 struct \$0-radial-template float c float w float x float
y float xx float yy;
#X obj -18 86 drawpolygon c w x y xx yy;
#X restore -361 -64 pd \$0-radial-template;
#N canvas 9 107 1294 788 \$0-radial-data 0;
#X scalar 1005-radial-template 696 5 0 0 171.19 -55.6231 \;;
#X coords -0.5 -0.5 0.5 0.5 1 1 2 0 0;
#X restore 60 166 pd \$0-radial-data;
#X coords 0 0 2 2 16 16 2 59 165;
