#N canvas 0 25 1366 694 10;
#X obj 696 106 image /home/ubuntu-studio/MAMIClibrary/images/usbstick.png
0;
#X msg 353 -130 click \$1;
#X msg 350 -162 1;
#X obj 349 -193 loadbang;
#X obj 1104 160 alternate;
#X obj 1061 -102 loadbang;
#X obj 1061 -74 f \$0;
#X msg 980 249 \; \$1 vis 1;
#X obj 980 195 f;
#X obj 1183 194 f;
#X msg 1184 248 \; \$1 vis 0;
#N canvas 493 485 167 113 \$0-statesaving 0;
#X obj 13 12 cnv 15 150 98 empty empty empty 300 12 0 14 -233017 -123526
0;
#X obj 30 34 bng 24 250 50 0 \$0-save empty Save\ As\ ... 0 -6 0 8
-262144 -1 -1;
#X obj 30 73 bng 24 250 50 0 \$0-load empty Open\ Patch 0 -6 0 8 -262144
-1 -1;
#N canvas 0 72 1366 694 engine 0;
#X obj 300 348 textfile;
#X msg 230 249 clear;
#X msg 374 331 print;
#X obj 300 272 list prepend add;
#X obj 300 298 list trim;
#X obj 167 349 s SSSAD_ADMIN;
#X obj 300 204 r SSSAD_ADMIN;
#X obj 300 248 route persist;
#X obj 300 226 list trim;
#X msg 167 283 save;
#X msg 181 322 set;
#X obj 146 168 savepanel;
#X msg 145 396 write \$1;
#X obj 145 192 symbol;
#X msg 88 174 bang;
#X text 86 154 again;
#X obj 205 139 t b b;
#X obj 229 176 s storetables;
#X obj 205 111 r \$0-save;
#X text 978 63 load;
#X obj 712 513 textfile;
#X obj 712 543 s SSSAD;
#X obj 712 455 until;
#X msg 712 434 100;
#X msg 656 496 print;
#X text 707 565 also received inside sssad;
#X obj 780 540 s SSSAD_ADMIN;
#X msg 780 515 set;
#X obj 712 411 t b a;
#X msg 759 456 read \$1 \, rewind;
#X obj 914 45 openpanel;
#X text 744 434 Avoid loops. A bang normally also works.;
#X obj 712 388 symbol;
#X msg 655 371 bang;
#X text 853 86 again;
#X text 666 590 Hint: get creative with the [OSCroute] external!;
#X obj 914 15 r \$0-load;
#X obj 231 446 splitfilename /;
#X msg 178 585 savetofile \$1.pd \$2;
#X obj 95 507 symbol \$1;
#X obj 186 504 symbol \$2;
#X obj 178 560 pack s s;
#X obj 209 409 t b a;
#X obj 189 447 t b b;
#X text 323 469 split message from directory struture and filename
;
#X text 253 408 send list to [splifilename] first them bang [symbol]
stored arguments;
#X obj 828 266 openpatch;
#X obj 856 182 splitfilename /;
#X obj 910 216 symbol;
#X obj 823 218 symbol;
#X obj 715 302 symbol2list .;
#X obj 713 334 unpack s s;
#X obj 179 630 iemguts/sendcanvas 3;
#X obj 462 95 symbol;
#X text 128 109 Save As ...;
#X obj 390 72 s storetables;
#X obj 495 45 symbol2list .;
#X obj 495 71 unpack s s;
#X obj 353 11 r \$0-justsave;
#X text 600 42 Save ...;
#X obj 914 78 s openpdpatch;
#X obj 850 111 r openpdpatch;
#X msg 698 115 bang;
#X symbolatom 444 177 60 0 0 0 - - -, f 60;
#X obj 849 134 t a a b b a;
#X obj 746 156 s filesavename;
#X obj 495 19 r filesavename;
#X obj 390 134 t a a;
#X obj 366 40 t b b;
#X obj 145 213 t a b b b;
#X msg 184 244 rewind;
#X connect 1 0 0 0;
#X connect 2 0 0 0;
#X connect 3 0 4 0;
#X connect 4 0 0 0;
#X connect 6 0 8 0;
#X connect 7 0 3 0;
#X connect 8 0 7 0;
#X connect 9 0 5 0;
#X connect 10 0 5 0;
#X connect 11 0 13 0;
#X connect 11 0 42 0;
#X connect 12 0 0 0;
#X connect 13 0 69 0;
#X connect 14 0 13 0;
#X connect 16 0 11 0;
#X connect 16 1 17 0;
#X connect 18 0 16 0;
#X connect 20 0 21 0;
#X connect 20 1 22 1;
#X connect 20 1 27 0;
#X connect 22 0 20 0;
#X connect 23 0 22 0;
#X connect 24 0 20 0;
#X connect 27 0 26 0;
#X connect 28 0 23 0;
#X connect 28 1 29 0;
#X connect 29 0 20 0;
#X connect 30 0 60 0;
#X connect 32 0 28 0;
#X connect 33 0 32 0;
#X connect 36 0 30 0;
#X connect 37 0 40 1;
#X connect 37 1 39 1;
#X connect 38 0 52 0;
#X connect 39 0 41 0;
#X connect 40 0 41 1;
#X connect 41 0 38 0;
#X connect 42 0 43 0;
#X connect 42 1 37 0;
#X connect 43 0 39 0;
#X connect 43 1 40 0;
#X connect 47 0 49 1;
#X connect 47 1 48 1;
#X connect 48 0 46 0;
#X connect 49 0 46 1;
#X connect 50 0 51 0;
#X connect 51 0 32 0;
#X connect 53 0 63 0;
#X connect 53 0 67 0;
#X connect 56 0 57 0;
#X connect 57 0 53 1;
#X connect 58 0 68 0;
#X connect 61 0 64 0;
#X connect 62 0 53 0;
#X connect 64 0 65 0;
#X connect 64 1 50 0;
#X connect 64 2 48 0;
#X connect 64 3 49 0;
#X connect 64 4 47 0;
#X connect 66 0 56 0;
#X connect 67 0 42 0;
#X connect 67 1 69 0;
#X connect 68 0 53 0;
#X connect 68 1 55 0;
#X connect 69 0 12 0;
#X connect 69 1 9 0;
#X connect 69 2 70 0;
#X connect 69 3 1 0;
#X connect 70 0 0 0;
#X restore 664 149 pd engine;
#X obj 108 34 bng 24 250 50 0 \$0-justsave empty Save\ ... 0 -6 0 8
-262144 -1 -1;
#X restore 712 238 pd \$0-statesaving;
#X obj 981 223 makefilename pd-%d-statesaving;
#X obj 1183 223 makefilename pd-%d-statesaving;
#X msg 552 -155 open /home/ubuntu-studio/MAMIClibrary/images/usbstick.png
;
#X connect 0 0 4 0;
#X connect 1 0 0 0;
#X connect 2 0 1 0;
#X connect 3 0 2 0;
#X connect 3 0 14 0;
#X connect 4 0 8 0;
#X connect 4 1 9 0;
#X connect 5 0 6 0;
#X connect 6 0 8 1;
#X connect 6 0 9 1;
#X connect 8 0 12 0;
#X connect 9 0 13 0;
#X connect 12 0 7 0;
#X connect 13 0 10 0;
#X connect 14 0 0 0;
#X coords 0 -1 1 1 265 114 2 563 60;
