#N canvas 666 194 450 540 10;
#X obj 225 57 inlet angle;
#X obj 332 49 inlet radius;
#X obj 148 402 outlet x;
#X obj 290 393 outlet y;
#X obj 148 215 sin;
#X floatatom 226 117 5 0 0 0 - - -;
#X obj 291 210 cos;
#X obj 145 251 * 3;
#X obj 288 246 * 3;
#X floatatom 332 116 5 1 10 0 - - -;
#X obj 45 50 inlet reset;
#X msg 45 114 0;
#X connect 0 0 5 0;
#X connect 1 0 9 0;
#X connect 4 0 7 0;
#X connect 5 0 4 0;
#X connect 5 0 6 0;
#X connect 6 0 8 0;
#X connect 7 0 2 0;
#X connect 8 0 3 0;
#X connect 9 0 7 1;
#X connect 9 0 8 1;
#X connect 10 0 11 0;
#X connect 11 0 4 0;
#X connect 11 0 6 0;
