#N canvas 0 24 1366 695 10;
#X obj 1789 306 image /home/ubuntu-studio/MAMIClibrary/images/microphone.png
0;
#X msg 1446 70 click \$1;
#X msg 1443 38 1;
#X obj 1442 7 loadbang;
#N canvas 0 24 1366 695 statesave 0;
#X obj 87 1 sssad \$1/seconds;
#X obj 210 -23 r \$0-send_number;
#X obj 88 32 s \$0-send_bang;
#X connect 0 0 2 0;
#X connect 1 0 0 1;
#X restore 1244 482 pd statesave;
#X obj 2197 360 alternate;
#X obj 2154 98 loadbang;
#X obj 2154 126 f \$0;
#X msg 2073 449 \; \$1 vis 1;
#X obj 2073 395 f;
#X obj 2266 395 f;
#X msg 2267 449 \; \$1 vis 0;
#N canvas 446 187 155 195 \$0-record 1;
#X obj 12 -39 cnv 15 143 84 empty empty empty 20 12 0 14 -261234 -66577
0;
#X floatatom 60 -31 5 1 9999 0 - #0-send_bang #0-send_number, f 5
;
#X obj 15 20 bng 15 250 50 0 \$0-rec empty empty 17 7 0 10 -260097
-1 -1;
#X obj 137 21 bng 15 250 50 0 empty \$0-end empty 17 7 0 10 -260097
-1 -1;
#X text 12 -31 Seconds;
#X obj 18 -11 hsl 128 15 0 100 0 0 empty \$0-counter empty -2 -8 0
10 -262144 -1 -1 0 1;
#X text 11 7 Rec;
#X text 134 6 End;
#X obj 77 21 bng 15 250 50 0 \$0-stop empty empty 17 7 0 10 -260097
-1 -1;
#X text 71 6 Stop;
#N canvas 0 25 1366 695 engine 0;
#X obj 481 305 writesf~;
#X msg 501 154 \; pd dsp 1;
#X obj 419 103 inlet~;
#X msg 317 206 start;
#X msg 364 206 stop;
#X msg 163 176 bang;
#X obj 335 63 * 1000;
#X obj 275 145 del;
#X obj 462 129 t b b b;
#X obj 264 182 t b b;
#X msg 169 218 1;
#X msg 196 218 0;
#X obj 196 291 counter 0 100;
#X obj 263 206 t b b b;
#X msg 115 274 jam 0;
#X obj 335 243 / 100;
#X obj 196 260 metro;
#X obj 90 147 r \$0-rec;
#X obj 156 147 r \$0-stop;
#X obj 288 287 s \$0-end;
#X obj 196 323 s \$0-counter;
#X obj 333 28 r \$0-send_number;
#X obj 464 342 s \$0-send_bang;
#X obj 481 198 savepanel;
#X obj 481 220 symbol;
#X msg 482 264 open \$1;
#X obj 462 104 r \$0-save_as;
#X obj 90 173 t b;
#X connect 2 0 0 0;
#X connect 3 0 0 0;
#X connect 4 0 0 0;
#X connect 5 0 3 0;
#X connect 5 0 7 0;
#X connect 5 0 10 0;
#X connect 6 0 7 1;
#X connect 6 0 15 0;
#X connect 7 0 9 0;
#X connect 8 0 22 0;
#X connect 8 1 23 0;
#X connect 8 2 1 0;
#X connect 9 0 13 0;
#X connect 9 1 4 0;
#X connect 10 0 16 0;
#X connect 11 0 16 0;
#X connect 12 0 20 0;
#X connect 13 0 19 0;
#X connect 13 1 14 0;
#X connect 13 2 11 0;
#X connect 14 0 12 0;
#X connect 15 0 16 1;
#X connect 16 0 12 0;
#X connect 17 0 27 0;
#X connect 18 0 9 0;
#X connect 21 0 6 0;
#X connect 23 0 24 0;
#X connect 24 0 25 0;
#X connect 25 0 0 0;
#X connect 26 0 8 0;
#X connect 27 0 5 0;
#X restore 612 -9 pd engine;
#X obj 612 -35 inlet~;
#X connect 11 0 10 0;
#X restore 1636 495 pd \$0-record;
#X obj 2074 423 makefilename pd-%d-record;
#X obj 2266 424 makefilename pd-%d-record;
#X text 1659 259 Audio Input;
#X obj 1636 465 inlet~;
#X obj 1660 357 bng 10 250 50 0 \$0-save_as empty Save\ As... 17 7
0 10 -4160 -1 -1;
#X msg 1644 44 open /home/ubuntu-studio/MAMIClibrary/images/microphone.png
;
#X connect 0 0 5 0;
#X connect 1 0 0 0;
#X connect 2 0 1 0;
#X connect 3 0 2 0;
#X connect 3 0 18 0;
#X connect 5 0 9 0;
#X connect 5 1 10 0;
#X connect 6 0 7 0;
#X connect 7 0 9 1;
#X connect 7 0 10 1;
#X connect 9 0 13 0;
#X connect 10 0 14 0;
#X connect 13 0 8 0;
#X connect 14 0 11 0;
#X connect 16 0 12 0;
#X connect 18 0 0 0;
#X coords 0 -1 1 1 265 114 2 1657 257;
