#N canvas 15 80 1351 688 10;
#X obj 887 414 image /home/ubuntu-studio/MAMIClibrary/images/shapes.png
0;
#X msg 553 171 click \$1;
#X msg 550 139 1;
#X obj 549 108 loadbang;
#X obj 1153 638 alternate;
#X obj 1110 376 loadbang;
#X obj 1110 404 f \$0;
#X msg 1029 727 \; \$1 vis 1;
#X obj 1029 673 f;
#X obj 1205 674 f;
#X msg 1206 728 \; \$1 vis 0;
#X obj 496 437 inlet;
#N canvas 0 145 1366 694 statesave 0;
#X obj 87 1 sssad \$1/square;
#X obj 192 -24 r \$0-square;
#X obj 88 32 s \$0-squarer;
#X text 218 0 square;
#X obj 90 172 sssad \$1/Rectangle;
#X obj 195 147 r \$0-Rectangle;
#X obj 91 203 s \$0-Rectangler;
#X text 221 171 rectangle;
#X obj 190 248 r \$0-triangle;
#X obj 85 273 sssad \$1/triangle;
#X obj 86 304 s \$0-triangler;
#X text 216 272 triangle;
#X obj 488 -21 r \$0-sphere;
#X obj 371 6 sssad \$1/sphere;
#X obj 372 37 s \$0-spherer;
#X text 502 5 sphere;
#X obj 450 149 r \$0-pyramid;
#X obj 346 205 s \$0-pyramidr;
#X text 476 173 pyramid;
#X obj 445 250 r \$0-cube;
#X obj 340 275 sssad \$1/cube;
#X obj 341 306 s \$0-cuber;
#X text 471 274 cube;
#X obj 345 174 sssad \$1/pyramid;
#X connect 0 0 2 0;
#X connect 1 0 0 1;
#X connect 4 0 6 0;
#X connect 5 0 4 1;
#X connect 8 0 9 1;
#X connect 9 0 10 0;
#X connect 12 0 13 1;
#X connect 13 0 14 0;
#X connect 16 0 23 1;
#X connect 19 0 20 1;
#X connect 20 0 21 0;
#X connect 23 0 17 0;
#X restore 465 595 pd statesave;
#X obj 1030 701 makefilename pd-%d-shapes1;
#N canvas 440 471 314 136 \$0-shapes1 0;
#X obj 462 -102 cnv 15 304 126 empty empty empty 140 120 0 14 -233017
-66577 0;
#X text 593 -102 Shapes;
#X floatatom 535 -34 2 0 20 1 Seq #0-Rectangler #0-Rectangle, f 2
;
#X text 471 -60 Square;
#X text 471 -34 Rectangle;
#X floatatom 516 -60 2 0 20 1 Seq #0-squarer #0-square, f 2;
#X floatatom 535 -8 2 0 20 1 Seq #0-triangler #0-triangle, f 2;
#X text 471 -8 Triangle;
#X floatatom 702 -33 2 0 20 1 Seq #0-pyramidr #0-pyramid, f 2;
#X floatatom 683 -59 2 0 20 1 Seq #0-spherer #0-sphere, f 2;
#X floatatom 702 -7 2 0 20 1 Seq #0-cuber #0-cube, f 2;
#X text 638 -59 Sphere;
#X text 638 -33 Pyramid;
#X text 638 -7 Cube;
#N canvas 0 25 1366 694 engine 0;
#X msg 840 1053 create;
#X msg 988 1046 destroy;
#X obj 989 1616 square;
#X obj 861 1122 gemwin;
#X msg 909 1132 draw line;
#X msg 910 1153 draw fill;
#X msg 910 1175 draw point;
#X obj 834 885 bng 15 250 50 0 empty empty empty 17 7 0 10 -262144
-1 -1;
#X obj 839 932 t b b b;
#X msg 811 1054 1;
#X floatatom 1146 1238 5 0 0 0 - - -, f 5;
#X obj 989 1148 color 0 1 0;
#X msg 1086 1115 0 1 1;
#X obj 1200 794 loadbang;
#X msg 1161 1180 1;
#X msg 1127 1116 0 1 0;
#X msg 1177 1114 1 1 1;
#X obj 989 1095 gemhead;
#X obj 1111 1060 sel 1 2 3;
#X msg 1110 1014 1;
#X obj 1141 1014 r \$0-colour;
#X obj 1172 1152 r \$0-size;
#X obj 1137 914 t b b;
#X obj 989 1205 translateXYZ;
#X obj 1018 1170 r \$0-x;
#X obj 1055 1173 r \$0-y;
#X obj 1100 1173 r \$0-z;
#X obj 806 1122 sel 0 1;
#X obj 678 1065 r \$0-flipline;
#X obj 924 1616 triangle;
#X obj 683 1617 rectangle 1.5 0.5;
#X floatatom 360 595 5 1 6 0 - - -, f 5;
#X msg 889 1038 dimen 200 200;
#X obj 1053 1617 sphere 1;
#X obj 1127 1618 cone 1;
#X obj 866 545 sel 4 5 6;
#X obj 987 1328 rotateXYZ;
#X floatatom 1012 1269 5 -200 10 0 - - -, f 5;
#X floatatom 1050 1267 5 0 1 0 - - -, f 5;
#X floatatom 1091 1267 5 0 1000 0 - - -, f 5;
#X msg 1158 1568 4;
#X obj 854 1614 cube 0.6;
#X obj 363 124 r \$0-square;
#X obj 561 239 r \$0-Rectangle;
#X obj 505 193 r \$0-triangle;
#X obj 831 293 r \$0-sphere;
#X obj 699 280 r \$0-pyramid;
#X obj 947 354 r \$0-cube;
#X obj 347 154 sel;
#X obj 548 272 sel;
#X obj 490 233 sel;
#X obj 685 313 sel;
#X obj 815 334 sel;
#X obj 931 387 sel;
#X msg 347 183 3;
#X msg 548 302 1;
#X msg 490 263 2;
#X msg 931 414 4;
#X msg 810 366 5;
#X msg 686 337 6;
#X obj 316 671 t f f f;
#X obj 500 681 sel 1 2 3 4 5 6, f 27;
#X msg 496 717 0;
#X msg 597 715 -65;
#X msg 623 715 0;
#X msg 649 715 7;
#X obj 346 104 inlet;
#X obj 807 1441 gate 7, f 29;
#X obj 347 212 t b f;
#X msg 220 466 7;
#X obj 490 297 t b f;
#X obj 548 329 t b f;
#X obj 686 362 t b f;
#X obj 810 393 t b f;
#X obj 932 441 t b f;
#X obj 223 437 del 200;
#X connect 0 0 3 0;
#X connect 1 0 3 0;
#X connect 4 0 2 0;
#X connect 4 0 29 0;
#X connect 4 0 30 0;
#X connect 4 0 33 0;
#X connect 4 0 34 0;
#X connect 4 0 41 0;
#X connect 5 0 2 0;
#X connect 5 0 29 0;
#X connect 5 0 30 0;
#X connect 5 0 33 0;
#X connect 5 0 34 0;
#X connect 5 0 41 0;
#X connect 6 0 2 0;
#X connect 6 0 29 0;
#X connect 6 0 30 0;
#X connect 6 0 33 0;
#X connect 6 0 34 0;
#X connect 6 0 41 0;
#X connect 7 0 8 0;
#X connect 8 0 9 0;
#X connect 8 1 0 0;
#X connect 8 2 32 0;
#X connect 9 0 3 0;
#X connect 10 0 2 1;
#X connect 11 0 23 0;
#X connect 12 0 11 1;
#X connect 13 0 22 0;
#X connect 13 0 40 0;
#X connect 14 0 2 1;
#X connect 14 0 29 1;
#X connect 15 0 11 1;
#X connect 16 0 11 1;
#X connect 17 0 11 0;
#X connect 18 0 12 0;
#X connect 18 1 15 0;
#X connect 18 2 16 0;
#X connect 19 0 18 0;
#X connect 20 0 18 0;
#X connect 21 0 2 1;
#X connect 21 0 29 1;
#X connect 22 0 8 0;
#X connect 22 1 14 0;
#X connect 22 1 19 0;
#X connect 23 0 36 0;
#X connect 24 0 23 1;
#X connect 25 0 23 2;
#X connect 26 0 23 3;
#X connect 27 0 5 0;
#X connect 27 1 4 0;
#X connect 28 0 27 0;
#X connect 31 0 60 0;
#X connect 32 0 3 0;
#X connect 35 0 4 0;
#X connect 35 1 4 0;
#X connect 35 2 4 0;
#X connect 35 3 5 0;
#X connect 36 0 67 1;
#X connect 37 0 36 1;
#X connect 38 0 36 2;
#X connect 39 0 36 3;
#X connect 40 0 34 2;
#X connect 42 0 48 1;
#X connect 43 0 49 1;
#X connect 44 0 50 1;
#X connect 45 0 52 1;
#X connect 46 0 51 1;
#X connect 47 0 53 1;
#X connect 48 0 54 0;
#X connect 48 1 50 0;
#X connect 49 0 55 0;
#X connect 49 1 51 0;
#X connect 50 0 56 0;
#X connect 50 1 49 0;
#X connect 51 0 59 0;
#X connect 51 1 52 0;
#X connect 52 0 58 0;
#X connect 52 1 53 0;
#X connect 53 0 57 0;
#X connect 54 0 68 0;
#X connect 55 0 71 0;
#X connect 56 0 70 0;
#X connect 57 0 74 0;
#X connect 58 0 73 0;
#X connect 59 0 72 0;
#X connect 60 0 67 0;
#X connect 60 1 35 0;
#X connect 60 2 61 0;
#X connect 61 0 62 0;
#X connect 61 1 62 0;
#X connect 61 2 62 0;
#X connect 61 3 63 0;
#X connect 61 3 64 0;
#X connect 61 5 63 0;
#X connect 61 5 64 0;
#X connect 61 5 65 0;
#X connect 62 0 36 1;
#X connect 62 0 36 2;
#X connect 62 0 36 3;
#X connect 63 0 36 1;
#X connect 64 0 36 2;
#X connect 65 0 36 3;
#X connect 66 0 48 0;
#X connect 67 0 30 0;
#X connect 67 1 29 0;
#X connect 67 2 2 0;
#X connect 67 3 41 0;
#X connect 67 4 33 0;
#X connect 67 5 34 0;
#X connect 68 0 75 0;
#X connect 68 1 31 0;
#X connect 69 0 31 0;
#X connect 70 0 75 0;
#X connect 70 1 31 0;
#X connect 71 0 75 0;
#X connect 71 1 31 0;
#X connect 72 0 75 0;
#X connect 72 1 31 0;
#X connect 73 0 75 0;
#X connect 73 1 31 0;
#X connect 74 0 75 0;
#X connect 74 1 31 0;
#X connect 75 0 69 0;
#X restore 1695 -61 pd engine;
#X obj 1695 -84 inlet;
#X connect 15 0 14 0;
#X restore 497 476 pd \$0-shapes1;
#X obj 1206 702 makefilename pd-%d-shapes1;
#X text 768 359 Seq Input;
#X msg 751 145 open /home/ubuntu-studio/MAMIClibrary/images/shapes.png
;
#X connect 0 0 4 0;
#X connect 1 0 0 0;
#X connect 2 0 1 0;
#X connect 3 0 2 0;
#X connect 3 0 17 0;
#X connect 4 0 8 0;
#X connect 4 1 9 0;
#X connect 5 0 6 0;
#X connect 6 0 8 1;
#X connect 6 0 9 1;
#X connect 8 0 13 0;
#X connect 9 0 15 0;
#X connect 11 0 14 0;
#X connect 13 0 7 0;
#X connect 15 0 10 0;
#X connect 17 0 0 0;
#X coords 0 -1 1 1 256 114 2 768 358;
