#N canvas 0 74 1366 694 10;
#X obj 1779 313 image /home/ubuntu-studio/MAMIClibrary/images/pitch.png
0;
#X msg 1446 70 click \$1;
#X msg 1443 38 1;
#X obj 1442 7 loadbang;
#X obj 1568 77 inlet;
#N canvas 1 76 1351 688 coll 0;
#X obj 262 -4 openpanel;
#X obj 262 -27 bng 15 250 50 0 empty empty empty 17 7 0 10 -262144
-1 -1;
#X msg 262 24 read \$1;
#X obj 262 -54 r \$0-codeimport;
#X msg 165 -28 open;
#X obj 164 -54 r \$0-codeopen;
#X msg 86 -29 clear;
#X obj 86 -54 r \$0-clear;
#X obj -12 -19 s \$0-channel1;
#X obj -11 2 s \$0-channel2;
#X obj -11 24 s \$0-channel3;
#X msg -11 -37 0;
#X obj 263 78 zl group 2;
#X obj 384 -54 inlet;
#X msg 122 69 1;
#X obj 263 49 coll \$0-xboxpad;
#C restore;
#X obj 263 107 route y b a x lb rb back start up down left right;
#X obj 263 134 s \$0-codey;
#X obj 295 161 s \$0-codeb;
#X obj 329 185 s \$0-codea;
#X obj 362 219 s \$0-codex;
#X obj 396 250 s \$0-codelb;
#X obj 429 286 s \$0-coderb;
#X obj 462 330 s \$0-codeback;
#X obj 493 365 s \$0-codestart;
#X obj 529 404 s \$0-codeup;
#X obj 562 435 s \$0-codedown;
#X obj 595 469 s \$0-codeleft;
#X obj 627 515 s \$0-coderight;
#X connect 0 0 2 0;
#X connect 1 0 0 0;
#X connect 2 0 15 0;
#X connect 3 0 1 0;
#X connect 4 0 15 0;
#X connect 5 0 4 0;
#X connect 6 0 15 0;
#X connect 7 0 6 0;
#X connect 7 0 11 0;
#X connect 11 0 8 0;
#X connect 11 0 9 0;
#X connect 11 0 10 0;
#X connect 12 0 16 0;
#X connect 13 0 15 0;
#X connect 14 0 15 0;
#X connect 15 0 12 0;
#X connect 16 0 17 0;
#X connect 16 1 18 0;
#X connect 16 2 19 0;
#X connect 16 3 20 0;
#X connect 16 4 21 0;
#X connect 16 5 22 0;
#X connect 16 6 23 0;
#X connect 16 7 24 0;
#X connect 16 8 25 0;
#X connect 16 9 26 0;
#X connect 16 10 27 0;
#X connect 16 11 28 0;
#X restore 1568 101 pd coll xboxpad info;
#X obj 2046 537 alternate;
#X obj 2003 275 loadbang;
#X obj 2003 303 f \$0;
#X msg 1922 626 \; \$1 vis 1;
#X obj 1922 572 f;
#X obj 2098 573 f;
#X msg 2099 627 \; \$1 vis 0;
#X text 1660 348 MIDI Output;
#X text 1661 258 Seq Input;
#X obj 1388 308 inlet;
#X obj 1387 368 outlet;
#N canvas 0 74 1366 694 statesave 0;
#X text 218 0 Seq Number;
#X obj 87 1 sssad \$1/seqnumber;
#X obj 88 32 s \$0-seqnumberr;
#X obj 192 -24 r \$0-seqnumber;
#X text 502 5 answer;
#X obj 371 6 sssad \$1/answer;
#X obj 488 -21 r \$0-sendanswer;
#X obj 372 37 s \$0-receiveanswer;
#X connect 1 0 2 0;
#X connect 3 0 1 1;
#X connect 5 0 7 0;
#X connect 6 0 5 1;
#X restore 1358 494 pd statesave;
#X msg 1644 44 open /home/ubuntu-studio/MAMIClibrary/images/pitch.png
;
#N canvas 122 97 229 133 \$0-pitch1 0;
#X obj -9 -308 cnv 15 220 122 empty empty empty 20 12 0 14 -133184
-66577 0;
#X obj -6 -234 bng 20 50 50 0 \$0-add empty + 3 9 0 25 -257985 -1 -1
;
#X floatatom -5 -208 5 0 0 1 Answer #0-receiveanswer #0-sendanswer
, f 5;
#X obj 14 -234 bng 20 50 50 0 \$0-minus empty - 4 9 0 25 -257985 -1
-1;
#X obj 129 -204 bng 10 250 50 0 \$0-clear empty empty 17 7 0 10 -258113
-1 -1;
#X text 139 -208 Clear;
#X symbolatom 70 -209 8 0 0 0 - #0-incomingpitchletter bar, f 8;
#X floatatom -6 -301 3 0 16 1 Seq #0-seqnumberr #0-seqnumber, f 3
;
#X text 70 -226 Pitch;
#N canvas 0 74 1366 694 pitch 0;
#X floatatom 433 774 5 0 0 0 - - -, f 5;
#X obj 373 165 loadbang;
#N canvas 2 55 1364 686 Incomingpitchnotenaming 0;
#X obj 71 2 inlet;
#X floatatom 320 18 5 0 0 0 - - -, f 5;
#X text 116 3 MIDI Root Note Number;
#X msg 264 183 C2;
#X msg 20 123 bang;
#X msg 95 128 set C1;
#X msg 151 128 set C2;
#X msg 208 128 set C3;
#X obj 118 77 route 24 36 48 60 72 84 96 108;
#X msg 264 128 set C4;
#X msg 320 128 set C5;
#X msg 377 128 set C6;
#X msg 435 129 set C7;
#X msg 492 129 set C8;
#X text 334 71 All the Cs;
#X msg 821 183 C#/Db2;
#X msg 577 123 bang;
#X text 891 70 All the C#s;
#X obj 675 77 route 25 37 49 61 73 85 97 109;
#X msg 254 417 D2;
#X msg 10 357 bang;
#X obj 108 311 route 26 38 50 62 74 86 98 110;
#X text 324 304 All the Ds;
#X msg 85 362 set D1;
#X msg 141 362 set D2;
#X msg 198 362 set D3;
#X msg 254 362 set D4;
#X msg 310 362 set D5;
#X msg 367 362 set D6;
#X msg 425 363 set D7;
#X msg 482 363 set D8;
#X msg 828 422 D#/Eb1;
#X msg 584 362 bang;
#X text 898 309 All the D#s;
#X obj 682 316 route 27 39 51 63 75 87 99 111;
#X msg 257 619 E1;
#X msg 13 559 bang;
#X msg 831 624 F1;
#X msg 587 564 bang;
#X text 901 511 All the Fs;
#X obj 111 513 route 28 40 52 64 76 88 100 112;
#X obj 685 518 route 29 41 53 65 77 89 101 113;
#X msg 88 564 set E1;
#X msg 144 564 set E2;
#X msg 201 564 set E3;
#X msg 257 564 set E4;
#X msg 313 564 set E5;
#X msg 370 564 set E6;
#X msg 428 565 set E7;
#X msg 485 565 set E8;
#X msg 662 569 set F1;
#X msg 718 569 set F2;
#X msg 775 569 set F3;
#X msg 831 569 set F4;
#X msg 887 569 set F5;
#X msg 944 569 set F6;
#X msg 1002 570 set F7;
#X msg 1059 570 set F8;
#X msg 251 824 F#/Gb1;
#X msg 7 764 bang;
#X obj 105 718 route 30 42 54 66 78 90 102 114;
#X text 321 711 All the F#s;
#X msg 826 830 G1;
#X msg 582 770 bang;
#X obj 680 724 route 31 43 55 67 79 91 103 115;
#X text 896 717 All the Gs;
#X msg 657 775 set G1;
#X msg 713 775 set G2;
#X msg 770 775 set G3;
#X msg 826 775 set G4;
#X msg 882 775 set G5;
#X msg 939 775 set G6;
#X msg 997 776 set G7;
#X msg 1054 776 set G8;
#X msg 257 1037 G#/Ab1;
#X msg 13 977 bang;
#X obj 111 931 route 32 44 56 68 80 92 104 116;
#X text 327 924 All the G#s;
#X msg 833 1044 A1;
#X msg 589 984 bang;
#X obj 687 938 route 33 45 57 69 81 93 105 117;
#X text 903 931 All the As;
#X msg 1061 990 set A8;
#X msg 1004 990 set A7;
#X msg 946 989 set A6;
#X msg 889 989 set A5;
#X msg 833 989 set A4;
#X msg 777 989 set A3;
#X msg 720 989 set A2;
#X msg 664 989 set A1;
#X msg 251 1242 A#/Bb1;
#X msg 7 1182 bang;
#X text 321 1129 All the A#s;
#X obj 105 1136 route 34 46 58 70 82 94 106 118;
#X msg 827 1248 B1;
#X msg 583 1188 bang;
#X obj 681 1142 route 35 47 59 71 83 95 107 119;
#X text 897 1135 All the Bs;
#X msg 1055 1194 set B8;
#X msg 998 1194 set B7;
#X msg 940 1193 set B6;
#X msg 883 1193 set B5;
#X msg 827 1193 set B4;
#X msg 771 1193 set B3;
#X msg 714 1193 set B2;
#X msg 658 1193 set B1;
#X msg 652 128 set C#/Db1;
#X msg 708 128 set C#/Db2;
#X msg 765 128 set C#/Db3;
#X msg 821 128 set C#/Db4;
#X msg 877 128 set C#/Db5;
#X msg 934 128 set C#/Db6;
#X msg 992 129 set C#/Db7;
#X msg 1049 129 set C#/Db8;
#X msg 659 367 set D#/Eb1;
#X msg 715 367 set D#/Eb2;
#X msg 772 367 set D#/Eb3;
#X msg 828 367 set D#/Eb4;
#X msg 884 367 set D#/Eb5;
#X msg 941 367 set D#/Eb6;
#X msg 999 368 set D#/Eb7;
#X msg 1056 368 set D#/Eb8;
#X msg 82 769 set F#/Gb1;
#X msg 138 769 set F#/Gb2;
#X msg 195 769 set F#/Gb3;
#X msg 251 769 set F#/Gb4;
#X msg 307 769 set F#/Gb5;
#X msg 364 769 set F#/Gb6;
#X msg 422 770 set F#/Gb7;
#X msg 479 770 set F#/Gb8;
#X msg 88 982 set G#/Ab1;
#X msg 144 982 set G#/Ab2;
#X msg 201 982 set G#/Ab3;
#X msg 257 982 set G#/Ab4;
#X msg 313 982 set G#/Ab5;
#X msg 370 982 set G#/Ab6;
#X msg 428 983 set G#/Ab7;
#X msg 485 983 set G#/Ab8;
#X msg 82 1187 set A#/Bb1;
#X msg 138 1187 set A#/Bb2;
#X msg 195 1187 set A#/Bb3;
#X msg 251 1187 set A#/Bb4;
#X msg 307 1187 set A#/Bb5;
#X msg 364 1187 set A#/Bb6;
#X msg 422 1188 set A#/Bb7;
#X msg 479 1188 set A#/Bb8;
#X text 329 511 All the Es;
#X obj 534 1259 symbol;
#X obj 534 1284 s \$0-incomingpitchletter;
#X obj 1088 44 < 24;
#X floatatom 1087 76 5 0 0 0 - - -, f 5;
#X obj 1141 43 > 119;
#X obj 1182 159 sel 1;
#X msg 1186 644 No_Pitch;
#X connect 0 0 1 0;
#X connect 1 0 8 0;
#X connect 1 0 18 0;
#X connect 1 0 21 0;
#X connect 1 0 34 0;
#X connect 1 0 40 0;
#X connect 1 0 41 0;
#X connect 1 0 60 0;
#X connect 1 0 64 0;
#X connect 1 0 76 0;
#X connect 1 0 80 0;
#X connect 1 0 93 0;
#X connect 1 0 96 0;
#X connect 1 0 149 0;
#X connect 1 0 151 0;
#X connect 3 0 147 0;
#X connect 4 0 3 0;
#X connect 5 0 3 0;
#X connect 6 0 3 0;
#X connect 7 0 3 0;
#X connect 8 0 5 0;
#X connect 8 0 4 0;
#X connect 8 1 6 0;
#X connect 8 1 4 0;
#X connect 8 2 7 0;
#X connect 8 2 4 0;
#X connect 8 3 9 0;
#X connect 8 3 4 0;
#X connect 8 4 10 0;
#X connect 8 4 4 0;
#X connect 8 5 11 0;
#X connect 8 5 4 0;
#X connect 8 6 12 0;
#X connect 8 6 4 0;
#X connect 8 7 13 0;
#X connect 8 7 4 0;
#X connect 9 0 3 0;
#X connect 10 0 3 0;
#X connect 11 0 3 0;
#X connect 12 0 3 0;
#X connect 13 0 3 0;
#X connect 15 0 147 0;
#X connect 16 0 15 0;
#X connect 18 0 106 0;
#X connect 18 0 16 0;
#X connect 18 1 107 0;
#X connect 18 1 16 0;
#X connect 18 2 108 0;
#X connect 18 2 16 0;
#X connect 18 3 109 0;
#X connect 18 3 16 0;
#X connect 18 4 110 0;
#X connect 18 4 16 0;
#X connect 18 5 111 0;
#X connect 18 5 16 0;
#X connect 18 6 112 0;
#X connect 18 6 16 0;
#X connect 18 7 113 0;
#X connect 18 7 16 0;
#X connect 19 0 147 0;
#X connect 20 0 19 0;
#X connect 21 0 23 0;
#X connect 21 0 20 0;
#X connect 21 1 24 0;
#X connect 21 1 20 0;
#X connect 21 2 25 0;
#X connect 21 2 20 0;
#X connect 21 3 26 0;
#X connect 21 3 20 0;
#X connect 21 4 27 0;
#X connect 21 4 20 0;
#X connect 21 5 28 0;
#X connect 21 5 20 0;
#X connect 21 6 29 0;
#X connect 21 6 20 0;
#X connect 21 7 30 0;
#X connect 21 7 20 0;
#X connect 23 0 19 0;
#X connect 24 0 19 0;
#X connect 25 0 19 0;
#X connect 26 0 19 0;
#X connect 27 0 19 0;
#X connect 28 0 19 0;
#X connect 29 0 19 0;
#X connect 30 0 19 0;
#X connect 31 0 147 0;
#X connect 32 0 31 0;
#X connect 34 0 114 0;
#X connect 34 0 32 0;
#X connect 34 1 115 0;
#X connect 34 1 32 0;
#X connect 34 2 116 0;
#X connect 34 2 32 0;
#X connect 34 3 117 0;
#X connect 34 3 32 0;
#X connect 34 4 118 0;
#X connect 34 4 32 0;
#X connect 34 5 119 0;
#X connect 34 5 32 0;
#X connect 34 6 120 0;
#X connect 34 6 32 0;
#X connect 34 7 121 0;
#X connect 34 7 32 0;
#X connect 35 0 147 0;
#X connect 36 0 35 0;
#X connect 37 0 147 0;
#X connect 38 0 37 0;
#X connect 40 0 42 0;
#X connect 40 0 36 0;
#X connect 40 1 43 0;
#X connect 40 1 36 0;
#X connect 40 2 44 0;
#X connect 40 2 36 0;
#X connect 40 3 45 0;
#X connect 40 3 36 0;
#X connect 40 4 46 0;
#X connect 40 4 36 0;
#X connect 40 5 47 0;
#X connect 40 5 36 0;
#X connect 40 6 48 0;
#X connect 40 6 36 0;
#X connect 40 7 49 0;
#X connect 40 7 36 0;
#X connect 41 0 50 0;
#X connect 41 0 38 0;
#X connect 41 1 51 0;
#X connect 41 1 38 0;
#X connect 41 2 52 0;
#X connect 41 2 38 0;
#X connect 41 3 53 0;
#X connect 41 3 38 0;
#X connect 41 4 54 0;
#X connect 41 4 38 0;
#X connect 41 5 55 0;
#X connect 41 5 38 0;
#X connect 41 6 56 0;
#X connect 41 6 38 0;
#X connect 41 7 57 0;
#X connect 41 7 38 0;
#X connect 42 0 35 0;
#X connect 43 0 35 0;
#X connect 44 0 35 0;
#X connect 45 0 35 0;
#X connect 46 0 35 0;
#X connect 47 0 35 0;
#X connect 48 0 35 0;
#X connect 49 0 35 0;
#X connect 50 0 37 0;
#X connect 51 0 37 0;
#X connect 52 0 37 0;
#X connect 53 0 37 0;
#X connect 54 0 37 0;
#X connect 55 0 37 0;
#X connect 56 0 37 0;
#X connect 57 0 37 0;
#X connect 58 0 147 0;
#X connect 59 0 58 0;
#X connect 60 0 122 0;
#X connect 60 0 59 0;
#X connect 60 1 123 0;
#X connect 60 1 59 0;
#X connect 60 2 124 0;
#X connect 60 2 59 0;
#X connect 60 3 125 0;
#X connect 60 3 59 0;
#X connect 60 4 126 0;
#X connect 60 4 59 0;
#X connect 60 5 127 0;
#X connect 60 5 59 0;
#X connect 60 6 128 0;
#X connect 60 6 59 0;
#X connect 60 7 129 0;
#X connect 60 7 59 0;
#X connect 62 0 147 0;
#X connect 63 0 62 0;
#X connect 64 0 66 0;
#X connect 64 0 63 0;
#X connect 64 1 67 0;
#X connect 64 1 63 0;
#X connect 64 2 68 0;
#X connect 64 2 63 0;
#X connect 64 3 69 0;
#X connect 64 3 63 0;
#X connect 64 4 70 0;
#X connect 64 4 63 0;
#X connect 64 5 71 0;
#X connect 64 5 63 0;
#X connect 64 6 72 0;
#X connect 64 6 63 0;
#X connect 64 7 73 0;
#X connect 64 7 63 0;
#X connect 66 0 62 0;
#X connect 67 0 62 0;
#X connect 68 0 62 0;
#X connect 69 0 62 0;
#X connect 70 0 62 0;
#X connect 71 0 62 0;
#X connect 72 0 62 0;
#X connect 73 0 62 0;
#X connect 74 0 147 0;
#X connect 75 0 74 0;
#X connect 76 0 130 0;
#X connect 76 0 75 0;
#X connect 76 1 131 0;
#X connect 76 1 75 0;
#X connect 76 2 132 0;
#X connect 76 2 75 0;
#X connect 76 3 133 0;
#X connect 76 3 75 0;
#X connect 76 4 134 0;
#X connect 76 4 75 0;
#X connect 76 5 135 0;
#X connect 76 5 75 0;
#X connect 76 6 136 0;
#X connect 76 6 75 0;
#X connect 76 7 137 0;
#X connect 76 7 75 0;
#X connect 78 0 147 0;
#X connect 79 0 78 0;
#X connect 80 0 89 0;
#X connect 80 0 79 0;
#X connect 80 1 88 0;
#X connect 80 1 79 0;
#X connect 80 2 87 0;
#X connect 80 2 79 0;
#X connect 80 3 86 0;
#X connect 80 3 79 0;
#X connect 80 4 85 0;
#X connect 80 4 79 0;
#X connect 80 5 84 0;
#X connect 80 5 79 0;
#X connect 80 6 83 0;
#X connect 80 6 79 0;
#X connect 80 7 82 0;
#X connect 80 7 79 0;
#X connect 82 0 78 0;
#X connect 83 0 78 0;
#X connect 84 0 78 0;
#X connect 85 0 78 0;
#X connect 86 0 78 0;
#X connect 87 0 78 0;
#X connect 88 0 78 0;
#X connect 89 0 78 0;
#X connect 90 0 147 0;
#X connect 91 0 90 0;
#X connect 93 0 138 0;
#X connect 93 0 91 0;
#X connect 93 1 139 0;
#X connect 93 1 91 0;
#X connect 93 2 140 0;
#X connect 93 2 91 0;
#X connect 93 3 141 0;
#X connect 93 3 91 0;
#X connect 93 4 142 0;
#X connect 93 4 91 0;
#X connect 93 5 143 0;
#X connect 93 5 91 0;
#X connect 93 6 144 0;
#X connect 93 6 91 0;
#X connect 93 7 145 0;
#X connect 93 7 91 0;
#X connect 94 0 147 0;
#X connect 95 0 94 0;
#X connect 96 0 105 0;
#X connect 96 0 95 0;
#X connect 96 1 104 0;
#X connect 96 1 95 0;
#X connect 96 2 103 0;
#X connect 96 2 95 0;
#X connect 96 3 102 0;
#X connect 96 3 95 0;
#X connect 96 4 101 0;
#X connect 96 4 95 0;
#X connect 96 5 100 0;
#X connect 96 5 95 0;
#X connect 96 6 99 0;
#X connect 96 6 95 0;
#X connect 96 7 98 0;
#X connect 96 7 95 0;
#X connect 98 0 94 0;
#X connect 99 0 94 0;
#X connect 100 0 94 0;
#X connect 101 0 94 0;
#X connect 102 0 94 0;
#X connect 103 0 94 0;
#X connect 104 0 94 0;
#X connect 105 0 94 0;
#X connect 106 0 15 0;
#X connect 107 0 15 0;
#X connect 108 0 15 0;
#X connect 109 0 15 0;
#X connect 110 0 15 0;
#X connect 111 0 15 0;
#X connect 112 0 15 0;
#X connect 113 0 15 0;
#X connect 114 0 31 0;
#X connect 115 0 31 0;
#X connect 116 0 31 0;
#X connect 117 0 31 0;
#X connect 118 0 31 0;
#X connect 119 0 31 0;
#X connect 120 0 31 0;
#X connect 121 0 31 0;
#X connect 122 0 58 0;
#X connect 123 0 58 0;
#X connect 124 0 58 0;
#X connect 125 0 58 0;
#X connect 126 0 58 0;
#X connect 127 0 58 0;
#X connect 128 0 58 0;
#X connect 129 0 58 0;
#X connect 130 0 74 0;
#X connect 131 0 74 0;
#X connect 132 0 74 0;
#X connect 133 0 74 0;
#X connect 134 0 74 0;
#X connect 135 0 74 0;
#X connect 136 0 74 0;
#X connect 137 0 74 0;
#X connect 138 0 90 0;
#X connect 139 0 90 0;
#X connect 140 0 90 0;
#X connect 141 0 90 0;
#X connect 142 0 90 0;
#X connect 143 0 90 0;
#X connect 144 0 90 0;
#X connect 145 0 90 0;
#X connect 147 0 148 0;
#X connect 149 0 150 0;
#X connect 150 0 152 0;
#X connect 151 0 150 0;
#X connect 152 0 153 0;
#X connect 153 0 147 0;
#X restore 633 781 pd Incomingpitchnotenaming;
#X obj 318 736 inlet;
#X obj 318 807 sel;
#X obj 306 165 r \$0-clear;
#X obj 420 855 outlet;
#X msg 330 236 0;
#X obj 633 809 s \$0-receiveanswer;
#X obj 336 777 r \$0-seqnumber;
#X obj 443 520 counter 0 100;
#X obj 545 271 r \$0-add;
#X obj 600 271 r \$0-minus;
#X obj 443 203 r \$0-startnumber;
#X msg 443 273 jam \$1;
#X msg 511 353 1;
#X msg 477 355 0;
#X obj 472 316 t b b;
#X obj 540 311 t b b;
#X obj 316 279 f;
#X obj 305 199 t b b;
#X obj 315 321 s \$0-startnumberr;
#X floatatom 443 589 5 0 0 0 - - -, f 5;
#X floatatom 480 589 5 0 0 0 - - -, f 5;
#X obj 433 740 switch 4;
#X floatatom 519 588 5 0 0 0 - - -, f 5;
#X floatatom 556 589 5 0 0 0 - - -, f 5;
#X obj 443 560 * 1;
#X obj 480 560 * 2;
#X obj 519 560 * 5;
#X obj 556 560 * 10;
#X msg 251 620 1;
#X msg 277 620 2;
#X msg 303 620 3;
#X msg 330 620 4;
#X obj 87 380 r \$0-1s;
#X obj 147 382 r \$0-2s;
#X obj 419 825 f, f 1;
#X obj 210 382 r \$0-5s;
#X obj 270 382 r \$0-10s;
#X msg 458 237 1;
#X obj 88 431 t b b b;
#X obj 147 432 t b b b;
#X obj 207 435 t b b b;
#X obj 267 438 t b b b;
#X obj 442 655 f;
#X obj 442 626 t b f;
#X obj 479 655 f;
#X obj 479 626 t b f;
#X obj 516 654 f;
#X obj 516 625 t b f;
#X obj 553 654 f;
#X obj 553 625 t b f;
#X connect 0 0 2 0;
#X connect 0 0 8 0;
#X connect 0 0 37 1;
#X connect 0 0 6 0;
#X connect 1 0 20 0;
#X connect 1 0 31 0;
#X connect 3 0 4 0;
#X connect 4 0 37 0;
#X connect 5 0 20 0;
#X connect 7 0 19 1;
#X connect 9 0 4 1;
#X connect 10 0 27 0;
#X connect 10 0 28 0;
#X connect 10 0 29 0;
#X connect 10 0 30 0;
#X connect 11 0 17 0;
#X connect 12 0 18 0;
#X connect 13 0 14 0;
#X connect 14 0 10 0;
#X connect 15 0 10 1;
#X connect 16 0 10 1;
#X connect 17 0 10 0;
#X connect 17 1 16 0;
#X connect 18 0 10 0;
#X connect 18 1 15 0;
#X connect 19 0 21 0;
#X connect 20 0 19 0;
#X connect 20 0 31 0;
#X connect 20 1 7 0;
#X connect 22 0 46 0;
#X connect 23 0 48 0;
#X connect 24 0 0 0;
#X connect 25 0 50 0;
#X connect 26 0 52 0;
#X connect 27 0 22 0;
#X connect 28 0 23 0;
#X connect 29 0 25 0;
#X connect 30 0 26 0;
#X connect 31 0 24 0;
#X connect 32 0 24 0;
#X connect 33 0 24 0;
#X connect 34 0 24 0;
#X connect 35 0 41 0;
#X connect 36 0 42 0;
#X connect 37 0 6 0;
#X connect 38 0 43 0;
#X connect 39 0 44 0;
#X connect 40 0 14 0;
#X connect 41 0 45 0;
#X connect 41 1 31 0;
#X connect 41 2 40 0;
#X connect 42 0 47 0;
#X connect 42 1 32 0;
#X connect 42 2 40 0;
#X connect 43 0 49 0;
#X connect 43 1 33 0;
#X connect 43 2 40 0;
#X connect 44 0 51 0;
#X connect 44 1 34 0;
#X connect 44 2 40 0;
#X connect 45 0 24 1;
#X connect 46 0 45 0;
#X connect 46 1 45 1;
#X connect 47 0 24 2;
#X connect 48 0 47 0;
#X connect 48 1 47 1;
#X connect 49 0 24 3;
#X connect 50 0 49 0;
#X connect 50 1 49 1;
#X connect 51 0 24 4;
#X connect 52 0 51 0;
#X connect 52 1 51 1;
#X restore 1204 -276 pd pitch engine;
#X obj 1204 -251 outlet;
#X obj 1204 -299 inlet;
#X text 127 -305 Pitch Year 1;
#X obj 133 -271 bng 25 50 50 0 \$0-2s \$0-2sr 2s 7 9 0 10 -257985 -1
-1;
#X obj 159 -271 bng 25 50 50 0 \$0-5s \$0-5sr 5s 7 9 0 10 -257985 -1
-1;
#X obj 184 -271 bng 25 50 50 0 \$0-10s \$0-10sr 10s 4 9 0 10 -257985
-1 -1;
#X obj 107 -271 bng 25 50 50 0 \$0-1s \$0-1sr 1s 7 9 0 10 -257985 -1
-1;
#X connect 9 0 10 0;
#X connect 11 0 9 0;
#X restore 1388 338 pd \$0-pitch1;
#X obj 1923 600 makefilename pd-%d-pitch1;
#X obj 2099 601 makefilename pd-%d-pitch1;
#X connect 0 0 6 0;
#X connect 1 0 0 0;
#X connect 2 0 1 0;
#X connect 3 0 2 0;
#X connect 3 0 18 0;
#X connect 4 0 5 0;
#X connect 6 0 10 0;
#X connect 6 1 11 0;
#X connect 7 0 8 0;
#X connect 8 0 10 1;
#X connect 8 0 11 1;
#X connect 10 0 20 0;
#X connect 11 0 21 0;
#X connect 15 0 19 0;
#X connect 18 0 0 0;
#X connect 19 0 16 0;
#X connect 20 0 9 0;
#X connect 21 0 12 0;
#X coords 0 -1 1 1 265 114 2 1658 254;
