#N canvas 0 24 1366 694 10;
#X obj 1789 306 image /home/ubuntu-studio/MAMIClibrary/images/sounds.png
0;
#X msg 1446 70 click \$1;
#X msg 1443 38 1;
#X obj 1442 7 loadbang;
#X obj 1636 634 outlet~;
#X text 1660 352 Audio Output;
#N canvas 0 24 1366 694 statesave 0;
#X obj 88 32 s \$0-volume_r;
#X obj 264 -25 r \$0-volume;
#X obj 253 63 r \$0-reverb_type;
#X obj 89 124 s \$0-reverb_send;
#X obj 263 144 r \$0-reverb_length;
#X obj 87 200 s \$0-reverb_length_r;
#X obj 87 1 sssad \$1/volumeslidersoundsout;
#X obj 88 93 sssad \$1/reverbtypesoundsout;
#X obj 86 169 sssad \$1/reverblengthsoundsout;
#X connect 1 0 6 1;
#X connect 2 0 7 1;
#X connect 4 0 8 1;
#X connect 6 0 0 0;
#X connect 7 0 3 0;
#X connect 8 0 5 0;
#X restore 1244 482 pd statesave;
#X obj 2197 360 alternate;
#X obj 2154 98 loadbang;
#X obj 2154 126 f \$0;
#X msg 2073 449 \; \$1 vis 1;
#X obj 2073 395 f;
#X obj 2249 396 f;
#X msg 2250 450 \; \$1 vis 0;
#X obj 1635 452 inlet~;
#X obj 1636 586 *~;
#X obj 1812 390 r \$0-dsp_on;
#X obj 1840 414 loadbang;
#X obj 1872 531 switch~;
#X msg 1845 539 \$1 5;
#X obj 1845 568 line~;
#X msg 1812 439 1;
#X msg 1844 440 0;
#X obj 1845 473 t f f;
#X obj 1812 415 t b;
#X obj 1888 390 r \$0-dsp_off;
#X obj 1902 416 t b;
#X text 1660 260 Audio Input;
#X msg 1644 44 open /home/ubuntu-studio/MAMIClibrary/images/sounds.png
;
#X msg 1304 45 0.5;
#X text 1306 95 Preset Volumes;
#X obj 1304 70 s \$0-volume_r;
#N canvas 268 154 232 173 \$0-soundsout1 0;
#X obj -4 -119 hsl 200 23 0.01 1 1 0 \$0-volume \$0-volume_r Off\ \ \ \ \ \ \ \ \ \ \ \ \ \ \ \ \ \ \ \ \ Half\ as\ loud\ \ \ \ \ \ \ \ \ \ \ \ \ \ \ \ \ Loud
7 13 1 9 -245500 -13381 -1 16905 0;
#N canvas 0 24 1366 694 volume 0;
#X obj 234 -7 inlet~;
#X obj 120 306 line~;
#X obj 219 324 *~;
#X obj 222 489 dac~;
#X obj 120 285 pack 0 50;
#X msg 119 208 0;
#X obj 119 185 moses 0.011;
#X obj 292 153 loadbang;
#X obj 321 291 switch~;
#X msg 294 299 \$1 5;
#X obj 294 328 line~;
#X msg 261 199 1;
#X msg 293 200 0;
#X obj 294 233 t f f;
#X obj 221 446 *~;
#X obj 183 210 t f b;
#X obj 119 236 t b f;
#X obj 118 144 r \$0-volume;
#X obj 172 489 outlet~;
#X obj 210 242 s \$0-dsp_on;
#X obj 41 286 s \$0-dsp_off;
#N canvas 0 149 1366 695 echo 0;
#X obj 365 462 outlet~;
#X obj 362 95 inlet~;
#X obj 213 71 loadbang;
#X floatatom 82 100 5 0 4 0 - #0-reverb_type -, f 5;
#X msg 213 96 0;
#X msg 246 96 1;
#X text 115 100 Type;
#X floatatom 84 127 5 0 100 0 - #0-reverb_length -, f 5;
#X text 117 127 Length;
#X obj 107 236 snapshot~;
#X floatatom 105 286 15 0 0 0 - - -, f 15;
#X obj 111 356 sel 0;
#X obj 106 386 bng 15 50 50 0 empty empty empty 17 7 0 10 -262144 -1
-1;
#X obj 102 314 change;
#X obj 107 189 metro 10;
#X msg 140 378 1;
#X obj 102 471 del;
#X obj 143 408 t f f;
#X msg 254 137 \; pd dsp 1;
#N canvas 0 24 1366 696 reverb 0;
#X obj 174 59 inlet~;
#X obj 194 492 outlet~;
#X obj 195 251 freeverb~;
#N canvas 0 24 1366 696 reverb_levels 0;
#X obj 113 27 inlet;
#X obj 99 470 outlet;
#X obj 113 82 select 0 1 2 3 4;
#X msg 151 326 bypass 0 \, roomsize 0.6 \, wet 0.5 \, dry 0.5 \, width
0 \, damping 0.3;
#X msg 133 273 bypass 0 \, roomsize 0.4 \, wet 0.3 \, dry 0.7 \, width
0 \, damping 0.5;
#X msg 175 390 bypass 0 \, roomsize 0.8 \, wet 0.6 \, dry 0.2 \, width
0 \, damping 0.7;
#X msg 192 451 bypass 0 \, roomsize 0.98 \, wet 0.7 \, dry 0.5 \, width
0 \, damping 0.7;
#X msg 100 179 bypass 1;
#X connect 0 0 2 0;
#X connect 2 0 7 0;
#X connect 2 1 4 0;
#X connect 2 2 3 0;
#X connect 2 3 5 0;
#X connect 2 4 6 0;
#X connect 3 0 1 0;
#X connect 4 0 1 0;
#X connect 5 0 1 0;
#X connect 6 0 1 0;
#X connect 7 0 1 0;
#X restore 211 224 pd reverb_levels;
#X obj 195 283 *~ 0.5;
#X obj 195 195 +~ 1e-07;
#X obj 414 6 loadbang;
#X obj 386 276 switch~;
#X msg 359 284 \$1 5;
#X obj 359 313 line~;
#X msg 358 185 0;
#X obj 359 218 t f f;
#X obj 193 453 *~;
#X obj 174 85 spigot~;
#X msg 403 186 1;
#X obj 217 59 inlet;
#X obj 308 177 inlet;
#X obj 323 120 inlet;
#X obj 100 60 inlet;
#X connect 0 0 13 0;
#X connect 2 0 4 0;
#X connect 2 1 4 0;
#X connect 3 0 2 0;
#X connect 4 0 12 0;
#X connect 5 0 2 0;
#X connect 6 0 10 0;
#X connect 8 0 9 0;
#X connect 9 0 12 1;
#X connect 10 0 11 0;
#X connect 11 0 8 0;
#X connect 11 1 7 0;
#X connect 12 0 1 0;
#X connect 13 1 5 0;
#X connect 14 0 11 0;
#X connect 15 0 13 1;
#X connect 16 0 11 0;
#X connect 17 0 10 0;
#X connect 18 0 3 0;
#X restore 365 373 pd reverb;
#X obj 212 194 s \$0-reverb_send;
#X obj 102 511 s \$0-master_switch_off;
#X obj 38 301 * 100;
#X floatatom 29 374 5 0 0 0 - - -, f 5;
#X floatatom 43 274 5 0 0 0 - - -, f 5;
#X obj 29 247 * 25;
#X obj 22 205 + 1;
#X connect 1 0 9 0;
#X connect 1 0 19 1;
#X connect 2 0 4 0;
#X connect 2 0 5 0;
#X connect 2 0 18 0;
#X connect 3 0 19 0;
#X connect 4 0 20 0;
#X connect 5 0 14 0;
#X connect 7 0 26 0;
#X connect 9 0 10 0;
#X connect 10 0 13 0;
#X connect 11 0 12 0;
#X connect 11 1 15 0;
#X connect 12 0 16 0;
#X connect 13 0 11 0;
#X connect 14 0 9 0;
#X connect 15 0 17 0;
#X connect 16 0 19 4;
#X connect 16 0 21 0;
#X connect 17 0 19 2;
#X connect 17 1 19 3;
#X connect 19 0 0 0;
#X connect 22 0 23 0;
#X connect 23 0 16 1;
#X connect 24 0 22 0;
#X connect 25 0 24 0;
#X connect 26 0 25 0;
#X restore 219 359 pd echo;
#X connect 0 0 2 1;
#X connect 1 0 2 0;
#X connect 2 0 21 0;
#X connect 4 0 1 0;
#X connect 5 0 16 0;
#X connect 6 0 5 0;
#X connect 6 1 15 0;
#X connect 7 0 12 0;
#X connect 9 0 10 0;
#X connect 10 0 14 1;
#X connect 11 0 13 0;
#X connect 12 0 13 0;
#X connect 13 0 9 0;
#X connect 13 1 8 0;
#X connect 14 0 3 0;
#X connect 14 0 3 1;
#X connect 14 0 18 0;
#X connect 15 0 4 0;
#X connect 15 1 11 0;
#X connect 15 1 19 0;
#X connect 16 0 12 0;
#X connect 16 0 20 0;
#X connect 16 1 4 0;
#X connect 17 0 6 0;
#X connect 21 0 14 0;
#X restore 514 -137 pd volume packaged;
#X obj 515 -42 outlet~;
#X obj 514 -159 inlet~;
#X obj 649 -189 r \$0-dsp_on;
#X obj 682 -170 loadbang;
#X obj 710 -85 switch~;
#X msg 683 -77 \$1 5;
#X obj 683 -48 line~;
#X msg 649 -140 1;
#X msg 681 -139 0;
#X obj 682 -106 t f f;
#X obj 515 -76 *~;
#X obj 649 -164 t b;
#X obj 725 -189 r \$0-dsp_off;
#X obj 739 -163 t b;
#X text -5 -141 Volume;
#X floatatom 67 -94 3 0 4 0 ReverbType #0-reverb_send #0-reverb_type
, f 3;
#X obj 78 -74 hradio 30 1 0 4 \$0-reverb_length \$0-reverb_length_r
Reverb\ Length -80 10 0 10 -262144 -1 -1 0;
#X text 80 -37 1/4;
#X text 112 -37 2/4;
#X text 142 -37 3/4;
#X text 173 -37 4/4;
#X connect 1 0 12 0;
#X connect 3 0 1 0;
#X connect 4 0 13 0;
#X connect 7 0 8 0;
#X connect 8 0 12 1;
#X connect 9 0 11 0;
#X connect 10 0 11 0;
#X connect 11 0 7 0;
#X connect 11 1 6 0;
#X connect 12 0 2 0;
#X connect 13 0 9 0;
#X connect 14 0 15 0;
#X connect 15 0 10 0;
#X restore 1636 489 pd \$0-soundsout1;
#X obj 2074 423 makefilename pd-%d-soundsout1;
#X obj 2250 424 makefilename pd-%d-soundsout1;
#X connect 0 0 7 0;
#X connect 1 0 0 0;
#X connect 2 0 1 0;
#X connect 3 0 2 0;
#X connect 3 0 28 0;
#X connect 3 0 29 0;
#X connect 7 0 11 0;
#X connect 7 1 12 0;
#X connect 8 0 9 0;
#X connect 9 0 11 1;
#X connect 9 0 12 1;
#X connect 11 0 33 0;
#X connect 12 0 34 0;
#X connect 14 0 32 0;
#X connect 15 0 4 0;
#X connect 16 0 24 0;
#X connect 17 0 21 0;
#X connect 19 0 20 0;
#X connect 20 0 15 1;
#X connect 21 0 23 0;
#X connect 22 0 23 0;
#X connect 23 0 19 0;
#X connect 23 1 18 0;
#X connect 24 0 21 0;
#X connect 25 0 26 0;
#X connect 26 0 22 0;
#X connect 28 0 0 0;
#X connect 29 0 31 0;
#X connect 32 0 15 0;
#X connect 33 0 10 0;
#X connect 34 0 13 0;
#X coords 0 -1 1 1 265 114 2 1657 257;
