#N canvas 0 24 1366 695 10;
#X obj 1789 306 image /home/ubuntu-studio/Desktop/MAMIClibrary/images/sounds.png
0;
#X msg 1446 70 click \$1;
#X msg 1443 38 1;
#X obj 1442 7 loadbang;
#X obj 1636 634 outlet~;
#X text 1660 352 Audio Output;
#N canvas 0 24 1366 696 statesave 0;
#X obj 87 1 sssad \$1/volumeslider;
#X obj 88 32 s \$0-volume_r;
#X obj 210 -23 r \$0-volume;
#X connect 0 0 1 0;
#X connect 2 0 0 1;
#X restore 1244 482 pd statesave;
#X obj 2197 360 alternate;
#X obj 2154 98 loadbang;
#X obj 2154 126 f \$0;
#X msg 2073 449 \; \$1 vis 1;
#X obj 2073 395 f;
#X obj 2249 396 f;
#X msg 2250 450 \; \$1 vis 0;
#N canvas 1099 132 67 88 \$0-soundsout 0;
#X obj 1 4 hsl 42 23 0.01 1 1 0 \$0-volume \$0-volume_r volume 7 13
1 9 -245500 -13381 -1 0 0;
#N canvas 0 24 1366 696 volume 0;
#X obj 234 -7 inlet~;
#X obj 120 306 line~;
#X obj 219 324 *~;
#X obj 220 381 dac~;
#X obj 120 285 pack 0 50;
#X msg 119 208 0;
#X obj 119 185 moses 0.011;
#X obj 292 153 loadbang;
#X obj 321 291 switch~;
#X msg 294 299 \$1 5;
#X obj 294 328 line~;
#X msg 261 199 1;
#X msg 293 200 0;
#X obj 294 233 t f f;
#X obj 219 353 *~;
#X obj 183 210 t f b;
#X obj 119 236 t b f;
#X obj 118 144 r \$0-volume;
#X obj 170 381 outlet~;
#X obj 210 242 s \$0-dsp_on;
#X obj 41 286 s \$0-dsp_off;
#X connect 0 0 2 1;
#X connect 1 0 2 0;
#X connect 2 0 14 0;
#X connect 4 0 1 0;
#X connect 5 0 16 0;
#X connect 6 0 5 0;
#X connect 6 1 15 0;
#X connect 7 0 12 0;
#X connect 9 0 10 0;
#X connect 10 0 14 1;
#X connect 11 0 13 0;
#X connect 12 0 13 0;
#X connect 13 0 9 0;
#X connect 13 1 8 0;
#X connect 14 0 3 0;
#X connect 14 0 3 1;
#X connect 14 0 18 0;
#X connect 15 0 4 0;
#X connect 15 1 11 0;
#X connect 15 1 19 0;
#X connect 16 0 12 0;
#X connect 16 0 20 0;
#X connect 16 1 4 0;
#X connect 17 0 6 0;
#X restore 244 -117 pd volume packaged;
#X obj 244 50 outlet~;
#X obj 244 -139 inlet~;
#X obj 379 -169 r \$0-dsp_on;
#X obj 411 -144 loadbang;
#X obj 439 -28 switch~;
#X msg 412 -20 \$1 5;
#X obj 412 9 line~;
#X msg 379 -120 1;
#X msg 411 -119 0;
#X obj 412 -86 t f f;
#X obj 244 16 *~;
#X obj 379 -144 t b;
#X obj 455 -169 r \$0-dsp_off;
#X obj 469 -143 t b;
#X connect 1 0 12 0;
#X connect 3 0 1 0;
#X connect 4 0 13 0;
#X connect 5 0 10 0;
#X connect 7 0 8 0;
#X connect 8 0 12 1;
#X connect 9 0 11 0;
#X connect 10 0 11 0;
#X connect 11 0 7 0;
#X connect 11 1 6 0;
#X connect 12 0 2 0;
#X connect 13 0 9 0;
#X connect 14 0 15 0;
#X connect 15 0 10 0;
#X restore 1636 489 pd \$0-soundsout;
#X obj 2074 423 makefilename pd-%d-soundsout;
#X obj 2250 424 makefilename pd-%d-soundsout;
#X obj 1635 452 inlet~;
#X obj 1636 586 *~;
#X obj 1812 390 r \$0-dsp_on;
#X obj 1844 415 loadbang;
#X obj 1872 531 switch~;
#X msg 1845 539 \$1 5;
#X obj 1845 568 line~;
#X msg 1812 439 1;
#X msg 1844 440 0;
#X obj 1845 473 t f f;
#X obj 1812 415 t b;
#X obj 1888 390 r \$0-dsp_off;
#X obj 1902 416 t b;
#X text 1660 260 Audio Input;
#X msg 1644 44 open /home/ubuntu-studio/Desktop/MAMIClibrary/images/sounds.png
;
#X connect 0 0 7 0;
#X connect 1 0 0 0;
#X connect 2 0 1 0;
#X connect 3 0 2 0;
#X connect 3 0 31 0;
#X connect 7 0 11 0;
#X connect 7 1 12 0;
#X connect 8 0 9 0;
#X connect 9 0 11 1;
#X connect 9 0 12 1;
#X connect 11 0 15 0;
#X connect 12 0 16 0;
#X connect 14 0 18 0;
#X connect 15 0 10 0;
#X connect 16 0 13 0;
#X connect 17 0 14 0;
#X connect 18 0 4 0;
#X connect 19 0 27 0;
#X connect 20 0 25 0;
#X connect 22 0 23 0;
#X connect 23 0 18 1;
#X connect 24 0 26 0;
#X connect 25 0 26 0;
#X connect 26 0 22 0;
#X connect 26 1 21 0;
#X connect 27 0 24 0;
#X connect 28 0 29 0;
#X connect 29 0 25 0;
#X connect 31 0 0 0;
#X coords 0 -1 1 1 265 114 2 1657 257;
