#N canvas 0 73 1366 694 10;
#X obj 1789 306 image /home/ubuntu-studio/MAMIClibrary/images/voice.png
0;
#X msg 1446 70 click \$1;
#X msg 1443 38 1;
#X obj 1442 7 loadbang;
#X obj 1636 634 outlet~;
#X text 1660 352 Audio Output;
#N canvas 0 72 1366 694 statesave 0;
#X obj 87 1 sssad \$1/volumeslider;
#X obj 210 -23 r \$0-mastervolume;
#X obj 88 32 s \$0-mastervolume_r;
#X obj 87 89 sssad \$1/reverb;
#X obj 210 65 r \$0-reverb_type;
#X obj 88 120 s \$0-reverb_send;
#X obj 89 172 sssad \$1/length;
#X obj 212 147 r \$0-reverb_length;
#X obj 90 203 s \$0-reverb_length_r;
#X obj 95 253 sssad \$1/sustain;
#X obj 217 228 r \$0-sustain;
#X obj 95 281 s \$0-sustain_send;
#X obj 94 376 sssad \$1/voiceselect;
#X obj 216 351 r \$0-voiceselect;
#X obj 94 404 s \$0-loadvoice;
#X connect 0 0 2 0;
#X connect 1 0 0 1;
#X connect 3 0 5 0;
#X connect 4 0 3 1;
#X connect 6 0 8 0;
#X connect 7 0 6 1;
#X connect 9 0 11 0;
#X connect 10 0 9 1;
#X connect 12 0 14 0;
#X connect 13 0 12 1;
#X restore 1244 482 pd statesave;
#X obj 2197 360 alternate;
#X obj 2154 98 loadbang;
#X obj 2154 126 f \$0;
#X msg 2073 450 \; \$1 vis 1;
#X obj 2073 396 f;
#X obj 2249 396 f;
#X msg 2267 449 \; \$1 vis 0;
#X obj 1636 586 *~;
#X obj 1636 452 inlet;
#X obj 1964 450 r \$0-dsp_on;
#X obj 1948 590 switch~;
#X msg 1921 598 \$1 5;
#X obj 1921 627 line~;
#X msg 1920 499 0;
#X obj 1921 532 t f f;
#X msg 1965 500 1;
#X obj 1920 430 r \$0-master_switch_off;
#X obj 1964 474 t b;
#X text 1660 260 MIDI Input;
#X msg 1644 44 open /home/ubuntu-studio/MAMIClibrary/images/voice.png
;
#X floatatom 1745 452 5 0 0 0 - - -, f 5;
#X msg 2334 166 \; pd dsp 0;
#X msg 2254 163 \; pd dsp 1;
#X obj 2258 121 t b b b;
#X msg 1309 49 0.5;
#X obj 1309 74 s \$0-mastervolume_r;
#X text 1311 99 Preset Volumes;
#N canvas 133 100 217 253 \$0-voicesout1 0;
#X obj 1 -73 bng 10 250 50 0 \$0-countuproot empty empty 17 7 0 10
-4160 -1 -1;
#X obj 1 -62 bng 10 250 50 0 \$0-countdownroot empty empty 17 7 0 10
-4160 -1 -1;
#X symbolatom 13 -69 12 0 0 0 - #0-incomingpitchletter -, f 12;
#X text 14 -83 Sound Bank;
#X floatatom 72 82 3 0 4 0 ReverbType #0-reverb_send #0-reverb_type
, f 3;
#X obj 1 -38 bng 10 250 50 0 \$0-codeopen empty empty 17 7 0 10 -260097
-1 -1;
#X text 10 -42 Code;
#X obj 1 -49 bng 10 250 50 0 \$0-codeimport empty empty 17 7 0 10 -260097
-1 -1;
#X text 10 -53 Code Import;
#X obj 1 -27 bng 10 250 50 0 \$0-clear empty empty 17 7 0 10 -258113
-1 -1;
#X text 10 -31 Clear;
#N canvas 0 72 1366 694 voices 0;
#X obj 787 -254 inlet;
#N canvas 0 105 1325 686 sound 0;
#X obj 160 52 t b b;
#X floatatom 281 147 5 0 0 0 - - -, f 5;
#X msg 223 83 0;
#X msg 268 84 1;
#X obj 156 223 t b b;
#X obj 206 127 counter;
#X obj 160 28 r \$0-countuproot;
#X obj 155 201 r \$0-countdownroot;
#X msg 34 92 min \$1;
#X msg 93 91 max \$1;
#X obj 34 21 loadbang;
#X msg 34 61 1;
#X obj 281 264 outlet;
#N canvas 39 76 1325 686 Sound 0;
#X obj 71 2 inlet;
#X floatatom 320 19 5 0 0 0 - - -, f 5;
#X text 116 3 MIDI Root Note Number;
#X obj 363 296 symbol;
#X obj 363 357 s \$0-incomingpitchletter;
#X obj 320 43 sel 1 2 3 4 5;
#X symbolatom 461 325 12 0 0 0 - - -, f 12;
#X msg 320 79 Lead1;
#X msg 365 154 Xylophone;
#X msg 349 129 Harpischord;
#X msg 335 100 Lead2;
#X msg 380 187 Xylophone2;
#X connect 0 0 1 0;
#X connect 1 0 5 0;
#X connect 3 0 4 0;
#X connect 3 0 6 0;
#X connect 5 0 7 0;
#X connect 5 1 10 0;
#X connect 5 2 9 0;
#X connect 5 3 8 0;
#X connect 5 4 11 0;
#X connect 7 0 3 0;
#X connect 8 0 3 0;
#X connect 9 0 3 0;
#X connect 10 0 3 0;
#X connect 11 0 3 0;
#X restore 310 200 pd Sound name symbols;
#X msg 91 61 5;
#X obj 446 200 s \$0-voiceselect;
#X obj 281 122 r \$0-voice;
#X msg 406 53 jam \$1;
#X obj 406 22 r \$0-loadvoice;
#X connect 0 0 5 0;
#X connect 0 1 2 0;
#X connect 1 0 13 0;
#X connect 1 0 12 0;
#X connect 1 0 15 0;
#X connect 2 0 5 1;
#X connect 3 0 5 1;
#X connect 4 0 5 0;
#X connect 4 1 3 0;
#X connect 5 0 1 0;
#X connect 6 0 0 0;
#X connect 7 0 4 0;
#X connect 8 0 5 0;
#X connect 9 0 5 0;
#X connect 10 0 11 0;
#X connect 10 0 14 0;
#X connect 11 0 8 0;
#X connect 14 0 9 0;
#X connect 16 0 1 0;
#X connect 17 0 5 0;
#X connect 18 0 17 0;
#X restore 685 -344 pd sound names;
#X obj 269 169 pack f f f;
#X obj 269 135 poly 8 0;
#X obj 210 198 bng 15 250 50 0 empty empty empty 17 7 0 10 -262144
-1 -1;
#X text 331 133 no voice stealing to preserve note decays;
#X text 350 222 This message is sent to all the voices;
#X obj 787 -209 unpack f f f;
#X obj 716 -25 pack f f;
#X msg 764 -84 1;
#X msg 801 -84 0;
#X msg 714 0 \$1 \$2;
#X obj 716 -134 t f b;
#X obj 774 -112 t f b;
#X obj 774 -138 f;
#X obj 827 -18 pack f f;
#X msg 875 -77 1;
#X msg 912 -77 0;
#X obj 829 -127 t f b;
#X obj 885 -105 t f b;
#X obj 885 -131 f;
#X obj 886 -160 del 100;
#X obj 944 -15 pack f f;
#X msg 992 -74 1;
#X msg 1027 -73 0;
#X obj 946 -124 t f b;
#X obj 1002 -102 t f b;
#X obj 1002 -128 f;
#X obj 1003 -157 del 100;
#X obj 267 101 flush;
#X msg 225 45 bang;
#N canvas 7 76 1325 688 voice 0;
#X obj 100 552 line~;
#X obj 99 579 *~;
#X obj 83 660 *~;
#X obj 60 175 mtof;
#X obj 107 133 unpack f f;
#X obj 242 156 sel 0;
#X text 291 124 preserve note-on velocity;
#X text 166 76 Only consider messages with the ID corresponding to
this voice ID (first parameter);
#X obj 805 644 *~ 0.3;
#X obj 284 262 vsl 15 128 0 4000 0 0 empty empty empty 0 -9 0 10 -262144
-1 -1 952 1;
#X obj 239 401 pack f f;
#X msg 239 371 0;
#X obj 128 386 pack f f;
#X obj 174 246 vsl 15 128 0 100 0 0 empty empty empty 0 -9 0 10 -262144
-1 -1 25 1;
#X text 314 314 Release;
#X text 128 298 Attack;
#X obj 107 78 route 1;
#X obj 107 47 r \$0-note;
#X obj 82 742 outlet~;
#X obj 176 202 r a1;
#X obj 283 229 r r1;
#X obj 827 239 osc~;
#X floatatom 827 219 5 0 0 0 - - -, f 5;
#X obj 752 378 osc~;
#X obj 752 313 +~;
#X obj 827 282 *~;
#X floatatom 903 220 5 0 0 0 - - -, f 5;
#X text 758 364 /;
#X text 766 354 Frequency;
#X text 630 380 B) MAIN (CARRIER);
#X text 651 389 OSCILLATOR;
#X floatatom 827 59 5 0 0 0 - - -, f 5;
#X obj 903 191 *;
#X obj 827 99 t b f;
#X obj 903 169 t b f;
#X text 778 178 A) MODULATING;
#X text 798 188 OSCILLATOR;
#X obj 827 77 line;
#X obj 903 148 line;
#X text 867 219 mf;
#X text 947 220 mi;
#X obj 903 238 pack f 30;
#X obj 903 265 line~;
#X text 935 124 index;
#X text 869 60 harmonicity ratio;
#X obj 827 124 *;
#X floatatom 575 81 5 0 0 0 - - -, f 5;
#X floatatom 569 153 5 0 0 0 - - -, f 5;
#X obj 554 184 +~;
#X text 610 152 master frequency of carrier;
#X text 610 15 end of feedback loop;
#X text 616 81 scale feedback;
#X obj 1058 395 *~;
#X floatatom 1073 327 5 0 0 0 - - -, f 5;
#X obj 1073 367 sig~;
#X text 1114 327 feedback amount;
#X obj 554 109 *~ 0;
#X floatatom 902 121 5 0 0 0 - - -, f 5;
#X text 1362 144 xylophone;
#X text 1345 109 Harpischord;
#X obj 805 517 bp~ 220 1;
#X obj 808 465 mtof;
#X obj 815 430 hsl 128 15 0 127 0 0 empty empty empty -2 -8 0 10 -262144
-1 -1 12700 1;
#X floatatom 874 485 5 1 30 0 - - -, f 5;
#X obj 805 565 *~;
#X obj 879 523 - 0.5;
#X text 1314 34 Lead 1;
#X text 1436 177 xylophone 2;
#X text 1436 177 xylophone;
#X text 1336 74 Lead 2;
#X floatatom 1398 -64 5 0 0 0 - - -, f 5;
#X obj 1398 -40 sel 1 2 3 4 5;
#X obj 1063 301 r fb1;
#X obj 765 262 s~ s11;
#X obj 765 407 s~ s21;
#X obj 835 407 r cutoff1;
#X obj 874 458 r res1;
#X obj 827 36 r hr1;
#X obj 903 92 r i1;
#X obj 573 51 r sf1;
#X obj 570 131 r cf1;
#X obj 1398 -87 r \$0-voiceselect;
#X obj 1364 248 t l b;
#X obj 1391 275 f \$0;
#X obj 1364 310 list append;
#X floatatom 1364 383 5 0 0 0 - - -, f 5;
#X floatatom 1387 402 5 0 0 0 - - -, f 5;
#X floatatom 1410 423 5 0 0 0 - - -, f 5;
#X floatatom 1433 442 5 0 0 0 - - -, f 5;
#X floatatom 1457 461 5 0 0 0 - - -, f 5;
#X obj 1364 347 unpack f f f f f f f f f;
#X floatatom 1486 489 5 0 0 0 - - -, f 5;
#X floatatom 1509 510 5 0 0 0 - - -, f 5;
#X floatatom 1532 529 5 0 0 0 - - -, f 5;
#X floatatom 1556 548 5 0 0 0 - - -, f 5;
#X msg 1137 32 100 1 10 0 0 0.2 300 127 30;
#X msg 1150 74 100 2 -2 0 0 0.2 300 127 30;
#X msg 1169 108 100 3 10 0 0 0.2 300 127 10;
#X msg 1196 145 100 1 0 0 0 0.7 787 127 30;
#X msg 1265 176 100 7 1 0 0 0.7 787 127 30;
#X obj 1064 430 s~ fb1;
#X obj 530 16 r~ fb1;
#X obj 331 241 * 40;
#X obj 331 218 r \$0-sustain;
#X obj 253 599 switch~;
#X obj 226 546 t f f;
#X msg 226 673 \$1 5;
#X obj 226 702 line~;
#X obj 364 576 loadbang;
#X msg 271 674 1 5;
#X msg 226 506 1;
#X msg 258 507 0;
#X obj 83 718 *~;
#X obj 269 182 t f b;
#X obj 128 578 snapshot~;
#X obj 128 606 sel 0;
#X connect 0 0 1 0;
#X connect 0 0 1 1;
#X connect 0 0 114 0;
#X connect 1 0 2 1;
#X connect 2 0 112 0;
#X connect 3 0 47 0;
#X connect 4 0 3 0;
#X connect 4 1 5 0;
#X connect 5 0 11 0;
#X connect 5 1 113 0;
#X connect 8 0 2 0;
#X connect 9 0 10 1;
#X connect 10 0 0 0;
#X connect 11 0 10 0;
#X connect 12 0 0 0;
#X connect 13 0 12 1;
#X connect 16 0 4 0;
#X connect 17 0 16 0;
#X connect 19 0 13 0;
#X connect 20 0 9 0;
#X connect 21 0 25 0;
#X connect 21 0 73 0;
#X connect 22 0 21 0;
#X connect 23 0 52 0;
#X connect 23 0 60 0;
#X connect 23 0 74 0;
#X connect 24 0 23 0;
#X connect 25 0 24 1;
#X connect 26 0 41 0;
#X connect 31 0 37 0;
#X connect 32 0 26 0;
#X connect 33 0 45 0;
#X connect 33 1 45 1;
#X connect 34 0 32 0;
#X connect 34 1 32 1;
#X connect 37 0 33 0;
#X connect 38 0 34 0;
#X connect 41 0 42 0;
#X connect 42 0 25 1;
#X connect 45 0 22 0;
#X connect 45 0 32 0;
#X connect 46 0 56 1;
#X connect 47 0 48 1;
#X connect 47 0 45 0;
#X connect 48 0 24 0;
#X connect 52 0 100 0;
#X connect 53 0 54 0;
#X connect 54 0 52 1;
#X connect 56 0 48 0;
#X connect 57 0 38 0;
#X connect 60 0 64 0;
#X connect 61 0 60 1;
#X connect 62 0 61 0;
#X connect 63 0 60 2;
#X connect 63 0 65 0;
#X connect 64 0 8 0;
#X connect 65 0 64 1;
#X connect 70 0 71 0;
#X connect 71 0 95 0;
#X connect 71 1 96 0;
#X connect 71 2 97 0;
#X connect 71 3 98 0;
#X connect 71 4 99 0;
#X connect 72 0 53 0;
#X connect 75 0 62 0;
#X connect 76 0 63 0;
#X connect 77 0 31 0;
#X connect 78 0 57 0;
#X connect 79 0 46 0;
#X connect 80 0 47 0;
#X connect 81 0 70 0;
#X connect 82 0 84 0;
#X connect 82 1 83 0;
#X connect 83 0 84 1;
#X connect 84 0 90 0;
#X connect 86 0 31 0;
#X connect 87 0 57 0;
#X connect 88 0 53 0;
#X connect 89 0 46 0;
#X connect 90 0 85 0;
#X connect 90 0 47 0;
#X connect 90 1 86 0;
#X connect 90 2 87 0;
#X connect 90 3 88 0;
#X connect 90 4 89 0;
#X connect 90 5 91 0;
#X connect 90 6 92 0;
#X connect 90 7 93 0;
#X connect 90 8 94 0;
#X connect 91 0 13 0;
#X connect 92 0 9 0;
#X connect 93 0 62 0;
#X connect 94 0 63 0;
#X connect 95 0 82 0;
#X connect 96 0 82 0;
#X connect 97 0 82 0;
#X connect 98 0 82 0;
#X connect 99 0 82 0;
#X connect 101 0 56 0;
#X connect 102 0 9 0;
#X connect 103 0 102 0;
#X connect 105 0 106 0;
#X connect 105 1 104 0;
#X connect 106 0 107 0;
#X connect 107 0 112 1;
#X connect 108 0 111 0;
#X connect 109 0 107 0;
#X connect 110 0 105 0;
#X connect 111 0 105 0;
#X connect 112 0 18 0;
#X connect 113 0 12 0;
#X connect 113 1 110 0;
#X connect 114 0 115 0;
#X connect 115 0 111 0;
#X restore 1038 73 pd voice 1;
#X obj 269 222 s \$0-note;
#X obj 1032 316 dac~;
#X obj 619 -344 r \$0-dsp;
#X obj 850 44 r \$0-mastervolume;
#X obj 1066 316 outlet~;
#X obj 1038 212 *~;
#X obj 1362 -246 inlet;
#N canvas 2 76 1351 688 coll 0;
#X obj 262 -4 openpanel;
#X obj 262 -27 bng 15 250 50 0 empty empty empty 17 7 0 10 -262144
-1 -1;
#X msg 262 24 read \$1;
#X obj 262 -54 r \$0-codeimport;
#X msg 165 -28 open;
#X obj 164 -54 r \$0-codeopen;
#X msg 86 -29 clear;
#X obj 86 -54 r \$0-clear;
#X obj 263 78 zl group 2;
#X obj 384 -54 inlet;
#X msg 122 69 1;
#X obj 262 48 coll \$0-sound;
#C restore;
#X obj 263 136 s \$0-voice;
#X obj 263 107 route voice reverb sustain;
#X obj 396 132 s \$0-reverb_send;
#X obj 529 132 s \$0-sustain_send;
#X connect 0 0 2 0;
#X connect 1 0 0 0;
#X connect 2 0 11 0;
#X connect 3 0 1 0;
#X connect 4 0 11 0;
#X connect 5 0 4 0;
#X connect 6 0 11 0;
#X connect 7 0 6 0;
#X connect 8 0 13 0;
#X connect 9 0 11 0;
#X connect 10 0 11 0;
#X connect 11 0 8 0;
#X connect 13 0 12 0;
#X connect 13 1 14 0;
#X connect 13 2 15 0;
#X restore 1361 -217 pd coll sound info;
#X obj 894 -360 r \$0-clear;
#X obj 894 -333 t b b;
#X msg 921 -309 1;
#X obj 921 -284 s \$0-voice;
#X msg 891 -309 0;
#X obj 819 -283 s \$0-reverb_send;
#X obj 996 -252 inlet;
#X obj 996 -220 s \$0-reverb_send;
#X obj 1106 -219 s \$0-sustain_send;
#X obj 1106 -251 inlet;
#X obj 775 -167 del 300;
#X obj 880 -229 * 10;
#X obj 882 -252 r \$0-sustain;
#N canvas 5 76 1325 688 voice 0;
#X obj 100 552 line~;
#X obj 99 579 *~;
#X obj 83 660 *~;
#X obj 60 175 mtof;
#X obj 107 133 unpack f f;
#X obj 242 156 sel 0;
#X text 291 124 preserve note-on velocity;
#X text 166 76 Only consider messages with the ID corresponding to
this voice ID (first parameter);
#X obj 805 644 *~ 0.3;
#X obj 284 262 vsl 15 128 0 4000 0 0 empty empty empty 0 -9 0 10 -262144
-1 -1 952 1;
#X obj 239 401 pack f f;
#X msg 239 371 0;
#X obj 128 386 pack f f;
#X obj 174 246 vsl 15 128 0 100 0 0 empty empty empty 0 -9 0 10 -262144
-1 -1 25 1;
#X text 314 314 Release;
#X text 128 298 Attack;
#X obj 107 47 r \$0-note;
#X obj 82 742 outlet~;
#X obj 176 202 r a1;
#X obj 283 229 r r1;
#X obj 827 239 osc~;
#X floatatom 827 219 5 0 0 0 - - -, f 5;
#X obj 752 378 osc~;
#X obj 752 313 +~;
#X obj 827 282 *~;
#X floatatom 903 220 5 0 0 0 - - -, f 5;
#X text 758 364 /;
#X text 766 354 Frequency;
#X text 630 380 B) MAIN (CARRIER);
#X text 651 389 OSCILLATOR;
#X floatatom 827 59 5 0 0 0 - - -, f 5;
#X obj 903 191 *;
#X obj 827 99 t b f;
#X obj 903 169 t b f;
#X text 778 178 A) MODULATING;
#X text 798 188 OSCILLATOR;
#X obj 827 77 line;
#X obj 903 148 line;
#X text 867 219 mf;
#X text 947 220 mi;
#X obj 903 238 pack f 30;
#X obj 903 265 line~;
#X text 935 124 index;
#X text 869 60 harmonicity ratio;
#X obj 827 124 *;
#X floatatom 575 81 5 0 0 0 - - -, f 5;
#X floatatom 569 153 5 0 0 0 - - -, f 5;
#X obj 554 184 +~;
#X text 610 152 master frequency of carrier;
#X text 610 15 end of feedback loop;
#X text 616 81 scale feedback;
#X obj 1058 395 *~;
#X floatatom 1073 327 5 0 0 0 - - -, f 5;
#X obj 1073 367 sig~;
#X text 1114 327 feedback amount;
#X obj 554 109 *~ 0;
#X floatatom 902 121 5 0 0 0 - - -, f 5;
#X text 1362 144 xylophone;
#X text 1345 109 Harpischord;
#X obj 805 517 bp~ 220 1;
#X obj 808 465 mtof;
#X obj 815 430 hsl 128 15 0 127 0 0 empty empty empty -2 -8 0 10 -262144
-1 -1 12700 1;
#X floatatom 874 485 5 1 30 0 - - -, f 5;
#X obj 805 565 *~;
#X obj 879 523 - 0.5;
#X text 1314 34 Lead 1;
#X text 1436 177 xylophone 2;
#X text 1436 177 xylophone;
#X text 1336 74 Lead 2;
#X floatatom 1398 -64 5 0 0 0 - - -, f 5;
#X obj 1398 -40 sel 1 2 3 4 5;
#X obj 1063 301 r fb1;
#X obj 765 262 s~ s11;
#X obj 765 407 s~ s21;
#X obj 835 407 r cutoff1;
#X obj 874 458 r res1;
#X obj 827 36 r hr1;
#X obj 903 92 r i1;
#X obj 573 51 r sf1;
#X obj 570 131 r cf1;
#X obj 1398 -87 r \$0-voiceselect;
#X obj 1364 248 t l b;
#X obj 1391 275 f \$0;
#X obj 1364 310 list append;
#X floatatom 1364 383 5 0 0 0 - - -, f 5;
#X floatatom 1387 402 5 0 0 0 - - -, f 5;
#X floatatom 1410 423 5 0 0 0 - - -, f 5;
#X floatatom 1433 442 5 0 0 0 - - -, f 5;
#X floatatom 1457 461 5 0 0 0 - - -, f 5;
#X obj 1364 347 unpack f f f f f f f f f;
#X floatatom 1486 489 5 0 0 0 - - -, f 5;
#X floatatom 1509 510 5 0 0 0 - - -, f 5;
#X floatatom 1532 529 5 0 0 0 - - -, f 5;
#X floatatom 1556 548 5 0 0 0 - - -, f 5;
#X msg 1137 32 100 1 10 0 0 0.2 300 127 30;
#X msg 1150 74 100 2 -2 0 0 0.2 300 127 30;
#X msg 1169 108 100 3 10 0 0 0.2 300 127 10;
#X msg 1196 145 100 1 0 0 0 0.7 787 127 30;
#X msg 1265 176 100 7 1 0 0 0.7 787 127 30;
#X obj 1064 430 s~ fb1;
#X obj 530 16 r~ fb1;
#X obj 331 241 * 40;
#X obj 331 218 r \$0-sustain;
#X obj 253 599 switch~;
#X obj 226 531 t f f;
#X msg 226 673 \$1 5;
#X obj 226 702 line~;
#X obj 364 576 loadbang;
#X msg 271 674 1 5;
#X msg 226 506 1;
#X msg 258 507 0;
#X obj 83 718 *~;
#X obj 269 182 t f b;
#X obj 128 578 snapshot~;
#X obj 128 606 sel 0;
#X obj 107 78 route 2;
#X connect 0 0 1 0;
#X connect 0 0 1 1;
#X connect 0 0 113 0;
#X connect 1 0 2 1;
#X connect 2 0 111 0;
#X connect 3 0 46 0;
#X connect 4 0 3 0;
#X connect 4 1 5 0;
#X connect 5 0 11 0;
#X connect 5 1 112 0;
#X connect 8 0 2 0;
#X connect 9 0 10 1;
#X connect 10 0 0 0;
#X connect 11 0 10 0;
#X connect 12 0 0 0;
#X connect 13 0 12 1;
#X connect 16 0 115 0;
#X connect 18 0 13 0;
#X connect 19 0 9 0;
#X connect 20 0 24 0;
#X connect 20 0 72 0;
#X connect 21 0 20 0;
#X connect 22 0 51 0;
#X connect 22 0 59 0;
#X connect 22 0 73 0;
#X connect 23 0 22 0;
#X connect 24 0 23 1;
#X connect 25 0 40 0;
#X connect 30 0 36 0;
#X connect 31 0 25 0;
#X connect 32 0 44 0;
#X connect 32 1 44 1;
#X connect 33 0 31 0;
#X connect 33 1 31 1;
#X connect 36 0 32 0;
#X connect 37 0 33 0;
#X connect 40 0 41 0;
#X connect 41 0 24 1;
#X connect 44 0 21 0;
#X connect 44 0 31 0;
#X connect 45 0 55 1;
#X connect 46 0 47 1;
#X connect 46 0 44 0;
#X connect 47 0 23 0;
#X connect 51 0 99 0;
#X connect 52 0 53 0;
#X connect 53 0 51 1;
#X connect 55 0 47 0;
#X connect 56 0 37 0;
#X connect 59 0 63 0;
#X connect 60 0 59 1;
#X connect 61 0 60 0;
#X connect 62 0 59 2;
#X connect 62 0 64 0;
#X connect 63 0 8 0;
#X connect 64 0 63 1;
#X connect 69 0 70 0;
#X connect 70 0 94 0;
#X connect 70 1 95 0;
#X connect 70 2 96 0;
#X connect 70 3 97 0;
#X connect 70 4 98 0;
#X connect 71 0 52 0;
#X connect 74 0 61 0;
#X connect 75 0 62 0;
#X connect 76 0 30 0;
#X connect 77 0 56 0;
#X connect 78 0 45 0;
#X connect 79 0 46 0;
#X connect 80 0 69 0;
#X connect 81 0 83 0;
#X connect 81 1 82 0;
#X connect 82 0 83 1;
#X connect 83 0 89 0;
#X connect 85 0 30 0;
#X connect 86 0 56 0;
#X connect 87 0 52 0;
#X connect 88 0 45 0;
#X connect 89 0 84 0;
#X connect 89 0 46 0;
#X connect 89 1 85 0;
#X connect 89 2 86 0;
#X connect 89 3 87 0;
#X connect 89 4 88 0;
#X connect 89 5 90 0;
#X connect 89 6 91 0;
#X connect 89 7 92 0;
#X connect 89 8 93 0;
#X connect 90 0 13 0;
#X connect 91 0 9 0;
#X connect 92 0 61 0;
#X connect 93 0 62 0;
#X connect 94 0 81 0;
#X connect 95 0 81 0;
#X connect 96 0 81 0;
#X connect 97 0 81 0;
#X connect 98 0 81 0;
#X connect 100 0 55 0;
#X connect 101 0 9 0;
#X connect 102 0 101 0;
#X connect 104 0 105 0;
#X connect 104 1 103 0;
#X connect 105 0 106 0;
#X connect 106 0 111 1;
#X connect 107 0 110 0;
#X connect 108 0 106 0;
#X connect 109 0 104 0;
#X connect 110 0 104 0;
#X connect 111 0 17 0;
#X connect 112 0 12 0;
#X connect 112 1 109 0;
#X connect 113 0 114 0;
#X connect 114 0 110 0;
#X connect 115 0 4 0;
#X restore 1105 73 pd voice 2;
#N canvas 5 76 1325 688 voice 0;
#X obj 100 552 line~;
#X obj 99 579 *~;
#X obj 83 660 *~;
#X obj 60 175 mtof;
#X obj 107 133 unpack f f;
#X obj 242 156 sel 0;
#X text 291 124 preserve note-on velocity;
#X text 166 76 Only consider messages with the ID corresponding to
this voice ID (first parameter);
#X obj 805 644 *~ 0.3;
#X obj 284 262 vsl 15 128 0 4000 0 0 empty empty empty 0 -9 0 10 -262144
-1 -1 952 1;
#X obj 239 401 pack f f;
#X msg 239 371 0;
#X obj 128 386 pack f f;
#X obj 174 246 vsl 15 128 0 100 0 0 empty empty empty 0 -9 0 10 -262144
-1 -1 25 1;
#X text 314 314 Release;
#X text 128 298 Attack;
#X obj 107 47 r \$0-note;
#X obj 82 742 outlet~;
#X obj 176 202 r a1;
#X obj 283 229 r r1;
#X obj 827 239 osc~;
#X floatatom 827 219 5 0 0 0 - - -, f 5;
#X obj 752 378 osc~;
#X obj 752 313 +~;
#X obj 827 282 *~;
#X floatatom 903 220 5 0 0 0 - - -, f 5;
#X text 758 364 /;
#X text 766 354 Frequency;
#X text 630 380 B) MAIN (CARRIER);
#X text 651 389 OSCILLATOR;
#X floatatom 827 59 5 0 0 0 - - -, f 5;
#X obj 903 191 *;
#X obj 827 99 t b f;
#X obj 903 169 t b f;
#X text 778 178 A) MODULATING;
#X text 798 188 OSCILLATOR;
#X obj 827 77 line;
#X obj 903 148 line;
#X text 867 219 mf;
#X text 947 220 mi;
#X obj 903 238 pack f 30;
#X obj 903 265 line~;
#X text 935 124 index;
#X text 869 60 harmonicity ratio;
#X obj 827 124 *;
#X floatatom 575 81 5 0 0 0 - - -, f 5;
#X floatatom 569 153 5 0 0 0 - - -, f 5;
#X obj 554 184 +~;
#X text 610 152 master frequency of carrier;
#X text 610 15 end of feedback loop;
#X text 616 81 scale feedback;
#X obj 1058 395 *~;
#X floatatom 1073 327 5 0 0 0 - - -, f 5;
#X obj 1073 367 sig~;
#X text 1114 327 feedback amount;
#X obj 554 109 *~ 0;
#X floatatom 902 121 5 0 0 0 - - -, f 5;
#X text 1362 144 xylophone;
#X text 1345 109 Harpischord;
#X obj 805 517 bp~ 220 1;
#X obj 808 465 mtof;
#X obj 815 430 hsl 128 15 0 127 0 0 empty empty empty -2 -8 0 10 -262144
-1 -1 12700 1;
#X floatatom 874 485 5 1 30 0 - - -, f 5;
#X obj 805 565 *~;
#X obj 879 523 - 0.5;
#X text 1314 34 Lead 1;
#X text 1436 177 xylophone 2;
#X text 1436 177 xylophone;
#X text 1336 74 Lead 2;
#X floatatom 1398 -64 5 0 0 0 - - -, f 5;
#X obj 1398 -40 sel 1 2 3 4 5;
#X obj 1063 301 r fb1;
#X obj 765 262 s~ s11;
#X obj 765 407 s~ s21;
#X obj 835 407 r cutoff1;
#X obj 874 458 r res1;
#X obj 827 36 r hr1;
#X obj 903 92 r i1;
#X obj 573 51 r sf1;
#X obj 570 131 r cf1;
#X obj 1398 -87 r \$0-voiceselect;
#X obj 1364 248 t l b;
#X obj 1391 275 f \$0;
#X obj 1364 310 list append;
#X floatatom 1364 383 5 0 0 0 - - -, f 5;
#X floatatom 1387 402 5 0 0 0 - - -, f 5;
#X floatatom 1410 423 5 0 0 0 - - -, f 5;
#X floatatom 1433 442 5 0 0 0 - - -, f 5;
#X floatatom 1457 461 5 0 0 0 - - -, f 5;
#X obj 1364 347 unpack f f f f f f f f f;
#X floatatom 1486 489 5 0 0 0 - - -, f 5;
#X floatatom 1509 510 5 0 0 0 - - -, f 5;
#X floatatom 1532 529 5 0 0 0 - - -, f 5;
#X floatatom 1556 548 5 0 0 0 - - -, f 5;
#X msg 1137 32 100 1 10 0 0 0.2 300 127 30;
#X msg 1150 74 100 2 -2 0 0 0.2 300 127 30;
#X msg 1169 108 100 3 10 0 0 0.2 300 127 10;
#X msg 1196 145 100 1 0 0 0 0.7 787 127 30;
#X msg 1265 176 100 7 1 0 0 0.7 787 127 30;
#X obj 1064 430 s~ fb1;
#X obj 530 16 r~ fb1;
#X obj 331 241 * 40;
#X obj 331 218 r \$0-sustain;
#X obj 253 599 switch~;
#X obj 226 531 t f f;
#X msg 226 673 \$1 5;
#X obj 226 702 line~;
#X obj 364 576 loadbang;
#X msg 271 674 1 5;
#X msg 226 506 1;
#X msg 258 507 0;
#X obj 83 718 *~;
#X obj 269 182 t f b;
#X obj 128 578 snapshot~;
#X obj 128 606 sel 0;
#X obj 107 78 route 3;
#X connect 0 0 1 0;
#X connect 0 0 1 1;
#X connect 0 0 113 0;
#X connect 1 0 2 1;
#X connect 2 0 111 0;
#X connect 3 0 46 0;
#X connect 4 0 3 0;
#X connect 4 1 5 0;
#X connect 5 0 11 0;
#X connect 5 1 112 0;
#X connect 8 0 2 0;
#X connect 9 0 10 1;
#X connect 10 0 0 0;
#X connect 11 0 10 0;
#X connect 12 0 0 0;
#X connect 13 0 12 1;
#X connect 16 0 115 0;
#X connect 18 0 13 0;
#X connect 19 0 9 0;
#X connect 20 0 24 0;
#X connect 20 0 72 0;
#X connect 21 0 20 0;
#X connect 22 0 51 0;
#X connect 22 0 59 0;
#X connect 22 0 73 0;
#X connect 23 0 22 0;
#X connect 24 0 23 1;
#X connect 25 0 40 0;
#X connect 30 0 36 0;
#X connect 31 0 25 0;
#X connect 32 0 44 0;
#X connect 32 1 44 1;
#X connect 33 0 31 0;
#X connect 33 1 31 1;
#X connect 36 0 32 0;
#X connect 37 0 33 0;
#X connect 40 0 41 0;
#X connect 41 0 24 1;
#X connect 44 0 21 0;
#X connect 44 0 31 0;
#X connect 45 0 55 1;
#X connect 46 0 47 1;
#X connect 46 0 44 0;
#X connect 47 0 23 0;
#X connect 51 0 99 0;
#X connect 52 0 53 0;
#X connect 53 0 51 1;
#X connect 55 0 47 0;
#X connect 56 0 37 0;
#X connect 59 0 63 0;
#X connect 60 0 59 1;
#X connect 61 0 60 0;
#X connect 62 0 59 2;
#X connect 62 0 64 0;
#X connect 63 0 8 0;
#X connect 64 0 63 1;
#X connect 69 0 70 0;
#X connect 70 0 94 0;
#X connect 70 1 95 0;
#X connect 70 2 96 0;
#X connect 70 3 97 0;
#X connect 70 4 98 0;
#X connect 71 0 52 0;
#X connect 74 0 61 0;
#X connect 75 0 62 0;
#X connect 76 0 30 0;
#X connect 77 0 56 0;
#X connect 78 0 45 0;
#X connect 79 0 46 0;
#X connect 80 0 69 0;
#X connect 81 0 83 0;
#X connect 81 1 82 0;
#X connect 82 0 83 1;
#X connect 83 0 89 0;
#X connect 85 0 30 0;
#X connect 86 0 56 0;
#X connect 87 0 52 0;
#X connect 88 0 45 0;
#X connect 89 0 84 0;
#X connect 89 0 46 0;
#X connect 89 1 85 0;
#X connect 89 2 86 0;
#X connect 89 3 87 0;
#X connect 89 4 88 0;
#X connect 89 5 90 0;
#X connect 89 6 91 0;
#X connect 89 7 92 0;
#X connect 89 8 93 0;
#X connect 90 0 13 0;
#X connect 91 0 9 0;
#X connect 92 0 61 0;
#X connect 93 0 62 0;
#X connect 94 0 81 0;
#X connect 95 0 81 0;
#X connect 96 0 81 0;
#X connect 97 0 81 0;
#X connect 98 0 81 0;
#X connect 100 0 55 0;
#X connect 101 0 9 0;
#X connect 102 0 101 0;
#X connect 104 0 105 0;
#X connect 104 1 103 0;
#X connect 105 0 106 0;
#X connect 106 0 111 1;
#X connect 107 0 110 0;
#X connect 108 0 106 0;
#X connect 109 0 104 0;
#X connect 110 0 104 0;
#X connect 111 0 17 0;
#X connect 112 0 12 0;
#X connect 112 1 109 0;
#X connect 113 0 114 0;
#X connect 114 0 110 0;
#X connect 115 0 4 0;
#X restore 1173 73 pd voice 3;
#N canvas 5 76 1325 688 voice 0;
#X obj 100 552 line~;
#X obj 99 579 *~;
#X obj 83 660 *~;
#X obj 60 175 mtof;
#X obj 107 133 unpack f f;
#X obj 242 156 sel 0;
#X text 291 124 preserve note-on velocity;
#X text 166 76 Only consider messages with the ID corresponding to
this voice ID (first parameter);
#X obj 805 644 *~ 0.3;
#X obj 284 262 vsl 15 128 0 4000 0 0 empty empty empty 0 -9 0 10 -262144
-1 -1 952 1;
#X obj 239 401 pack f f;
#X msg 239 371 0;
#X obj 128 386 pack f f;
#X obj 174 246 vsl 15 128 0 100 0 0 empty empty empty 0 -9 0 10 -262144
-1 -1 25 1;
#X text 314 314 Release;
#X text 128 298 Attack;
#X obj 107 47 r \$0-note;
#X obj 82 742 outlet~;
#X obj 176 202 r a1;
#X obj 283 229 r r1;
#X obj 827 239 osc~;
#X floatatom 827 219 5 0 0 0 - - -, f 5;
#X obj 752 378 osc~;
#X obj 752 313 +~;
#X obj 827 282 *~;
#X floatatom 903 220 5 0 0 0 - - -, f 5;
#X text 758 364 /;
#X text 766 354 Frequency;
#X text 630 380 B) MAIN (CARRIER);
#X text 651 389 OSCILLATOR;
#X floatatom 827 59 5 0 0 0 - - -, f 5;
#X obj 903 191 *;
#X obj 827 99 t b f;
#X obj 903 169 t b f;
#X text 778 178 A) MODULATING;
#X text 798 188 OSCILLATOR;
#X obj 827 77 line;
#X obj 903 148 line;
#X text 867 219 mf;
#X text 947 220 mi;
#X obj 903 238 pack f 30;
#X obj 903 265 line~;
#X text 935 124 index;
#X text 869 60 harmonicity ratio;
#X obj 827 124 *;
#X floatatom 575 81 5 0 0 0 - - -, f 5;
#X floatatom 569 153 5 0 0 0 - - -, f 5;
#X obj 554 184 +~;
#X text 610 152 master frequency of carrier;
#X text 610 15 end of feedback loop;
#X text 616 81 scale feedback;
#X obj 1058 395 *~;
#X floatatom 1073 327 5 0 0 0 - - -, f 5;
#X obj 1073 367 sig~;
#X text 1114 327 feedback amount;
#X obj 554 109 *~ 0;
#X floatatom 902 121 5 0 0 0 - - -, f 5;
#X text 1362 144 xylophone;
#X text 1345 109 Harpischord;
#X obj 805 517 bp~ 220 1;
#X obj 808 465 mtof;
#X obj 815 430 hsl 128 15 0 127 0 0 empty empty empty -2 -8 0 10 -262144
-1 -1 12700 1;
#X floatatom 874 485 5 1 30 0 - - -, f 5;
#X obj 805 565 *~;
#X obj 879 523 - 0.5;
#X text 1314 34 Lead 1;
#X text 1436 177 xylophone 2;
#X text 1436 177 xylophone;
#X text 1336 74 Lead 2;
#X floatatom 1398 -64 5 0 0 0 - - -, f 5;
#X obj 1398 -40 sel 1 2 3 4 5;
#X obj 1063 301 r fb1;
#X obj 765 262 s~ s11;
#X obj 765 407 s~ s21;
#X obj 835 407 r cutoff1;
#X obj 874 458 r res1;
#X obj 827 36 r hr1;
#X obj 903 92 r i1;
#X obj 573 51 r sf1;
#X obj 570 131 r cf1;
#X obj 1398 -87 r \$0-voiceselect;
#X obj 1364 248 t l b;
#X obj 1391 275 f \$0;
#X obj 1364 310 list append;
#X floatatom 1364 383 5 0 0 0 - - -, f 5;
#X floatatom 1387 402 5 0 0 0 - - -, f 5;
#X floatatom 1410 423 5 0 0 0 - - -, f 5;
#X floatatom 1433 442 5 0 0 0 - - -, f 5;
#X floatatom 1457 461 5 0 0 0 - - -, f 5;
#X obj 1364 347 unpack f f f f f f f f f;
#X floatatom 1486 489 5 0 0 0 - - -, f 5;
#X floatatom 1509 510 5 0 0 0 - - -, f 5;
#X floatatom 1532 529 5 0 0 0 - - -, f 5;
#X floatatom 1556 548 5 0 0 0 - - -, f 5;
#X msg 1137 32 100 1 10 0 0 0.2 300 127 30;
#X msg 1150 74 100 2 -2 0 0 0.2 300 127 30;
#X msg 1169 108 100 3 10 0 0 0.2 300 127 10;
#X msg 1196 145 100 1 0 0 0 0.7 787 127 30;
#X msg 1265 176 100 7 1 0 0 0.7 787 127 30;
#X obj 1064 430 s~ fb1;
#X obj 530 16 r~ fb1;
#X obj 331 241 * 40;
#X obj 331 218 r \$0-sustain;
#X obj 253 599 switch~;
#X obj 226 531 t f f;
#X msg 226 673 \$1 5;
#X obj 226 702 line~;
#X obj 364 576 loadbang;
#X msg 271 674 1 5;
#X msg 226 506 1;
#X msg 258 507 0;
#X obj 83 718 *~;
#X obj 269 182 t f b;
#X obj 128 578 snapshot~;
#X obj 128 606 sel 0;
#X obj 107 78 route 4;
#X connect 0 0 1 0;
#X connect 0 0 1 1;
#X connect 0 0 113 0;
#X connect 1 0 2 1;
#X connect 2 0 111 0;
#X connect 3 0 46 0;
#X connect 4 0 3 0;
#X connect 4 1 5 0;
#X connect 5 0 11 0;
#X connect 5 1 112 0;
#X connect 8 0 2 0;
#X connect 9 0 10 1;
#X connect 10 0 0 0;
#X connect 11 0 10 0;
#X connect 12 0 0 0;
#X connect 13 0 12 1;
#X connect 16 0 115 0;
#X connect 18 0 13 0;
#X connect 19 0 9 0;
#X connect 20 0 24 0;
#X connect 20 0 72 0;
#X connect 21 0 20 0;
#X connect 22 0 51 0;
#X connect 22 0 59 0;
#X connect 22 0 73 0;
#X connect 23 0 22 0;
#X connect 24 0 23 1;
#X connect 25 0 40 0;
#X connect 30 0 36 0;
#X connect 31 0 25 0;
#X connect 32 0 44 0;
#X connect 32 1 44 1;
#X connect 33 0 31 0;
#X connect 33 1 31 1;
#X connect 36 0 32 0;
#X connect 37 0 33 0;
#X connect 40 0 41 0;
#X connect 41 0 24 1;
#X connect 44 0 21 0;
#X connect 44 0 31 0;
#X connect 45 0 55 1;
#X connect 46 0 47 1;
#X connect 46 0 44 0;
#X connect 47 0 23 0;
#X connect 51 0 99 0;
#X connect 52 0 53 0;
#X connect 53 0 51 1;
#X connect 55 0 47 0;
#X connect 56 0 37 0;
#X connect 59 0 63 0;
#X connect 60 0 59 1;
#X connect 61 0 60 0;
#X connect 62 0 59 2;
#X connect 62 0 64 0;
#X connect 63 0 8 0;
#X connect 64 0 63 1;
#X connect 69 0 70 0;
#X connect 70 0 94 0;
#X connect 70 1 95 0;
#X connect 70 2 96 0;
#X connect 70 3 97 0;
#X connect 70 4 98 0;
#X connect 71 0 52 0;
#X connect 74 0 61 0;
#X connect 75 0 62 0;
#X connect 76 0 30 0;
#X connect 77 0 56 0;
#X connect 78 0 45 0;
#X connect 79 0 46 0;
#X connect 80 0 69 0;
#X connect 81 0 83 0;
#X connect 81 1 82 0;
#X connect 82 0 83 1;
#X connect 83 0 89 0;
#X connect 85 0 30 0;
#X connect 86 0 56 0;
#X connect 87 0 52 0;
#X connect 88 0 45 0;
#X connect 89 0 84 0;
#X connect 89 0 46 0;
#X connect 89 1 85 0;
#X connect 89 2 86 0;
#X connect 89 3 87 0;
#X connect 89 4 88 0;
#X connect 89 5 90 0;
#X connect 89 6 91 0;
#X connect 89 7 92 0;
#X connect 89 8 93 0;
#X connect 90 0 13 0;
#X connect 91 0 9 0;
#X connect 92 0 61 0;
#X connect 93 0 62 0;
#X connect 94 0 81 0;
#X connect 95 0 81 0;
#X connect 96 0 81 0;
#X connect 97 0 81 0;
#X connect 98 0 81 0;
#X connect 100 0 55 0;
#X connect 101 0 9 0;
#X connect 102 0 101 0;
#X connect 104 0 105 0;
#X connect 104 1 103 0;
#X connect 105 0 106 0;
#X connect 106 0 111 1;
#X connect 107 0 110 0;
#X connect 108 0 106 0;
#X connect 109 0 104 0;
#X connect 110 0 104 0;
#X connect 111 0 17 0;
#X connect 112 0 12 0;
#X connect 112 1 109 0;
#X connect 113 0 114 0;
#X connect 114 0 110 0;
#X connect 115 0 4 0;
#X restore 1241 73 pd voice 4;
#N canvas 5 76 1325 688 voice 0;
#X obj 100 552 line~;
#X obj 99 579 *~;
#X obj 83 660 *~;
#X obj 60 175 mtof;
#X obj 107 133 unpack f f;
#X obj 242 156 sel 0;
#X text 291 124 preserve note-on velocity;
#X text 166 76 Only consider messages with the ID corresponding to
this voice ID (first parameter);
#X obj 805 644 *~ 0.3;
#X obj 284 262 vsl 15 128 0 4000 0 0 empty empty empty 0 -9 0 10 -262144
-1 -1 952 1;
#X obj 239 401 pack f f;
#X msg 239 371 0;
#X obj 128 386 pack f f;
#X obj 174 246 vsl 15 128 0 100 0 0 empty empty empty 0 -9 0 10 -262144
-1 -1 25 1;
#X text 314 314 Release;
#X text 128 298 Attack;
#X obj 107 47 r \$0-note;
#X obj 82 742 outlet~;
#X obj 176 202 r a1;
#X obj 283 229 r r1;
#X obj 827 239 osc~;
#X floatatom 827 219 5 0 0 0 - - -, f 5;
#X obj 752 378 osc~;
#X obj 752 313 +~;
#X obj 827 282 *~;
#X floatatom 903 220 5 0 0 0 - - -, f 5;
#X text 758 364 /;
#X text 766 354 Frequency;
#X text 630 380 B) MAIN (CARRIER);
#X text 651 389 OSCILLATOR;
#X floatatom 827 59 5 0 0 0 - - -, f 5;
#X obj 903 191 *;
#X obj 827 99 t b f;
#X obj 903 169 t b f;
#X text 778 178 A) MODULATING;
#X text 798 188 OSCILLATOR;
#X obj 827 77 line;
#X obj 903 148 line;
#X text 867 219 mf;
#X text 947 220 mi;
#X obj 903 238 pack f 30;
#X obj 903 265 line~;
#X text 935 124 index;
#X text 869 60 harmonicity ratio;
#X obj 827 124 *;
#X floatatom 575 81 5 0 0 0 - - -, f 5;
#X floatatom 569 153 5 0 0 0 - - -, f 5;
#X obj 554 184 +~;
#X text 610 152 master frequency of carrier;
#X text 610 15 end of feedback loop;
#X text 616 81 scale feedback;
#X obj 1058 395 *~;
#X floatatom 1073 327 5 0 0 0 - - -, f 5;
#X obj 1073 367 sig~;
#X text 1114 327 feedback amount;
#X obj 554 109 *~ 0;
#X floatatom 902 121 5 0 0 0 - - -, f 5;
#X text 1362 144 xylophone;
#X text 1345 109 Harpischord;
#X obj 805 517 bp~ 220 1;
#X obj 808 465 mtof;
#X obj 815 430 hsl 128 15 0 127 0 0 empty empty empty -2 -8 0 10 -262144
-1 -1 12700 1;
#X floatatom 874 485 5 1 30 0 - - -, f 5;
#X obj 805 565 *~;
#X obj 879 523 - 0.5;
#X text 1314 34 Lead 1;
#X text 1436 177 xylophone 2;
#X text 1436 177 xylophone;
#X text 1336 74 Lead 2;
#X floatatom 1398 -64 5 0 0 0 - - -, f 5;
#X obj 1398 -40 sel 1 2 3 4 5;
#X obj 1063 301 r fb1;
#X obj 765 262 s~ s11;
#X obj 765 407 s~ s21;
#X obj 835 407 r cutoff1;
#X obj 874 458 r res1;
#X obj 827 36 r hr1;
#X obj 903 92 r i1;
#X obj 573 51 r sf1;
#X obj 570 131 r cf1;
#X obj 1398 -87 r \$0-voiceselect;
#X obj 1364 248 t l b;
#X obj 1391 275 f \$0;
#X obj 1364 310 list append;
#X floatatom 1364 383 5 0 0 0 - - -, f 5;
#X floatatom 1387 402 5 0 0 0 - - -, f 5;
#X floatatom 1410 423 5 0 0 0 - - -, f 5;
#X floatatom 1433 442 5 0 0 0 - - -, f 5;
#X floatatom 1457 461 5 0 0 0 - - -, f 5;
#X obj 1364 347 unpack f f f f f f f f f;
#X floatatom 1486 489 5 0 0 0 - - -, f 5;
#X floatatom 1509 510 5 0 0 0 - - -, f 5;
#X floatatom 1532 529 5 0 0 0 - - -, f 5;
#X floatatom 1556 548 5 0 0 0 - - -, f 5;
#X msg 1137 32 100 1 10 0 0 0.2 300 127 30;
#X msg 1150 74 100 2 -2 0 0 0.2 300 127 30;
#X msg 1169 108 100 3 10 0 0 0.2 300 127 10;
#X msg 1196 145 100 1 0 0 0 0.7 787 127 30;
#X msg 1265 176 100 7 1 0 0 0.7 787 127 30;
#X obj 1064 430 s~ fb1;
#X obj 530 16 r~ fb1;
#X obj 331 241 * 40;
#X obj 331 218 r \$0-sustain;
#X obj 253 599 switch~;
#X obj 226 531 t f f;
#X msg 226 673 \$1 5;
#X obj 226 702 line~;
#X obj 364 576 loadbang;
#X msg 271 674 1 5;
#X msg 226 506 1;
#X msg 258 507 0;
#X obj 83 718 *~;
#X obj 269 182 t f b;
#X obj 128 578 snapshot~;
#X obj 128 606 sel 0;
#X obj 107 78 route 5;
#X connect 0 0 1 0;
#X connect 0 0 1 1;
#X connect 0 0 113 0;
#X connect 1 0 2 1;
#X connect 2 0 111 0;
#X connect 3 0 46 0;
#X connect 4 0 3 0;
#X connect 4 1 5 0;
#X connect 5 0 11 0;
#X connect 5 1 112 0;
#X connect 8 0 2 0;
#X connect 9 0 10 1;
#X connect 10 0 0 0;
#X connect 11 0 10 0;
#X connect 12 0 0 0;
#X connect 13 0 12 1;
#X connect 16 0 115 0;
#X connect 18 0 13 0;
#X connect 19 0 9 0;
#X connect 20 0 24 0;
#X connect 20 0 72 0;
#X connect 21 0 20 0;
#X connect 22 0 51 0;
#X connect 22 0 59 0;
#X connect 22 0 73 0;
#X connect 23 0 22 0;
#X connect 24 0 23 1;
#X connect 25 0 40 0;
#X connect 30 0 36 0;
#X connect 31 0 25 0;
#X connect 32 0 44 0;
#X connect 32 1 44 1;
#X connect 33 0 31 0;
#X connect 33 1 31 1;
#X connect 36 0 32 0;
#X connect 37 0 33 0;
#X connect 40 0 41 0;
#X connect 41 0 24 1;
#X connect 44 0 21 0;
#X connect 44 0 31 0;
#X connect 45 0 55 1;
#X connect 46 0 47 1;
#X connect 46 0 44 0;
#X connect 47 0 23 0;
#X connect 51 0 99 0;
#X connect 52 0 53 0;
#X connect 53 0 51 1;
#X connect 55 0 47 0;
#X connect 56 0 37 0;
#X connect 59 0 63 0;
#X connect 60 0 59 1;
#X connect 61 0 60 0;
#X connect 62 0 59 2;
#X connect 62 0 64 0;
#X connect 63 0 8 0;
#X connect 64 0 63 1;
#X connect 69 0 70 0;
#X connect 70 0 94 0;
#X connect 70 1 95 0;
#X connect 70 2 96 0;
#X connect 70 3 97 0;
#X connect 70 4 98 0;
#X connect 71 0 52 0;
#X connect 74 0 61 0;
#X connect 75 0 62 0;
#X connect 76 0 30 0;
#X connect 77 0 56 0;
#X connect 78 0 45 0;
#X connect 79 0 46 0;
#X connect 80 0 69 0;
#X connect 81 0 83 0;
#X connect 81 1 82 0;
#X connect 82 0 83 1;
#X connect 83 0 89 0;
#X connect 85 0 30 0;
#X connect 86 0 56 0;
#X connect 87 0 52 0;
#X connect 88 0 45 0;
#X connect 89 0 84 0;
#X connect 89 0 46 0;
#X connect 89 1 85 0;
#X connect 89 2 86 0;
#X connect 89 3 87 0;
#X connect 89 4 88 0;
#X connect 89 5 90 0;
#X connect 89 6 91 0;
#X connect 89 7 92 0;
#X connect 89 8 93 0;
#X connect 90 0 13 0;
#X connect 91 0 9 0;
#X connect 92 0 61 0;
#X connect 93 0 62 0;
#X connect 94 0 81 0;
#X connect 95 0 81 0;
#X connect 96 0 81 0;
#X connect 97 0 81 0;
#X connect 98 0 81 0;
#X connect 100 0 55 0;
#X connect 101 0 9 0;
#X connect 102 0 101 0;
#X connect 104 0 105 0;
#X connect 104 1 103 0;
#X connect 105 0 106 0;
#X connect 106 0 111 1;
#X connect 107 0 110 0;
#X connect 108 0 106 0;
#X connect 109 0 104 0;
#X connect 110 0 104 0;
#X connect 111 0 17 0;
#X connect 112 0 12 0;
#X connect 112 1 109 0;
#X connect 113 0 114 0;
#X connect 114 0 110 0;
#X connect 115 0 4 0;
#X restore 1046 103 pd voice 5;
#N canvas 1 76 1325 688 voice 0;
#X obj 100 552 line~;
#X obj 99 579 *~;
#X obj 83 660 *~;
#X obj 60 175 mtof;
#X obj 107 133 unpack f f;
#X obj 242 156 sel 0;
#X text 291 124 preserve note-on velocity;
#X text 166 76 Only consider messages with the ID corresponding to
this voice ID (first parameter);
#X obj 805 644 *~ 0.3;
#X obj 284 262 vsl 15 128 0 4000 0 0 empty empty empty 0 -9 0 10 -262144
-1 -1 952 1;
#X obj 239 401 pack f f;
#X msg 239 371 0;
#X obj 128 386 pack f f;
#X obj 174 246 vsl 15 128 0 100 0 0 empty empty empty 0 -9 0 10 -262144
-1 -1 25 1;
#X text 314 314 Release;
#X text 128 298 Attack;
#X obj 107 47 r \$0-note;
#X obj 82 742 outlet~;
#X obj 176 202 r a1;
#X obj 283 229 r r1;
#X obj 827 239 osc~;
#X floatatom 827 219 5 0 0 0 - - -, f 5;
#X obj 752 378 osc~;
#X obj 752 313 +~;
#X obj 827 282 *~;
#X floatatom 903 220 5 0 0 0 - - -, f 5;
#X text 758 364 /;
#X text 766 354 Frequency;
#X text 630 380 B) MAIN (CARRIER);
#X text 651 389 OSCILLATOR;
#X floatatom 827 59 5 0 0 0 - - -, f 5;
#X obj 903 191 *;
#X obj 827 99 t b f;
#X obj 903 169 t b f;
#X text 778 178 A) MODULATING;
#X text 798 188 OSCILLATOR;
#X obj 827 77 line;
#X obj 903 148 line;
#X text 867 219 mf;
#X text 947 220 mi;
#X obj 903 238 pack f 30;
#X obj 903 265 line~;
#X text 935 124 index;
#X text 869 60 harmonicity ratio;
#X obj 827 124 *;
#X floatatom 575 81 5 0 0 0 - - -, f 5;
#X floatatom 569 153 5 0 0 0 - - -, f 5;
#X obj 554 184 +~;
#X text 610 152 master frequency of carrier;
#X text 610 15 end of feedback loop;
#X text 616 81 scale feedback;
#X obj 1058 395 *~;
#X floatatom 1073 327 5 0 0 0 - - -, f 5;
#X obj 1073 367 sig~;
#X text 1114 327 feedback amount;
#X obj 554 109 *~ 0;
#X floatatom 902 121 5 0 0 0 - - -, f 5;
#X text 1362 144 xylophone;
#X text 1345 109 Harpischord;
#X obj 805 517 bp~ 220 1;
#X obj 808 465 mtof;
#X obj 815 430 hsl 128 15 0 127 0 0 empty empty empty -2 -8 0 10 -262144
-1 -1 12700 1;
#X floatatom 874 485 5 1 30 0 - - -, f 5;
#X obj 805 565 *~;
#X obj 879 523 - 0.5;
#X text 1314 34 Lead 1;
#X text 1436 177 xylophone 2;
#X text 1436 177 xylophone;
#X text 1336 74 Lead 2;
#X floatatom 1398 -64 5 0 0 0 - - -, f 5;
#X obj 1398 -40 sel 1 2 3 4 5;
#X obj 1063 301 r fb1;
#X obj 765 262 s~ s11;
#X obj 765 407 s~ s21;
#X obj 835 407 r cutoff1;
#X obj 874 458 r res1;
#X obj 827 36 r hr1;
#X obj 903 92 r i1;
#X obj 573 51 r sf1;
#X obj 570 131 r cf1;
#X obj 1398 -87 r \$0-voiceselect;
#X obj 1364 248 t l b;
#X obj 1391 275 f \$0;
#X obj 1364 310 list append;
#X floatatom 1364 383 5 0 0 0 - - -, f 5;
#X floatatom 1387 402 5 0 0 0 - - -, f 5;
#X floatatom 1410 423 5 0 0 0 - - -, f 5;
#X floatatom 1433 442 5 0 0 0 - - -, f 5;
#X floatatom 1457 461 5 0 0 0 - - -, f 5;
#X obj 1364 347 unpack f f f f f f f f f;
#X floatatom 1486 489 5 0 0 0 - - -, f 5;
#X floatatom 1509 510 5 0 0 0 - - -, f 5;
#X floatatom 1532 529 5 0 0 0 - - -, f 5;
#X floatatom 1556 548 5 0 0 0 - - -, f 5;
#X msg 1137 32 100 1 10 0 0 0.2 300 127 30;
#X msg 1150 74 100 2 -2 0 0 0.2 300 127 30;
#X msg 1169 108 100 3 10 0 0 0.2 300 127 10;
#X msg 1196 145 100 1 0 0 0 0.7 787 127 30;
#X msg 1265 176 100 7 1 0 0 0.7 787 127 30;
#X obj 1064 430 s~ fb1;
#X obj 530 16 r~ fb1;
#X obj 331 241 * 40;
#X obj 331 218 r \$0-sustain;
#X obj 253 599 switch~;
#X obj 225 545 t f f;
#X msg 226 673 \$1 5;
#X obj 226 702 line~;
#X obj 364 576 loadbang;
#X msg 271 674 1 5;
#X msg 226 506 1;
#X msg 258 507 0;
#X obj 83 718 *~;
#X obj 269 182 t f b;
#X obj 128 578 snapshot~;
#X obj 128 606 sel 0;
#X obj 107 78 route 6;
#X connect 0 0 1 0;
#X connect 0 0 1 1;
#X connect 0 0 113 0;
#X connect 1 0 2 1;
#X connect 2 0 111 0;
#X connect 3 0 46 0;
#X connect 4 0 3 0;
#X connect 4 1 5 0;
#X connect 5 0 11 0;
#X connect 5 1 112 0;
#X connect 8 0 2 0;
#X connect 9 0 10 1;
#X connect 10 0 0 0;
#X connect 11 0 10 0;
#X connect 12 0 0 0;
#X connect 13 0 12 1;
#X connect 16 0 115 0;
#X connect 18 0 13 0;
#X connect 19 0 9 0;
#X connect 20 0 24 0;
#X connect 20 0 72 0;
#X connect 21 0 20 0;
#X connect 22 0 51 0;
#X connect 22 0 59 0;
#X connect 22 0 73 0;
#X connect 23 0 22 0;
#X connect 24 0 23 1;
#X connect 25 0 40 0;
#X connect 30 0 36 0;
#X connect 31 0 25 0;
#X connect 32 0 44 0;
#X connect 32 1 44 1;
#X connect 33 0 31 0;
#X connect 33 1 31 1;
#X connect 36 0 32 0;
#X connect 37 0 33 0;
#X connect 40 0 41 0;
#X connect 41 0 24 1;
#X connect 44 0 21 0;
#X connect 44 0 31 0;
#X connect 45 0 55 1;
#X connect 46 0 47 1;
#X connect 46 0 44 0;
#X connect 47 0 23 0;
#X connect 51 0 99 0;
#X connect 52 0 53 0;
#X connect 53 0 51 1;
#X connect 55 0 47 0;
#X connect 56 0 37 0;
#X connect 59 0 63 0;
#X connect 60 0 59 1;
#X connect 61 0 60 0;
#X connect 62 0 59 2;
#X connect 62 0 64 0;
#X connect 63 0 8 0;
#X connect 64 0 63 1;
#X connect 69 0 70 0;
#X connect 70 0 94 0;
#X connect 70 1 95 0;
#X connect 70 2 96 0;
#X connect 70 3 97 0;
#X connect 70 4 98 0;
#X connect 71 0 52 0;
#X connect 74 0 61 0;
#X connect 75 0 62 0;
#X connect 76 0 30 0;
#X connect 77 0 56 0;
#X connect 78 0 45 0;
#X connect 79 0 46 0;
#X connect 80 0 69 0;
#X connect 81 0 83 0;
#X connect 81 1 82 0;
#X connect 82 0 83 1;
#X connect 83 0 89 0;
#X connect 85 0 30 0;
#X connect 86 0 56 0;
#X connect 87 0 52 0;
#X connect 88 0 45 0;
#X connect 89 0 84 0;
#X connect 89 0 46 0;
#X connect 89 1 85 0;
#X connect 89 2 86 0;
#X connect 89 3 87 0;
#X connect 89 4 88 0;
#X connect 89 5 90 0;
#X connect 89 6 91 0;
#X connect 89 7 92 0;
#X connect 89 8 93 0;
#X connect 90 0 13 0;
#X connect 91 0 9 0;
#X connect 92 0 61 0;
#X connect 93 0 62 0;
#X connect 94 0 81 0;
#X connect 95 0 81 0;
#X connect 96 0 81 0;
#X connect 97 0 81 0;
#X connect 98 0 81 0;
#X connect 100 0 55 0;
#X connect 101 0 9 0;
#X connect 102 0 101 0;
#X connect 104 0 105 0;
#X connect 104 1 103 0;
#X connect 105 0 106 0;
#X connect 106 0 111 1;
#X connect 107 0 110 0;
#X connect 108 0 106 0;
#X connect 109 0 104 0;
#X connect 110 0 104 0;
#X connect 111 0 17 0;
#X connect 112 0 12 0;
#X connect 112 1 109 0;
#X connect 113 0 114 0;
#X connect 114 0 110 0;
#X connect 115 0 4 0;
#X restore 1113 103 pd voice 6;
#N canvas 3 76 1325 688 voice 0;
#X obj 100 552 line~;
#X obj 99 579 *~;
#X obj 83 660 *~;
#X obj 60 175 mtof;
#X obj 107 133 unpack f f;
#X obj 242 156 sel 0;
#X text 291 124 preserve note-on velocity;
#X text 166 76 Only consider messages with the ID corresponding to
this voice ID (first parameter);
#X obj 805 644 *~ 0.3;
#X obj 284 262 vsl 15 128 0 4000 0 0 empty empty empty 0 -9 0 10 -262144
-1 -1 952 1;
#X obj 239 401 pack f f;
#X msg 239 371 0;
#X obj 128 386 pack f f;
#X obj 174 246 vsl 15 128 0 100 0 0 empty empty empty 0 -9 0 10 -262144
-1 -1 25 1;
#X text 314 314 Release;
#X text 128 298 Attack;
#X obj 107 47 r \$0-note;
#X obj 82 742 outlet~;
#X obj 176 202 r a1;
#X obj 283 229 r r1;
#X obj 827 239 osc~;
#X floatatom 827 219 5 0 0 0 - - -, f 5;
#X obj 752 378 osc~;
#X obj 752 313 +~;
#X obj 827 282 *~;
#X floatatom 903 220 5 0 0 0 - - -, f 5;
#X text 758 364 /;
#X text 766 354 Frequency;
#X text 630 380 B) MAIN (CARRIER);
#X text 651 389 OSCILLATOR;
#X floatatom 827 59 5 0 0 0 - - -, f 5;
#X obj 903 191 *;
#X obj 827 99 t b f;
#X obj 903 169 t b f;
#X text 778 178 A) MODULATING;
#X text 798 188 OSCILLATOR;
#X obj 827 77 line;
#X obj 903 148 line;
#X text 867 219 mf;
#X text 947 220 mi;
#X obj 903 238 pack f 30;
#X obj 903 265 line~;
#X text 935 124 index;
#X text 869 60 harmonicity ratio;
#X obj 827 124 *;
#X floatatom 575 81 5 0 0 0 - - -, f 5;
#X floatatom 569 153 5 0 0 0 - - -, f 5;
#X obj 554 184 +~;
#X text 610 152 master frequency of carrier;
#X text 610 15 end of feedback loop;
#X text 616 81 scale feedback;
#X obj 1058 395 *~;
#X floatatom 1073 327 5 0 0 0 - - -, f 5;
#X obj 1073 367 sig~;
#X text 1114 327 feedback amount;
#X obj 554 109 *~ 0;
#X floatatom 902 121 5 0 0 0 - - -, f 5;
#X text 1362 144 xylophone;
#X text 1345 109 Harpischord;
#X obj 805 517 bp~ 220 1;
#X obj 808 465 mtof;
#X obj 815 430 hsl 128 15 0 127 0 0 empty empty empty -2 -8 0 10 -262144
-1 -1 12700 1;
#X floatatom 874 485 5 1 30 0 - - -, f 5;
#X obj 805 565 *~;
#X obj 879 523 - 0.5;
#X text 1314 34 Lead 1;
#X text 1436 177 xylophone 2;
#X text 1436 177 xylophone;
#X text 1336 74 Lead 2;
#X floatatom 1398 -64 5 0 0 0 - - -, f 5;
#X obj 1398 -40 sel 1 2 3 4 5;
#X obj 1063 301 r fb1;
#X obj 765 262 s~ s11;
#X obj 765 407 s~ s21;
#X obj 835 407 r cutoff1;
#X obj 874 458 r res1;
#X obj 827 36 r hr1;
#X obj 903 92 r i1;
#X obj 573 51 r sf1;
#X obj 570 131 r cf1;
#X obj 1398 -87 r \$0-voiceselect;
#X obj 1364 248 t l b;
#X obj 1391 275 f \$0;
#X obj 1364 310 list append;
#X floatatom 1364 383 5 0 0 0 - - -, f 5;
#X floatatom 1387 402 5 0 0 0 - - -, f 5;
#X floatatom 1410 423 5 0 0 0 - - -, f 5;
#X floatatom 1433 442 5 0 0 0 - - -, f 5;
#X floatatom 1457 461 5 0 0 0 - - -, f 5;
#X obj 1364 347 unpack f f f f f f f f f;
#X floatatom 1486 489 5 0 0 0 - - -, f 5;
#X floatatom 1509 510 5 0 0 0 - - -, f 5;
#X floatatom 1532 529 5 0 0 0 - - -, f 5;
#X floatatom 1556 548 5 0 0 0 - - -, f 5;
#X msg 1137 32 100 1 10 0 0 0.2 300 127 30;
#X msg 1150 74 100 2 -2 0 0 0.2 300 127 30;
#X msg 1169 108 100 3 10 0 0 0.2 300 127 10;
#X msg 1196 145 100 1 0 0 0 0.7 787 127 30;
#X msg 1265 176 100 7 1 0 0 0.7 787 127 30;
#X obj 1064 430 s~ fb1;
#X obj 530 16 r~ fb1;
#X obj 331 241 * 40;
#X obj 331 218 r \$0-sustain;
#X obj 253 599 switch~;
#X obj 226 531 t f f;
#X msg 226 673 \$1 5;
#X obj 226 702 line~;
#X obj 364 576 loadbang;
#X msg 271 674 1 5;
#X msg 226 506 1;
#X msg 258 507 0;
#X obj 83 718 *~;
#X obj 269 182 t f b;
#X obj 128 578 snapshot~;
#X obj 128 606 sel 0;
#X obj 107 78 route 7;
#X connect 0 0 1 0;
#X connect 0 0 1 1;
#X connect 0 0 113 0;
#X connect 1 0 2 1;
#X connect 2 0 111 0;
#X connect 3 0 46 0;
#X connect 4 0 3 0;
#X connect 4 1 5 0;
#X connect 5 0 11 0;
#X connect 5 1 112 0;
#X connect 8 0 2 0;
#X connect 9 0 10 1;
#X connect 10 0 0 0;
#X connect 11 0 10 0;
#X connect 12 0 0 0;
#X connect 13 0 12 1;
#X connect 16 0 115 0;
#X connect 18 0 13 0;
#X connect 19 0 9 0;
#X connect 20 0 24 0;
#X connect 20 0 72 0;
#X connect 21 0 20 0;
#X connect 22 0 51 0;
#X connect 22 0 59 0;
#X connect 22 0 73 0;
#X connect 23 0 22 0;
#X connect 24 0 23 1;
#X connect 25 0 40 0;
#X connect 30 0 36 0;
#X connect 31 0 25 0;
#X connect 32 0 44 0;
#X connect 32 1 44 1;
#X connect 33 0 31 0;
#X connect 33 1 31 1;
#X connect 36 0 32 0;
#X connect 37 0 33 0;
#X connect 40 0 41 0;
#X connect 41 0 24 1;
#X connect 44 0 21 0;
#X connect 44 0 31 0;
#X connect 45 0 55 1;
#X connect 46 0 47 1;
#X connect 46 0 44 0;
#X connect 47 0 23 0;
#X connect 51 0 99 0;
#X connect 52 0 53 0;
#X connect 53 0 51 1;
#X connect 55 0 47 0;
#X connect 56 0 37 0;
#X connect 59 0 63 0;
#X connect 60 0 59 1;
#X connect 61 0 60 0;
#X connect 62 0 59 2;
#X connect 62 0 64 0;
#X connect 63 0 8 0;
#X connect 64 0 63 1;
#X connect 69 0 70 0;
#X connect 70 0 94 0;
#X connect 70 1 95 0;
#X connect 70 2 96 0;
#X connect 70 3 97 0;
#X connect 70 4 98 0;
#X connect 71 0 52 0;
#X connect 74 0 61 0;
#X connect 75 0 62 0;
#X connect 76 0 30 0;
#X connect 77 0 56 0;
#X connect 78 0 45 0;
#X connect 79 0 46 0;
#X connect 80 0 69 0;
#X connect 81 0 83 0;
#X connect 81 1 82 0;
#X connect 82 0 83 1;
#X connect 83 0 89 0;
#X connect 85 0 30 0;
#X connect 86 0 56 0;
#X connect 87 0 52 0;
#X connect 88 0 45 0;
#X connect 89 0 84 0;
#X connect 89 0 46 0;
#X connect 89 1 85 0;
#X connect 89 2 86 0;
#X connect 89 3 87 0;
#X connect 89 4 88 0;
#X connect 89 5 90 0;
#X connect 89 6 91 0;
#X connect 89 7 92 0;
#X connect 89 8 93 0;
#X connect 90 0 13 0;
#X connect 91 0 9 0;
#X connect 92 0 61 0;
#X connect 93 0 62 0;
#X connect 94 0 81 0;
#X connect 95 0 81 0;
#X connect 96 0 81 0;
#X connect 97 0 81 0;
#X connect 98 0 81 0;
#X connect 100 0 55 0;
#X connect 101 0 9 0;
#X connect 102 0 101 0;
#X connect 104 0 105 0;
#X connect 104 1 103 0;
#X connect 105 0 106 0;
#X connect 106 0 111 1;
#X connect 107 0 110 0;
#X connect 108 0 106 0;
#X connect 109 0 104 0;
#X connect 110 0 104 0;
#X connect 111 0 17 0;
#X connect 112 0 12 0;
#X connect 112 1 109 0;
#X connect 113 0 114 0;
#X connect 114 0 110 0;
#X connect 115 0 4 0;
#X restore 1181 103 pd voice 7;
#N canvas 3 76 1325 688 voice 0;
#X obj 100 552 line~;
#X obj 99 579 *~;
#X obj 83 660 *~;
#X obj 60 175 mtof;
#X obj 107 133 unpack f f;
#X obj 242 156 sel 0;
#X text 291 124 preserve note-on velocity;
#X text 166 76 Only consider messages with the ID corresponding to
this voice ID (first parameter);
#X obj 805 644 *~ 0.3;
#X obj 284 262 vsl 15 128 0 4000 0 0 empty empty empty 0 -9 0 10 -262144
-1 -1 952 1;
#X obj 239 401 pack f f;
#X msg 239 371 0;
#X obj 128 386 pack f f;
#X obj 174 246 vsl 15 128 0 100 0 0 empty empty empty 0 -9 0 10 -262144
-1 -1 25 1;
#X text 314 314 Release;
#X text 128 298 Attack;
#X obj 107 47 r \$0-note;
#X obj 82 742 outlet~;
#X obj 176 202 r a1;
#X obj 283 229 r r1;
#X obj 827 239 osc~;
#X floatatom 827 219 5 0 0 0 - - -, f 5;
#X obj 752 378 osc~;
#X obj 752 313 +~;
#X obj 827 282 *~;
#X floatatom 903 220 5 0 0 0 - - -, f 5;
#X text 758 364 /;
#X text 766 354 Frequency;
#X text 630 380 B) MAIN (CARRIER);
#X text 651 389 OSCILLATOR;
#X floatatom 827 59 5 0 0 0 - - -, f 5;
#X obj 903 191 *;
#X obj 827 99 t b f;
#X obj 903 169 t b f;
#X text 778 178 A) MODULATING;
#X text 798 188 OSCILLATOR;
#X obj 827 77 line;
#X obj 903 148 line;
#X text 867 219 mf;
#X text 947 220 mi;
#X obj 903 238 pack f 30;
#X obj 903 265 line~;
#X text 935 124 index;
#X text 869 60 harmonicity ratio;
#X obj 827 124 *;
#X floatatom 575 81 5 0 0 0 - - -, f 5;
#X floatatom 569 153 5 0 0 0 - - -, f 5;
#X obj 554 184 +~;
#X text 610 152 master frequency of carrier;
#X text 610 15 end of feedback loop;
#X text 616 81 scale feedback;
#X obj 1058 395 *~;
#X floatatom 1073 327 5 0 0 0 - - -, f 5;
#X obj 1073 367 sig~;
#X text 1114 327 feedback amount;
#X obj 554 109 *~ 0;
#X floatatom 902 121 5 0 0 0 - - -, f 5;
#X text 1362 144 xylophone;
#X text 1345 109 Harpischord;
#X obj 805 517 bp~ 220 1;
#X obj 808 465 mtof;
#X obj 815 430 hsl 128 15 0 127 0 0 empty empty empty -2 -8 0 10 -262144
-1 -1 12700 1;
#X floatatom 874 485 5 1 30 0 - - -, f 5;
#X obj 805 565 *~;
#X obj 879 523 - 0.5;
#X text 1314 34 Lead 1;
#X text 1436 177 xylophone 2;
#X text 1436 177 xylophone;
#X text 1336 74 Lead 2;
#X floatatom 1398 -64 5 0 0 0 - - -, f 5;
#X obj 1398 -40 sel 1 2 3 4 5;
#X obj 1063 301 r fb1;
#X obj 765 262 s~ s11;
#X obj 765 407 s~ s21;
#X obj 835 407 r cutoff1;
#X obj 874 458 r res1;
#X obj 827 36 r hr1;
#X obj 903 92 r i1;
#X obj 573 51 r sf1;
#X obj 570 131 r cf1;
#X obj 1398 -87 r \$0-voiceselect;
#X obj 1364 248 t l b;
#X obj 1391 275 f \$0;
#X obj 1364 310 list append;
#X floatatom 1364 383 5 0 0 0 - - -, f 5;
#X floatatom 1387 402 5 0 0 0 - - -, f 5;
#X floatatom 1410 423 5 0 0 0 - - -, f 5;
#X floatatom 1433 442 5 0 0 0 - - -, f 5;
#X floatatom 1457 461 5 0 0 0 - - -, f 5;
#X obj 1364 347 unpack f f f f f f f f f;
#X floatatom 1486 489 5 0 0 0 - - -, f 5;
#X floatatom 1509 510 5 0 0 0 - - -, f 5;
#X floatatom 1532 529 5 0 0 0 - - -, f 5;
#X floatatom 1556 548 5 0 0 0 - - -, f 5;
#X msg 1137 32 100 1 10 0 0 0.2 300 127 30;
#X msg 1150 74 100 2 -2 0 0 0.2 300 127 30;
#X msg 1169 108 100 3 10 0 0 0.2 300 127 10;
#X msg 1196 145 100 1 0 0 0 0.7 787 127 30;
#X msg 1265 176 100 7 1 0 0 0.7 787 127 30;
#X obj 1064 430 s~ fb1;
#X obj 530 16 r~ fb1;
#X obj 331 241 * 40;
#X obj 331 218 r \$0-sustain;
#X obj 253 599 switch~;
#X obj 226 531 t f f;
#X msg 226 673 \$1 5;
#X obj 226 702 line~;
#X obj 364 576 loadbang;
#X msg 271 674 1 5;
#X msg 226 506 1;
#X msg 258 507 0;
#X obj 83 718 *~;
#X obj 269 182 t f b;
#X obj 128 578 snapshot~;
#X obj 128 606 sel 0;
#X obj 107 78 route 8;
#X connect 0 0 1 0;
#X connect 0 0 1 1;
#X connect 0 0 113 0;
#X connect 1 0 2 1;
#X connect 2 0 111 0;
#X connect 3 0 46 0;
#X connect 4 0 3 0;
#X connect 4 1 5 0;
#X connect 5 0 11 0;
#X connect 5 1 112 0;
#X connect 8 0 2 0;
#X connect 9 0 10 1;
#X connect 10 0 0 0;
#X connect 11 0 10 0;
#X connect 12 0 0 0;
#X connect 13 0 12 1;
#X connect 16 0 115 0;
#X connect 18 0 13 0;
#X connect 19 0 9 0;
#X connect 20 0 24 0;
#X connect 20 0 72 0;
#X connect 21 0 20 0;
#X connect 22 0 51 0;
#X connect 22 0 59 0;
#X connect 22 0 73 0;
#X connect 23 0 22 0;
#X connect 24 0 23 1;
#X connect 25 0 40 0;
#X connect 30 0 36 0;
#X connect 31 0 25 0;
#X connect 32 0 44 0;
#X connect 32 1 44 1;
#X connect 33 0 31 0;
#X connect 33 1 31 1;
#X connect 36 0 32 0;
#X connect 37 0 33 0;
#X connect 40 0 41 0;
#X connect 41 0 24 1;
#X connect 44 0 21 0;
#X connect 44 0 31 0;
#X connect 45 0 55 1;
#X connect 46 0 47 1;
#X connect 46 0 44 0;
#X connect 47 0 23 0;
#X connect 51 0 99 0;
#X connect 52 0 53 0;
#X connect 53 0 51 1;
#X connect 55 0 47 0;
#X connect 56 0 37 0;
#X connect 59 0 63 0;
#X connect 60 0 59 1;
#X connect 61 0 60 0;
#X connect 62 0 59 2;
#X connect 62 0 64 0;
#X connect 63 0 8 0;
#X connect 64 0 63 1;
#X connect 69 0 70 0;
#X connect 70 0 94 0;
#X connect 70 1 95 0;
#X connect 70 2 96 0;
#X connect 70 3 97 0;
#X connect 70 4 98 0;
#X connect 71 0 52 0;
#X connect 74 0 61 0;
#X connect 75 0 62 0;
#X connect 76 0 30 0;
#X connect 77 0 56 0;
#X connect 78 0 45 0;
#X connect 79 0 46 0;
#X connect 80 0 69 0;
#X connect 81 0 83 0;
#X connect 81 1 82 0;
#X connect 82 0 83 1;
#X connect 83 0 89 0;
#X connect 85 0 30 0;
#X connect 86 0 56 0;
#X connect 87 0 52 0;
#X connect 88 0 45 0;
#X connect 89 0 84 0;
#X connect 89 0 46 0;
#X connect 89 1 85 0;
#X connect 89 2 86 0;
#X connect 89 3 87 0;
#X connect 89 4 88 0;
#X connect 89 5 90 0;
#X connect 89 6 91 0;
#X connect 89 7 92 0;
#X connect 89 8 93 0;
#X connect 90 0 13 0;
#X connect 91 0 9 0;
#X connect 92 0 61 0;
#X connect 93 0 62 0;
#X connect 94 0 81 0;
#X connect 95 0 81 0;
#X connect 96 0 81 0;
#X connect 97 0 81 0;
#X connect 98 0 81 0;
#X connect 100 0 55 0;
#X connect 101 0 9 0;
#X connect 102 0 101 0;
#X connect 104 0 105 0;
#X connect 104 1 103 0;
#X connect 105 0 106 0;
#X connect 106 0 111 1;
#X connect 107 0 110 0;
#X connect 108 0 106 0;
#X connect 109 0 104 0;
#X connect 110 0 104 0;
#X connect 111 0 17 0;
#X connect 112 0 12 0;
#X connect 112 1 109 0;
#X connect 113 0 114 0;
#X connect 114 0 110 0;
#X connect 115 0 4 0;
#X restore 1249 103 pd voice 8;
#N canvas 0 152 1366 695 echo 0;
#X obj 365 462 outlet~;
#X obj 362 95 inlet~;
#X obj 213 71 loadbang;
#X floatatom 82 100 5 0 4 0 - #0-reverb_type -, f 5;
#X msg 213 96 0;
#X msg 246 96 1;
#X text 115 100 Type;
#X floatatom 84 127 5 0 100 0 - #0-reverb_length -, f 5;
#X text 117 127 Length;
#X obj 107 236 snapshot~;
#X floatatom 105 286 15 0 0 0 - - -, f 15;
#X obj 111 356 sel 0;
#X obj 106 386 bng 15 50 50 0 empty empty empty 17 7 0 10 -262144 -1
-1;
#X obj 102 314 change;
#X obj 107 189 metro 10;
#X msg 140 378 1;
#X obj 102 471 del;
#X obj 143 408 t f f;
#X msg 254 137 \; pd dsp 1;
#X obj 30 228 * 100;
#N canvas 0 24 1366 694 reverb 0;
#X obj 174 59 inlet~;
#X obj 194 492 outlet~;
#X obj 195 251 freeverb~;
#N canvas 0 24 1366 694 reverb_levels 0;
#X obj 113 27 inlet;
#X obj 99 470 outlet;
#X obj 113 82 select 0 1 2 3 4;
#X msg 151 326 bypass 0 \, roomsize 0.6 \, wet 0.5 \, dry 0.5 \, width
0 \, damping 0.3;
#X msg 133 273 bypass 0 \, roomsize 0.4 \, wet 0.3 \, dry 0.7 \, width
0 \, damping 0.5;
#X msg 175 390 bypass 0 \, roomsize 0.8 \, wet 0.6 \, dry 0.2 \, width
0 \, damping 0.7;
#X msg 192 451 bypass 0 \, roomsize 0.98 \, wet 0.7 \, dry 0.5 \, width
0 \, damping 0.7;
#X msg 100 179 bypass 1;
#X connect 0 0 2 0;
#X connect 2 0 7 0;
#X connect 2 1 4 0;
#X connect 2 2 3 0;
#X connect 2 3 5 0;
#X connect 2 4 6 0;
#X connect 3 0 1 0;
#X connect 4 0 1 0;
#X connect 5 0 1 0;
#X connect 6 0 1 0;
#X connect 7 0 1 0;
#X restore 211 224 pd reverb_levels;
#X obj 195 283 *~ 0.5;
#X obj 195 195 +~ 1e-07;
#X obj 414 6 loadbang;
#X obj 386 276 switch~;
#X msg 359 284 \$1 5;
#X obj 359 313 line~;
#X msg 358 185 0;
#X obj 359 218 t f f;
#X obj 193 453 *~;
#X obj 174 85 spigot~;
#X msg 403 186 1;
#X obj 217 59 inlet;
#X obj 308 177 inlet;
#X obj 323 120 inlet;
#X obj 100 60 inlet;
#X connect 0 0 13 0;
#X connect 2 0 4 0;
#X connect 2 1 4 0;
#X connect 3 0 2 0;
#X connect 4 0 12 0;
#X connect 5 0 2 0;
#X connect 6 0 10 0;
#X connect 8 0 9 0;
#X connect 9 0 12 1;
#X connect 10 0 11 0;
#X connect 11 0 8 0;
#X connect 11 1 7 0;
#X connect 12 0 1 0;
#X connect 13 1 5 0;
#X connect 14 0 11 0;
#X connect 15 0 13 1;
#X connect 16 0 11 0;
#X connect 17 0 10 0;
#X connect 18 0 3 0;
#X restore 365 373 pd reverb;
#X obj 213 194 s \$0-reverb_send;
#X obj 102 511 s \$0-master_switch_off;
#X floatatom 21 301 5 0 0 0 - - -, f 5;
#X floatatom 35 201 5 0 0 0 - - -, f 5;
#X obj 21 174 * 25;
#X obj 14 132 + 1;
#X connect 1 0 9 0;
#X connect 1 0 20 1;
#X connect 2 0 4 0;
#X connect 2 0 5 0;
#X connect 2 0 18 0;
#X connect 3 0 20 0;
#X connect 4 0 21 0;
#X connect 5 0 14 0;
#X connect 7 0 26 0;
#X connect 9 0 10 0;
#X connect 10 0 13 0;
#X connect 11 0 12 0;
#X connect 11 1 15 0;
#X connect 12 0 16 0;
#X connect 13 0 11 0;
#X connect 14 0 9 0;
#X connect 15 0 17 0;
#X connect 16 0 20 4;
#X connect 16 0 22 0;
#X connect 17 0 20 2;
#X connect 17 1 20 3;
#X connect 19 0 16 1;
#X connect 19 0 23 0;
#X connect 20 0 0 0;
#X connect 24 0 19 0;
#X connect 25 0 24 0;
#X connect 26 0 25 0;
#X restore 1038 245 pd echo;
#X obj 1385 -51 loadbang;
#X obj 1357 219 switch~;
#X msg 1330 227 \$1 5;
#X obj 1330 256 line~;
#X msg 1329 128 0;
#X obj 1330 161 t f f;
#X msg 1374 129 1;
#X obj 1037 277 *~;
#X obj 787 -232 t l b;
#X obj 1332 80 r \$0-master_switch_off;
#X obj 1139 -176 s \$0-dsp_on;
#X obj 891 191 line~;
#X obj 888 159 pack 0 50;
#X msg 850 97 0;
#X obj 850 74 moses 0.011;
#X obj 914 99 t f b;
#X obj 850 125 t b f;
#X obj 941 131 s \$0-dsp_on;
#X obj 772 175 s \$0-dsp_off;
#X connect 0 0 69 0;
#X connect 2 0 4 0;
#X connect 2 0 32 0;
#X connect 3 0 2 0;
#X connect 3 1 2 1;
#X connect 3 2 2 2;
#X connect 7 0 14 1;
#X connect 7 0 12 0;
#X connect 7 0 50 0;
#X connect 7 1 21 0;
#X connect 7 1 20 1;
#X connect 7 1 18 0;
#X connect 7 2 25 0;
#X connect 7 2 28 0;
#X connect 7 2 27 1;
#X connect 8 0 11 0;
#X connect 9 0 8 1;
#X connect 10 0 8 1;
#X connect 10 0 30 0;
#X connect 11 0 29 0;
#X connect 12 0 8 0;
#X connect 12 1 9 0;
#X connect 13 0 8 0;
#X connect 13 1 10 0;
#X connect 14 0 13 0;
#X connect 15 0 11 0;
#X connect 16 0 15 1;
#X connect 17 0 15 1;
#X connect 17 0 30 0;
#X connect 18 0 15 0;
#X connect 18 1 16 0;
#X connect 19 0 15 0;
#X connect 19 1 17 0;
#X connect 20 0 19 0;
#X connect 21 0 20 0;
#X connect 22 0 11 0;
#X connect 23 0 22 1;
#X connect 24 0 22 1;
#X connect 24 0 30 0;
#X connect 25 0 22 0;
#X connect 25 1 23 0;
#X connect 26 0 22 0;
#X connect 26 1 24 0;
#X connect 27 0 26 0;
#X connect 28 0 27 0;
#X connect 29 0 3 0;
#X connect 29 1 3 1;
#X connect 30 0 29 0;
#X connect 31 0 37 0;
#X connect 35 0 75 0;
#X connect 37 0 60 0;
#X connect 38 0 39 0;
#X connect 40 0 41 0;
#X connect 41 0 44 0;
#X connect 41 1 42 0;
#X connect 42 0 43 0;
#X connect 44 0 45 0;
#X connect 46 0 47 0;
#X connect 49 0 48 0;
#X connect 50 0 14 0;
#X connect 51 0 50 1;
#X connect 51 0 21 1;
#X connect 51 0 28 1;
#X connect 52 0 51 0;
#X connect 53 0 37 0;
#X connect 54 0 37 0;
#X connect 55 0 37 0;
#X connect 56 0 37 0;
#X connect 57 0 37 0;
#X connect 58 0 37 0;
#X connect 59 0 37 0;
#X connect 60 0 68 0;
#X connect 61 0 65 0;
#X connect 63 0 64 0;
#X connect 64 0 68 1;
#X connect 65 0 66 0;
#X connect 66 0 63 0;
#X connect 66 1 62 0;
#X connect 67 0 66 0;
#X connect 68 0 33 0;
#X connect 68 0 33 1;
#X connect 68 0 36 0;
#X connect 69 0 7 0;
#X connect 69 1 67 0;
#X connect 69 1 71 0;
#X connect 70 0 65 0;
#X connect 72 0 37 1;
#X connect 73 0 72 0;
#X connect 74 0 77 0;
#X connect 75 0 74 0;
#X connect 75 1 76 0;
#X connect 76 0 73 0;
#X connect 76 1 78 0;
#X connect 76 1 67 0;
#X connect 77 0 79 0;
#X connect 77 0 65 0;
#X connect 77 1 73 0;
#X restore 1064 -55 pd voices;
#X obj 1063 -85 inlet;
#X obj 1066 -3 outlet~;
#X obj 1209 -65 r \$0-dsp_on;
#X obj 1066 -29 *~;
#X obj 1268 -18 loadbang;
#X obj 1358 -80 switch~;
#X msg 1331 -72 \$1 5;
#X obj 1331 -43 line~;
#X msg 1163 -57 0;
#X obj 1167 -26 t f f;
#X msg 1210 -15 1;
#X obj 1165 -85 r \$0-master_switch_off;
#X obj 1209 -41 t b;
#X floatatom 997 -53 5 0 0 0 - - -, f 5;
#X obj -1 9 hsl 200 23 0.01 1 1 0 \$0-mastervolume \$0-mastervolume_r
Off\ \ \ \ \ \ \ \ \ \ \ \ \ \ \ \ \ \ \ \ \ Half\ as\ loud\ \ \ \ \ \ \ \ \ \ \ \ \ \ \ \ \ Loud
7 13 1 9 -245500 -13381 -1 16905 0;
#X text -2 -13 Volume;
#X obj 0 56 hsl 200 23 1 100 1 0 \$0-sustain \$0-sustain_send Off\ \ \ \ \ \ \ \ \ \ \ \ \ \ \ \ \ \ \ \ \ \ \ \ \ \ Half\ \ \ \ \ \ \ \ \ \ \ \ \ \ \ \ \ \ \ \ \ \ \ \ \ Full
7 13 1 9 -245500 -13381 -1 0 0;
#X text -1 34 Note Sustain;
#X obj 83 102 hradio 30 1 0 4 \$0-reverb_length \$0-reverb_length_r
Reverb\ Length -80 10 0 10 -262144 -1 -1 0;
#X text 85 139 1/4;
#X text 117 139 2/4;
#X text 147 139 3/4;
#X text 178 139 4/4;
#X connect 11 0 15 0;
#X connect 12 0 11 0;
#X connect 12 0 25 0;
#X connect 14 0 24 0;
#X connect 15 0 13 0;
#X connect 16 0 20 0;
#X connect 18 0 19 0;
#X connect 19 0 15 1;
#X connect 20 0 21 0;
#X connect 21 0 18 0;
#X connect 21 1 17 0;
#X connect 22 0 21 0;
#X connect 23 0 20 0;
#X connect 24 0 22 0;
#X restore 1636 489 pd \$0-voicesout1;
#X obj 2074 424 makefilename pd-%d-voicesout1;
#X obj 2267 423 makefilename pd-%d-voicesout1;
#X connect 0 0 7 0;
#X connect 1 0 0 0;
#X connect 2 0 1 0;
#X connect 3 0 2 0;
#X connect 3 0 26 0;
#X connect 3 0 31 0;
#X connect 7 0 11 0;
#X connect 7 1 12 0;
#X connect 8 0 9 0;
#X connect 8 0 20 0;
#X connect 8 0 30 0;
#X connect 9 0 11 1;
#X connect 9 0 12 1;
#X connect 11 0 35 0;
#X connect 12 0 36 0;
#X connect 14 0 4 0;
#X connect 15 0 34 0;
#X connect 15 0 27 0;
#X connect 16 0 24 0;
#X connect 18 0 19 0;
#X connect 19 0 14 1;
#X connect 20 0 21 0;
#X connect 21 0 18 0;
#X connect 21 1 17 0;
#X connect 22 0 21 0;
#X connect 23 0 20 0;
#X connect 24 0 22 0;
#X connect 26 0 0 0;
#X connect 30 1 29 0;
#X connect 30 2 28 0;
#X connect 31 0 32 0;
#X connect 34 0 14 0;
#X connect 35 0 10 0;
#X connect 36 0 13 0;
#X coords 0 -1 1 1 265 114 2 1657 257;
