#N canvas 0 25 1366 694 10;
#X obj 1789 306 image @pd_extra/ggee/empty_image.png 0;
#X msg 1446 70 click \$1;
#X msg 1443 38 1;
#X obj 1442 7 loadbang;
#X obj 1568 77 inlet;
#N canvas 1 76 1351 688 coll 0;
#X obj 262 -4 openpanel;
#X obj 262 -27 bng 15 250 50 0 empty empty empty 17 7 0 10 -262144
-1 -1;
#X msg 262 24 read \$1;
#X obj 262 -54 r \$0-codeimport;
#X msg 165 -28 open;
#X obj 164 -54 r \$0-codeopen;
#X msg 86 -29 clear;
#X obj 86 -54 r \$0-clear;
#X obj -12 -19 s \$0-channel1;
#X obj -11 2 s \$0-channel2;
#X obj -11 24 s \$0-channel3;
#X msg -11 -37 0;
#X obj 263 78 zl group 2;
#X obj 384 -54 inlet;
#X msg 122 69 1;
#X obj 263 49 coll \$0-xboxpad;
#C restore;
#X obj 263 107 route y b a x lb rb back start up down left right;
#X obj 263 134 s \$0-codey;
#X obj 295 161 s \$0-codeb;
#X obj 329 185 s \$0-codea;
#X obj 362 219 s \$0-codex;
#X obj 396 250 s \$0-codelb;
#X obj 429 286 s \$0-coderb;
#X obj 462 330 s \$0-codeback;
#X obj 493 365 s \$0-codestart;
#X obj 529 404 s \$0-codeup;
#X obj 562 435 s \$0-codedown;
#X obj 595 469 s \$0-codeleft;
#X obj 627 515 s \$0-coderight;
#X connect 0 0 2 0;
#X connect 1 0 0 0;
#X connect 2 0 15 0;
#X connect 3 0 1 0;
#X connect 4 0 15 0;
#X connect 5 0 4 0;
#X connect 6 0 15 0;
#X connect 7 0 6 0;
#X connect 7 0 11 0;
#X connect 11 0 8 0;
#X connect 11 0 9 0;
#X connect 11 0 10 0;
#X connect 12 0 16 0;
#X connect 13 0 15 0;
#X connect 14 0 15 0;
#X connect 15 0 12 0;
#X connect 16 0 17 0;
#X connect 16 1 18 0;
#X connect 16 2 19 0;
#X connect 16 3 20 0;
#X connect 16 4 21 0;
#X connect 16 5 22 0;
#X connect 16 6 23 0;
#X connect 16 7 24 0;
#X connect 16 8 25 0;
#X connect 16 9 26 0;
#X connect 16 10 27 0;
#X connect 16 11 28 0;
#X restore 1568 101 pd coll xboxpad info;
#X obj 1640 578 outlet~;
#X text 1659 351 Audio Output;
#X floatatom 1797 352 3 1 30 0 - #0-fpsloadbang #0-fps, f 3;
#X text 1821 352 FPS;
#X floatatom 1737 352 3 1 100 0 - #0-sensloadbang #0-sens, f 3;
#N canvas 0 24 1366 696 statesave 0;
#X obj 87 1 sssad \$1/slider1;
#X obj 86 84 sssad \$1/slider2;
#X obj 90 179 sssad \$1/slider3;
#X obj 91 259 sssad \$1/slider4;
#X obj 180 -26 r \$0-mastervolume;
#X obj 88 32 s \$0-mastervolume_r;
#X obj 86 117 s \$0-mastervolume_two_r;
#X obj 179 61 r \$0-mastervolume_two;
#X obj 185 150 r \$0-mastervolume_three;
#X obj 89 207 s \$0-mastervolume_three_r;
#X obj 184 233 r \$0-mastervolume_four;
#X obj 92 289 s \$0-mastervolume_four_r;
#X obj 83 358 sssad \$1/device;
#X obj 170 326 r \$0-deviceselect;
#X obj 83 384 s \$0-devicestatesave;
#X obj 157 424 r \$0-fps;
#X obj 88 449 sssad \$1/fps;
#X obj 88 475 s \$0-fpsloadbang;
#X obj 67 533 sssad \$1/Sensitivity;
#X obj 184 505 r \$0-sens;
#X obj 67 559 s \$0-sensloadbang;
#X connect 0 0 5 0;
#X connect 1 0 6 0;
#X connect 2 0 9 0;
#X connect 3 0 11 0;
#X connect 4 0 0 1;
#X connect 7 0 1 1;
#X connect 8 0 2 1;
#X connect 10 0 3 1;
#X connect 12 0 14 0;
#X connect 13 0 12 1;
#X connect 15 0 16 1;
#X connect 16 0 17 0;
#X connect 18 0 20 0;
#X connect 19 0 18 1;
#X restore 1244 482 pd statesave;
#N canvas 292 112 262 203 \$0-webcam1 0;
#X obj 0 -127 cnv 15 255 195 empty empty empty 20 12 0 14 -233017 -66577
0;
#X obj 44 -111 hradio 16 1 0 10 \$0-deviceselect \$0-devicestatesave
empty 0 -8 0 10 -262144 -1 -1 0;
#X obj 20 34 bng 10 250 50 0 \$0-loadsample empty empty 17 7 0 10 -4032
-1 -1;
#X text 30 32 Load Sample;
#X text 102 33 Vol;
#X obj 20 21 bng 10 250 50 0 \$0-trigger_one \$0-send_one empty 17
7 0 10 -262144 -1 -1;
#X text 30 18 Trigger;
#X obj 20 7 bng 10 250 50 0 \$0-background_one empty empty 17 7 0 10
-260097 -1 -1;
#X text 30 4 Background;
#X obj 20 -42 bng 10 250 50 0 \$0-loadsample_two empty empty 17 7 0
10 -4032 -1 -1;
#X text 30 -44 Load Sample;
#X obj 105 -90 vsl 15 45 0.01 1.3 1 0 \$0-mastervolume_two \$0-mastervolume_two_r
empty 0 -8 0 8 -257985 -1 -1 0 0;
#X text 102 -43 Vol;
#X obj 20 -55 bng 10 250 50 0 \$0-trigger_two \$0-send_two empty 17
7 0 10 -262144 -1 -1;
#X text 30 -58 Trigger;
#X obj 20 -69 bng 10 250 50 0 \$0-background_two empty empty 17 7 0
10 -260097 -1 -1;
#X text 30 -72 Background;
#X text 18 -9 SQUARE 1;
#X text 18 -84 SQUARE 2;
#X obj 131 -41 bng 10 250 50 0 \$0-loadsample_three empty empty 17
7 0 10 -4032 -1 -1;
#X text 141 -43 Load Sample;
#X obj 216 -89 vsl 15 45 0.01 1.3 1 0 \$0-mastervolume_three \$0-mastervolume_three_r
empty 0 -8 0 8 -257985 -1 -1 0 0;
#X text 213 -42 Vol;
#X obj 131 -54 bng 10 250 50 0 \$0-trigger_three \$0-send_three empty
17 7 0 10 -262144 -1 -1;
#X text 141 -57 Trigger;
#X obj 131 -68 bng 10 250 50 0 \$0-background_three empty empty 17
7 0 10 -260097 -1 -1;
#X text 141 -71 Background;
#X obj 130 34 bng 10 250 50 0 \$0-loadsample_four empty empty 17 7
0 10 -4032 -1 -1;
#X text 140 32 Load Sample;
#X obj 215 -15 vsl 15 45 0.01 1.3 1 0 \$0-mastervolume_four \$0-mastervolume_four_r
empty 0 -8 0 8 -257985 -1 -1 0 0;
#X text 212 33 Vol;
#X obj 130 21 bng 10 250 50 0 \$0-trigger_four \$0-send_four empty
17 7 0 10 -262144 -1 -1;
#X text 140 18 Trigger;
#X obj 130 7 bng 10 250 50 0 \$0-background_four empty empty 17 7 0
10 -260097 -1 -1;
#X text 140 4 Background;
#X text 129 -84 SQUARE 3;
#X text 128 -8 SQUARE 4;
#X text 3 -112 Device;
#X obj 206 -108 bng 10 250 50 0 \$0-gem empty empty 17 7 0 10 -260097
-1 -1;
#X text 216 -111 Webcam;
#X obj 716 -128 inlet;
#X obj 105 -15 vsl 15 45 0.01 1.3 1 0 \$0-mastervolume \$0-mastervolume_r
empty 0 -8 0 8 -257985 -1 -1 0 0;
#N canvas 0 24 1366 695 engine 0;
#X msg 150 24 label \$1;
#X obj 150 2 makefilename %d;
#X obj 50 -122 int;
#X obj 150 47 send \$0-open-canvas;
#X msg 120 -60 device \$1;
#X obj 50 -100 t b f;
#X obj 120 -38 t a a;
#X obj 120 68 list prepend set;
#X obj 120 90 list trim;
#X obj 150 -19 route device;
#X obj 120 -114 loadbang;
#X msg 120 -92 0;
#X msg 50 118 device 0;
#X obj 50 -160 r \$0-deviceselect;
#X msg 294 -48 \; pd dsp 1 \;;
#X msg 395 -52 \; pd dsp 0 \;;
#X obj 254 -80 t b b;
#X obj 49 178 outlet~;
#X obj 138 178 outlet;
#N canvas 1 76 1351 688 webcamengine 0;
#X obj 1131 252 pix_flip;
#X msg 1047 230 horizontal;
#X msg 896 124 dimen 800 600;
#X obj 951 269 gemwin;
#X msg 937 219 create;
#X msg 994 219 destroy;
#X obj 1130 -262 gemhead 50;
#X obj 1130 -38 pix_video;
#X obj 1131 196 pix_rgba;
#X obj 1017 329 pix_separator;
#X obj 1017 375 pix_texture;
#X obj 1017 416 rectangle 5.33 4;
#X obj 1185 327 pix_separator;
#X obj 863 219 tgl 15 0 empty empty empty 17 7 0 10 -262144 -1 -1 1
1;
#X obj 787 1 pix_multiblob;
#X obj 923 -146 loadbang;
#X obj 1585 157 tgl 15 0 empty empty empty 17 7 0 10 -262144 -1 -1
1 1;
#N canvas 0 76 1366 692 ColourDistance 0;
#X obj 263 133 inlet;
#X obj 454 136 inlet;
#X obj 263 191 unpack f f f;
#X obj 264 221 expr sqrt(($f1-$f4)*($f1-$f4) + ($f2-$f5)*($f2-$f5)
+ ($f3-$f6)*($f3-$f6));
#X obj 264 286 outlet;
#X obj 454 186 unpack f f f;
#X connect 0 0 2 0;
#X connect 1 0 5 0;
#X connect 2 0 3 0;
#X connect 2 1 3 1;
#X connect 2 2 3 2;
#X connect 3 0 4 0;
#X connect 5 0 3 3;
#X connect 5 1 3 4;
#X connect 5 2 3 5;
#X restore 671 0 pd ColourDistance;
#N canvas 0 170 499 324 hotspot_one 0;
#N canvas 1 76 1351 688 ColourDistance 0;
#X obj 263 133 inlet;
#X obj 454 136 inlet;
#X obj 263 191 unpack f f f;
#X obj 264 221 expr sqrt(($f1-$f4)*($f1-$f4) + ($f2-$f5)*($f2-$f5)
+ ($f3-$f6)*($f3-$f6));
#X obj 264 286 outlet;
#X obj 454 186 unpack f f f;
#X connect 0 0 2 0;
#X connect 1 0 5 0;
#X connect 2 0 3 0;
#X connect 2 1 3 1;
#X connect 2 2 3 2;
#X connect 3 0 4 0;
#X connect 5 0 3 3;
#X connect 5 1 3 4;
#X connect 5 2 3 5;
#X restore 611 386 pd ColourDistance;
#X obj 545 116 inlet;
#X obj 627 116 inlet;
#X obj 704 116 inlet;
#X obj 784 116 inlet;
#X obj 874 118 inlet;
#X text 544 88 Clock;
#X text 627 88 Video;
#X text 711 86 X;
#X text 789 87 Y;
#X text 870 87 Store Colour;
#X obj 435 145 gemhead 55;
#X obj 371 317 loadbang;
#X msg 371 355 draw line;
#X obj 435 354 translateXYZ;
#X obj 458 256 * 10.66;
#X obj 458 298 - 5.33;
#X obj 515 257 * 8;
#X obj 515 300 - 4;
#X obj 612 252 pix_data;
#X obj 634 290 t a a;
#X obj 661 334 spigot;
#X obj 611 430 > 0.3;
#X obj 611 468 change;
#X obj 611 505 outlet;
#X obj 704 143 t f f;
#X obj 784 141 t f f;
#X obj 435 394 square 0.4;
#X obj 201 318 loadbang;
#X obj 265 355 translateXYZ;
#X obj 288 257 * 10.66;
#X obj 288 299 - 5.33;
#X obj 345 258 * 8;
#X obj 345 301 - 4;
#X obj 265 421 text2d;
#X msg 298 393 30;
#X msg 201 356 text 1;
#X msg 345 232 0.503;
#X msg 288 231 0.45;
#X connect 0 0 22 0;
#X connect 1 0 19 0;
#X connect 2 0 19 1;
#X connect 3 0 25 0;
#X connect 4 0 26 0;
#X connect 5 0 21 1;
#X connect 11 0 14 0;
#X connect 11 0 29 0;
#X connect 12 0 13 0;
#X connect 13 0 27 0;
#X connect 14 0 27 0;
#X connect 15 0 16 0;
#X connect 16 0 14 1;
#X connect 17 0 18 0;
#X connect 18 0 14 2;
#X connect 19 1 20 0;
#X connect 20 0 0 0;
#X connect 20 1 21 0;
#X connect 21 0 0 1;
#X connect 22 0 23 0;
#X connect 23 0 24 0;
#X connect 25 0 15 0;
#X connect 25 1 19 2;
#X connect 26 0 17 0;
#X connect 26 1 19 3;
#X connect 28 0 36 0;
#X connect 28 0 35 0;
#X connect 28 0 38 0;
#X connect 28 0 37 0;
#X connect 29 0 34 0;
#X connect 30 0 31 0;
#X connect 31 0 29 1;
#X connect 32 0 33 0;
#X connect 33 0 29 2;
#X connect 35 0 34 1;
#X connect 36 0 34 0;
#X connect 37 0 32 0;
#X connect 38 0 30 0;
#X restore 1165 577 pd hotspot_one;
#X obj 1165 610 sel 1;
#X obj 1466 325 pix_separator;
#X obj 1446 599 sel 1;
#X obj 923 -117 t b b b b;
#X obj 1181 2 t a a;
#X obj 1181 23 print info;
#X obj 1218 2 s \$0-info;
#X msg 1219 -203 driver dv;
#X obj 1163 -139 t a a;
#X obj 1190 -107 print videoctl;
#X obj 1224 -169 tgl 15 0 empty empty empty 17 7 0 10 -262144 -1 -1
0 1;
#X msg 1242 -170 driver \$1;
#X obj 1234 -141 r \$0-ctl;
#X obj 1203 -233 inlet;
#X obj 1165 641 s \$0-send_one;
#X msg 1287 542 1;
#X msg 1259 542 0;
#X obj 1259 521 del 500;
#X obj 1259 474 r \$0-background_one;
#X obj 1259 499 t b b;
#X msg 1259 450 0.085;
#X msg 1302 449 0.133;
#X msg 1609 444 0.889;
#X msg 1549 443 0.083;
#N canvas 1 76 1351 688 hotspot_two 0;
#N canvas 1 76 1351 688 ColourDistance 0;
#X obj 263 133 inlet;
#X obj 454 136 inlet;
#X obj 263 191 unpack f f f;
#X obj 264 221 expr sqrt(($f1-$f4)*($f1-$f4) + ($f2-$f5)*($f2-$f5)
+ ($f3-$f6)*($f3-$f6));
#X obj 264 286 outlet;
#X obj 454 186 unpack f f f;
#X connect 0 0 2 0;
#X connect 1 0 5 0;
#X connect 2 0 3 0;
#X connect 2 1 3 1;
#X connect 2 2 3 2;
#X connect 3 0 4 0;
#X connect 5 0 3 3;
#X connect 5 1 3 4;
#X connect 5 2 3 5;
#X restore 611 386 pd ColourDistance;
#X obj 545 116 inlet;
#X obj 627 116 inlet;
#X obj 704 116 inlet;
#X obj 784 116 inlet;
#X obj 874 118 inlet;
#X text 544 88 Clock;
#X text 627 88 Video;
#X text 711 86 X;
#X text 789 87 Y;
#X text 870 87 Store Colour;
#X obj 435 145 gemhead 55;
#X obj 371 317 loadbang;
#X msg 371 355 draw line;
#X obj 435 354 translateXYZ;
#X obj 458 256 * 10.66;
#X obj 458 298 - 5.33;
#X obj 515 257 * 8;
#X obj 515 300 - 4;
#X obj 612 252 pix_data;
#X obj 634 290 t a a;
#X obj 661 334 spigot;
#X obj 611 430 > 0.3;
#X obj 611 468 change;
#X obj 611 505 outlet;
#X obj 704 143 t f f;
#X obj 784 141 t f f;
#X obj 435 393 square 0.4;
#X obj 201 318 loadbang;
#X obj 265 355 translateXYZ;
#X obj 288 257 * 10.66;
#X obj 288 299 - 5.33;
#X obj 345 258 * 8;
#X obj 345 301 - 4;
#X obj 265 421 text2d;
#X msg 298 393 30;
#X msg 288 231 0.448;
#X msg 345 232 0.503;
#X msg 201 356 text 2;
#X connect 0 0 22 0;
#X connect 1 0 19 0;
#X connect 2 0 19 1;
#X connect 3 0 25 0;
#X connect 4 0 26 0;
#X connect 5 0 21 1;
#X connect 11 0 14 0;
#X connect 11 0 29 0;
#X connect 12 0 13 0;
#X connect 13 0 27 0;
#X connect 14 0 27 0;
#X connect 15 0 16 0;
#X connect 16 0 14 1;
#X connect 17 0 18 0;
#X connect 18 0 14 2;
#X connect 19 1 20 0;
#X connect 20 0 0 0;
#X connect 20 1 21 0;
#X connect 21 0 0 1;
#X connect 22 0 23 0;
#X connect 23 0 24 0;
#X connect 25 0 15 0;
#X connect 25 1 19 2;
#X connect 26 0 17 0;
#X connect 26 1 19 3;
#X connect 28 0 38 0;
#X connect 28 0 35 0;
#X connect 28 0 36 0;
#X connect 28 0 37 0;
#X connect 29 0 34 0;
#X connect 30 0 31 0;
#X connect 31 0 29 1;
#X connect 32 0 33 0;
#X connect 33 0 29 2;
#X connect 35 0 34 1;
#X connect 36 0 30 0;
#X connect 37 0 32 0;
#X connect 38 0 34 0;
#X restore 1446 566 pd hotspot_two;
#X obj 1446 630 s \$0-send_two;
#X obj 1584 214 s \$0-m;
#X obj 1142 546 r \$0-m;
#X obj 1411 535 r \$0-m;
#X msg 1576 533 1;
#X msg 1548 533 0;
#X obj 1548 512 del 500;
#X obj 1548 490 t b b;
#X obj 1548 465 r \$0-background_two;
#X obj 1172 825 sel 1;
#X msg 1294 757 1;
#X msg 1266 757 0;
#X obj 1266 736 del 500;
#X obj 1266 714 t b b;
#X obj 1149 761 r \$0-m;
#X obj 1172 856 s \$0-send_three;
#N canvas 314 80 819 688 hotspot_three 0;
#N canvas 1 76 1351 688 ColourDistance 0;
#X obj 263 133 inlet;
#X obj 454 136 inlet;
#X obj 263 191 unpack f f f;
#X obj 264 221 expr sqrt(($f1-$f4)*($f1-$f4) + ($f2-$f5)*($f2-$f5)
+ ($f3-$f6)*($f3-$f6));
#X obj 264 286 outlet;
#X obj 454 186 unpack f f f;
#X connect 0 0 2 0;
#X connect 1 0 5 0;
#X connect 2 0 3 0;
#X connect 2 1 3 1;
#X connect 2 2 3 2;
#X connect 3 0 4 0;
#X connect 5 0 3 3;
#X connect 5 1 3 4;
#X connect 5 2 3 5;
#X restore 611 386 pd ColourDistance;
#X obj 545 116 inlet;
#X obj 627 116 inlet;
#X obj 704 116 inlet;
#X obj 784 116 inlet;
#X obj 874 118 inlet;
#X text 544 88 Clock;
#X text 627 88 Video;
#X text 711 86 X;
#X text 789 87 Y;
#X text 870 87 Store Colour;
#X obj 435 145 gemhead 55;
#X obj 371 317 loadbang;
#X msg 371 355 draw line;
#X obj 435 354 translateXYZ;
#X obj 458 256 * 10.66;
#X obj 458 298 - 5.33;
#X obj 515 257 * 8;
#X obj 515 300 - 4;
#X obj 612 252 pix_data;
#X obj 634 290 t a a;
#X obj 661 334 spigot;
#X obj 611 430 > 0.3;
#X obj 611 468 change;
#X obj 611 505 outlet;
#X obj 704 143 t f f;
#X obj 784 141 t f f;
#X obj 435 394 square 0.4;
#X obj 201 318 loadbang;
#X obj 265 355 translateXYZ;
#X obj 288 257 * 10.66;
#X obj 288 299 - 5.33;
#X obj 345 258 * 8;
#X obj 345 301 - 4;
#X obj 265 421 text2d;
#X msg 201 356 text 3;
#X msg 298 393 30;
#X msg 288 231 0.448;
#X msg 345 232 0.503;
#X connect 0 0 22 0;
#X connect 1 0 19 0;
#X connect 2 0 19 1;
#X connect 3 0 25 0;
#X connect 4 0 26 0;
#X connect 5 0 21 1;
#X connect 11 0 14 0;
#X connect 11 0 29 0;
#X connect 12 0 13 0;
#X connect 13 0 27 0;
#X connect 14 0 27 0;
#X connect 15 0 16 0;
#X connect 16 0 14 1;
#X connect 17 0 18 0;
#X connect 18 0 14 2;
#X connect 19 1 20 0;
#X connect 20 0 0 0;
#X connect 20 1 21 0;
#X connect 21 0 0 1;
#X connect 22 0 23 0;
#X connect 23 0 24 0;
#X connect 25 0 15 0;
#X connect 25 1 19 2;
#X connect 26 0 17 0;
#X connect 26 1 19 3;
#X connect 28 0 35 0;
#X connect 28 0 36 0;
#X connect 28 0 37 0;
#X connect 28 0 38 0;
#X connect 29 0 34 0;
#X connect 30 0 31 0;
#X connect 31 0 29 1;
#X connect 32 0 33 0;
#X connect 33 0 29 2;
#X connect 35 0 34 0;
#X connect 36 0 34 1;
#X connect 37 0 30 0;
#X connect 38 0 32 0;
#X restore 1172 792 pd hotspot_three;
#X obj 1266 689 r \$0-background_three;
#X obj 1461 759 sel 1;
#X msg 1583 691 1;
#X msg 1555 691 0;
#X obj 1555 670 del 500;
#X obj 1555 648 t b b;
#X obj 1438 695 r \$0-m;
#N canvas 1 76 1351 688 hotspot_four 0;
#N canvas 1 76 1351 688 ColourDistance 0;
#X obj 263 133 inlet;
#X obj 454 136 inlet;
#X obj 263 191 unpack f f f;
#X obj 264 221 expr sqrt(($f1-$f4)*($f1-$f4) + ($f2-$f5)*($f2-$f5)
+ ($f3-$f6)*($f3-$f6));
#X obj 264 286 outlet;
#X obj 454 186 unpack f f f;
#X connect 0 0 2 0;
#X connect 1 0 5 0;
#X connect 2 0 3 0;
#X connect 2 1 3 1;
#X connect 2 2 3 2;
#X connect 3 0 4 0;
#X connect 5 0 3 3;
#X connect 5 1 3 4;
#X connect 5 2 3 5;
#X restore 611 386 pd ColourDistance;
#X obj 545 116 inlet;
#X obj 627 116 inlet;
#X obj 704 116 inlet;
#X obj 784 116 inlet;
#X obj 874 118 inlet;
#X text 544 88 Clock;
#X text 627 88 Video;
#X text 711 86 X;
#X text 789 87 Y;
#X text 870 87 Store Colour;
#X obj 435 145 gemhead 55;
#X obj 371 317 loadbang;
#X msg 371 355 draw line;
#X obj 435 354 translateXYZ;
#X obj 458 256 * 10.66;
#X obj 458 298 - 5.33;
#X obj 515 257 * 8;
#X obj 515 300 - 4;
#X obj 612 252 pix_data;
#X obj 634 290 t a a;
#X obj 661 334 spigot;
#X obj 611 430 > 0.3;
#X obj 611 468 change;
#X obj 611 505 outlet;
#X obj 704 143 t f f;
#X obj 784 141 t f f;
#X obj 435 394 square 0.4;
#X obj 201 318 loadbang;
#X obj 265 355 translateXYZ;
#X obj 288 257 * 10.66;
#X obj 288 299 - 5.33;
#X obj 345 258 * 8;
#X obj 345 301 - 4;
#X obj 265 421 text2d;
#X msg 298 393 30;
#X msg 288 231 0.448;
#X msg 345 232 0.503;
#X msg 201 356 text 4;
#X connect 0 0 22 0;
#X connect 1 0 19 0;
#X connect 2 0 19 1;
#X connect 3 0 25 0;
#X connect 4 0 26 0;
#X connect 5 0 21 1;
#X connect 11 0 14 0;
#X connect 11 0 29 0;
#X connect 12 0 13 0;
#X connect 13 0 27 0;
#X connect 14 0 27 0;
#X connect 15 0 16 0;
#X connect 16 0 14 1;
#X connect 17 0 18 0;
#X connect 18 0 14 2;
#X connect 19 1 20 0;
#X connect 20 0 0 0;
#X connect 20 1 21 0;
#X connect 21 0 0 1;
#X connect 22 0 23 0;
#X connect 23 0 24 0;
#X connect 25 0 15 0;
#X connect 25 1 19 2;
#X connect 26 0 17 0;
#X connect 26 1 19 3;
#X connect 28 0 38 0;
#X connect 28 0 35 0;
#X connect 28 0 36 0;
#X connect 28 0 37 0;
#X connect 29 0 34 0;
#X connect 30 0 31 0;
#X connect 31 0 29 1;
#X connect 32 0 33 0;
#X connect 33 0 29 2;
#X connect 35 0 34 1;
#X connect 36 0 30 0;
#X connect 37 0 32 0;
#X connect 38 0 34 0;
#X restore 1461 726 pd hotspot_four;
#X obj 1461 790 s \$0-send_four;
#X obj 1555 623 r \$0-background_four;
#X obj 1131 279 t a a a a a;
#X obj 1176 713 pix_separator;
#X obj 1465 667 pix_separator;
#X msg 1268 666 0.913;
#X msg 1319 666 0.889;
#X msg 1556 601 0.913;
#X msg 1600 601 0.125;
#X obj 822 152 t f b;
#X msg 822 125 1;
#X obj 822 99 r \$0-gem;
#X obj 1 643 outlet~;
#N canvas 0 24 1366 695 trigger_one 0;
#X obj 69 77 r \$0-loadsample;
#X obj 80 228 r \$0-mastervolume;
#X obj 88 33 r \$0-send_one;
#X obj 101 95 t b;
#X msg 101 169 open \$1;
#X obj 101 122 openpanel;
#X obj 44 249 *~;
#X msg 53 105 stop;
#X obj 267 170 loadbang;
#X msg 267 205 \; pd dsp 1;
#X obj 44 321 *~;
#X obj 195 112 bng 15 250 50 0 empty empty empty 17 7 0 10 -262144
-1 -1;
#X obj 15 57 t b b b;
#X obj 218 278 switch~;
#X msg 191 286 \$1 5;
#X obj 191 315 line~;
#X msg 158 186 1;
#X msg 190 187 0;
#X obj 191 220 t f f;
#X obj 11 33 bng 15 250 50 0 empty empty empty 17 7 0 10 -262144 -1
-1;
#X symbolatom 101 147 10 0 0 0 - - -, f 10;
#X msg 16 105 1;
#X obj 44 200 readsf~;
#X obj 84 10 r \$0-trigger_one;
#X obj 44 359 outlet~;
#X obj 263 90 symbol;
#X obj 263 38 loadbang;
#X msg 263 65 /home/ubuntu-studio/MAMIClibrary/samples/kick.wav;
#X connect 0 0 3 0;
#X connect 1 0 6 1;
#X connect 2 0 12 0;
#X connect 3 0 5 0;
#X connect 4 0 22 0;
#X connect 5 0 20 0;
#X connect 6 0 10 0;
#X connect 7 0 22 0;
#X connect 8 0 9 0;
#X connect 8 0 17 0;
#X connect 10 0 24 0;
#X connect 11 0 5 0;
#X connect 12 0 21 0;
#X connect 12 1 20 0;
#X connect 12 2 16 0;
#X connect 14 0 15 0;
#X connect 15 0 10 1;
#X connect 16 0 18 0;
#X connect 17 0 18 0;
#X connect 18 0 14 0;
#X connect 18 1 13 0;
#X connect 19 0 12 0;
#X connect 20 0 4 0;
#X connect 21 0 22 0;
#X connect 22 0 6 0;
#X connect 22 1 17 0;
#X connect 23 0 12 0;
#X connect 25 0 20 0;
#X connect 26 0 27 0;
#X connect 27 0 25 0;
#X restore 4 535 pd trigger_one;
#N canvas 0 24 1366 695 trigger_two 0;
#X obj 101 95 t b;
#X msg 101 169 open \$1;
#X obj 101 122 openpanel;
#X obj 44 249 *~;
#X msg 53 105 stop;
#X obj 267 170 loadbang;
#X msg 267 205 \; pd dsp 1;
#X obj 44 321 *~;
#X obj 195 112 bng 15 250 50 0 empty empty empty 17 7 0 10 -262144
-1 -1;
#X obj 15 57 t b b b;
#X obj 218 278 switch~;
#X msg 191 286 \$1 5;
#X obj 191 315 line~;
#X msg 158 186 1;
#X msg 190 187 0;
#X obj 191 220 t f f;
#X obj 11 33 bng 15 250 50 0 empty empty empty 17 7 0 10 -262144 -1
-1;
#X symbolatom 101 147 10 0 0 0 - - -, f 10;
#X msg 16 105 1;
#X obj 44 200 readsf~;
#X obj 44 359 outlet~;
#X obj 84 10 r \$0-trigger_two;
#X obj 88 33 r \$0-send_two;
#X obj 50 275 r \$0-mastervolume_two;
#X obj 69 77 r \$0-loadsample_two;
#X obj 321 77 symbol;
#X obj 321 25 loadbang;
#X msg 321 52 /home/ubuntu-studio/MAMIClibrary/samples/snare.aif;
#X connect 0 0 2 0;
#X connect 1 0 19 0;
#X connect 2 0 17 0;
#X connect 3 0 7 0;
#X connect 4 0 19 0;
#X connect 5 0 6 0;
#X connect 5 0 14 0;
#X connect 7 0 20 0;
#X connect 8 0 2 0;
#X connect 9 0 18 0;
#X connect 9 1 17 0;
#X connect 9 2 13 0;
#X connect 11 0 12 0;
#X connect 12 0 7 1;
#X connect 13 0 15 0;
#X connect 14 0 15 0;
#X connect 15 0 11 0;
#X connect 15 1 10 0;
#X connect 16 0 9 0;
#X connect 17 0 1 0;
#X connect 18 0 19 0;
#X connect 19 0 3 0;
#X connect 19 1 14 0;
#X connect 21 0 9 0;
#X connect 22 0 9 0;
#X connect 23 0 3 1;
#X connect 24 0 0 0;
#X connect 25 0 17 0;
#X connect 26 0 27 0;
#X connect 27 0 25 0;
#X restore 95 535 pd trigger_two;
#N canvas 0 24 1366 695 trigger_three 0;
#X obj 101 95 t b;
#X msg 101 169 open \$1;
#X obj 101 122 openpanel;
#X obj 44 249 *~;
#X msg 53 105 stop;
#X obj 267 170 loadbang;
#X msg 267 205 \; pd dsp 1;
#X obj 44 321 *~;
#X obj 195 112 bng 15 250 50 0 empty empty empty 17 7 0 10 -262144
-1 -1;
#X obj 15 57 t b b b;
#X obj 218 278 switch~;
#X msg 191 286 \$1 5;
#X obj 191 315 line~;
#X msg 158 186 1;
#X msg 190 187 0;
#X obj 191 220 t f f;
#X obj 11 33 bng 15 250 50 0 empty empty empty 17 7 0 10 -262144 -1
-1;
#X symbolatom 101 147 10 0 0 0 - - -, f 10;
#X msg 16 105 1;
#X obj 44 200 readsf~;
#X obj 44 359 outlet~;
#X obj 96 13 r \$0-trigger_three;
#X obj 88 33 r \$0-send_three;
#X obj 69 77 r \$0-loadsample_three;
#X obj 50 274 r \$0-mastervolume_three;
#X obj 279 81 symbol;
#X obj 279 29 loadbang;
#X msg 279 56 /home/ubuntu-studio/MAMIClibrary/samples/highhat.wav
;
#X connect 0 0 2 0;
#X connect 1 0 19 0;
#X connect 2 0 17 0;
#X connect 3 0 7 0;
#X connect 4 0 19 0;
#X connect 5 0 6 0;
#X connect 5 0 14 0;
#X connect 7 0 20 0;
#X connect 8 0 2 0;
#X connect 9 0 18 0;
#X connect 9 1 17 0;
#X connect 9 2 13 0;
#X connect 11 0 12 0;
#X connect 12 0 7 1;
#X connect 13 0 15 0;
#X connect 14 0 15 0;
#X connect 15 0 11 0;
#X connect 15 1 10 0;
#X connect 16 0 9 0;
#X connect 17 0 1 0;
#X connect 18 0 19 0;
#X connect 19 0 3 0;
#X connect 19 1 14 0;
#X connect 21 0 9 0;
#X connect 22 0 9 0;
#X connect 23 0 0 0;
#X connect 24 0 3 1;
#X connect 25 0 17 0;
#X connect 26 0 27 0;
#X connect 27 0 25 0;
#X restore 188 536 pd trigger_three;
#N canvas 0 24 1366 695 trigger_four 0;
#X obj 101 95 t b;
#X msg 101 169 open \$1;
#X obj 101 122 openpanel;
#X obj 44 249 *~;
#X msg 53 105 stop;
#X obj 267 170 loadbang;
#X msg 267 205 \; pd dsp 1;
#X obj 44 321 *~;
#X obj 195 112 bng 15 250 50 0 empty empty empty 17 7 0 10 -262144
-1 -1;
#X obj 15 57 t b b b;
#X obj 218 278 switch~;
#X msg 191 286 \$1 5;
#X obj 191 315 line~;
#X msg 158 186 1;
#X msg 190 187 0;
#X obj 191 220 t f f;
#X obj 11 33 bng 15 250 50 0 empty empty empty 17 7 0 10 -262144 -1
-1;
#X symbolatom 101 147 10 0 0 0 - - -, f 10;
#X msg 16 105 1;
#X obj 44 200 readsf~;
#X obj 44 359 outlet~;
#X obj 98 13 r \$0-trigger_four;
#X obj 88 33 r \$0-send_four;
#X obj 69 77 r \$0-loadsample_four;
#X obj 50 274 r \$0-mastervolume_four;
#X obj 294 78 symbol;
#X obj 294 26 loadbang;
#X msg 294 53 /home/ubuntu-studio/MAMIClibrary/samples/crash.wav;
#X connect 0 0 2 0;
#X connect 1 0 19 0;
#X connect 2 0 17 0;
#X connect 3 0 7 0;
#X connect 4 0 19 0;
#X connect 5 0 6 0;
#X connect 5 0 14 0;
#X connect 7 0 20 0;
#X connect 8 0 2 0;
#X connect 9 0 18 0;
#X connect 9 1 17 0;
#X connect 9 2 13 0;
#X connect 11 0 12 0;
#X connect 12 0 7 1;
#X connect 13 0 15 0;
#X connect 14 0 15 0;
#X connect 15 0 11 0;
#X connect 15 1 10 0;
#X connect 16 0 9 0;
#X connect 17 0 1 0;
#X connect 18 0 19 0;
#X connect 19 0 3 0;
#X connect 19 1 14 0;
#X connect 21 0 9 0;
#X connect 22 0 9 0;
#X connect 23 0 0 0;
#X connect 24 0 3 1;
#X connect 25 0 17 0;
#X connect 26 0 27 0;
#X connect 27 0 25 0;
#X restore 4 565 pd trigger_four;
#X obj 1585 182 metro 100;
#X obj 1318 -103 r \$0-fps;
#X msg 1418 70 label \$1;
#X obj 1418 48 makefilename %d;
#X obj 1318 -76 int;
#X obj 1418 93 send \$0-open-canvas;
#X obj 1318 -54 t b f;
#X obj 1388 8 t a a;
#X obj 1388 114 list prepend set;
#X obj 1388 136 list trim;
#X obj 1388 -68 loadbang;
#X msg 1388 -45 5;
#X msg 1318 164 frame 5;
#X obj 1418 27 route frame;
#X msg 1389 -14 frame \$1;
#X obj 1537 -28 s \$0-fpsloadbang;
#X obj 1636 141 r \$0-sens;
#X obj 1609 16 outlet;
#X connect 0 0 71 0;
#X connect 1 0 0 0;
#X connect 2 0 3 0;
#X connect 4 0 3 0;
#X connect 5 0 3 0;
#X connect 6 0 7 0;
#X connect 7 0 8 0;
#X connect 7 1 23 0;
#X connect 8 0 0 0;
#X connect 9 0 10 0;
#X connect 10 0 11 0;
#X connect 12 0 18 1;
#X connect 13 0 3 0;
#X connect 15 0 22 0;
#X connect 16 0 86 0;
#X connect 18 0 19 0;
#X connect 19 0 33 0;
#X connect 20 0 43 1;
#X connect 21 0 44 0;
#X connect 22 0 13 0;
#X connect 22 0 39 0;
#X connect 22 0 40 0;
#X connect 22 0 42 0;
#X connect 22 0 41 0;
#X connect 22 0 74 0;
#X connect 22 0 75 0;
#X connect 22 0 76 0;
#X connect 22 0 77 0;
#X connect 22 1 4 0;
#X connect 22 2 2 0;
#X connect 22 3 16 0;
#X connect 22 3 1 0;
#X connect 23 0 24 0;
#X connect 23 1 25 0;
#X connect 26 0 27 0;
#X connect 27 0 7 0;
#X connect 27 1 28 0;
#X connect 29 0 30 0;
#X connect 30 0 27 0;
#X connect 31 0 27 0;
#X connect 32 0 27 0;
#X connect 34 0 18 4;
#X connect 35 0 18 4;
#X connect 36 0 35 0;
#X connect 37 0 38 0;
#X connect 38 0 36 0;
#X connect 38 1 34 0;
#X connect 39 0 18 2;
#X connect 40 0 18 3;
#X connect 41 0 43 3;
#X connect 42 0 43 2;
#X connect 43 0 21 0;
#X connect 46 0 18 0;
#X connect 47 0 43 0;
#X connect 48 0 43 4;
#X connect 49 0 43 4;
#X connect 50 0 49 0;
#X connect 51 0 50 0;
#X connect 51 1 48 0;
#X connect 52 0 51 0;
#X connect 53 0 59 0;
#X connect 54 0 60 4;
#X connect 55 0 60 4;
#X connect 56 0 55 0;
#X connect 57 0 56 0;
#X connect 57 1 54 0;
#X connect 58 0 60 0;
#X connect 60 0 53 0;
#X connect 61 0 57 0;
#X connect 62 0 69 0;
#X connect 63 0 68 4;
#X connect 64 0 68 4;
#X connect 65 0 64 0;
#X connect 66 0 65 0;
#X connect 66 1 63 0;
#X connect 67 0 68 0;
#X connect 68 0 62 0;
#X connect 70 0 66 0;
#X connect 71 0 9 0;
#X connect 71 1 12 0;
#X connect 71 2 20 0;
#X connect 71 3 72 0;
#X connect 71 4 73 0;
#X connect 72 0 60 1;
#X connect 73 0 68 1;
#X connect 74 0 60 2;
#X connect 75 0 60 3;
#X connect 76 0 68 2;
#X connect 77 0 68 3;
#X connect 78 0 3 0;
#X connect 78 1 4 0;
#X connect 79 0 78 0;
#X connect 80 0 79 0;
#X connect 82 0 81 0;
#X connect 83 0 81 0;
#X connect 84 0 81 0;
#X connect 85 0 81 0;
#X connect 86 0 45 0;
#X connect 87 0 90 0;
#X connect 88 0 91 0;
#X connect 89 0 88 0;
#X connect 90 0 92 0;
#X connect 92 0 98 0;
#X connect 92 1 100 0;
#X connect 93 0 94 0;
#X connect 93 1 99 0;
#X connect 94 0 95 0;
#X connect 95 0 98 0;
#X connect 96 0 97 0;
#X connect 97 0 100 0;
#X connect 97 0 101 0;
#X connect 97 0 103 0;
#X connect 98 0 3 0;
#X connect 99 0 89 0;
#X connect 100 0 93 0;
#X connect 102 0 86 1;
#X restore 50 147 pd webcamengine;
#X obj 300 48 inlet;
#X connect 0 0 3 0;
#X connect 1 0 0 0;
#X connect 2 0 5 0;
#X connect 4 0 6 0;
#X connect 5 0 12 0;
#X connect 5 1 4 0;
#X connect 6 0 7 0;
#X connect 6 1 9 0;
#X connect 7 0 8 0;
#X connect 8 0 12 0;
#X connect 9 0 1 0;
#X connect 10 0 11 0;
#X connect 10 0 16 0;
#X connect 11 0 4 0;
#X connect 12 0 19 0;
#X connect 13 0 2 0;
#X connect 16 0 14 0;
#X connect 16 1 15 0;
#X connect 19 0 17 0;
#X connect 19 1 18 0;
#X restore 716 -90 pd engine;
#X obj 716 -52 outlet~;
#X obj 805 -52 outlet;
#X floatatom 20 -31 2 0 16 0 - - #0-sequencenumber_two, f 2;
#X text 33 -31 Seq Number;
#X floatatom 132 -32 2 0 16 0 - - #0-sequencenumber_three, f 2;
#X text 145 -32 Seq Number;
#X floatatom 20 45 2 0 16 0 - - #0-sequencenumber_one, f 2;
#X text 33 45 Seq Number;
#X floatatom 130 44 2 0 16 0 - - #0-sequencenumber_four, f 2;
#X text 143 44 Seq Number;
#X obj 852 -52 outlet;
#N canvas 1 76 1351 688 webcam_sequence_number 0;
#X obj 148 267 outlet;
#X obj 337 171 r \$0-sequencenumber_two;
#X obj 162 173 r \$0-sequencenumber_one;
#X obj 517 172 r \$0-sequencenumber_three;
#X obj 702 173 r \$0-sequencenumber_four;
#X obj 147 202 f;
#X obj 322 199 f;
#X obj 502 200 f;
#X obj 687 200 f;
#X obj 147 148 r \$0-send_one;
#X obj 322 148 r \$0-send_two;
#X obj 501 149 r \$0-send_three;
#X obj 687 149 r \$0-send_four;
#X obj 45 148 r \$0-trigger_one;
#X obj 321 125 r \$0-trigger_two;
#X obj 501 124 r \$0-trigger_three;
#X obj 686 123 r \$0-trigger_four;
#X connect 1 0 6 1;
#X connect 2 0 5 1;
#X connect 3 0 7 1;
#X connect 4 0 8 1;
#X connect 5 0 0 0;
#X connect 6 0 0 0;
#X connect 7 0 0 0;
#X connect 8 0 0 0;
#X connect 9 0 5 0;
#X connect 10 0 6 0;
#X connect 11 0 7 0;
#X connect 12 0 8 0;
#X connect 13 0 5 0;
#X connect 14 0 6 0;
#X connect 15 0 7 0;
#X connect 16 0 8 0;
#X restore 851 -87 pd webcam_sequence_number;
#X connect 40 0 42 0;
#X connect 42 0 43 0;
#X connect 42 1 44 0;
#X connect 54 0 53 0;
#X restore 1641 537 pd \$0-webcam1;
#X obj 2197 360 alternate;
#X obj 2154 98 loadbang;
#X obj 2154 126 f \$0;
#X msg 2073 449 \; \$1 vis 1;
#X obj 2073 395 f;
#X obj 2249 396 f;
#X msg 2250 450 \; \$1 vis 0;
#X obj 2074 423 makefilename pd-%d-webcam1;
#X obj 2250 424 makefilename pd-%d-webcam1;
#X msg 1644 44 open /home/ubuntu-studio/MAMIClibrary/images/webcam.png
;
#X obj 1717 577 outlet;
#X text 1760 352 Touch;
#X text 1856 351 Seq Output;
#X obj 1063 137 s \$0-mastervolume_two_r;
#X msg 1063 107 0.5;
#X obj 1210 137 s \$0-mastervolume_three_r;
#X obj 1371 137 s \$0-mastervolume_four_r;
#X obj 1066 162 s \$0-mastervolume_r;
#X text 1210 171 Preset Volumes;
#X connect 0 0 13 0;
#X connect 1 0 0 0;
#X connect 2 0 1 0;
#X connect 3 0 2 0;
#X connect 3 0 22 0;
#X connect 3 0 27 0;
#X connect 4 0 5 0;
#X connect 12 0 6 0;
#X connect 12 2 23 0;
#X connect 13 0 17 0;
#X connect 13 1 18 0;
#X connect 14 0 15 0;
#X connect 15 0 17 1;
#X connect 15 0 18 1;
#X connect 17 0 20 0;
#X connect 18 0 21 0;
#X connect 20 0 16 0;
#X connect 21 0 19 0;
#X connect 22 0 0 0;
#X connect 27 0 26 0;
#X connect 27 0 30 0;
#X connect 27 0 29 0;
#X connect 27 0 28 0;
#X coords 0 -1 1 1 265 114 2 1657 257;
