#N canvas 0 25 1366 694 10;
#X obj 1779 313 image @pd_extra/ggee/empty_image.png 0;
#X msg 1446 70 click \$1;
#X msg 1443 38 1;
#X obj 1442 7 loadbang;
#X obj 1568 77 inlet;
#N canvas 1 76 1351 688 coll 0;
#X obj 262 -4 openpanel;
#X obj 262 -27 bng 15 250 50 0 empty empty empty 17 7 0 10 -262144
-1 -1;
#X msg 262 24 read \$1;
#X obj 262 -54 r \$0-codeimport;
#X msg 165 -28 open;
#X obj 164 -54 r \$0-codeopen;
#X msg 86 -29 clear;
#X obj 86 -54 r \$0-clear;
#X obj -12 -19 s \$0-channel1;
#X obj -11 2 s \$0-channel2;
#X obj -11 24 s \$0-channel3;
#X msg -11 -37 0;
#X obj 263 78 zl group 2;
#X obj 384 -54 inlet;
#X msg 122 69 1;
#X obj 263 49 coll \$0-xboxpad;
#C restore;
#X obj 263 107 route y b a x lb rb back start up down left right;
#X obj 263 134 s \$0-codey;
#X obj 295 161 s \$0-codeb;
#X obj 329 185 s \$0-codea;
#X obj 362 219 s \$0-codex;
#X obj 396 250 s \$0-codelb;
#X obj 429 286 s \$0-coderb;
#X obj 462 330 s \$0-codeback;
#X obj 493 365 s \$0-codestart;
#X obj 529 404 s \$0-codeup;
#X obj 562 435 s \$0-codedown;
#X obj 595 469 s \$0-codeleft;
#X obj 627 515 s \$0-coderight;
#X connect 0 0 2 0;
#X connect 1 0 0 0;
#X connect 2 0 15 0;
#X connect 3 0 1 0;
#X connect 4 0 15 0;
#X connect 5 0 4 0;
#X connect 6 0 15 0;
#X connect 7 0 6 0;
#X connect 7 0 11 0;
#X connect 11 0 8 0;
#X connect 11 0 9 0;
#X connect 11 0 10 0;
#X connect 12 0 16 0;
#X connect 13 0 15 0;
#X connect 14 0 15 0;
#X connect 15 0 12 0;
#X connect 16 0 17 0;
#X connect 16 1 18 0;
#X connect 16 2 19 0;
#X connect 16 3 20 0;
#X connect 16 4 21 0;
#X connect 16 5 22 0;
#X connect 16 6 23 0;
#X connect 16 7 24 0;
#X connect 16 8 25 0;
#X connect 16 9 26 0;
#X connect 16 10 27 0;
#X connect 16 11 28 0;
#X restore 1568 101 pd coll xboxpad info;
#X obj 2046 537 alternate;
#X obj 2003 275 loadbang;
#X obj 2003 303 f \$0;
#N canvas 184 25 971 191 \$0-xboxstuff 0;
#X obj 207 -43 cnv 15 965 180 empty empty empty 20 12 0 14 -232576
-66577 0;
#X obj 464 55 bng 18 250 50 0 empty \$0-b B 5 10 0 15 -258113 -1 -1
;
#X obj 445 37 bng 18 250 50 0 empty \$0-y Y 5 10 0 15 -260097 -1 -1
;
#X obj 426 55 bng 18 250 50 0 empty \$0-x X 5 10 0 15 -4160 -1 -1;
#X obj 446 74 bng 18 250 50 0 empty \$0-a A 5 10 0 15 -16070 -1 -1
;
#N canvas 154 129 578 428 serin 0;
#X obj 286 60 cnv 15 15 15 empty \$0-open-canvas 12 4 8 0 14 -233017
-1 0;
#X obj 60 60 hradio 15 1 1 15 empty empty empty 0 -6 0 8 -225271 -1
-1 12;
#X obj 60 13 inlet;
#X msg 200 202 label \$1;
#X obj 200 180 makefilename %d;
#X obj 59 108 int;
#X obj 59 337 outlet;
#X msg 211 320 set \$1 \$2;
#X obj 212 300 list;
#X msg 60 210 open \$1;
#X obj 200 225 send \$0-open-canvas;
#X obj 59 266 trigger bang bang anything;
#X msg 59 289 1;
#X obj -39 337 s \$0-pollnumber;
#X obj 158 382 s \$0-send-data;
#X connect 1 0 5 0;
#X connect 2 0 1 0;
#X connect 3 0 10 0;
#X connect 4 0 3 0;
#X connect 5 0 4 0;
#X connect 5 0 9 0;
#X connect 7 0 6 0;
#X connect 7 0 14 0;
#X connect 8 0 7 0;
#X connect 9 0 11 0;
#X connect 11 0 12 0;
#X connect 11 1 6 0;
#X connect 11 1 14 0;
#X connect 11 2 8 0;
#X connect 12 0 13 0;
#X coords 0 -1 1 1 250 18 1 60 60;
#X restore 252 101 pd serin;
#X text 205 99 Devices;
#X obj 312 9 tgl 10 0 empty \$0-back empty 17 7 0 10 -262144 -1 -1
0 1;
#X text 304 18 Back;
#X obj 371 9 tgl 10 0 empty \$0-start empty 17 7 0 10 -262144 -1 -1
0 1;
#X text 361 18 Start;
#X obj 209 10 tgl 15 0 empty \$0-lb empty 17 7 0 10 -262144 -1 -1 0
1;
#X text 208 24 LB;
#X obj 484 10 tgl 15 0 empty \$0-rb empty 17 7 0 10 -262144 -1 -1 0
1;
#X text 485 24 RB;
#X obj 225 12 vsl 15 10 0 100 0 0 empty \$0-slt empty 0 -9 0 10 -262144
-1 -1 0 1;
#X obj 468 12 vsl 15 10 0 100 0 0 empty \$0-srt empty 0 -9 0 10 -262144
-1 -1 0 1;
#X text 224 24 LT;
#X text 468 24 RT;
#X obj 304 42 tgl 15 0 empty \$0-upbutton U 5 7 0 10 -262144 -1 -1
0 1;
#X obj 319 57 tgl 15 0 empty \$0-rightbutton R 5 7 0 10 -262144 -1
-1 0 1;
#X obj 305 71 tgl 15 0 empty \$0-downbutton D 5 7 0 10 -262144 -1 -1
0 1;
#X obj 290 56 tgl 15 0 empty \$0-leftbutton L 5 7 0 10 -262144 -1 -1
0 1;
#X text 207 -45 Code;
#X obj 237 -27 bng 10 250 50 0 \$0-codeopen empty empty 17 7 0 10 -260097
-1 -1;
#X text 207 -31 Code;
#X obj 280 -13 bng 10 250 50 0 \$0-codeimport empty empty 17 7 0 10
-260097 -1 -1;
#X text 207 -16 Code Import;
#X obj 511 99 bng 10 250 50 0 \$0-loadsample empty empty 17 7 0 10
-4032 -1 -1;
#X text 521 97 Load Sample;
#X obj 596 50 vsl 15 45 0.01 1.3 1 0 \$0-mastervolume \$0-mastervolume_r
empty 0 -8 0 8 -257985 -1 -1 3536 0;
#X text 593 98 Vol;
#X obj 511 20 bng 10 250 50 0 \$0-loadsample_two empty empty 17 7 0
10 -4032 -1 -1;
#X text 521 18 Load Sample;
#X obj 596 -28 vsl 15 45 0.01 1.3 1 0 \$0-mastervolume_two \$0-mastervolume_two_r
empty 0 -8 0 8 -257985 -1 -1 3536 0;
#X text 593 19 Vol;
#X obj 622 21 bng 10 250 50 0 \$0-loadsample_three empty empty 17 7
0 10 -4032 -1 -1;
#X text 632 19 Load Sample;
#X obj 707 -27 vsl 15 45 0.01 1.3 1 0 \$0-mastervolume_three \$0-mastervolume_three_r
empty 0 -8 0 8 -257985 -1 -1 3536 0;
#X text 704 20 Vol;
#X obj 621 99 bng 10 250 50 0 \$0-loadsample_four empty empty 17 7
0 10 -4032 -1 -1;
#X text 631 97 Load Sample;
#X obj 706 50 vsl 15 45 0.01 1.3 1 0 \$0-mastervolume_four \$0-mastervolume_four_r
empty 0 -8 0 8 -257985 -1 -1 3536 0;
#X text 703 98 Vol;
#X obj 511 1 bng 18 250 50 0 \$0-send_two \$0-y Y 5 10 0 15 -260097
-1 -1;
#X obj 621 2 bng 18 250 50 0 \$0-send_three \$0-b B 5 10 0 15 -258113
-1 -1;
#X obj 511 80 bng 18 250 50 0 \$0-send_one \$0-x X 5 10 0 15 -4160
-1 -1;
#X obj 621 80 bng 18 250 50 0 \$0-send_four \$0-a A 5 10 0 15 -16070
-1 -1;
#X obj 241 -2 bng 10 250 50 0 \$0-printdevices empty empty 17 7 0 10
-4160 -1 -1;
#X text 207 -4 Print;
#X obj 730 101 bng 10 250 50 0 \$0-loadsample_seven empty empty 17
7 0 10 -4032 -1 -1;
#X text 740 99 Load Sample;
#X obj 815 52 vsl 15 45 0.01 1.3 1 0 \$0-mastervolume_seven \$0-mastervolume_seven_r
empty 0 -8 0 8 -257985 -1 -1 3536 0;
#X text 812 100 Vol;
#X obj 730 22 bng 10 250 50 0 \$0-loadsample_five empty empty 17 7
0 10 -4032 -1 -1;
#X text 740 20 Load Sample;
#X obj 815 -26 vsl 15 45 0.01 1.3 1 0 \$0-mastervolume_five \$0-mastervolume_five_r
empty 0 -8 0 8 -257985 -1 -1 3536 0;
#X text 812 21 Vol;
#X obj 841 23 bng 10 250 50 0 \$0-loadsample_six empty empty 17 7 0
10 -4032 -1 -1;
#X text 851 21 Load Sample;
#X obj 926 -25 vsl 15 45 0.01 1.3 1 0 \$0-mastervolume_six \$0-mastervolume_six_r
empty 0 -8 0 8 -257985 -1 -1 3536 0;
#X text 923 22 Vol;
#X obj 840 101 bng 10 250 50 0 \$0-loadsample_eight empty empty 17
7 0 10 -4032 -1 -1;
#X text 850 99 Load Sample;
#X obj 925 52 vsl 15 45 0.01 1.3 1 0 \$0-mastervolume_eight \$0-mastervolume_eight_r
empty 0 -8 0 8 -257985 -1 -1 3536 0;
#X text 922 100 Vol;
#X obj 729 2 tgl 19 0 \$0-send_five \$0-upbutton U 7 10 0 10 -262144
-1 -1 0 1;
#X obj 841 3 tgl 19 0 \$0-send_six \$0-downbutton D 7 10 0 10 -262144
-1 -1 0 1;
#X obj 730 81 tgl 19 0 \$0-send_seven \$0-leftbutton L 7 10 0 10 -262144
-1 -1 0 1;
#X obj 840 81 tgl 19 0 \$0-send_eight \$0-rightbutton R 7 10 0 10 -262144
-1 -1 0 1;
#X obj 948 102 bng 10 250 50 0 \$0-loadsample_ten empty empty 17 7
0 10 -4032 -1 -1;
#X text 958 100 Load Sample;
#X obj 1033 53 vsl 15 45 0.01 1.3 1 0 \$0-mastervolume_ten \$0-mastervolume_ten_r
empty 0 -8 0 8 -257985 -1 -1 0 0;
#X text 1030 101 Vol;
#X obj 948 23 bng 10 250 50 0 \$0-loadsample_nine empty empty 17 7
0 10 -4032 -1 -1;
#X text 958 21 Load Sample;
#X obj 1033 -25 vsl 15 45 0.01 1.3 1 0 \$0-mastervolume_nine \$0-mastervolume_nine_r
empty 0 -8 0 8 -257985 -1 -1 0 0;
#X text 1030 22 Vol;
#X obj 1059 24 bng 10 250 50 0 \$0-loadsample_eleven empty empty 17
7 0 10 -4032 -1 -1;
#X text 1069 22 Load Sample;
#X obj 1144 -24 vsl 15 45 0.01 1.3 1 0 \$0-mastervolume_eleven \$0-mastervolume_eleven_r
empty 0 -8 0 8 -257985 -1 -1 0 0;
#X text 1141 23 Vol;
#X obj 1058 102 bng 10 250 50 0 \$0-loadsample_twelve empty empty 17
7 0 10 -4032 -1 -1;
#X text 1068 100 Load Sample;
#X obj 1143 53 vsl 15 45 0.01 1.3 1 0 \$0-mastervolume_twelve \$0-mastervolume_twelve_r
empty 0 -8 0 8 -257985 -1 -1 0 0;
#X text 1140 101 Vol;
#X obj 947 3 tgl 19 0 \$0-send_nine \$0-lb LB 4 10 0 10 -262144 -1
-1 0 1;
#X obj 1059 4 tgl 19 0 \$0-send_eleven \$0-rb RB 4 10 0 10 -262144
-1 -1 0 1;
#X obj 948 82 tgl 19 0 \$0-send_ten \$0-back Back 2 10 0 7 -262144
-1 -1 0 1;
#X obj 1058 82 tgl 19 0 \$0-send_twelve \$0-start Start 1 10 0 7 -262144
-1 -1 0 1;
#X text 671 -45 XBOXPad 1;
#N canvas 0 128 1366 694 engine 0;
#X msg 1730 207 stop;
#X msg 1217 167 show;
#X text 1929 213 the interval between each event (in ms);
#X msg 1217 190 print;
#X msg 1805 203 open 12;
#X obj 1156 272 cyclone/prepend set;
#X msg 1159 312 key btn_1 0;
#X text 1288 306 [hidin] numbers the elements in the order that it
finds them;
#X text 1314 183 print the available elements of the current device
;
#X text 1321 208 print the available devices to the Pd window;
#X text 1162 292 message format:;
#X msg 1730 229 interval 10;
#X msg 1730 163 bang;
#X obj 1304 261 print DEVICES;
#X msg 1805 225 close;
#X msg 1730 185 start;
#X obj 1276 348 route 1 2 3 4 5 6 7 8 9 10 11 12 13 14 15 16 17 18
19;
#X obj 1357 457 sel 1;
#X obj 1275 457 sel 1;
#X obj 1235 457 sel 1;
#X obj 1314 457 sel 1;
#X obj 1637 137 loadbang;
#X obj 1640 172 t b b;
#X obj 1277 234 hid;
#X obj 1160 190 tgl 15 0 empty empty empty 17 7 0 10 -262144 -1 -1
0 1;
#X obj 1252 397 route btn_0 btn_1 btn_2 btn_3 btn_4 btn_5 btn_6 btn_7
btn_8 btn_9 btn_10 btn_11 btn_12 btn_13 btn_14 btn_15;
#X obj 1680 286 route key rel abs syn;
#X obj 1065 217 r \$0-pollnumber;
#X obj 1396 459 tgl 15 0 empty empty empty 17 7 0 10 -262144 -1 -1
0 1;
#X obj 1470 473 tgl 15 0 empty empty empty 17 7 0 10 -262144 -1 -1
0 1;
#X obj 1501 477 tgl 15 0 empty empty empty 17 7 0 10 -262144 -1 -1
0 1;
#X obj 1593 460 tgl 15 0 empty empty empty 17 7 0 10 -262144 -1 -1
0 1;
#X obj 1618 460 tgl 15 0 empty empty empty 17 7 0 10 -262144 -1 -1
0 1;
#X obj 1645 460 tgl 15 0 empty empty empty 17 7 0 10 -262144 -1 -1
0 1;
#X obj 1676 461 tgl 15 0 empty empty empty 17 7 0 10 -262144 -1 -1
0 1;
#X obj 1629 678 sel 1;
#X msg 1628 717 1;
#X msg 1656 717 0;
#X obj 1771 687 sel 1;
#X msg 1772 722 1;
#X msg 1800 722 0;
#X obj 1243 716 sel 1;
#X msg 1246 760 1;
#X msg 1274 760 0;
#X obj 1443 676 sel 1;
#X msg 1443 701 1;
#X msg 1471 701 0;
#X obj 1279 172 r \$0-printdevices;
#X obj 1246 801 s \$0-lb;
#X obj 1711 374 outlet;
#X obj 1752 374 outlet;
#X text 2302 631 D pad;
#X obj 2342 630 route abs_hat0x abs_hat0y;
#X obj 952 184 r \$0-leftanalogstick;
#N canvas 1 76 1351 688 Left 0;
#X obj 88 60 inlet;
#X obj 88 89 route abs_x abs_y;
#X floatatom 88 119 8 0 0 0 - - -, f 8;
#X floatatom 145 119 8 0 0 0 - - -, f 8;
#X obj 92 148 / 100;
#X obj 148 146 / 100;
#X obj 92 177 int;
#X obj 149 174 int;
#X floatatom 95 292 5 0 0 0 - - -, f 5;
#X floatatom 379 182 5 0 0 0 - - -, f 5;
#X floatatom 421 497 5 0 0 0 - - -, f 5;
#X floatatom 521 498 5 0 0 0 - - -, f 5;
#X obj 358 496 pack f f;
#X msg 481 497 bang;
#X text 465 497 X;
#X msg 267 495 values \$1 \$2;
#X text 268 477 Set values :;
#X floatatom 395 339 5 0 0 0 - - -, f 5;
#X obj 396 303 < 0;
#X obj 332 358 spigot;
#X obj 502 274 > 0;
#X floatatom 502 304 5 0 0 0 - - -, f 5;
#X obj 462 331 spigot;
#X obj 320 320 abs;
#X obj 333 388 sel 0;
#X msg 333 412 0;
#X obj 430 307 * -1;
#X obj 267 522 s \$0-leftanalogstick;
#X obj 95 248 clip -100 100;
#X obj 344 123 clip -100 100;
#X obj 624 401 loadbang;
#X msg 624 426 0;
#X obj 190 307 sel;
#X obj 237 307 sel;
#X obj 205 276 spigot;
#X obj 252 276 spigot;
#X obj 621 80 inlet;
#X obj 621 135 route btn_13;
#X floatatom 621 182 5 0 0 0 - - -, f 5;
#X obj 621 208 t b f;
#X msg 32 85 bang;
#X msg 191 350 0;
#X msg 235 351 0;
#X text 713 136 Stick Calibration;
#X connect 0 0 1 0;
#X connect 1 0 2 0;
#X connect 1 1 3 0;
#X connect 2 0 4 0;
#X connect 2 0 34 0;
#X connect 2 0 32 0;
#X connect 3 0 5 0;
#X connect 3 0 35 0;
#X connect 3 0 33 0;
#X connect 4 0 6 0;
#X connect 5 0 7 0;
#X connect 6 0 28 0;
#X connect 7 0 29 0;
#X connect 8 0 10 0;
#X connect 9 0 18 0;
#X connect 9 0 20 0;
#X connect 9 0 23 0;
#X connect 9 0 26 0;
#X connect 10 0 12 0;
#X connect 11 0 12 1;
#X connect 11 0 13 0;
#X connect 12 0 15 0;
#X connect 13 0 10 0;
#X connect 15 0 27 0;
#X connect 17 0 19 1;
#X connect 17 0 24 0;
#X connect 18 0 17 0;
#X connect 19 0 24 0;
#X connect 20 0 21 0;
#X connect 21 0 22 1;
#X connect 22 0 11 0;
#X connect 23 0 19 0;
#X connect 24 0 25 0;
#X connect 24 1 11 0;
#X connect 25 0 11 0;
#X connect 26 0 22 0;
#X connect 28 0 8 0;
#X connect 29 0 9 0;
#X connect 30 0 31 0;
#X connect 31 0 10 0;
#X connect 31 0 11 0;
#X connect 32 0 41 0;
#X connect 33 0 42 0;
#X connect 34 0 32 1;
#X connect 35 0 33 1;
#X connect 36 0 37 0;
#X connect 37 0 38 0;
#X connect 38 0 39 0;
#X connect 39 0 40 0;
#X connect 39 1 34 1;
#X connect 39 1 35 1;
#X connect 40 0 2 0;
#X connect 40 0 3 0;
#X connect 41 0 10 0;
#X connect 42 0 11 0;
#X restore 2013 362 pd Left analog stick;
#N canvas 1 76 1351 688 Right 0;
#X obj 88 60 inlet;
#X floatatom 88 119 8 0 0 0 - - -, f 8;
#X floatatom 145 119 8 0 0 0 - - -, f 8;
#X obj 92 148 / 100;
#X obj 148 146 / 100;
#X obj 92 177 int;
#X obj 149 174 int;
#X floatatom 95 292 5 0 0 0 - - -, f 5;
#X floatatom 379 182 5 0 0 0 - - -, f 5;
#X floatatom 421 497 5 0 0 0 - - -, f 5;
#X floatatom 521 498 5 0 0 0 - - -, f 5;
#X obj 358 496 pack f f;
#X msg 481 497 bang;
#X text 465 497 X;
#X msg 267 495 values \$1 \$2;
#X text 268 477 Set values :;
#X floatatom 395 339 5 0 0 0 - - -, f 5;
#X obj 396 303 < 0;
#X obj 332 358 spigot;
#X obj 502 274 > 0;
#X floatatom 502 304 5 0 0 0 - - -, f 5;
#X obj 462 331 spigot;
#X obj 320 320 abs;
#X obj 333 388 sel 0;
#X msg 333 412 0;
#X obj 430 307 * -1;
#X obj 95 248 clip -100 100;
#X obj 344 123 clip -100 100;
#X obj 88 89 route abs_rx abs_ry;
#X obj 267 522 s \$0-rightanalogstick;
#X obj 624 401 loadbang;
#X msg 624 426 0;
#X obj 621 80 inlet;
#X floatatom 621 182 5 0 0 0 - - -, f 5;
#X obj 621 208 t b f;
#X obj 621 135 route btn_14;
#X obj 190 307 sel;
#X obj 237 307 sel;
#X obj 205 276 spigot;
#X obj 252 276 spigot;
#X msg 191 350 0;
#X msg 235 351 0;
#X msg 32 85 bang;
#X text 713 136 Stick Calibration;
#X connect 0 0 28 0;
#X connect 1 0 3 0;
#X connect 1 0 38 0;
#X connect 1 0 36 0;
#X connect 2 0 4 0;
#X connect 2 0 39 0;
#X connect 2 0 37 0;
#X connect 3 0 5 0;
#X connect 4 0 6 0;
#X connect 5 0 26 0;
#X connect 6 0 27 0;
#X connect 7 0 9 0;
#X connect 8 0 17 0;
#X connect 8 0 19 0;
#X connect 8 0 22 0;
#X connect 8 0 25 0;
#X connect 9 0 11 0;
#X connect 10 0 11 1;
#X connect 10 0 12 0;
#X connect 11 0 14 0;
#X connect 12 0 9 0;
#X connect 14 0 29 0;
#X connect 16 0 18 1;
#X connect 16 0 23 0;
#X connect 17 0 16 0;
#X connect 18 0 23 0;
#X connect 19 0 20 0;
#X connect 20 0 21 1;
#X connect 21 0 10 0;
#X connect 22 0 18 0;
#X connect 23 0 24 0;
#X connect 23 1 10 0;
#X connect 24 0 10 0;
#X connect 25 0 21 0;
#X connect 26 0 7 0;
#X connect 27 0 8 0;
#X connect 28 0 1 0;
#X connect 28 1 2 0;
#X connect 30 0 31 0;
#X connect 31 0 9 0;
#X connect 31 0 10 0;
#X connect 32 0 35 0;
#X connect 33 0 34 0;
#X connect 34 0 42 0;
#X connect 34 1 38 1;
#X connect 34 1 39 1;
#X connect 35 0 33 0;
#X connect 36 0 40 0;
#X connect 37 0 41 0;
#X connect 38 0 36 1;
#X connect 39 0 37 1;
#X connect 40 0 9 0;
#X connect 41 0 10 0;
#X connect 42 0 1 0;
#X connect 42 0 2 0;
#X restore 2013 389 pd Right analog stick;
#X obj 767 214 r \$0-rightanalogstick;
#N canvas 1 76 1351 688 ltrt 0;
#X obj 112 41 inlet;
#X obj 97 254 outlet;
#X obj 231 251 outlet;
#X floatatom 114 125 5 0 0 0 - - -, f 5;
#X text 92 124 LT;
#X floatatom 231 128 5 0 0 0 - - -, f 5;
#X text 203 126 RT;
#X obj 114 96 route abs_z abs_rz;
#X obj 97 168 autoscale 0 100;
#X obj 231 169 autoscale 0 100;
#X obj 43 254 s \$0-slt;
#X obj 274 251 s \$0-srt;
#X obj 97 191 int;
#X obj 231 193 int;
#X connect 0 0 7 0;
#X connect 3 0 8 0;
#X connect 5 0 9 0;
#X connect 7 0 3 0;
#X connect 7 1 5 0;
#X connect 8 0 12 0;
#X connect 9 0 13 0;
#X connect 12 0 1 0;
#X connect 12 0 10 0;
#X connect 13 0 2 0;
#X connect 13 0 11 0;
#X restore 1711 342 pd ltrt;
#X obj 766 160 inlet;
#X obj 1443 747 s \$0-rb;
#X obj 1628 756 s \$0-back;
#X obj 1773 748 s \$0-start;
#N canvas 1 76 1351 688 coll 0;
#X obj 262 -4 openpanel;
#X obj 262 -27 bng 15 250 50 0 empty empty empty 17 7 0 10 -262144
-1 -1;
#X msg 262 24 read \$1;
#X obj 262 -54 r \$0-codeimport;
#X msg 165 -28 open;
#X obj 164 -54 r \$0-codeopen;
#X msg 86 -29 clear;
#X obj 86 -54 r \$0-clear;
#X obj -12 -19 s \$0-channel1;
#X obj -11 2 s \$0-channel2;
#X obj -11 24 s \$0-channel3;
#X msg -11 -37 0;
#X obj 263 78 zl group 2;
#X obj 384 -54 inlet;
#X msg 122 69 1;
#X obj 263 49 coll \$0-xboxpad;
#C restore;
#X obj 263 107 route y b a x lb rb back start up down left right;
#X obj 263 134 s \$0-codey;
#X obj 295 161 s \$0-codeb;
#X obj 329 185 s \$0-codea;
#X obj 362 219 s \$0-codex;
#X obj 396 250 s \$0-codelb;
#X obj 429 286 s \$0-coderb;
#X obj 462 330 s \$0-codeback;
#X obj 493 365 s \$0-codestart;
#X obj 529 404 s \$0-codeup;
#X obj 562 435 s \$0-codedown;
#X obj 595 469 s \$0-codeleft;
#X obj 627 515 s \$0-coderight;
#X connect 0 0 2 0;
#X connect 1 0 0 0;
#X connect 2 0 15 0;
#X connect 3 0 1 0;
#X connect 4 0 15 0;
#X connect 5 0 4 0;
#X connect 6 0 15 0;
#X connect 7 0 6 0;
#X connect 7 0 11 0;
#X connect 11 0 8 0;
#X connect 11 0 9 0;
#X connect 11 0 10 0;
#X connect 12 0 16 0;
#X connect 13 0 15 0;
#X connect 14 0 15 0;
#X connect 15 0 12 0;
#X connect 16 0 17 0;
#X connect 16 1 18 0;
#X connect 16 2 19 0;
#X connect 16 3 20 0;
#X connect 16 4 21 0;
#X connect 16 5 22 0;
#X connect 16 6 23 0;
#X connect 16 7 24 0;
#X connect 16 8 25 0;
#X connect 16 9 26 0;
#X connect 16 10 27 0;
#X connect 16 11 28 0;
#X restore 766 184 pd coll xboxpad info;
#N canvas 0 24 1366 694 xboxsampler 0;
#X obj -142 760 outlet~;
#N canvas 1 76 1351 688 send 0;
#X obj 155 -211 r \$0-loadsample;
#X obj 140 85 r \$0-mastervolume;
#X obj 174 -255 r \$0-send_one;
#X obj 111 252 outlet~;
#X obj 187 -193 t b;
#X msg 187 -119 open \$1;
#X obj 187 -166 openpanel;
#X obj 112 158 *~;
#X msg 139 -183 stop;
#X obj 356 -45 loadbang;
#X msg 356 -10 \; pd dsp 1;
#X obj 113 210 *~;
#X obj 281 -176 bng 15 250 50 0 empty empty empty 17 7 0 10 -262144
-1 -1;
#X obj 101 -231 t b b b;
#X obj 307 63 switch~;
#X msg 280 71 \$1 5;
#X obj 280 100 line~;
#X msg 247 -29 1;
#X msg 279 -28 0;
#X obj 280 5 t f f;
#X obj 97 -255 bng 15 250 50 0 empty empty empty 17 7 0 10 -262144
-1 -1;
#X symbolatom 187 -141 10 0 0 0 - - -, f 10;
#X msg 102 -183 1;
#X obj 130 -88 readsf~;
#X obj 353 -176 symbol;
#X obj 353 -228 loadbang;
#X msg 353 -201 /home/ubuntu-studio/MAMIClibrary/samples/crash.wav
;
#X connect 0 0 4 0;
#X connect 1 0 7 1;
#X connect 2 0 13 0;
#X connect 4 0 6 0;
#X connect 5 0 23 0;
#X connect 6 0 21 0;
#X connect 7 0 11 0;
#X connect 8 0 23 0;
#X connect 9 0 10 0;
#X connect 9 0 18 0;
#X connect 11 0 3 0;
#X connect 12 0 6 0;
#X connect 13 0 22 0;
#X connect 13 1 21 0;
#X connect 13 2 17 0;
#X connect 15 0 16 0;
#X connect 16 0 11 1;
#X connect 17 0 19 0;
#X connect 18 0 19 0;
#X connect 19 0 15 0;
#X connect 19 1 14 0;
#X connect 20 0 13 0;
#X connect 21 0 5 0;
#X connect 22 0 23 0;
#X connect 23 0 7 0;
#X connect 23 1 18 0;
#X connect 24 0 21 0;
#X connect 25 0 26 0;
#X connect 26 0 24 0;
#X restore -141 556 pd send 1;
#N canvas 14 76 1351 688 send 0;
#X obj 79 263 outlet~;
#X obj 155 -182 t b;
#X msg 155 -108 open \$1;
#X obj 155 -155 openpanel;
#X obj 80 169 *~;
#X msg 107 -172 stop;
#X obj 324 -34 loadbang;
#X msg 324 1 \; pd dsp 1;
#X obj 81 221 *~;
#X obj 249 -165 bng 15 250 50 0 empty empty empty 17 7 0 10 -262144
-1 -1;
#X obj 69 -220 t b b b;
#X obj 275 74 switch~;
#X msg 248 82 \$1 5;
#X obj 248 111 line~;
#X msg 215 -18 1;
#X msg 247 -17 0;
#X obj 248 16 t f f;
#X obj 65 -244 bng 15 250 50 0 empty empty empty 17 7 0 10 -262144
-1 -1;
#X obj 174 -255 r \$0-send_two;
#X obj 155 -211 r \$0-loadsample_two;
#X obj 101 100 r \$0-mastervolume_two;
#X symbolatom 155 -130 10 0 0 0 - - -, f 10;
#X msg 70 -172 1;
#X obj 98 -77 readsf~;
#X obj 319 -183 symbol;
#X obj 319 -235 loadbang;
#X msg 319 -208 /home/ubuntu-studio/MAMIClibrary/samples/kick.wav;
#X connect 1 0 3 0;
#X connect 2 0 23 0;
#X connect 3 0 21 0;
#X connect 4 0 8 0;
#X connect 5 0 23 0;
#X connect 6 0 7 0;
#X connect 6 0 15 0;
#X connect 8 0 0 0;
#X connect 9 0 3 0;
#X connect 10 0 22 0;
#X connect 10 1 21 0;
#X connect 10 2 14 0;
#X connect 12 0 13 0;
#X connect 13 0 8 1;
#X connect 14 0 16 0;
#X connect 15 0 16 0;
#X connect 16 0 12 0;
#X connect 16 1 11 0;
#X connect 17 0 10 0;
#X connect 18 0 10 0;
#X connect 19 0 1 0;
#X connect 20 0 4 1;
#X connect 21 0 2 0;
#X connect 22 0 23 0;
#X connect 23 0 4 0;
#X connect 23 1 15 0;
#X connect 24 0 21 0;
#X connect 25 0 26 0;
#X connect 26 0 24 0;
#X restore -78 557 pd send 2;
#N canvas 8 76 1351 688 send 0;
#X obj 174 -255 r \$0-send_three;
#X obj 155 -211 r \$0-loadsample_three;
#X obj 261 131 r \$0-mastervolume_three;
#X obj 69 257 outlet~;
#X obj 145 -188 t b;
#X msg 145 -114 open \$1;
#X obj 145 -161 openpanel;
#X obj 70 163 *~;
#X msg 97 -178 stop;
#X obj 314 -40 loadbang;
#X msg 314 -5 \; pd dsp 1;
#X obj 71 215 *~;
#X obj 239 -171 bng 15 250 50 0 empty empty empty 17 7 0 10 -262144
-1 -1;
#X obj 59 -226 t b b b;
#X obj 265 68 switch~;
#X msg 238 76 \$1 5;
#X obj 238 105 line~;
#X msg 205 -24 1;
#X msg 237 -23 0;
#X obj 238 10 t f f;
#X obj 55 -250 bng 15 250 50 0 empty empty empty 17 7 0 10 -262144
-1 -1;
#X symbolatom 145 -136 10 0 0 0 - - -, f 10;
#X msg 60 -178 1;
#X obj 88 -83 readsf~;
#X obj 318 -181 symbol;
#X obj 318 -233 loadbang;
#X msg 318 -206 /home/ubuntu-studio/MAMIClibrary/samples/snare.aif
;
#X connect 0 0 13 0;
#X connect 1 0 4 0;
#X connect 2 0 7 1;
#X connect 4 0 6 0;
#X connect 5 0 23 0;
#X connect 6 0 21 0;
#X connect 7 0 11 0;
#X connect 8 0 23 0;
#X connect 9 0 10 0;
#X connect 9 0 18 0;
#X connect 11 0 3 0;
#X connect 12 0 6 0;
#X connect 13 0 22 0;
#X connect 13 1 21 0;
#X connect 13 2 17 0;
#X connect 15 0 16 0;
#X connect 16 0 11 1;
#X connect 17 0 19 0;
#X connect 18 0 19 0;
#X connect 19 0 15 0;
#X connect 19 1 14 0;
#X connect 20 0 13 0;
#X connect 21 0 5 0;
#X connect 22 0 23 0;
#X connect 23 0 7 0;
#X connect 23 1 18 0;
#X connect 24 0 21 0;
#X connect 25 0 26 0;
#X connect 26 0 24 0;
#X restore -14 557 pd send 3;
#N canvas 2 76 1351 688 send 0;
#X obj 173 -255 r \$0-send_four;
#X obj 155 -211 r \$0-loadsample_four;
#X obj 92 173 r \$0-mastervolume_four;
#X obj 62 339 outlet~;
#X obj 138 -106 t b;
#X msg 138 -32 open \$1;
#X obj 138 -79 openpanel;
#X obj 63 245 *~;
#X msg 90 -96 stop;
#X obj 307 42 loadbang;
#X msg 307 77 \; pd dsp 1;
#X obj 64 297 *~;
#X obj 232 -89 bng 15 250 50 0 empty empty empty 17 7 0 10 -262144
-1 -1;
#X obj 52 -144 t b b b;
#X obj 258 150 switch~;
#X msg 231 158 \$1 5;
#X obj 231 187 line~;
#X msg 198 58 1;
#X msg 230 59 0;
#X obj 231 92 t f f;
#X obj 48 -168 bng 15 250 50 0 empty empty empty 17 7 0 10 -262144
-1 -1;
#X symbolatom 138 -54 10 0 0 0 - - -, f 10;
#X msg 53 -96 1;
#X obj 81 -1 readsf~;
#X obj 328 -171 symbol;
#X obj 328 -223 loadbang;
#X msg 328 -196 /home/ubuntu-studio/MAMIClibrary/samples/highhat.wav
;
#X connect 0 0 13 0;
#X connect 1 0 4 0;
#X connect 2 0 7 1;
#X connect 4 0 6 0;
#X connect 5 0 23 0;
#X connect 6 0 21 0;
#X connect 7 0 11 0;
#X connect 8 0 23 0;
#X connect 9 0 10 0;
#X connect 9 0 18 0;
#X connect 11 0 3 0;
#X connect 12 0 6 0;
#X connect 13 0 22 0;
#X connect 13 1 21 0;
#X connect 13 2 17 0;
#X connect 15 0 16 0;
#X connect 16 0 11 1;
#X connect 17 0 19 0;
#X connect 18 0 19 0;
#X connect 19 0 15 0;
#X connect 19 1 14 0;
#X connect 20 0 13 0;
#X connect 21 0 5 0;
#X connect 22 0 23 0;
#X connect 23 0 7 0;
#X connect 23 1 18 0;
#X connect 24 0 21 0;
#X connect 25 0 26 0;
#X connect 26 0 24 0;
#X restore 56 558 pd send 4;
#N canvas 1 76 1351 688 send 0;
#X obj 17 -225 sel 1;
#X obj 17 -250 r \$0-send_five;
#X obj 163 -191 r \$0-loadsample_five;
#X obj 104 150 r \$0-mastervolume_five;
#X obj 88 281 outlet~;
#X obj 164 -164 t b;
#X msg 164 -90 open \$1;
#X obj 164 -137 openpanel;
#X obj 89 187 *~;
#X msg 116 -154 stop;
#X obj 333 -16 loadbang;
#X msg 333 19 \; pd dsp 1;
#X obj 90 239 *~;
#X obj 258 -147 bng 15 250 50 0 empty empty empty 17 7 0 10 -262144
-1 -1;
#X obj 78 -202 t b b b;
#X obj 284 92 switch~;
#X msg 257 100 \$1 5;
#X obj 257 129 line~;
#X msg 224 0 1;
#X msg 256 1 0;
#X obj 257 34 t f f;
#X obj 74 -226 bng 15 250 50 0 empty empty empty 17 7 0 10 -262144
-1 -1;
#X symbolatom 164 -112 10 0 0 0 - - -, f 10;
#X msg 79 -154 1;
#X obj 107 -59 readsf~;
#X connect 0 0 14 0;
#X connect 1 0 0 0;
#X connect 2 0 5 0;
#X connect 3 0 8 1;
#X connect 5 0 7 0;
#X connect 6 0 24 0;
#X connect 7 0 22 0;
#X connect 8 0 12 0;
#X connect 9 0 24 0;
#X connect 10 0 11 0;
#X connect 10 0 19 0;
#X connect 12 0 4 0;
#X connect 13 0 7 0;
#X connect 14 0 23 0;
#X connect 14 1 22 0;
#X connect 14 2 18 0;
#X connect 16 0 17 0;
#X connect 17 0 12 1;
#X connect 18 0 20 0;
#X connect 19 0 20 0;
#X connect 20 0 16 0;
#X connect 20 1 15 0;
#X connect 21 0 14 0;
#X connect 22 0 6 0;
#X connect 23 0 24 0;
#X connect 24 0 8 0;
#X connect 24 1 19 0;
#X restore 132 558 pd send 5;
#N canvas 1 76 1351 688 send 0;
#X obj 73 -269 r \$0-send_six;
#X obj 220 -204 r \$0-loadsample_six;
#X obj 161 137 r \$0-mastervolume_six;
#X obj 73 -241 sel 1;
#X obj 144 265 outlet~;
#X obj 220 -180 t b;
#X msg 220 -106 open \$1;
#X obj 220 -153 openpanel;
#X obj 145 171 *~;
#X msg 172 -170 stop;
#X obj 389 -32 loadbang;
#X msg 389 3 \; pd dsp 1;
#X obj 146 223 *~;
#X obj 314 -163 bng 15 250 50 0 empty empty empty 17 7 0 10 -262144
-1 -1;
#X obj 134 -218 t b b b;
#X obj 340 76 switch~;
#X msg 313 84 \$1 5;
#X obj 313 113 line~;
#X msg 280 -16 1;
#X msg 312 -15 0;
#X obj 313 18 t f f;
#X obj 130 -242 bng 15 250 50 0 empty empty empty 17 7 0 10 -262144
-1 -1;
#X symbolatom 220 -128 10 0 0 0 - - -, f 10;
#X msg 135 -170 1;
#X obj 163 -75 readsf~;
#X connect 0 0 3 0;
#X connect 1 0 5 0;
#X connect 2 0 8 1;
#X connect 3 0 14 0;
#X connect 5 0 7 0;
#X connect 6 0 24 0;
#X connect 7 0 22 0;
#X connect 8 0 12 0;
#X connect 9 0 24 0;
#X connect 10 0 11 0;
#X connect 10 0 19 0;
#X connect 12 0 4 0;
#X connect 13 0 7 0;
#X connect 14 0 23 0;
#X connect 14 1 22 0;
#X connect 14 2 18 0;
#X connect 16 0 17 0;
#X connect 17 0 12 1;
#X connect 18 0 20 0;
#X connect 19 0 20 0;
#X connect 20 0 16 0;
#X connect 20 1 15 0;
#X connect 21 0 14 0;
#X connect 22 0 6 0;
#X connect 23 0 24 0;
#X connect 24 0 8 0;
#X connect 24 1 19 0;
#X restore 201 559 pd send 6;
#N canvas 1 76 1351 688 send 0;
#X obj 32 -226 r \$0-send_seven;
#X obj 179 -163 r \$0-loadsample_seven;
#X obj 119 179 r \$0-mastervolume_seven;
#X obj 32 -200 sel 1;
#X obj 103 306 outlet~;
#X obj 179 -139 t b;
#X msg 179 -65 open \$1;
#X obj 179 -112 openpanel;
#X obj 104 212 *~;
#X msg 131 -129 stop;
#X obj 348 9 loadbang;
#X msg 348 44 \; pd dsp 1;
#X obj 105 264 *~;
#X obj 273 -122 bng 15 250 50 0 empty empty empty 17 7 0 10 -262144
-1 -1;
#X obj 93 -177 t b b b;
#X obj 299 117 switch~;
#X msg 272 125 \$1 5;
#X obj 272 154 line~;
#X msg 239 25 1;
#X msg 271 26 0;
#X obj 272 59 t f f;
#X obj 89 -201 bng 15 250 50 0 empty empty empty 17 7 0 10 -262144
-1 -1;
#X symbolatom 179 -87 10 0 0 0 - - -, f 10;
#X msg 94 -129 1;
#X obj 122 -34 readsf~;
#X connect 0 0 3 0;
#X connect 1 0 5 0;
#X connect 2 0 8 1;
#X connect 3 0 14 0;
#X connect 5 0 7 0;
#X connect 6 0 24 0;
#X connect 7 0 22 0;
#X connect 8 0 12 0;
#X connect 9 0 24 0;
#X connect 10 0 11 0;
#X connect 10 0 19 0;
#X connect 12 0 4 0;
#X connect 13 0 7 0;
#X connect 14 0 23 0;
#X connect 14 1 22 0;
#X connect 14 2 18 0;
#X connect 16 0 17 0;
#X connect 17 0 12 1;
#X connect 18 0 20 0;
#X connect 19 0 20 0;
#X connect 20 0 16 0;
#X connect 20 1 15 0;
#X connect 21 0 14 0;
#X connect 22 0 6 0;
#X connect 23 0 24 0;
#X connect 24 0 8 0;
#X connect 24 1 19 0;
#X restore 268 561 pd send 7;
#N canvas 1 76 1351 688 send 0;
#X obj 19 -223 r \$0-send_eight;
#X obj 324 -162 r \$0-loadsample_eight;
#X obj 130 176 r \$0-mastervolume_eight;
#X obj 20 -196 sel 1;
#X obj 91 310 outlet~;
#X obj 167 -135 t b;
#X msg 167 -61 open \$1;
#X obj 167 -108 openpanel;
#X obj 92 216 *~;
#X msg 119 -125 stop;
#X obj 336 13 loadbang;
#X msg 336 48 \; pd dsp 1;
#X obj 93 268 *~;
#X obj 261 -118 bng 15 250 50 0 empty empty empty 17 7 0 10 -262144
-1 -1;
#X obj 81 -173 t b b b;
#X obj 287 121 switch~;
#X msg 260 129 \$1 5;
#X obj 260 158 line~;
#X msg 227 29 1;
#X msg 259 30 0;
#X obj 260 63 t f f;
#X obj 77 -197 bng 15 250 50 0 empty empty empty 17 7 0 10 -262144
-1 -1;
#X symbolatom 167 -83 10 0 0 0 - - -, f 10;
#X msg 82 -125 1;
#X obj 110 -30 readsf~;
#X connect 0 0 3 0;
#X connect 1 0 5 0;
#X connect 2 0 8 1;
#X connect 3 0 14 0;
#X connect 5 0 7 0;
#X connect 6 0 24 0;
#X connect 7 0 22 0;
#X connect 8 0 12 0;
#X connect 9 0 24 0;
#X connect 10 0 11 0;
#X connect 10 0 19 0;
#X connect 12 0 4 0;
#X connect 13 0 7 0;
#X connect 14 0 23 0;
#X connect 14 1 22 0;
#X connect 14 2 18 0;
#X connect 16 0 17 0;
#X connect 17 0 12 1;
#X connect 18 0 20 0;
#X connect 19 0 20 0;
#X connect 20 0 16 0;
#X connect 20 1 15 0;
#X connect 21 0 14 0;
#X connect 22 0 6 0;
#X connect 23 0 24 0;
#X connect 24 0 8 0;
#X connect 24 1 19 0;
#X restore 338 563 pd send 8;
#N canvas 1 76 1351 688 send 0;
#X obj 22 -206 sel 1;
#X obj 93 300 outlet~;
#X obj 169 -145 t b;
#X msg 169 -71 open \$1;
#X obj 169 -118 openpanel;
#X obj 94 206 *~;
#X msg 121 -135 stop;
#X obj 338 3 loadbang;
#X msg 338 38 \; pd dsp 1;
#X obj 95 258 *~;
#X obj 263 -128 bng 15 250 50 0 empty empty empty 17 7 0 10 -262144
-1 -1;
#X obj 83 -183 t b b b;
#X obj 289 111 switch~;
#X msg 262 119 \$1 5;
#X obj 262 148 line~;
#X msg 229 19 1;
#X msg 261 20 0;
#X obj 262 53 t f f;
#X obj 79 -207 bng 15 250 50 0 empty empty empty 17 7 0 10 -262144
-1 -1;
#X symbolatom 169 -93 10 0 0 0 - - -, f 10;
#X msg 84 -135 1;
#X obj 112 -40 readsf~;
#X obj 22 -231 r \$0-send_nine;
#X obj 168 -172 r \$0-loadsample_nine;
#X obj 109 169 r \$0-mastervolume_nine;
#X connect 0 0 11 0;
#X connect 2 0 4 0;
#X connect 3 0 21 0;
#X connect 4 0 19 0;
#X connect 5 0 9 0;
#X connect 6 0 21 0;
#X connect 7 0 8 0;
#X connect 7 0 16 0;
#X connect 9 0 1 0;
#X connect 10 0 4 0;
#X connect 11 0 20 0;
#X connect 11 1 19 0;
#X connect 11 2 15 0;
#X connect 13 0 14 0;
#X connect 14 0 9 1;
#X connect 15 0 17 0;
#X connect 16 0 17 0;
#X connect 17 0 13 0;
#X connect 17 1 12 0;
#X connect 18 0 11 0;
#X connect 19 0 3 0;
#X connect 20 0 21 0;
#X connect 21 0 5 0;
#X connect 21 1 16 0;
#X connect 22 0 0 0;
#X connect 23 0 2 0;
#X connect 24 0 5 1;
#X restore 402 565 pd send 9;
#N canvas 1 76 1351 688 send 0;
#X obj 768 -248 sel 1;
#X obj 839 258 outlet~;
#X obj 915 -187 t b;
#X msg 915 -113 open \$1;
#X obj 915 -160 openpanel;
#X obj 840 164 *~;
#X msg 867 -177 stop;
#X obj 1084 -39 loadbang;
#X msg 1084 -4 \; pd dsp 1;
#X obj 841 216 *~;
#X obj 1009 -170 bng 15 250 50 0 empty empty empty 17 7 0 10 -262144
-1 -1;
#X obj 829 -225 t b b b;
#X obj 1035 69 switch~;
#X msg 1008 77 \$1 5;
#X obj 1008 106 line~;
#X msg 975 -23 1;
#X msg 1007 -22 0;
#X obj 1008 11 t f f;
#X obj 825 -249 bng 15 250 50 0 empty empty empty 17 7 0 10 -262144
-1 -1;
#X symbolatom 915 -135 10 0 0 0 - - -, f 10;
#X msg 830 -177 1;
#X obj 858 -82 readsf~;
#X obj 768 -273 r \$0-send_ten;
#X obj 914 -214 r \$0-loadsample_ten;
#X obj 856 127 r \$0-mastervolume_ten;
#X connect 0 0 11 0;
#X connect 2 0 4 0;
#X connect 3 0 21 0;
#X connect 4 0 19 0;
#X connect 5 0 9 0;
#X connect 6 0 21 0;
#X connect 7 0 8 0;
#X connect 7 0 16 0;
#X connect 9 0 1 0;
#X connect 10 0 4 0;
#X connect 11 0 20 0;
#X connect 11 1 19 0;
#X connect 11 2 15 0;
#X connect 13 0 14 0;
#X connect 14 0 9 1;
#X connect 15 0 17 0;
#X connect 16 0 17 0;
#X connect 17 0 13 0;
#X connect 17 1 12 0;
#X connect 18 0 11 0;
#X connect 19 0 3 0;
#X connect 20 0 21 0;
#X connect 21 0 5 0;
#X connect 21 1 16 0;
#X connect 22 0 0 0;
#X connect 23 0 2 0;
#X connect 24 0 5 1;
#X restore 473 564 pd send 10;
#N canvas 1 76 1351 688 send 0;
#X obj 783 -239 sel 1;
#X obj 854 267 outlet~;
#X obj 930 -178 t b;
#X msg 930 -104 open \$1;
#X obj 930 -151 openpanel;
#X obj 855 173 *~;
#X msg 882 -168 stop;
#X obj 1099 -30 loadbang;
#X msg 1099 5 \; pd dsp 1;
#X obj 856 225 *~;
#X obj 1024 -161 bng 15 250 50 0 empty empty empty 17 7 0 10 -262144
-1 -1;
#X obj 844 -216 t b b b;
#X obj 1050 78 switch~;
#X msg 1023 86 \$1 5;
#X obj 1023 115 line~;
#X msg 990 -14 1;
#X msg 1022 -13 0;
#X obj 1023 20 t f f;
#X obj 840 -240 bng 15 250 50 0 empty empty empty 17 7 0 10 -262144
-1 -1;
#X symbolatom 930 -126 10 0 0 0 - - -, f 10;
#X msg 845 -168 1;
#X obj 873 -73 readsf~;
#X obj 783 -264 r \$0-send_eleven;
#X obj 929 -205 r \$0-loadsample_eleven;
#X obj 870 136 r \$0-mastervolume_eleven;
#X connect 0 0 11 0;
#X connect 2 0 4 0;
#X connect 3 0 21 0;
#X connect 4 0 19 0;
#X connect 5 0 9 0;
#X connect 6 0 21 0;
#X connect 7 0 8 0;
#X connect 7 0 16 0;
#X connect 9 0 1 0;
#X connect 10 0 4 0;
#X connect 11 0 20 0;
#X connect 11 1 19 0;
#X connect 11 2 15 0;
#X connect 13 0 14 0;
#X connect 14 0 9 1;
#X connect 15 0 17 0;
#X connect 16 0 17 0;
#X connect 17 0 13 0;
#X connect 17 1 12 0;
#X connect 18 0 11 0;
#X connect 19 0 3 0;
#X connect 20 0 21 0;
#X connect 21 0 5 0;
#X connect 21 1 16 0;
#X connect 22 0 0 0;
#X connect 23 0 2 0;
#X connect 24 0 5 1;
#X restore 556 564 pd send 11;
#N canvas 1 76 1351 688 send 0;
#X obj 769 -187 sel 1;
#X obj 840 319 outlet~;
#X obj 916 -126 t b;
#X msg 916 -52 open \$1;
#X obj 916 -99 openpanel;
#X obj 841 225 *~;
#X msg 868 -116 stop;
#X obj 1085 22 loadbang;
#X msg 1085 57 \; pd dsp 1;
#X obj 842 277 *~;
#X obj 1010 -109 bng 15 250 50 0 empty empty empty 17 7 0 10 -262144
-1 -1;
#X obj 830 -164 t b b b;
#X obj 1036 130 switch~;
#X msg 1009 138 \$1 5;
#X obj 1009 167 line~;
#X msg 976 38 1;
#X msg 1008 39 0;
#X obj 1009 72 t f f;
#X obj 826 -188 bng 15 250 50 0 empty empty empty 17 7 0 10 -262144
-1 -1;
#X symbolatom 916 -74 10 0 0 0 - - -, f 10;
#X msg 831 -116 1;
#X obj 859 -21 readsf~;
#X obj 769 -212 r \$0-send_twelve;
#X obj 915 -153 r \$0-loadsample_twelve;
#X obj 856 188 r \$0-mastervolume_twelve;
#X connect 0 0 11 0;
#X connect 2 0 4 0;
#X connect 3 0 21 0;
#X connect 4 0 19 0;
#X connect 5 0 9 0;
#X connect 6 0 21 0;
#X connect 7 0 8 0;
#X connect 7 0 16 0;
#X connect 9 0 1 0;
#X connect 10 0 4 0;
#X connect 11 0 20 0;
#X connect 11 1 19 0;
#X connect 11 2 15 0;
#X connect 13 0 14 0;
#X connect 14 0 9 1;
#X connect 15 0 17 0;
#X connect 16 0 17 0;
#X connect 17 0 13 0;
#X connect 17 1 12 0;
#X connect 18 0 11 0;
#X connect 19 0 3 0;
#X connect 20 0 21 0;
#X connect 21 0 5 0;
#X connect 21 1 16 0;
#X connect 22 0 0 0;
#X connect 23 0 2 0;
#X connect 24 0 5 1;
#X restore 648 565 pd send 12;
#X connect 1 0 0 0;
#X connect 2 0 0 0;
#X connect 3 0 0 0;
#X connect 4 0 0 0;
#X connect 5 0 0 0;
#X connect 6 0 0 0;
#X connect 7 0 0 0;
#X connect 8 0 0 0;
#X connect 9 0 0 0;
#X connect 10 0 0 0;
#X connect 11 0 0 0;
#X connect 12 0 0 0;
#X restore 1661 258 pd xboxsampler;
#X obj 1662 318 outlet~;
#X obj 2581 732 sel -1 0;
#X msg 2580 768 1;
#X msg 2607 769 0;
#X obj 2566 812 s \$0-upbutton;
#X msg 2326 760 1;
#X msg 2353 761 0;
#X obj 2327 724 sel 1 0;
#X obj 2312 804 s \$0-downbutton;
#X obj 1915 724 sel -1 0;
#X msg 1912 759 1;
#X msg 1941 761 0;
#X obj 1900 804 s \$0-leftbutton;
#X msg 2069 759 1;
#X msg 2096 760 0;
#X obj 2070 723 sel 1 0;
#X obj 2055 803 s \$0-rightbutton;
#X obj 1234 490 s \$0-a;
#X obj 1275 520 s \$0-b;
#X obj 1314 547 s \$0-x;
#X obj 1359 572 s \$0-y;
#X obj 1803 168 r \$0-send-data;
#X obj 2636 707 t b b;
#X obj 2637 732 del 100;
#X obj 2636 683 r \$0-upbuttonnum;
#X obj 1972 694 t b b;
#X obj 1972 723 del 100;
#X obj 1973 668 r \$0-leftbuttonnum;
#X obj 1281 690 t b b;
#X obj 1281 714 del 100;
#X obj 2379 670 r \$0-downbuttonnum;
#X obj 2379 696 t b b;
#X obj 2379 723 del 100;
#X obj 2122 668 r \$0-rightbuttonnum;
#X obj 2122 695 t b b;
#X obj 2122 724 del 100;
#X obj 1484 652 t b b;
#X obj 1484 676 del 100;
#X obj 1280 667 r \$0-lbnum;
#X obj 1665 629 r \$0-backnum;
#X obj 1667 655 t b b;
#X obj 1667 679 del 100;
#X obj 1812 641 r \$0-startnum;
#X obj 1812 663 t b b;
#X obj 1812 687 del 100;
#X obj 1485 626 r \$0-rbnum;
#X connect 0 0 23 0;
#X connect 1 0 23 0;
#X connect 3 0 23 0;
#X connect 4 0 23 0;
#X connect 5 0 6 0;
#X connect 11 0 23 0;
#X connect 12 0 23 0;
#X connect 14 0 23 0;
#X connect 15 0 23 0;
#X connect 17 0 84 0;
#X connect 18 0 82 0;
#X connect 19 0 81 0;
#X connect 20 0 83 0;
#X connect 21 0 22 0;
#X connect 22 0 15 0;
#X connect 22 1 12 0;
#X connect 23 0 5 0;
#X connect 23 0 16 0;
#X connect 23 0 26 0;
#X connect 23 1 13 0;
#X connect 24 0 23 0;
#X connect 25 0 19 0;
#X connect 25 1 18 0;
#X connect 25 3 20 0;
#X connect 25 4 17 0;
#X connect 25 5 28 0;
#X connect 25 6 41 0;
#X connect 25 7 44 0;
#X connect 25 8 29 0;
#X connect 25 9 30 0;
#X connect 25 10 35 0;
#X connect 25 11 38 0;
#X connect 25 12 31 0;
#X connect 25 13 32 0;
#X connect 25 14 33 0;
#X connect 25 15 34 0;
#X connect 26 0 25 0;
#X connect 26 0 54 1;
#X connect 26 0 55 1;
#X connect 26 2 52 0;
#X connect 26 2 54 0;
#X connect 26 2 55 0;
#X connect 26 2 57 0;
#X connect 27 0 23 0;
#X connect 35 0 36 0;
#X connect 35 1 37 0;
#X connect 36 0 60 0;
#X connect 37 0 60 0;
#X connect 38 0 39 0;
#X connect 38 1 40 0;
#X connect 39 0 61 0;
#X connect 40 0 61 0;
#X connect 41 0 42 0;
#X connect 41 1 43 0;
#X connect 42 0 48 0;
#X connect 43 0 48 0;
#X connect 44 0 45 0;
#X connect 44 1 46 0;
#X connect 45 0 59 0;
#X connect 46 0 59 0;
#X connect 47 0 3 0;
#X connect 52 0 73 0;
#X connect 52 0 79 0;
#X connect 52 1 65 0;
#X connect 52 1 71 0;
#X connect 57 0 49 0;
#X connect 57 1 50 0;
#X connect 58 0 62 0;
#X connect 63 0 64 0;
#X connect 65 0 66 0;
#X connect 65 1 67 0;
#X connect 66 0 68 0;
#X connect 67 0 68 0;
#X connect 69 0 72 0;
#X connect 70 0 72 0;
#X connect 71 0 69 0;
#X connect 71 1 70 0;
#X connect 73 0 74 0;
#X connect 73 1 75 0;
#X connect 74 0 76 0;
#X connect 75 0 76 0;
#X connect 77 0 80 0;
#X connect 78 0 80 0;
#X connect 79 0 77 0;
#X connect 79 1 78 0;
#X connect 85 0 4 0;
#X connect 86 0 87 0;
#X connect 86 1 66 0;
#X connect 87 0 67 0;
#X connect 88 0 86 0;
#X connect 89 0 90 0;
#X connect 89 1 74 0;
#X connect 90 0 75 0;
#X connect 91 0 89 0;
#X connect 92 0 93 0;
#X connect 92 1 42 0;
#X connect 93 0 43 0;
#X connect 94 0 95 0;
#X connect 95 0 96 0;
#X connect 95 1 69 0;
#X connect 96 0 70 0;
#X connect 97 0 98 0;
#X connect 98 0 99 0;
#X connect 98 1 77 0;
#X connect 99 0 78 0;
#X connect 100 0 101 0;
#X connect 100 1 45 0;
#X connect 101 0 46 0;
#X connect 102 0 92 0;
#X connect 103 0 104 0;
#X connect 104 0 105 0;
#X connect 104 1 36 0;
#X connect 105 0 37 0;
#X connect 106 0 107 0;
#X connect 107 0 108 0;
#X connect 107 1 39 0;
#X connect 108 0 40 0;
#X connect 109 0 100 0;
#X restore 1244 18 pd engine;
#X obj 1245 52 outlet~;
#X obj 1294 53 outlet;
#X obj 1339 53 outlet;
#X floatatom 511 31 2 0 16 0 - #0-inputseq_two #0-sequencenumber_two
, f 2;
#X text 524 31 Seq Number;
#X floatatom 622 32 2 0 16 0 - #0-inputseq_three #0-sequencenumber_three
, f 2;
#X text 635 32 Seq Number;
#X floatatom 730 33 2 0 16 0 - #0-inputseq_five #0-sequencenumber_five
, f 2;
#X text 743 33 Seq Number;
#X floatatom 842 34 2 0 16 0 - #0-inputseq_six #0-sequencenumber_six
, f 2;
#X text 855 34 Seq Number;
#X floatatom 948 34 2 0 16 0 - #0-inputseq_nine #0-sequencenumber_nine
, f 2;
#X text 961 34 Seq Number;
#X floatatom 1059 35 2 0 16 0 - #0-inputseq_eleven #0-sequencenumber_eleven
, f 2;
#X text 1072 35 Seq Number;
#X floatatom 511 110 2 0 16 0 - #0-inputseq_one #0-sequencenumber_one
, f 2;
#X text 524 110 Seq Number;
#X floatatom 622 110 2 0 16 0 - #0-inputseq_four #0-sequencenumber_four
, f 2;
#X text 635 110 Seq Number;
#X floatatom 729 112 2 0 16 0 - #0-inputseq_seven #0-sequencenumber_seven
, f 2;
#X text 742 112 Seq Number;
#X floatatom 840 112 2 0 16 0 - #0-inputseq_eight #0-sequencenumber_eight
, f 2;
#X text 853 112 Seq Number;
#X floatatom 947 113 2 0 16 0 - #0-inputseq_ten #0-sequencenumber_ten
, f 2;
#X text 960 113 Seq Number;
#X floatatom 1058 113 2 0 16 0 - #0-inputseq_twelve #0-sequencenumber_twelve
, f 2;
#X text 1071 113 Seq Number;
#X obj 1390 53 outlet;
#N canvas 1 76 1351 688 xbox_sequence_number 0;
#X obj 115 433 outlet;
#X obj 307 30 r \$0-sequencenumber_two;
#X obj 132 32 r \$0-sequencenumber_one;
#X obj 487 31 r \$0-sequencenumber_three;
#X obj 672 32 r \$0-sequencenumber_four;
#X obj 117 61 f;
#X obj 292 58 f;
#X obj 472 59 f;
#X obj 657 59 f;
#X obj 117 7 r \$0-send_one;
#X obj 292 7 r \$0-send_two;
#X obj 471 8 r \$0-send_three;
#X obj 657 8 r \$0-send_four;
#X obj 185 177 f;
#X obj 360 174 f;
#X obj 540 175 f;
#X obj 725 175 f;
#X obj 153 110 r \$0-send_five;
#X obj 200 148 r \$0-sequencenumber_five;
#X obj 360 81 r \$0-send_six;
#X obj 375 146 r \$0-sequencenumber_six;
#X obj 540 85 r \$0-send_seven;
#X obj 555 147 r \$0-sequencenumber_seven;
#X obj 725 84 r \$0-send_eight;
#X obj 740 148 r \$0-sequencenumber_eight;
#X obj 217 281 f;
#X obj 392 278 f;
#X obj 572 279 f;
#X obj 757 279 f;
#X obj 217 186 r \$0-send_nine;
#X obj 232 252 r \$0-sequencenumber_nine;
#X obj 392 186 r \$0-send_ten;
#X obj 407 250 r \$0-sequencenumber_ten;
#X obj 571 185 r \$0-send_eleven;
#X obj 587 251 r \$0-sequencenumber_eleven;
#X obj 757 188 r \$0-send_twelve;
#X obj 772 252 r \$0-sequencenumber_twelve;
#X msg 153 153 bang;
#X obj 153 132 sel 1;
#X msg 360 125 bang;
#X obj 360 104 sel 1;
#X msg 540 127 bang;
#X obj 540 106 sel 1;
#X msg 725 127 bang;
#X obj 725 106 sel 1;
#X msg 217 229 bang;
#X obj 217 208 sel 1;
#X msg 392 229 bang;
#X obj 392 208 sel 1;
#X msg 571 228 bang;
#X obj 571 207 sel 1;
#X msg 757 232 bang;
#X obj 757 211 sel 1;
#X connect 1 0 6 1;
#X connect 2 0 5 1;
#X connect 3 0 7 1;
#X connect 4 0 8 1;
#X connect 5 0 0 0;
#X connect 6 0 0 0;
#X connect 7 0 0 0;
#X connect 8 0 0 0;
#X connect 9 0 5 0;
#X connect 10 0 6 0;
#X connect 11 0 7 0;
#X connect 12 0 8 0;
#X connect 13 0 0 0;
#X connect 14 0 0 0;
#X connect 15 0 0 0;
#X connect 16 0 0 0;
#X connect 17 0 38 0;
#X connect 18 0 13 1;
#X connect 19 0 40 0;
#X connect 20 0 14 1;
#X connect 21 0 42 0;
#X connect 22 0 15 1;
#X connect 23 0 44 0;
#X connect 24 0 16 1;
#X connect 25 0 0 0;
#X connect 26 0 0 0;
#X connect 27 0 0 0;
#X connect 28 0 0 0;
#X connect 29 0 46 0;
#X connect 30 0 25 1;
#X connect 31 0 48 0;
#X connect 32 0 26 1;
#X connect 33 0 50 0;
#X connect 34 0 27 1;
#X connect 35 0 52 0;
#X connect 36 0 28 1;
#X connect 37 0 13 0;
#X connect 38 0 37 0;
#X connect 39 0 14 0;
#X connect 40 0 39 0;
#X connect 41 0 15 0;
#X connect 42 0 41 0;
#X connect 43 0 16 0;
#X connect 44 0 43 0;
#X connect 45 0 25 0;
#X connect 46 0 45 0;
#X connect 47 0 26 0;
#X connect 48 0 47 0;
#X connect 49 0 27 0;
#X connect 50 0 49 0;
#X connect 51 0 28 0;
#X connect 52 0 51 0;
#X restore 1390 18 pd xbox_sequence_number;
#X connect 91 0 92 0;
#X connect 91 1 93 0;
#X connect 91 2 94 0;
#X connect 120 0 119 0;
#X restore 1662 425 pd \$0-xboxstuff;
#X msg 1922 626 \; \$1 vis 1;
#X obj 1922 572 f;
#X obj 1923 600 makefilename pd-%d-xboxstuff;
#X obj 2098 573 f;
#X obj 2099 601 makefilename pd-%d-xboxstuff;
#X msg 2099 627 \; \$1 vis 0;
#X obj 1662 452 outlet~;
#X obj 1712 452 outlet;
#X obj 1757 452 outlet;
#X text 1661 347 Audio Output;
#X text 1740 347 LT;
#X text 1822 347 RT;
#N canvas 0 24 1366 695 statesave 0;
#X obj 210 -23 r \$0-mastervolume;
#X obj 211 46 r \$0-mastervolume_two;
#X obj 257 114 r \$0-mastervolume_three;
#X obj 249 185 r \$0-mastervolume_four;
#X text 386 177 Volume Levels;
#X obj 254 247 r \$0-mastervolume_five;
#X obj 293 311 r \$0-mastervolume_six;
#X obj 272 380 r \$0-mastervolume_seven;
#X obj 244 447 r \$0-mastervolume_eight;
#X obj 88 32 s \$0-mastervolume_r;
#X obj 89 101 s \$0-mastervolume_two_r;
#X obj 91 166 s \$0-mastervolume_three_r;
#X obj 92 235 s \$0-mastervolume_four_r;
#X obj 92 297 s \$0-mastervolume_five_r;
#X obj 93 364 s \$0-mastervolume_six_r;
#X obj 94 430 s \$0-mastervolume_seven_r;
#X obj 96 500 s \$0-mastervolume_eight_r;
#X obj 244 538 r \$0-mastervolume_nine;
#X obj 96 591 s \$0-mastervolume_nine_r;
#X obj 612 288 r \$0-mastervolume_ten;
#X obj 434 338 s \$0-mastervolume_ten_r;
#X obj 584 355 r \$0-mastervolume_eleven;
#X obj 436 408 s \$0-mastervolume_eleven_r;
#X obj 584 446 r \$0-mastervolume_twelve;
#X obj 436 499 s \$0-mastervolume_twelve_r;
#X obj 87 1 sssad \$1/vol1;
#X obj 88 70 sssad \$1/vol2;
#X obj 90 135 sssad \$1/vol3;
#X obj 91 204 sssad \$1/vol4;
#X obj 91 266 sssad \$1/vol5;
#X obj 92 335 sssad \$1/vol6;
#X obj 94 400 sssad \$1/vol7;
#X obj 95 469 sssad \$1/vol8;
#X obj 95 560 sssad \$1/vol9;
#X obj 434 308 sssad \$1/vol10;
#X obj 435 377 sssad \$1/vol11;
#X obj 435 468 sssad \$1/vol12;
#X text 843 -28 Sequence Numbers;
#X obj 837 5 sssad \$1/seq1;
#X obj 959 -20 r \$0-sequencenumber_one;
#X obj 837 35 s \$0-inputseq_one;
#X obj 960 35 r \$0-sequencenumber_two;
#X obj 837 59 sssad \$1/seq2;
#X obj 837 89 s \$0-inputseq_two;
#X obj 837 120 sssad \$1/seq3;
#X obj 958 94 r \$0-sequencenumber_three;
#X obj 836 149 s \$0-inputseq_three;
#X obj 959 149 r \$0-sequencenumber_four;
#X obj 836 203 s \$0-inputseq_four;
#X obj 836 173 sssad \$1/seq4;
#X obj 837 237 sssad \$1/seq5;
#X obj 960 213 r \$0-sequencenumber_five;
#X obj 837 267 s \$0-inputseq_five;
#X obj 838 294 sssad \$1/seq6;
#X obj 961 270 r \$0-sequencenumber_six;
#X obj 838 324 s \$0-inputseq_six;
#X obj 839 355 sssad \$1/seq7;
#X obj 962 331 r \$0-sequencenumber_seven;
#X obj 839 385 s \$0-inputseq_seven;
#X obj 838 530 sssad \$1/seq7;
#X obj 839 415 sssad \$1/seq8;
#X obj 962 391 r \$0-sequencenumber_eight;
#X obj 839 445 s \$0-inputseq_eight;
#X obj 966 448 r \$0-sequencenumber_nine;
#X obj 838 473 sssad \$1/seq9;
#X obj 838 503 s \$0-inputseq_nine;
#X obj 961 506 r \$0-sequencenumber_ten;
#X obj 838 530 sssad \$1/seq10;
#X obj 838 560 s \$0-inputseq_ten;
#X obj 838 587 sssad \$1/seq11;
#X obj 963 567 r \$0-sequencenumber_eleven;
#X obj 838 617 s \$0-inputseq_eleven;
#X obj 1031 595 sssad \$1/seq12;
#X obj 1156 575 r \$0-sequencenumber_twelve;
#X obj 1031 625 s \$0-inputseq_twelve;
#X connect 0 0 25 1;
#X connect 1 0 26 1;
#X connect 2 0 27 1;
#X connect 3 0 28 1;
#X connect 5 0 29 1;
#X connect 6 0 30 1;
#X connect 7 0 31 1;
#X connect 8 0 32 1;
#X connect 17 0 33 1;
#X connect 19 0 34 1;
#X connect 21 0 35 1;
#X connect 23 0 36 1;
#X connect 25 0 9 0;
#X connect 26 0 10 0;
#X connect 27 0 11 0;
#X connect 28 0 12 0;
#X connect 29 0 13 0;
#X connect 30 0 14 0;
#X connect 31 0 15 0;
#X connect 32 0 16 0;
#X connect 33 0 18 0;
#X connect 34 0 20 0;
#X connect 35 0 22 0;
#X connect 36 0 24 0;
#X connect 38 0 40 0;
#X connect 39 0 38 1;
#X connect 41 0 42 1;
#X connect 42 0 43 0;
#X connect 44 0 46 0;
#X connect 45 0 44 1;
#X connect 47 0 49 1;
#X connect 49 0 48 0;
#X connect 50 0 52 0;
#X connect 51 0 50 1;
#X connect 53 0 55 0;
#X connect 54 0 53 1;
#X connect 56 0 58 0;
#X connect 57 0 56 1;
#X connect 60 0 62 0;
#X connect 61 0 60 1;
#X connect 63 0 64 1;
#X connect 64 0 65 0;
#X connect 66 0 67 1;
#X connect 67 0 68 0;
#X connect 69 0 71 0;
#X connect 70 0 69 1;
#X connect 72 0 74 0;
#X connect 73 0 72 1;
#X restore 1670 526 pd statesave;
#X msg 1644 44 open /home/ubuntu-studio/MAMIClibrary/images/controller.png
;
#X obj 1801 450 outlet;
#X text 1853 346 Seq Output;
#X obj 981 127 inlet seqinput;
#X obj 1259 394 print -n;
#X text 1031 526 Sequencer Number Input for Seq Input Inlet;
#X obj 981 159 sel 1 2 3 4 5 6 7 8 9 10 11 12;
#X msg 1259 364 I only accept numbers between 1 & 12;
#X obj 980 194 s \$0-y;
#X obj 996 218 s \$0-b;
#X obj 1010 247 s \$0-a;
#X obj 1025 276 s \$0-x;
#X obj 1039 311 s \$0-upbuttonnum;
#X obj 1058 339 s \$0-leftbuttonnum;
#X obj 1069 367 s \$0-downbuttonnum;
#X obj 1088 397 s \$0-rightbuttonnum;
#X obj 1101 426 s \$0-lbnum;
#X obj 1116 454 s \$0-backnum;
#X obj 1129 482 s \$0-startnum;
#X obj 1145 507 s \$0-rbnum;
#X text 1660 258 Seq Input;
#X obj 1729 99 s \$0-mastervolume_two_r;
#X msg 1729 69 0.5;
#X obj 1876 99 s \$0-mastervolume_three_r;
#X obj 2037 99 s \$0-mastervolume_four_r;
#X obj 1731 124 s \$0-mastervolume_five_r;
#X obj 1887 124 s \$0-mastervolume_six_r;
#X obj 2040 124 s \$0-mastervolume_seven_r;
#X obj 1729 150 s \$0-mastervolume_eight_r;
#X obj 1892 151 s \$0-mastervolume_r;
#X text 2095 71 Preset Volumes;
#X obj 2042 152 s \$0-mastervolume_nine_r;
#X obj 1733 178 s \$0-mastervolume_ten_r;
#X obj 1889 179 s \$0-mastervolume_eleven_r;
#X obj 2055 180 s \$0-mastervolume_twelve_r;
#X connect 0 0 6 0;
#X connect 1 0 0 0;
#X connect 2 0 1 0;
#X connect 3 0 2 0;
#X connect 3 0 23 0;
#X connect 3 0 45 0;
#X connect 4 0 5 0;
#X connect 6 0 11 0;
#X connect 6 1 13 0;
#X connect 7 0 8 0;
#X connect 8 0 11 1;
#X connect 8 0 13 1;
#X connect 9 0 16 0;
#X connect 9 1 17 0;
#X connect 9 2 18 0;
#X connect 9 3 24 0;
#X connect 11 0 12 0;
#X connect 12 0 10 0;
#X connect 13 0 14 0;
#X connect 14 0 15 0;
#X connect 23 0 0 0;
#X connect 26 0 29 0;
#X connect 29 0 31 0;
#X connect 29 1 32 0;
#X connect 29 2 33 0;
#X connect 29 3 34 0;
#X connect 29 4 35 0;
#X connect 29 5 36 0;
#X connect 29 6 37 0;
#X connect 29 7 38 0;
#X connect 29 8 39 0;
#X connect 29 9 40 0;
#X connect 29 10 41 0;
#X connect 29 11 42 0;
#X connect 29 12 30 0;
#X connect 30 0 27 0;
#X connect 45 0 44 0;
#X connect 45 0 52 0;
#X connect 45 0 51 0;
#X connect 45 0 50 0;
#X connect 45 0 49 0;
#X connect 45 0 48 0;
#X connect 45 0 47 0;
#X connect 45 0 46 0;
#X connect 45 0 55 0;
#X connect 45 0 57 0;
#X connect 45 0 56 0;
#X connect 45 0 54 0;
#X coords 0 -1 1 1 259 114 2 1658 254;
