#N canvas 0 24 1366 695 10;
#X obj 14 269 voicesout chords;
#X obj 821 246 voicesout melody;
#N canvas 0 24 1366 695 engine 0;
#X text 685 33 load;
#X obj 718 258 textfile;
#X obj 718 288 s SSSAD;
#X obj 718 200 until;
#X msg 718 179 100;
#X msg 662 241 print;
#X text 713 310 also received inside sssad;
#X obj 786 285 s SSSAD_ADMIN;
#X msg 786 260 set;
#X obj 718 156 t b a;
#X msg 765 201 read \$1 \, rewind;
#X text 750 179 Avoid loops. A bang normally also works.;
#X obj 718 133 symbol;
#X text 672 335 Hint: get creative with the [OSCroute] external!;
#X obj 719 56 loadbang;
#X msg 718 82 /home/ubuntu-studio/MAMIClibrary/demosongs/twinkletwinkle.txt
;
#X connect 1 0 2 0;
#X connect 1 1 3 1;
#X connect 1 1 8 0;
#X connect 3 0 1 0;
#X connect 4 0 3 0;
#X connect 5 0 1 0;
#X connect 8 0 7 0;
#X connect 9 0 4 0;
#X connect 9 1 10 0;
#X connect 10 0 1 0;
#X connect 12 0 9 0;
#X connect 14 0 15 0;
#X connect 15 0 12 0;
#X restore 1291 662 pd engine;
#X obj 14 117 makechord 1;
#X obj 277 117 makechord 2;
#X obj 543 117 makechord 3;
#X obj 14 -2 conductor chords;
#X obj 821 -1 conductor melody;
#X obj 821 123 majorscale melody;
#X connect 3 0 0 0;
#X connect 4 0 0 0;
#X connect 5 0 0 0;
#X connect 6 0 3 0;
#X connect 6 0 4 0;
#X connect 6 0 5 0;
#X connect 7 0 8 0;
#X connect 8 0 1 0;
