#N canvas 0 74 1366 694 10;
#X obj 1065 60 opensave;
#X obj 251 173 days1 1;
#X obj 513 173 days1 2;
#X obj 778 172 days1 3;
#X obj 251 301 makechord 1;
#X obj 523 301 makechord 2;
#X obj 796 301 makechord 3;
#X obj 515 10 conductor 1;
#X obj 251 436 voicesout 1;
#X obj 526 436 voicesout 2;
#X obj 802 436 voicesout 3;
#X connect 1 0 4 0;
#X connect 2 1 5 0;
#X connect 3 2 6 0;
#X connect 4 0 8 0;
#X connect 5 0 9 0;
#X connect 6 0 10 0;
#X connect 7 0 1 0;
#X connect 7 0 2 0;
#X connect 7 0 3 0;
